<?xml version="1.0" encoding="UTF-8"?><svg id="Layer_1" xmlns="http://www.w3.org/2000/svg" width="38" height="32" viewBox="0 0 38 32"><defs><style>.cls-1{fill:#f7931a;}.cls-1,.cls-2{stroke-width:0px;}.cls-2{fill:#fff;}</style></defs><path class="cls-1" d="M33.29,19.56c-1.97,7.89-9.96,12.69-17.85,10.72-7.89-1.97-12.69-9.96-10.72-17.85C6.68,4.55,14.67-.25,22.56,1.71c7.89,1.97,12.69,9.96,10.72,17.85h0Z"/><path class="cls-2" d="M25.49,13.9c.29-1.96-1.2-3.01-3.24-3.72l.66-2.65-1.62-.4-.64,2.58c-.42-.11-.86-.21-1.29-.3l.65-2.6-1.62-.4-.66,2.65c-.35-.08-.7-.16-1.03-.24h0s-2.23-.56-2.23-.56l-.43,1.73s1.2.27,1.17.29c.65.16.77.6.75.94l-.76,3.04-1.06,4.24c-.08.2-.28.5-.74.38.02.02-1.17-.29-1.17-.29l-.8,1.85,2.1.52c.39.1.77.2,1.15.3l-.67,2.69,1.61.4.66-2.66c.44.12.87.23,1.29.33l-.66,2.64,1.62.4.67-2.68c2.76.52,4.83.31,5.7-2.18.7-2.01-.03-3.16-1.48-3.92,1.06-.24,1.85-.94,2.06-2.37h0ZM21.8,19.08c-.5,2.01-3.88.92-4.97.65l.89-3.56c1.1.27,4.61.81,4.09,2.91h0ZM22.3,13.87c-.46,1.83-3.27.9-4.18.67l.8-3.23c.91.23,3.85.65,3.38,2.56Z"/></svg>