<?xml version="1.0" encoding="UTF-8"?><svg id="Layer_1" xmlns="http://www.w3.org/2000/svg" width="74" height="31.82" viewBox="0 0 74 31.82"><defs><style>.cls-1{fill:#fff;}.cls-1,.cls-2,.cls-3{fill-rule:evenodd;stroke-width:0px;}.cls-2{fill:#ff0007;}.cls-3{fill:#000268;}</style></defs><g id="layer1"><path id="_92653320" class="cls-3" d="M0,5.71C0,2.56,2.57,0,5.74,0h62.53c3.17,0,5.74,2.56,5.74,5.71v20.4c0,3.15-2.57,5.71-5.74,5.71H5.74c-3.17,0-5.74-2.56-5.74-5.71V5.71h0Z"/><path id="_92186184" class="cls-1" d="M2.35,5.9v20.01c0,1.97,1.61,3.57,3.59,3.57h32.76V2.34H5.94c-1.98,0-3.59,1.6-3.59,3.57h0ZM47.16,15.81c0,1.27-.63,2.15-1.67,2.15-.92,0-1.69-.88-1.69-2.04s.68-2.09,1.69-2.09c1.08,0,1.67.92,1.67,1.98ZM41.04,23.12h2.76v-4.35h.03c.52.95,1.57,1.31,2.54,1.31,2.38,0,3.65-1.96,3.65-4.33,0-1.93-1.21-4.04-3.42-4.04-1.26,0-2.43.51-2.98,1.63h-.03v-1.44h-2.55v11.22ZM53.79,17.36c0-.77.74-1.06,1.67-1.06.41,0,.81.03,1.17.05,0,.94-.66,1.89-1.71,1.89-.64,0-1.14-.32-1.14-.88ZM59.37,19.9c-.12-.63-.15-1.26-.15-1.89v-2.98c0-2.44-1.76-3.32-3.81-3.32-1.18,0-2.21.17-3.19.57l.05,1.87c.77-.43,1.66-.6,2.55-.6,1,0,1.81.29,1.83,1.38-.35-.06-.85-.11-1.29-.11-1.47,0-4.13.29-4.13,2.73,0,1.74,1.41,2.52,2.99,2.52,1.14,0,1.9-.44,2.53-1.44h.03c0,.42.05.83.06,1.26h2.53ZM60.61,23.12c.57.12,1.14.19,1.72.19,2.53,0,3.13-1.95,3.92-3.96l2.93-7.45h-2.76l-1.64,5.22h-.03l-1.72-5.22h-2.98l3.24,8.18c-.2.71-.72,1.11-1.4,1.11-.39,0-.72-.05-1.09-.17l-.18,2.1Z"/><path id="_47303032" class="cls-2" d="M9.1,15.83c0-1.09.54-2,1.57-2,1.24,0,1.76,1,1.76,1.89,0,1.23-.78,2.06-1.76,2.06-.83,0-1.57-.71-1.57-1.95ZM15.11,11.9h-2.5v1.44h-.03c-.59-.98-1.54-1.63-2.72-1.63-2.49,0-3.61,1.78-3.61,4.16s1.37,4.02,3.56,4.02c1.11,0,2.03-.43,2.69-1.37h.03v.43c0,1.57-.86,2.32-2.46,2.32-1.15,0-1.86-.25-2.7-.66l-.14,2.18c.64.23,1.73.51,3.06.51,3.22,0,4.82-1.06,4.82-4.35v-7.06ZM19.78,8.57h-2.76v2.03h2.76v-2.03ZM17.02,19.9h2.76v-8h-2.76v8ZM27.48,11.8c-.28-.05-.61-.09-.94-.09-1.2,0-1.89.65-2.36,1.66h-.03v-1.47h-2.52v8h2.76v-3.38c0-1.57.72-2.5,2.01-2.5.32,0,.63,0,.94.09l.14-2.3ZM32.23,18.15c-1.27,0-1.8-1.06-1.8-2.24s.52-2.26,1.8-2.26,1.8,1.06,1.8,2.26-.52,2.24-1.8,2.24ZM32.23,20.08c2.64,0,4.65-1.53,4.65-4.18s-2.01-4.19-4.65-4.19-4.65,1.54-4.65,4.19,2.01,4.18,4.65,4.18Z"/></g></svg>