<svg width="53" height="40" viewBox="0 0 53 40" fill="none" xmlns="http://www.w3.org/2000/svg">
<path d="M30.6524 12.1529H21.9062V27.8422H30.6524V12.1529Z" fill="#FF5F00"/>
<path d="M22.4626 19.9993C22.4614 18.4885 22.8045 16.9974 23.4659 15.6385C24.1274 14.2797 25.0898 13.0888 26.2803 12.1561C24.8058 10.9993 23.0349 10.28 21.17 10.0804C19.3053 9.88069 17.4219 10.2087 15.735 11.027C14.0482 11.8452 12.626 13.1207 11.631 14.7075C10.636 16.2944 10.1084 18.1287 10.1084 20.0007C10.1084 21.8727 10.636 23.707 11.631 25.2939C12.626 26.8808 14.0482 28.1562 15.735 28.9745C17.4219 29.7927 19.3053 30.1207 21.17 29.921C23.0349 29.7214 24.8058 29.0021 26.2803 27.8453C25.0894 26.9123 24.1268 25.7209 23.4653 24.3616C22.8039 23.0022 22.4609 21.5105 22.4626 19.9993Z" fill="#EB001B"/>
<path d="M42.4542 20.002C42.4542 21.8742 41.9265 23.7087 40.9313 25.2956C39.9362 26.8825 38.5137 28.1579 36.8267 28.9761C35.1395 29.7941 33.2559 30.122 31.3911 29.922C29.5262 29.7221 27.7553 29.0024 26.2808 27.8453C27.4709 26.9117 28.4331 25.7205 29.0947 24.3616C29.7563 23.0027 30.1 21.5116 30.1 20.0007C30.1 18.4897 29.7563 16.9986 29.0947 15.6397C28.4331 14.2808 27.4709 13.0896 26.2808 12.1561C27.7554 10.9988 29.5266 10.2791 31.3918 10.0793C33.2569 9.87941 35.1408 10.2075 36.8279 11.0259C38.5151 11.8444 39.9374 13.1202 40.9324 14.7076C41.9273 16.2948 42.4547 18.1296 42.4542 20.002Z" fill="#F79E1B"/>
</svg>
