<svg width="108" height="36" viewBox="0 0 108 36" fill="none" xmlns="http://www.w3.org/2000/svg">
<path d="M30.8352 15.6601C30.8843 15.7255 30.9289 15.7943 30.9686 15.8658C30.8609 15.4142 30.6961 14.9782 30.478 14.5683C28.6809 11.2724 23.6805 12.258 18.6937 15.9947C17.3802 16.9769 16.2001 18.1258 15.1831 19.4126C15.787 19.7762 16.3634 20.1835 16.9079 20.6311C17.2397 20.8728 17.5913 21.0861 17.9591 21.2686C18.2755 20.9023 18.6056 20.5422 18.9492 20.188C23.3912 15.6126 29.0448 13.2775 30.8352 15.6601Z" fill="url(#paint0_linear_31117_199)"/>
<path d="M18.6254 16.1782C23.5987 12.4144 28.59 11.3994 30.4029 14.6863C30.5609 14.9747 30.6911 15.2774 30.7917 15.5905C30.7973 15.599 30.8042 15.6067 30.8121 15.6131C30.8604 15.679 30.905 15.7477 30.9455 15.8188C30.8353 15.368 30.669 14.9328 30.4504 14.5235C28.642 11.2366 23.6416 12.2516 18.6706 16.0155C16.8472 17.385 15.2948 19.0822 14.093 21.0203C14.1035 21.0318 14.1133 21.0439 14.1224 21.0565C15.3143 19.1702 16.8403 17.517 18.6254 16.1782Z" fill="url(#paint1_linear_31117_199)"/>
<path d="M17.2243 19.4306C16.7722 19.0418 16.2974 18.6756 15.8679 18.2551C15.0027 19.2778 14.0471 20.2204 13.0129 21.0718C8.56408 24.7474 3.76944 25.9659 2.30686 23.7844C2.28425 23.7505 2.26391 23.7144 2.24356 23.6805C1.96321 23.2656 1.75317 22.8073 1.62191 22.3241C1.3781 21.4065 1.39375 20.4393 1.66712 19.5301C0.988955 20.9045 0.799068 22.2631 1.23083 23.425C2.36111 26.4949 7.4112 27.0125 12.4975 24.5802C14.8665 23.4499 16.8242 21.8675 18.1285 20.2015C17.8256 19.9438 17.5294 19.677 17.2243 19.4306Z" fill="url(#paint2_linear_31117_199)"/>
<path d="M2.28673 18.4601C2.13416 18.6984 1.9695 18.9299 1.83378 19.1789C1.7735 19.2919 1.72224 19.4209 1.66497 19.5339C1.3916 20.4431 1.37595 21.4104 1.61976 22.328C1.75102 22.8112 1.96106 23.2694 2.24142 23.6843C1.85696 23.004 1.65234 22.2368 1.64689 21.4554C1.65687 20.3875 2.16052 19.1295 2.79647 18.0562C3.14007 17.5011 2.35385 18.4077 2.28673 18.4601Z" fill="url(#paint3_linear_31117_199)"/>
<path d="M30.1389 14.0436C33.8394 21.0514 25.4166 24.3337 20.9972 19.5006C19.1435 17.17 18.9288 15.9945 17.7669 14.8009C12.7936 9.97463 5.64348 12.9744 1.92261 19.0236C2.41767 18.4314 5.5621 14.8439 10.1352 15.4068C13.6707 15.8589 14.2472 20.38 19.4758 23.0452C25.4098 26.0834 36.0774 21.9805 30.1389 14.0436Z" fill="url(#paint4_linear_31117_199)"/>
<path opacity="0.57" d="M19.6326 22.8642C14.4039 20.1922 13.8252 15.6666 10.292 15.2258C5.92911 14.6742 2.86606 17.9204 2.16528 18.7432C3.09211 17.7214 6.03988 14.9003 10.1337 15.4134C13.6693 15.8542 14.2457 20.3866 19.4744 23.0496C23.15 24.9258 28.6364 24.0668 30.8744 21.2547C28.546 23.9176 23.2224 24.6975 19.6326 22.8642Z" fill="url(#paint5_linear_31117_199)"/>
<path d="M30.3196 14.2951C30.2609 14.2115 30.2021 14.1278 30.1388 14.0442C33.7557 20.9027 25.7578 24.1986 21.2751 19.7883C25.6991 24.332 33.7896 21.113 30.3196 14.2951Z" fill="url(#paint6_linear_31117_199)"/>
<path d="M48.924 12.8546C48.9897 12.8683 49.054 12.888 49.1161 12.9134C49.23 12.9625 49.3272 13.0435 49.3962 13.1465C49.4652 13.2496 49.5029 13.3704 49.505 13.4943V24.0353C49.505 24.7542 48.5555 24.7542 48.1012 24.7542C47.6468 24.7542 46.6996 24.7542 46.6996 24.0353V17.925C46.4464 18.3425 46.078 19.0063 45.5942 19.9166C45.1104 20.8268 44.803 21.3972 44.6719 21.6278L44.4006 22.1025C44.2754 22.2703 44.1225 22.4155 43.9485 22.532C43.8708 22.5929 43.7816 22.6375 43.6863 22.6632C43.3009 22.7517 42.8961 22.6886 42.556 22.4868C42.397 22.3746 42.2606 22.2335 42.1536 22.0709L42.0338 21.8448C41.8304 21.5073 41.4318 20.7892 40.838 19.6905C40.4107 18.9016 40.0242 18.2732 39.8207 17.9522V24.0285C39.8207 24.7474 38.869 24.7474 38.4169 24.7474C38.1985 24.7495 37.9801 24.7359 37.7636 24.7067C37.1126 24.6072 37.0154 24.2388 37.0154 24.0285V13.4921C37.0176 13.3678 37.0557 13.2469 37.1251 13.1438C37.1945 13.0407 37.2922 12.9599 37.4065 12.9111C37.5381 12.8613 37.6756 12.8286 37.8156 12.8139C38.4056 12.7122 39.4884 12.7031 39.8501 13.0038L39.8727 13.0219C39.9434 13.0855 40.001 13.1623 40.0423 13.2479L40.0536 13.2728L43.1664 18.2664C44.1869 16.5374 45.3039 14.8673 46.512 13.2638C46.5523 13.1787 46.6083 13.102 46.677 13.0377L46.6996 13.0174C47.1155 12.6783 48.4041 12.7212 48.924 12.8546Z" fill="#2D9DD3"/>
<path d="M52.5228 24.8762C52.0707 24.8762 51.119 24.8762 51.119 24.1574V17.43C51.119 16.7111 52.0661 16.7111 52.5228 16.7111C52.9794 16.7111 53.9243 16.7111 53.9243 17.43V24.1574C53.9243 24.8762 52.9771 24.8762 52.5228 24.8762Z" fill="#2D9DD3"/>
<path d="M56.9964 24.8762C56.5443 24.8762 55.5994 24.8762 55.5994 24.1574V13.6187C55.5994 12.9441 56.3756 12.9204 56.8933 12.9046L56.9015 12.9043H62.7789C63.2017 12.9043 63.6967 13.2502 63.6967 14.2245C63.6967 15.1988 63.2017 15.5447 62.7789 15.5447H58.3912V17.5498H62.1957C62.6184 17.5498 63.1135 17.8956 63.1135 18.8699C63.1135 19.8442 62.6184 20.1901 62.1957 20.1901H58.3912V24.1574C58.3912 24.8762 57.4485 24.8762 56.9964 24.8762Z" fill="#2D9DD3"/>
<path d="M78.0625 24.8762C77.1832 24.8762 76.9323 24.6638 76.817 24.5055L72.7186 18.4495V24.1438C72.7186 24.874 71.7759 24.874 71.3238 24.874C70.8717 24.874 69.9268 24.874 69.9268 24.1438V13.6322C69.9287 13.5008 69.9705 13.373 70.0469 13.266C70.1232 13.159 70.2304 13.0778 70.354 13.0332C70.6434 12.9134 72.1173 12.7664 72.5377 13.1846L72.6078 13.2705L76.6994 19.3243V13.6322C76.6994 12.9043 77.6782 12.9043 78.0964 12.9043C78.5146 12.9043 79.4912 12.9043 79.4912 13.6322V24.1438C79.4863 24.2911 79.4335 24.4327 79.341 24.5473C79.2484 24.6619 79.121 24.7433 78.9781 24.779C78.6782 24.8502 78.3706 24.8828 78.0625 24.8762Z" fill="#2D9DD3"/>
<path d="M82.7916 24.8762C82.3395 24.8762 81.3901 24.8762 81.3901 24.1574V13.6187C81.3901 12.8998 82.3372 12.8998 82.7916 12.8998C83.246 12.8998 84.1954 12.8998 84.1954 13.6187V24.1574C84.1954 24.8762 83.2482 24.8762 82.7916 24.8762Z" fill="#2D9DD3"/>
<path d="M66.5744 24.8762C66.1223 24.8762 65.1729 24.8762 65.1729 24.1574V13.6187C65.1729 12.8998 66.1201 12.8998 66.5744 12.8998C67.0288 12.8998 67.976 12.8998 67.976 13.6187V24.1574C67.9715 24.8762 67.0288 24.8762 66.5744 24.8762Z" fill="#2D9DD3"/>
<path d="M90.5386 24.8762C90.0865 24.8762 89.1439 24.8762 89.1439 24.1574V15.6961H86.4312C85.7101 15.6961 85.7101 14.7512 85.7101 14.2991C85.7101 13.847 85.7101 12.9043 86.4312 12.9043H94.646C95.3649 12.9043 95.3649 13.847 95.3649 14.2991C95.3649 14.7512 95.3649 15.6961 94.646 15.6961H91.9334V24.1574C91.9334 24.8762 90.993 24.8762 90.5386 24.8762Z" fill="#2D9DD3"/>
<path d="M101.749 24.8853C101.4 24.8853 100.347 24.8853 100.347 24.1189V19.8239L96.5041 13.8312V13.6639C96.507 13.5138 96.5596 13.3688 96.6537 13.2518C96.7478 13.1348 96.8781 13.0524 97.0241 13.0173C97.3948 12.893 99.0699 12.7619 99.4948 13.3293L99.5107 13.3519L101.751 16.8264L104.011 13.3157C104.464 12.7574 106.15 12.8998 106.498 13.0241C106.64 13.0622 106.765 13.1451 106.855 13.2605C106.946 13.3758 106.997 13.5173 107 13.6639V13.8334L103.157 19.8261V24.1212C103.15 24.8853 102.106 24.8853 101.749 24.8853Z" fill="#2D9DD3"/>
<path d="M52.0978 13.0016H52.8505C53.4585 13.0016 53.9514 13.4944 53.9514 14.1024V14.8756C53.9514 15.4836 53.4585 15.9764 52.8505 15.9764H52.0978C51.4898 15.9764 50.9969 15.4836 50.9969 14.8756V14.1024C50.9969 13.4944 51.4898 13.0016 52.0978 13.0016Z" fill="#2D9DD3"/>
<defs>
<linearGradient id="paint0_linear_31117_199" x1="14.1385" y1="16.8318" x2="31.3313" y2="17.0118" gradientUnits="userSpaceOnUse">
<stop offset="0.01" stop-color="#FFA220"/>
<stop offset="0.04" stop-color="#FFA61C"/>
<stop offset="0.34" stop-color="#FFC000"/>
<stop offset="0.61" stop-color="#FDC200"/>
<stop offset="0.74" stop-color="#F6C900"/>
<stop offset="0.75" stop-color="#F5CB00"/>
<stop offset="0.78" stop-color="#F3C200"/>
<stop offset="0.84" stop-color="#F0B100"/>
<stop offset="0.89" stop-color="#EFAB00"/>
<stop offset="1" stop-color="#B74600"/>
</linearGradient>
<linearGradient id="paint1_linear_31117_199" x1="16.3405" y1="14.6158" x2="30.7825" y2="14.6158" gradientUnits="userSpaceOnUse">
<stop stop-color="#FFE30B"/>
<stop offset="0.994024" stop-color="#F8C902"/>
</linearGradient>
<linearGradient id="paint2_linear_31117_199" x1="2.79806" y1="19.5341" x2="18.8493" y2="23.2259" gradientUnits="userSpaceOnUse">
<stop offset="0.01" stop-color="#C59252"/>
<stop offset="0.22" stop-color="#EBA31C"/>
<stop offset="0.34" stop-color="#FFAC00"/>
<stop offset="0.51" stop-color="#FDAC03"/>
<stop offset="0.63" stop-color="#F6AB0D"/>
<stop offset="0.75" stop-color="#E9AA1E"/>
<stop offset="0.78" stop-color="#E4A925"/>
<stop offset="0.8" stop-color="#E7AC21"/>
<stop offset="0.86" stop-color="#F4B70F"/>
<stop offset="0.93" stop-color="#FCBE04"/>
<stop offset="1" stop-color="#FFC000"/>
</linearGradient>
<linearGradient id="paint3_linear_31117_199" x1="6.14603" y1="15.1606" x2="2.5695" y2="23.1634" gradientUnits="userSpaceOnUse">
<stop offset="0.01" stop-color="#C59252"/>
<stop offset="0.22" stop-color="#EBA31C"/>
<stop offset="0.34" stop-color="#FFAC00"/>
<stop offset="0.51" stop-color="#FDAC03"/>
<stop offset="0.63" stop-color="#F6AB0D"/>
<stop offset="0.75" stop-color="#E9AA1E"/>
<stop offset="0.78" stop-color="#E4A925"/>
<stop offset="0.8" stop-color="#E7AC21"/>
<stop offset="0.86" stop-color="#F4B70F"/>
<stop offset="0.93" stop-color="#FCBE04"/>
<stop offset="1" stop-color="#FFC000"/>
</linearGradient>
<linearGradient id="paint4_linear_31117_199" x1="34.7369" y1="25.1769" x2="4.08596" y2="11.0145" gradientUnits="userSpaceOnUse">
<stop offset="0.01" stop-color="#001F2A"/>
<stop offset="0.16" stop-color="#004B5D"/>
<stop offset="0.2" stop-color="#00576E"/>
<stop offset="0.31" stop-color="#00799F"/>
<stop offset="0.42" stop-color="#0094C7"/>
<stop offset="0.52" stop-color="#00A8E3"/>
<stop offset="0.61" stop-color="#00B4F4"/>
<stop offset="0.67" stop-color="#00B8FA"/>
<stop offset="0.76" stop-color="#00B6F7"/>
<stop offset="0.83" stop-color="#01AEEC"/>
<stop offset="0.9" stop-color="#03A2DA"/>
<stop offset="0.97" stop-color="#0691C1"/>
<stop offset="1" stop-color="#0788B3"/>
</linearGradient>
<linearGradient id="paint5_linear_31117_199" x1="2.16528" y1="18.5135" x2="31.8547" y2="18.5135" gradientUnits="userSpaceOnUse">
<stop stop-color="#0394C5"/>
<stop offset="0.478718" stop-color="#0197CA"/>
<stop offset="1" stop-color="#01546A"/>
</linearGradient>
<linearGradient id="paint6_linear_31117_199" x1="19.4427" y1="21.902" x2="31.1619" y2="21.902" gradientUnits="userSpaceOnUse">
<stop stop-color="#019DD3"/>
<stop offset="0.625" stop-color="#028DA9"/>
<stop offset="1" stop-color="#0298B5"/>
</linearGradient>
</defs>
</svg>
