<svg width="200" height="100" viewBox="0 0 200 100" fill="none" xmlns="http://www.w3.org/2000/svg">
<g clip-path="url(#clip0)">
<path d="M176.424 47.3345C175.322 48.1615 173.806 48.4371 171.738 48.4371H170.773H169.533L171.049 39.7537H171.876H172.703C174.495 39.7537 175.735 40.0294 176.562 40.5807C177.251 40.9942 178.078 41.959 178.078 43.613C178.078 45.6805 177.113 46.7831 176.424 47.3345ZM50.4463 58.361H34.1822L35.147 52.7099H45.3466L46.5871 46.3697H36.3875L37.3523 40.7186H53.6165L50.4463 58.361ZM185.246 35.481C182.765 33.827 179.181 33 174.495 33H162.09L157.266 58.2232H140.864L141.829 52.5721H151.615L152.855 46.2318H143.069L144.034 40.5807H154.233L155.612 33.1378H134.937L130.389 57.1205H122.946L127.494 33.1378H116.743L112.333 57.1205H104.89L109.438 33.1378H98.6873L94.0011 58.361H77.5991L78.5639 52.7099H88.35L89.5905 46.3697H79.8044L80.7693 40.7186H90.9688L92.3471 33.2757H28.1176L24.534 53.1234L17.2289 33.1378H6.06459L0 65.3904H10.7509L14.3345 44.8535L21.5017 65.6661H59.8189L64.3673 40.3051H70.2941L65.6078 65.5282H166.225L169.119 49.6776L173.806 65.5282H184.556L179.594 52.5721L180.697 52.2964C183.178 51.7451 185.108 50.6424 186.348 48.9885C187.727 47.3345 188.416 45.1292 188.416 42.3725C188.554 39.4781 187.451 36.9971 185.246 35.481Z" fill="#8DC640"/>
<path d="M193.929 61.8068L195.445 61.669C195.721 61.669 195.996 61.5312 196.272 61.5312C196.548 61.3933 196.548 61.2555 196.548 61.2555C196.686 60.9798 196.686 60.9798 196.686 60.842C196.686 60.5663 196.548 60.4285 196.41 60.2907C196.134 60.015 195.996 60.015 195.583 60.015L194.067 60.1528V61.8068H193.929ZM193.516 64.7013L193.24 59.6015L195.445 59.4637C195.859 59.4637 196.272 59.4637 196.41 59.6015C196.686 59.7393 196.823 59.8772 196.961 60.015C197.237 60.2907 197.237 60.4285 197.237 60.842C197.237 61.1177 197.099 61.5312 196.961 61.669C196.686 61.9446 196.41 62.0825 195.996 62.2203C196.272 62.3581 196.272 62.496 196.41 62.496C196.686 62.7716 196.686 62.7716 196.961 63.1851L197.788 64.5634H197.099L196.272 63.5986C195.996 63.323 195.996 63.0473 195.721 62.9095C195.583 62.6338 195.445 62.6338 195.445 62.6338C195.307 62.496 195.17 62.496 195.17 62.496C195.032 62.496 194.894 62.496 194.894 62.496H194.067L194.205 64.7013H193.516Z" fill="#8DC640"/>
<path d="M191.31 62.2203C191.172 61.2555 191.586 60.1528 192.275 59.3258C193.102 58.4988 193.929 58.0853 195.032 57.9475C197.099 57.8097 199.167 59.4637 199.167 61.669C199.167 61.8068 199.167 61.8068 199.167 61.9446C199.167 64.0121 197.513 65.8039 195.307 65.9417C193.102 66.2174 191.31 64.4256 191.31 62.2203ZM194.894 57.2583C193.515 57.3962 192.413 57.9475 191.586 58.7745C190.759 59.6015 190.207 60.842 190.345 62.2203C190.483 64.8391 192.826 66.9066 195.445 66.7687C198.064 66.6309 200.131 64.2878 199.994 61.669C199.718 59.0502 197.513 57.1205 194.894 57.2583Z" fill="#8DC640"/>
</g>
<defs>
<clipPath id="clip0">
<rect width="200" height="100" fill="white"/>
</clipPath>
</defs>
</svg>
