<svg width="200" height="100" viewBox="0 0 200 100" fill="none" xmlns="http://www.w3.org/2000/svg">
<path d="M36.1573 47.9433C36.1573 47.2761 35.8905 46.8759 35.2234 46.8759H31.7544C30.9538 46.8759 30.5536 47.4096 30.4201 48.2101V54.3475C30.4201 55.1481 30.8204 55.6818 31.7544 55.6818H34.8231C35.0899 55.6818 35.4902 55.5483 35.6236 55.4149C35.757 55.2815 35.8905 55.0146 35.8905 54.6144V47.9433H36.1573ZM26.1506 47.1427C26.1506 45.6751 26.4175 44.4743 27.218 43.6737C27.4849 43.4069 28.0185 43.0066 28.5522 42.8732C29.0859 42.6064 29.6196 42.6064 30.1533 42.6064H36.2907C39.0926 42.6064 40.4268 44.074 40.4268 47.1427V56.4823C40.4268 57.5497 40.0266 58.3502 39.0926 59.2842C38.2921 60.0847 37.3581 60.485 36.1573 60.6184H30.2867V67.2895H25.8838L26.1506 47.1427ZM48.2987 54.8812C48.2987 55.1481 48.4322 55.2815 48.5656 55.5483C48.8324 55.8152 48.9659 55.8152 49.3661 55.8152H52.7017C53.5022 55.8152 53.9025 55.5483 53.9025 55.0146V53.6804C53.9025 53.0133 53.5022 52.613 52.7017 52.613H49.3661C48.9659 52.613 48.5656 52.7465 48.4322 52.8799C48.2987 53.0133 48.1653 53.2801 48.1653 53.8138L48.2987 54.8812ZM53.9025 47.9433C53.9025 47.2761 53.6356 47.0093 52.7017 47.0093H44.0292V42.4729H53.9025C56.8378 42.4729 58.3054 43.8072 58.3054 46.609V55.9486C58.3054 57.1494 57.9052 58.0834 57.238 58.8839C56.4375 59.6844 55.5035 60.0847 54.3027 60.0847H48.2987C45.3635 60.0847 43.8958 58.7505 43.8958 56.082V52.4796C43.8958 49.6777 45.23 48.3435 48.1653 48.3435H53.9025V47.9433ZM70.4469 62.3529C70.7137 62.3529 71.114 62.2194 71.2474 62.086C71.5142 61.8192 71.5142 61.6858 71.5142 61.2855V60.2181H65.9105C65.11 60.2181 64.5763 60.0847 64.176 59.9513C63.7757 59.8178 63.2421 59.551 62.8418 59.0173C62.4415 58.617 62.0413 58.0834 61.9078 57.5497C61.641 57.1494 61.641 56.4823 61.641 55.6818V42.6064H66.0439V54.3475C66.0439 55.2815 66.4442 55.6818 67.2447 55.6818H70.3134C70.5803 55.6818 70.9806 55.5483 71.2474 55.4149C71.5142 55.1481 71.5142 55.0146 71.5142 54.6144V42.6064H75.7838V62.086C75.7838 63.4202 75.3835 64.621 74.7164 65.555C73.9158 66.3555 72.9819 66.8892 71.7811 66.8892H61.641V62.3529H70.4469ZM79.5196 55.6818H87.2581C88.0586 55.6818 88.3255 55.4149 88.3255 54.8812V54.4809C88.3255 54.3475 88.3255 54.2141 88.192 54.2141C87.9252 53.9473 87.7918 53.6804 87.5249 53.6804H83.6557C82.4549 53.6804 81.5209 53.2801 80.7204 52.4796C79.9198 51.6791 79.3862 50.8785 79.3862 49.9446V46.609C79.3862 44.074 80.8538 42.6064 83.6557 42.6064H92.595V47.1427H84.8565C84.0559 47.1427 83.5223 47.4096 83.5223 47.9433V48.3435C83.5223 48.8772 83.9225 49.1441 84.8565 49.1441H88.7257C89.7931 49.1441 90.5936 49.5443 91.3942 50.3449C92.1947 51.1454 92.4616 52.0793 92.595 53.1467V56.3489C92.595 57.2828 92.1947 58.2168 91.2607 59.1507C90.8605 59.551 90.4602 59.9513 90.06 60.0847C89.6597 60.2181 89.126 60.3515 88.3255 60.3515H79.2527L79.5196 55.6818ZM100.2 54.8812C100.2 55.1481 100.333 55.2815 100.467 55.5483C100.734 55.8152 100.867 55.8152 101.267 55.8152H104.603C105.404 55.8152 105.804 55.5483 105.804 55.0146V53.6804C105.804 53.0133 105.404 52.613 104.603 52.613H101.267C100.867 52.613 100.467 52.7465 100.333 52.8799C100.2 53.0133 100.067 53.2801 100.067 53.8138L100.2 54.8812ZM105.937 47.9433C105.937 47.2761 105.67 47.0093 104.736 47.0093H96.064V42.4729H105.937C108.873 42.4729 110.34 43.8072 110.34 46.609V55.9486C110.34 57.1494 109.94 58.0834 109.273 58.8839C108.472 59.6844 107.538 60.0847 106.337 60.0847H100.333C97.3982 60.0847 95.9305 58.7505 95.9305 56.082V52.4796C95.9305 49.6777 97.2648 48.3435 100.2 48.3435H105.937V47.9433ZM113.676 39.9379C113.676 38.7371 114.076 37.8032 115.01 37.0026C115.81 36.2021 116.878 35.8018 118.345 35.8018H121.147V40.0713H119.413C118.479 40.0713 118.079 40.4716 118.079 41.4056V42.3395H121.147V46.8759H118.079V60.0847H113.676V39.9379ZM133.556 47.9433C133.556 47.6764 133.422 47.4096 133.289 47.2761C133.155 47.1427 132.889 47.0093 132.488 47.0093H129.553C129.153 47.0093 128.752 47.1427 128.619 47.2761C128.352 47.543 128.219 47.6764 128.219 48.0767V49.9446L133.556 47.9433ZM128.219 54.2141V54.4809C128.219 54.7478 128.352 55.1481 128.486 55.2815C128.619 55.5483 128.752 55.6818 129.019 55.6818H137.959V60.2181H128.486C127.685 60.2181 127.018 60.0847 126.484 59.9513C125.951 59.6844 125.55 59.551 125.15 59.1507C124.75 58.7505 124.349 58.2168 124.216 57.6831C123.949 57.1494 123.949 56.4823 123.949 55.6818V46.7425C123.949 44.074 125.417 42.7398 128.219 42.6064H134.089C136.758 42.6064 138.092 44.074 138.225 46.8759V50.3449L128.219 54.2141ZM147.298 60.2181C146.631 60.2181 145.964 60.0847 145.43 59.9513C144.897 59.8178 144.229 59.6844 143.696 59.1507C143.029 58.617 142.762 58.0834 142.362 57.4162C142.095 56.7491 142.095 56.082 142.095 55.2815V47.0093C142.095 46.3422 142.095 45.6751 142.362 45.1414C142.495 44.6077 142.762 44.074 143.295 43.6737C143.829 43.1401 144.363 42.8732 144.897 42.6064C145.43 42.4729 146.097 42.3395 146.764 42.3395H153.436V43.4069H146.764C145.564 43.4069 144.763 43.6737 144.096 44.2074C143.429 44.7411 143.029 45.5417 143.029 46.8759V55.1481C143.029 55.8152 143.162 56.3489 143.295 56.8826C143.562 57.4162 143.829 57.9499 144.229 58.2168C144.63 58.4836 145.163 58.8839 145.564 58.8839C145.964 59.0173 146.498 59.0173 147.031 59.0173H153.169V60.0847L147.298 60.2181ZM170.514 49.4109H161.708C160.64 49.4109 159.84 49.6777 159.306 50.3449C158.639 51.012 158.372 51.8125 158.372 52.8799V55.5483C158.372 56.082 158.506 56.4823 158.506 56.8826C158.639 57.2828 158.772 57.6831 159.306 58.0834C160.107 58.7505 160.907 59.0173 161.708 59.0173H167.045C169.313 59.0173 170.38 57.8165 170.38 55.5483L170.514 49.4109ZM171.581 55.4149C171.581 56.082 171.448 56.7491 171.448 57.2828C171.314 57.8165 171.047 58.3502 170.647 58.8839C169.713 59.8178 168.646 60.2181 167.178 60.2181H161.975C160.64 60.2181 159.573 59.8178 158.639 59.0173C157.705 58.2168 157.305 57.1494 157.305 55.6818V53.0133C157.305 50.078 158.906 48.4769 161.841 48.3435H170.514V47.1427C170.514 46.2088 170.247 45.2748 169.713 44.6077C169.446 44.2074 168.913 43.8072 168.379 43.6737C167.979 43.5403 167.312 43.4069 166.778 43.4069H157.438V42.3395H166.378C167.178 42.3395 167.979 42.4729 168.646 42.6064C168.913 42.7398 169.313 42.8732 169.58 43.0066C169.847 43.2735 170.247 43.4069 170.38 43.8072C171.181 44.8745 171.581 46.0753 171.581 47.4096V55.4149ZM181.454 43.4069C179.053 43.4069 177.852 44.7411 177.852 47.4096V60.2181H176.785V47.543C176.651 44.2074 178.252 42.4729 181.588 42.4729H182.788V43.5403L181.454 43.4069ZM199.066 43.4069H190.794C190.127 43.4069 189.593 43.5403 189.193 43.6737C188.659 43.8072 188.259 44.074 187.859 44.6077C187.458 45.008 187.058 45.5416 187.058 45.9419C187.058 46.3422 186.791 46.8759 186.791 47.543V55.6818C186.791 57.016 187.191 57.9499 187.992 58.4836C188.392 58.7505 188.792 58.8839 189.326 59.0173C189.726 59.1507 190.394 59.2842 190.927 59.2842H194.53C195.864 59.2842 196.931 59.0173 197.865 58.3502C198.666 57.6831 199.199 56.7491 199.199 55.4149V43.4069H199.066ZM200 55.2815C199.867 58.7505 198.132 60.3515 194.663 60.2181H190.794C189.993 60.2181 189.326 60.0847 188.526 59.9513C187.859 59.6844 187.191 59.4176 186.658 58.7505C186.257 58.2168 185.857 57.5497 185.857 57.016C185.724 56.3489 185.59 55.6818 185.59 55.1481V47.543C185.59 44.074 187.458 42.4729 190.66 42.4729H198.933V36.7358H200V55.2815Z" fill="white"/>
<path d="M2.00158 41.8059C2.26843 41.6725 2.66869 41.539 3.06896 41.539C3.73607 38.6037 6.40452 36.3356 9.60666 36.3356C12.8088 36.3356 15.4772 38.6037 16.1444 41.539C17.0783 41.8059 18.0123 42.0727 18.546 42.7398C18.546 42.2061 18.546 41.539 18.4125 41.1388C18.0123 36.6024 14.2764 33 9.60666 33C4.80345 33 0.934204 36.8692 0.800781 41.539V42.8733C1.06763 42.3396 1.46789 42.0727 2.00158 41.8059Z" fill="#E3001B"/>
<path d="M14.6765 42.6063H4.00267C3.46898 42.6063 2.93529 42.7397 2.4016 42.8732C1.86791 43.14 1.46764 43.4069 1.06738 43.6737C0.400266 44.4742 0.133422 45.5416 0 47.1427V55.4149C0 56.8825 0.266844 58.0833 1.06738 58.8839C1.33422 59.1507 1.86791 59.551 2.4016 59.6844C2.93529 59.9512 3.46898 59.9512 4.00267 59.9512H14.6765C17.4783 59.9512 18.8126 58.4836 18.8126 55.4149V47.1427C18.6791 44.074 17.3449 42.6063 14.6765 42.6063Z" fill="#E3001B"/>
</svg>
