<svg width="200" height="100" viewBox="0 0 200 100" fill="none" xmlns="http://www.w3.org/2000/svg">
<path d="M159.054 22.4865L175.676 19.5135V83.4324H159.054V22.4865ZM183.378 22.4865V83.4324H200V19.5135L183.378 22.4865ZM135.405 83.4324H152.027V36.6757H135.405V83.4324ZM25.4054 43.2973C23.2432 43.1622 18.3784 42.8919 18.3784 38.4324C18.3784 33.1622 25.4054 33.1622 27.973 33.1622C32.7027 33.1622 38.6487 34.5135 42.8378 35.8649C42.8378 35.8649 45.1351 36.6757 47.2973 37.6216H47.5676V37.3514V23.027L47.2973 22.8919C42.1622 21.1351 36.2162 19.5135 25.4054 19.5135C6.62162 19.5135 0 30.4595 0 39.7838C0 45.1892 2.2973 57.8919 23.7838 59.3784C25.5405 59.5135 30.4054 59.7838 30.4054 64.2432C30.4054 67.8919 26.4865 70.1892 19.7297 70.1892C12.4324 70.1892 5.4054 68.2973 1.08108 66.5405V81.5405C7.56757 83.2973 14.7297 84.1081 23.2432 84.1081C41.8919 84.1081 50 73.8378 50 63.5676C50 51.8108 40.8108 44.2432 25.4054 43.2973ZM125.946 36C110.541 36.5405 102.838 43.4324 102.838 57.0811V83.4324H119.595V61.9459C119.595 53.8378 120.676 50.1892 130.405 49.7838V36.2703C128.784 35.8649 125.946 36 125.946 36ZM80.8108 36.6757C80.5405 37.6216 77.7027 45.1892 71.3514 52.8919V19.5135L54.1892 22.8919V83.4324H71.3514V64.6486C76.3514 72.0811 78.7838 83.2973 78.7838 83.2973H99.3243C97.2973 74.7838 88.3784 59.2432 88.3784 59.2432C96.3514 49.1081 99.8649 38.2973 100.541 36.5405L80.8108 36.6757ZM143.649 32.2162C148.243 32.2162 151.757 28.5676 151.757 24.1081C151.757 19.5135 148.108 16 143.649 16C139.054 16 135.541 19.6486 135.541 24.1081C135.405 28.4324 139.189 32.2162 143.649 32.2162Z" fill="#862165"/>
</svg>
