<?xml version="1.0" encoding="UTF-8"?><svg id="Layer_1" xmlns="http://www.w3.org/2000/svg" width="74" height="13.42" xmlns:xlink="http://www.w3.org/1999/xlink" viewBox="0 0 74 13.42"><defs><style>.cls-1{fill:#f48120;}.cls-1,.cls-2{stroke-width:0px;}.cls-3{clip-path:url(#clippath-2);}.cls-2{fill:none;}.cls-4{clip-path:url(#clippath-1);}.cls-5{clip-path:url(#clippath-4);}.cls-6{clip-path:url(#clippath);}.cls-7{clip-path:url(#clippath-3);}.cls-8{clip-path:url(#clippath-5);}</style><clipPath id="clippath"><rect class="cls-2" x="61" y=".2" width="13" height="13.03"/></clipPath><clipPath id="clippath-1"><rect class="cls-2" x="15.87" width="12.53" height="13.42"/></clipPath><clipPath id="clippath-2"><rect class="cls-2" x="37.4" width="12.57" height="13.42"/></clipPath><clipPath id="clippath-3"><rect class="cls-2" x="61" y=".17" width="13" height="13.03"/></clipPath><clipPath id="clippath-4"><rect class="cls-2" x="15.87" width="12.53" height="13.42"/></clipPath><clipPath id="clippath-5"><rect class="cls-2" x="37.4" width="12.57" height="13.42"/></clipPath></defs><g id="surface1"><path class="cls-1" d="M20.46.2h-7.45c-1.18,0-2.32,0-3.34.52-1.02.52-1.93,1.56-2.62,3.64-.15.45-.23.83-.24,1.17-.01.34.05.62.17.87.16.3.41.59.73.83.32.24.7.43,1.11.56.02,0,.23.07.49.14.26.07.56.16.76.22.11.03.24.08.35.15.11.07.21.16.28.28.04.08.06.17.07.27,0,.1-.01.2-.05.31-.09.28-.24.46-.52.58-.27.11-.68.15-1.29.15H1.21l-1.21,3.33h8.21c.77,0,2.19,0,3.54-.58,1.36-.58,2.66-1.73,3.21-4.04.21-.87.14-1.57-.2-2.13-.34-.55-.96-.96-1.85-1.21,0,0-.2-.06-.44-.13-.23-.07-.51-.15-.65-.19-.23-.07-.41-.2-.51-.37-.1-.17-.13-.37-.08-.58.06-.22.21-.39.43-.51.22-.12.5-.19.83-.19h4.77s.07-.1.1-.15c.87-1.23,1.93-2.23,3.08-2.94"/><path class="cls-1" d="M20.46.19h-7.45c-1.18,0-2.32,0-3.34.52-1.02.52-1.93,1.56-2.62,3.64-.15.45-.23.83-.24,1.17-.01.34.05.62.17.87.16.3.41.59.73.83.32.24.7.43,1.11.56.02,0,.23.07.49.14.26.07.56.16.76.22.11.04.24.08.35.15.11.07.21.16.28.28.04.08.06.17.07.27,0,.1-.01.2-.05.31-.09.28-.24.46-.52.58-.27.11-.68.15-1.29.15H1.22L0,13.19h8.21c.77,0,2.19,0,3.54-.58,1.36-.58,2.66-1.73,3.21-4.04.21-.87.14-1.57-.2-2.13-.34-.56-.96-.96-1.85-1.21,0,0-.2-.06-.44-.13-.23-.07-.51-.15-.65-.19-.23-.07-.41-.2-.51-.37-.1-.17-.13-.37-.08-.58.06-.22.21-.39.43-.51.22-.12.5-.19.83-.19h4.77s.06-.1.1-.15c.87-1.23,1.93-2.23,3.08-2.94"/><g class="cls-6"><path class="cls-1" d="M61.04.21c.26.2.47.43.66.69.47.67.65,1.48.54,2.39h2.39l-3.61,9.92h3.61l3.61-9.92h4.63l1.12-3.09h-12.95"/></g><path class="cls-1" d="M57.36,4.36c-.39,1.04-1.08,1.68-2.4,1.68h-.69s1.17-3.15,1.17-3.15h.66c1.21,0,1.67.36,1.26,1.46M60.86,1.48c-.59-.85-1.8-1.27-3.69-1.27h-4.38l-4.73,13h4.02l1.72-4.58c.08.19,1.1,4.58,1.1,4.58h4.23s-.77-3.22-1.33-4.53c-.15-.34-.3-.71-.5-1.02,1.19-.44,2.92-1.4,3.64-3.33.44-1.19.41-2.15-.07-2.85"/><g class="cls-4"><path class="cls-1" d="M23.96,6.64c-1.11,3.05-1.92,3.82-3.14,3.82h0c-1.19,0-1.6-.75-.49-3.79.83-2.27,1.9-3.71,3.2-3.71h0c1.23,0,1.52.72.43,3.68M27.78,1.42C27.13.49,26.02.02,24.47.02c-1.01,0-1.99.23-2.91.67-1.32.62-2.51,1.66-3.49,3.04-.63.9-1.18,1.93-1.6,3.1-.8,2.19-.79,3.97.03,5.14.46.66,1.43,1.45,3.39,1.46h0c3.57,0,6.24-2.34,7.93-6.96.45-1.22,1.03-3.5-.04-5.04"/></g><path class="cls-1" d="M42.05.2h-7.6c-2.12,0-3.71,1.07-4.45,3.09l-3.61,9.91h3.95l1.85-5.1h3.49s.99-2.73.99-2.73h-3.48s.56-1.58.56-1.58c.12-.28.4-.51.81-.51.23,0,2.79,0,4.12,0,.03-.05.06-.1.1-.15.87-1.23,2.11-2.23,3.26-2.94"/><g class="cls-3"><path class="cls-1" d="M45.51,6.64c-1.11,3.05-1.92,3.82-3.14,3.82h0c-1.19,0-1.6-.75-.49-3.79.83-2.27,1.9-3.71,3.2-3.71h0c1.23,0,1.52.72.43,3.68M49.33,1.42c-.65-.93-1.76-1.4-3.31-1.4-1.01,0-1.99.23-2.91.67-1.32.62-2.51,1.66-3.49,3.04-.63.9-1.18,1.93-1.6,3.1-.8,2.19-.79,3.97.03,5.14.46.66,1.43,1.45,3.39,1.46h0c3.57,0,6.24-2.34,7.93-6.96.45-1.22,1.04-3.5-.04-5.04"/></g><g class="cls-7"><path class="cls-1" d="M61.05.19c.25.2.47.43.66.69.47.67.65,1.48.54,2.39h2.39l-3.61,9.92h3.61l3.61-9.92h4.63l1.12-3.09h-12.95"/></g><path class="cls-1" d="M57.37,4.34c-.39,1.04-1.08,1.68-2.4,1.68h-.69s1.17-3.14,1.17-3.14h.66c1.21,0,1.67.35,1.25,1.46M60.87,1.47c-.59-.85-1.8-1.27-3.69-1.27h-4.38l-4.73,13h4.02l1.72-4.58c.08.19,1.1,4.58,1.1,4.58h4.23s-.77-3.22-1.33-4.53c-.15-.33-.3-.71-.5-1.02,1.19-.44,2.92-1.4,3.64-3.33.44-1.19.41-2.15-.07-2.85"/><g class="cls-5"><path class="cls-1" d="M23.96,6.63c-1.11,3.05-1.92,3.82-3.14,3.82h0c-1.19,0-1.6-.75-.49-3.79.83-2.27,1.9-3.71,3.2-3.71h0c1.23,0,1.52.72.43,3.68M27.79,1.4c-.65-.93-1.76-1.4-3.31-1.4-1.01,0-1.99.23-2.91.67-1.32.62-2.51,1.66-3.49,3.04-.63.9-1.18,1.93-1.6,3.1-.8,2.19-.79,3.97.03,5.14.46.66,1.43,1.45,3.39,1.46h0c3.57,0,6.24-2.34,7.93-6.96.45-1.22,1.03-3.5-.04-5.04"/></g><path class="cls-1" d="M42.06.19h-7.6c-2.12,0-3.71,1.07-4.45,3.09l-3.61,9.91h3.95l1.85-5.1h3.49s.99-2.73.99-2.73h-3.48s.56-1.58.56-1.58c.12-.28.4-.51.8-.51.23,0,2.79,0,4.12,0,.03-.05.06-.1.1-.15.87-1.23,2.11-2.23,3.26-2.94"/><g class="cls-8"><path class="cls-1" d="M45.51,6.63c-1.11,3.05-1.92,3.82-3.14,3.82h0c-1.19,0-1.6-.75-.49-3.79.83-2.27,1.9-3.71,3.2-3.71h0c1.23,0,1.52.72.43,3.68M49.34,1.4c-.65-.93-1.76-1.4-3.31-1.4-1.01,0-1.99.23-2.91.67-1.32.62-2.51,1.66-3.49,3.04-.63.9-1.17,1.93-1.6,3.1-.8,2.19-.79,3.97.03,5.14.46.66,1.43,1.45,3.39,1.46h0c3.57,0,6.24-2.34,7.93-6.96.45-1.22,1.04-3.5-.04-5.04"/></g></g></svg>