<svg width="74" height="40" viewBox="0 0 74 40" fill="none" xmlns="http://www.w3.org/2000/svg">
<path fill-rule="evenodd" clip-rule="evenodd" d="M10 12.3492V12.287L10.0876 11.8742H17.3086C18.228 11.8742 19.0562 12.4821 19.2655 13.5352L21.0519 22.9658L25.4684 11.8742H29.9256L23.0505 28.1707H18.5652L15.1819 15.165C14.9765 14.3642 14.7982 14.0702 14.1738 13.7333C13.1565 13.1846 11.4789 12.6699 10 12.3492ZM37.1448 16.9623C37.1681 13.7912 40.1205 11.5759 44.3144 11.5759C45.9499 11.5759 47.263 11.93 48.2847 12.2981L47.539 15.7533C45.6399 14.8852 43.9629 14.9462 43.3554 15.0251C42.1291 15.1841 41.5696 15.8053 41.5556 16.3897C41.5147 18.3113 47.5196 18.5487 47.501 22.849C47.4867 26.2379 44.5713 28.4249 40.113 28.4249C38.2155 28.4055 36.3851 28.0116 35.3944 27.5596L36.1624 23.9884C37.1492 24.445 38.3878 25.0508 40.5205 25.0178C41.7422 24.999 43.0484 24.5167 43.0607 23.4225C43.0668 22.7087 42.5125 22.1967 40.8604 21.3979C39.2518 20.6177 37.1167 19.3098 37.1448 16.9623ZM55.4555 11.8742H59.0767L62.5025 28.1707H58.5778L58.0652 25.7358H52.6218L51.7369 28.1707H47.2812L53.6487 13.0693C53.9536 12.3444 54.64 11.8742 55.4555 11.8742ZM56.0777 16.2772L53.8435 22.3961H57.3633L56.0777 16.2772ZM31.7476 11.8742H35.9898L32.4807 28.1707H28.2373L31.7476 11.8742Z" fill="white"/>
</svg>
