<svg width="72" height="24" viewBox="0 0 72 24" fill="none" xmlns="http://www.w3.org/2000/svg">
<path d="M46.7402 0.5C41.6452 0.5 37.0918 3.11272 37.0918 7.93882C37.0918 13.4741 45.1671 13.8563 45.1671 16.6374C45.1671 17.8084 43.811 18.8565 41.4937 18.8565C38.2059 18.8565 35.7485 17.3921 35.7485 17.3921L34.6969 22.2629C34.6969 22.2629 37.5278 23.5 41.2861 23.5C46.8566 23.5 51.2405 20.7594 51.2405 15.8502C51.2405 10.0008 43.1314 9.62994 43.1314 7.0492C43.1314 6.13187 44.2448 5.12714 46.5549 5.12714C49.1617 5.12714 51.2879 6.19227 51.2879 6.19227L52.3173 1.48838C52.3173 1.48838 50.0036 0.5 46.7402 0.5ZM0.123551 0.855278L0 1.56512C0 1.56512 2.14346 1.95309 4.0743 2.72759C6.5604 3.61508 6.73711 4.13236 7.15589 5.7368L11.7179 23.1334H17.8337L27.2551 0.855278H21.1538L15.0998 16.0022L12.6295 3.16246C12.4032 1.69302 11.2553 0.854568 9.85102 0.854568H0.124269L0.123551 0.855278ZM29.7089 0.855278L24.9228 23.1334H30.7411L35.5101 0.855278H29.7089ZM62.1597 0.855278C60.7568 0.855278 60.0133 1.59852 59.4681 2.89671L50.9439 23.1334H57.0452L58.2254 19.7603H65.6586L66.3762 23.1334H71.76L67.0636 0.855278H62.1597ZM62.9534 6.8744L64.7621 15.2341H59.9171L62.9534 6.8744Z" fill="white"/>
</svg>
