<?xml version="1.0" encoding="UTF-8"?><svg id="a" xmlns="http://www.w3.org/2000/svg" width="75" height="34" viewBox="0 0 75 34"><defs><style>.b{fill:#5f6368;}.b,.c,.d,.e,.f,.g,.h,.i,.j{stroke-width:0px;}.c{fill:#53565b;}.d{fill:#4285f4;}.e{fill:#2d9248;}.f{fill:#ea4335;}.g{fill:#dba403;}.h{fill:#cc3a2e;}.i{fill:#34a853;}.j{fill:#fbbc04;}</style></defs><path class="d" d="m26.66,17.02c0-.77-.06-1.55-.2-2.31h-10.7v4.37h6.13c-.25,1.41-1.07,2.66-2.27,3.45v2.84h3.66c2.14-1.97,3.38-4.89,3.38-8.35Z"/><path class="i" d="m15.77,28.11c3.06,0,5.64-1,7.52-2.74l-3.66-2.84c-1.02.69-2.33,1.08-3.87,1.08-2.96,0-5.47-1.99-6.37-4.68h-3.77v2.92c1.93,3.83,5.85,6.25,10.14,6.25h0Z"/><path class="j" d="m9.4,18.93c-.47-1.41-.47-2.93,0-4.34v-2.92h-3.77c-1.61,3.21-1.61,6.98,0,10.19l3.77-2.93h0Z"/><path class="f" d="m15.77,9.91c1.62-.02,3.18.58,4.35,1.7l3.24-3.24c-2.05-1.93-4.77-2.99-7.59-2.96-4.29,0-8.21,2.42-10.14,6.25l3.77,2.92c.9-2.69,3.41-4.68,6.37-4.68h0Z"/><path class="e" d="m9.4,18.93h0l-3.77,2.92h0c1.93,3.83,5.85,6.25,10.14,6.25h0v-4.49h0c-2.96,0-5.47-1.99-6.37-4.68h0Z"/><path class="g" d="m5.63,11.67h0c-1.61,3.21-1.61,6.98,0,10.19h0l3.77-2.92c-.47-1.41-.47-2.93,0-4.34h0l-3.77-2.92h0Z"/><path class="h" d="m15.77,5.42h0c-4.29,0-8.21,2.42-10.14,6.25h0l3.77,2.92c.9-2.69,3.41-4.68,6.37-4.68h0v-4.49h0Z"/><path class="b" d="m34.48,16.46v7.99h-2.54V4.71h6.73c1.62-.03,3.19.58,4.36,1.71,1.18,1.06,1.84,2.58,1.82,4.17.04,1.6-.63,3.13-1.82,4.19-1.18,1.12-2.63,1.68-4.36,1.68h-4.19Zm0-9.32v6.9h4.25c.94.03,1.85-.34,2.51-1.02,1.33-1.29,1.36-3.43.07-4.76l-.07-.07c-.65-.69-1.56-1.07-2.51-1.05h-4.25Zm16.21,3.36c1.88,0,3.36.5,4.44,1.5,1.08,1,1.62,2.38,1.62,4.12v8.33h-2.42v-1.88h-.11c-1.05,1.54-2.45,2.32-4.19,2.32-1.49,0-2.73-.44-3.74-1.32-.97-.82-1.53-2.03-1.5-3.31,0-1.4.53-2.51,1.59-3.34s2.47-1.24,4.23-1.24c1.51,0,2.75.28,3.72.83v-.58c0-.87-.38-1.69-1.05-2.25-.67-.6-1.55-.94-2.45-.92-1.42,0-2.54.6-3.36,1.79l-2.23-1.41c1.22-1.76,3.04-2.64,5.45-2.64h0Zm-3.28,9.82c0,.66.31,1.27.84,1.65.56.44,1.26.67,1.97.66,1.07,0,2.1-.43,2.85-1.19.84-.79,1.26-1.72,1.26-2.78-.79-.63-1.89-.95-3.31-.95-1.03,0-1.89.25-2.58.75-.69.51-1.04,1.12-1.04,1.86h0Zm23.28-9.38l-8.47,19.47h-2.62l3.14-6.81-5.57-12.66h2.76l4.02,9.71h.06l3.92-9.71h2.76Z"/><path class="c" d="m34.48,18.93h-2.54v5.52h2.54v-5.52h0Zm22.28,0h-2.43c-.07.95-.48,1.79-1.25,2.51-.76.76-1.78,1.18-2.85,1.19h-.06c-.69,0-1.36-.23-1.91-.66-.53-.38-.84-1-.84-1.65,0-.52.17-.98.52-1.38h-2.95c-.12.41-.18.85-.18,1.33-.02,1.27.53,2.49,1.5,3.31,1,.88,2.25,1.32,3.74,1.32,1.74,0,3.14-.77,4.19-2.32h.11v1.88h2.43v-5.52h0Zm10.45,0h-2.51l-.69,1.72h-.06l-.71-1.72h-2.55l2.05,4.67-3.14,6.81h2.62l4.99-11.48h0Z"/></svg>