<svg width="64" height="26" viewBox="0 0 64 26" fill="none" xmlns="http://www.w3.org/2000/svg">
<path d="M11.8031 3.34526C11.0547 4.22611 9.85731 4.91892 8.65989 4.81995C8.51021 3.63228 9.09894 2.36544 9.78746 1.59345C10.5359 0.692806 11.843 0.0494861 12.9108 0C13.0305 1.22726 12.5415 2.44461 11.8031 3.34526ZM12.8908 5.04758C11.1545 4.94861 9.66772 6.02741 8.84948 6.02741C8.01128 6.02741 6.75398 5.09707 5.37694 5.12676C3.59077 5.15645 1.93433 6.15607 1.02628 7.74952C-0.849692 10.9463 0.537329 15.6673 2.35343 18.2703C3.24152 19.5569 4.29925 20.9722 5.69625 20.9227C7.0234 20.8732 7.54228 20.0716 9.13886 20.0716C10.7454 20.0716 11.2144 20.9227 12.6114 20.9029C14.0583 20.8732 14.9663 19.6163 15.8544 18.3297C16.8623 16.8649 17.2814 15.4496 17.3013 15.3704C17.2714 15.3407 14.5073 14.2916 14.4774 11.1245C14.4475 8.47202 16.6627 7.21507 16.7625 7.1359C15.5152 5.29501 13.5693 5.09707 12.8908 5.04758ZM22.9093 1.46479V20.7545H25.9328V14.1629H30.1138C33.9356 14.1629 36.6099 11.56 36.6099 7.79901C36.6099 4.03807 33.9755 1.46479 30.2136 1.46479H22.9093ZM25.9328 3.98858H29.4153C32.0397 3.98858 33.5365 5.37419 33.5365 7.80891C33.5365 10.2436 32.0397 11.649 29.4053 11.649H25.9328V3.98858ZM42.118 20.9029C44.014 20.9029 45.7702 19.9528 46.5685 18.4385H46.6283V20.7545H49.4223V11.1542C49.4223 8.37305 47.1772 6.57176 43.7246 6.57176C40.5215 6.57176 38.1466 8.39284 38.0568 10.8869H40.7809C41.0104 9.69928 42.118 8.9174 43.6348 8.9174C45.4808 8.9174 46.5186 9.76856 46.5186 11.3422V12.4111L42.7467 12.6388C39.2442 12.8466 37.3483 14.2718 37.3483 16.7461C37.3582 19.2402 39.3141 20.9029 42.118 20.9029ZM42.9363 18.6167C41.3297 18.6167 40.3019 17.8447 40.3019 16.6768C40.3019 15.4595 41.2898 14.7568 43.1758 14.6479L46.5286 14.44V15.5287C46.5286 17.33 44.9819 18.6167 42.9363 18.6167ZM53.1643 26C56.108 26 57.495 24.8816 58.7024 21.5067L64.001 6.7598H60.9276L57.3753 18.1515H57.3154L53.763 6.7598H50.6098L55.7188 20.804L55.4394 21.6551C54.9804 23.1001 54.232 23.6643 52.8949 23.6643C52.6554 23.6643 52.1964 23.6346 52.0068 23.6148V25.9307C52.1864 25.9703 52.9348 26 53.1643 26Z" fill="white"/>
</svg>
