<?xml version="1.0" encoding="UTF-8"?><svg id="Layer_1" xmlns="http://www.w3.org/2000/svg" width="50.86" height="33.36" xmlns:xlink="http://www.w3.org/1999/xlink" viewBox="0 0 50.86 33.36"><defs><style>.cls-1{fill:#2d9dd3;}.cls-1,.cls-2,.cls-3,.cls-4,.cls-5,.cls-6,.cls-7,.cls-8,.cls-9,.cls-10{stroke-width:0px;}.cls-2{fill:#1887b2;mix-blend-mode:darken;opacity:.57;}.cls-2,.cls-11,.cls-7,.cls-10{isolation:isolate;}.cls-3{fill:url(#linear-gradient);}.cls-4{fill:url(#linear-gradient-6);}.cls-5{fill:#e7e6e6;}.cls-12,.cls-10{mix-blend-mode:soft-light;}.cls-6{fill:url(#linear-gradient-2);}.cls-7{fill:url(#linear-gradient-5);mix-blend-mode:multiply;opacity:.71;}.cls-8{fill:url(#linear-gradient-3);}.cls-9{fill:url(#linear-gradient-4);}.cls-10{fill:#fff;}</style><linearGradient id="linear-gradient" x1="54.88" y1="33.8" x2="80.97" y2="33.8" gradientTransform="translate(-33.35 39.9) rotate(.6) scale(1 -1)" gradientUnits="userSpaceOnUse"><stop offset="0" stop-color="#ffa220"/><stop offset=".04" stop-color="#ffa61c"/><stop offset=".34" stop-color="#ffc000"/><stop offset=".61" stop-color="#fdc200"/><stop offset=".74" stop-color="#f6c900"/><stop offset=".75" stop-color="#f5cb00"/><stop offset=".78" stop-color="#f3c200"/><stop offset=".84" stop-color="#f0b100"/><stop offset=".89" stop-color="#efab00"/><stop offset="1" stop-color="#b74600"/></linearGradient><linearGradient id="linear-gradient-2" x1="54.88" y1="33.57" x2="80.97" y2="33.57" xlink:href="#linear-gradient"/><linearGradient id="linear-gradient-3" x1="436.31" y1="256.03" x2="462.53" y2="256.03" gradientTransform="translate(-461.75 176.17) rotate(12.72) scale(.95 -1.03) skewX(.25)" gradientUnits="userSpaceOnUse"><stop offset="0" stop-color="#c59252"/><stop offset=".22" stop-color="#eba31c"/><stop offset=".34" stop-color="#ffac00"/><stop offset=".51" stop-color="#fdac03"/><stop offset=".63" stop-color="#f6ab0d"/><stop offset=".75" stop-color="#e9aa1e"/><stop offset=".78" stop-color="#e4a925"/><stop offset=".8" stop-color="#e7ac21"/><stop offset=".86" stop-color="#f4b70f"/><stop offset=".93" stop-color="#fcbe04"/><stop offset="1" stop-color="#ffc000"/></linearGradient><linearGradient id="linear-gradient-4" x1="439.44" y1="263.53" x2="437.06" y2="250.76" xlink:href="#linear-gradient-3"/><linearGradient id="linear-gradient-5" x1="3565.31" y1="4881.45" x2="3583.88" y2="4862.87" gradientTransform="translate(-2807.59 -3519.56) rotate(94.97) scale(.92 -.64) skewX(-.35)" gradientUnits="userSpaceOnUse"><stop offset=".11" stop-color="#fff"/><stop offset=".61" stop-color="#878787"/><stop offset=".95" stop-color="#fff"/></linearGradient><linearGradient id="linear-gradient-6" x1="53.13" y1="15.98" x2="6.62" y2="37.47" gradientTransform="translate(0 35.36) scale(1 -1)" gradientUnits="userSpaceOnUse"><stop offset="0" stop-color="#001f2a"/><stop offset=".16" stop-color="#004b5d"/><stop offset=".2" stop-color="#00576e"/><stop offset=".31" stop-color="#00799f"/><stop offset=".42" stop-color="#0094c7"/><stop offset=".52" stop-color="#00a8e3"/><stop offset=".61" stop-color="#00b4f4"/><stop offset=".67" stop-color="#00b8fa"/><stop offset=".76" stop-color="#00b6f7"/><stop offset=".83" stop-color="#01aeec"/><stop offset=".9" stop-color="#03a2da"/><stop offset=".97" stop-color="#0691c1"/><stop offset="1" stop-color="#0788b3"/></linearGradient></defs><g class="cls-11"><g id="Layer_1-2"><path class="cls-3" d="M47.21,4.9c.07.1.14.2.2.31-.16-.69-.41-1.35-.74-1.97-2.73-5.01-10.32-3.51-17.88,2.16-1.99,1.49-3.79,3.23-5.33,5.19.94.51,1.79,1.23,2.62,1.85.5.37,1.04.69,1.6.97.48-.56.98-1.1,1.5-1.64,6.74-6.95,15.32-10.48,18.04-6.86Z"/><path class="cls-6" d="M47.69,9.15l.14-.04c.24-1.57.14-2.92-.42-3.89.3,1.29.39,2.62.27,3.93Z"/><g class="cls-12"><path class="cls-5" d="M47.4,5.19c-.06-.11-.13-.21-.2-.31l-.03-.03c.06.19.11.38.16.58.08.14.15.29.22.44-.04-.23-.09-.45-.14-.67Z"/><path class="cls-5" d="M28.71,5.71C36.26,0,43.84-1.54,46.59,3.45c.24.44.44.9.59,1.38l.03.03c.07.1.14.2.2.31-.16-.68-.42-1.34-.75-1.96-2.75-4.99-10.33-3.45-17.87,2.26-2.77,2.08-5.12,4.65-6.95,7.59l.04.06c1.81-2.87,4.13-5.38,6.84-7.41Z"/></g><path class="cls-8" d="M26.56,10.65c-.7-.59-1.41-1.15-2.06-1.78-1.31,1.55-2.76,2.98-4.33,4.27-6.75,5.59-14.03,7.43-16.25,4.13-.03-.05-.07-.11-.1-.16-.42-.62-.74-1.31-.94-2.04-.37-1.39-.34-2.86.07-4.24-1.03,2.08-1.31,4.15-.67,5.91,1.73,4.66,9.38,5.45,17.1,1.75,3.6-1.72,6.57-4.11,8.54-6.64-.46-.4-.9-.81-1.37-1.2Z"/><path class="cls-9" d="M10.2,3.68c-.36.03-.72.1-1.06.21l.02.05-.06-.03c-1.49,1.06-1.54,1.07.06.03-.94.58-1.82,1.26-2.63,2.01-1.32,1.28-2.44,2.74-3.32,4.35h0c-.09.16-.18.34-.27.51-.42,1.38-.44,2.85-.07,4.24.2.73.52,1.42.94,2.05-.58-1.02-.89-2.17-.9-3.35.03-2.94,2.51-6.82,4.2-8.27.95-.82,1.85-1.14,2.64-1.2.11-.22.26-.43.44-.6Z"/><path class="cls-7" d="M16.64,15.73c3.16-1.97,6.01-4.67,6.9-5.82l.51-.56c.4-.38.9-1.15,1.29-1.51,1.01-.52,2.88-1.83,4.84-3.14.84-.56,1.69-1.11,2.17-1.37l2.3,3.81c-1.44.93-5.12,4.04-6.42,5.15-.41.35.08-.42-.31-.06l-2.75,2.46c-1.89,1.6-4,2.94-6.25,3.98l-2.29-2.94Z"/><path class="cls-4" d="M46.16,2.48c5.62,10.63-7.17,15.62-13.87,8.28-2.83-3.55-3.14-5.32-4.9-7.13C19.85-3.69,8.98.87,3.34,10.04c.75-.9,5.52-6.34,12.46-5.48,5.36.67,6.24,7.54,14.18,11.59,9,4.6,25.19-1.63,16.18-13.67Z"/><path class="cls-2" d="M30.22,15.89c-7.94-4.05-8.81-10.92-14.18-11.59-6.62-.83-11.27,4.09-12.34,5.32v.02c1.41-1.55,5.88-5.83,12.09-5.05,5.36.67,6.24,7.54,14.18,11.59,5.58,2.85,13.9,1.54,17.3-2.73-3.53,4.04-11.61,5.22-17.06,2.44Z"/><path class="cls-10" d="M46.43,2.83c-.09-.13-.18-.25-.28-.38,5.5,10.41-6.65,15.41-13.45,8.72,6.72,6.89,18.99,2.01,13.73-8.34Z"/><path class="cls-1" d="M8.79,24.65s-.09-.03-.14-.04c-.38-.1-1.31-.13-1.62.12h-.02c-.05.06-.09.12-.12.18-.88,1.17-1.69,2.38-2.43,3.64l-2.26-3.63v-.02c-.04-.06-.08-.12-.13-.16h-.01c-.26-.23-1.05-.23-1.48-.15-.1.01-.2.03-.3.07-.17.07-.28.24-.28.42v7.66c0,.15.07.42.54.49.16.02.32.03.47.03.33,0,1.02,0,1.02-.52v-4.41c.15.23.43.69.74,1.26.43.8.72,1.32.87,1.57l.09.16c.08.12.18.22.29.3.25.15.54.19.82.13.07-.02.13-.05.19-.1.13-.09.24-.19.33-.31l.2-.35c.1-.17.32-.58.67-1.24s.62-1.15.8-1.45c.27-.45,0,.83,0,.88v3.56c0,.52.69.52,1.02.52s1.02,0,1.02-.52v-7.66c0-.19-.11-.35-.28-.43Z"/><path class="cls-1" d="M12.29,27.94v4.89c0,.53-.69.53-1.01.53s-1.02,0-1.02-.52v-4.9c0-.52.69-.52,1.02-.52s1.01,0,1.01.52Z"/><path class="cls-1" d="M15.54,26.57v1.46h2.76c.3,0,.67.25.67.96s-.36.96-.67.96h-2.76v2.88c0,.53-.69.53-1.01.53s-1.02,0-1.02-.52v-7.66c0-.5.57-.51.95-.52h4.27c.3,0,.67.25.67.96s-.36.96-.67.96h-3.19Z"/><path class="cls-1" d="M30.86,25.19v7.63c-.01.22-.16.41-.38.47-.21.05-.44.07-.66.07-.64,0-.82-.16-.91-.27l-2.98-4.4v4.14c0,.53-.68.53-1.01.53s-1.01,0-1.01-.53v-7.64c0-.2.13-.36.3-.44.22-.08,1.28-.19,1.58.11l.05.06,2.97,4.39v-4.13c0-.53.72-.53,1.02-.53s1.01,0,1.01.53Z"/><path class="cls-1" d="M34.29,25.18v7.65c-.01.53-.7.53-1.02.53s-1.02,0-1.02-.52v-7.66c0-.53.69-.53,1.02-.53s1.02,0,1.02.53Z"/><path class="cls-1" d="M22.5,25.18v7.65c0,.53-.69.53-1.02.53s-1.01,0-1.01-.52v-7.66c0-.53.69-.53,1.01-.53s1.02,0,1.02.53Z"/><path class="cls-1" d="M42.4,25.67c0,.33,0,1.01-.53,1.01h-1.97v6.15c.01.53-.68.53-1,.53s-1.02,0-1.02-.52v-6.16h-1.97c-.52,0-.52-.68-.52-1.01s0-1.01.52-1.01h5.96c.53,0,.53.69.53,1.01Z"/><path class="cls-1" d="M50.86,25.21v.13l-2.79,4.35v3.13c0,.55-.77.55-1.02.55s-1.02,0-1.02-.55v-3.13l-2.79-4.36v-.11c.01-.23.17-.42.39-.47.27-.09,1.48-.19,1.79.22v.02s1.64,2.52,1.64,2.52l1.65-2.55c.32-.4,1.55-.3,1.8-.21.21.06.36.25.36.47Z"/><rect class="cls-1" x="10.16" y="24.72" width="2.15" height="2.16" rx=".8" ry=".8"/></g></g></svg>