<?xml version="1.0" encoding="UTF-8"?><svg id="Layer_1" xmlns="http://www.w3.org/2000/svg" width="73" height="28.28" viewBox="0 0 73 28.28"><defs><style>.cls-1{fill:#101289;fill-rule:evenodd;stroke-width:0px;}</style></defs><path id="Fill-8" class="cls-1" d="M33.39.3c0-.17.15-.3.31-.3h.41l6.61,6.36h.02V.48c0-.17.13-.31.31-.31h1.99c.17,0,.31.15.31.31v11.15c0,.17-.15.3-.31.3h-.26s-.18-.05-.22-.08l-6.54-6.58h-.02v6.18c0,.17-.13.31-.31.31h-1.97c-.17,0-.31-.15-.31-.31l-.02-11.15Z"/><path id="Fill-1" class="cls-1" d="M5.95,9.28c1.82,0,3.31-1.49,3.31-3.3s-1.49-3.33-3.31-3.33-3.3,1.51-3.3,3.33,1.49,3.3,3.3,3.3M5.95,0C9.26,0,11.91,2.67,11.91,5.98s-2.65,5.95-5.96,5.95S0,9.29,0,5.98,2.63,0,5.95,0"/><path id="Fill-4" class="cls-1" d="M18.02,5.14c.71,0,1.31-.56,1.31-1.31,0-.7-.6-1.23-1.31-1.23h-1.57v2.53h1.57ZM13.87.48c0-.17.13-.31.31-.31h3.99c2.04,0,3.71,1.66,3.71,3.66s-1.67,3.73-3.69,3.73h-1.74v3.89c0,.17-.15.31-.31.31h-1.95c-.18,0-.31-.15-.31-.31V.48Z"/><path id="Fill-6" class="cls-1" d="M23.7.48c0-.17.13-.31.31-.31h6.86c.18,0,.31.15.31.31v1.81c0,.17-.13.31-.31.31h-4.59v2.05h3.78c.17,0,.31.15.31.31v1.81c0,.18-.15.31-.31.31h-3.78v2.24h4.59c.18,0,.31.15.31.31v1.81c0,.17-.13.31-.31.31h-6.86c-.18,0-.31-.15-.31-.31V.48Z"/><path id="Fill-11" class="cls-1" d="M5.06,25.78c.64,0,1.18-.52,1.18-1.19s-.7-1.15-1.34-1.15h-1.33v2.34h1.49ZM4.85,21.31c.62,0,1.15-.52,1.15-1.18s-.52-1.11-1.15-1.11h-1.28v2.29h1.28ZM1.02,16.98c0-.16.13-.31.31-.31h3.81c1.93,0,3.52,1.33,3.52,3.04,0,1.26-1.13,2.18-1.9,2.58.87.36,2.19,1.16,2.19,2.67,0,1.83-1.62,3.16-3.57,3.16H1.33c-.18,0-.31-.15-.31-.31v-10.83Z"/><path id="Fill-13" class="cls-1" d="M16.65,24.19l-1.24-2.7h-.02l-1.23,2.7h2.49ZM9.92,27.69l5.12-11.01c.05-.1.16-.18.28-.18h.16c.11,0,.23.08.28.18l5.12,11.01c.1.21-.03.43-.28.43h-1.82c-.29,0-.43-.1-.57-.41l-.59-1.29h-4.45l-.59,1.31c-.08.2-.26.39-.59.39h-1.8c-.25,0-.38-.21-.28-.43h0Z"/><path id="Fill-16" class="cls-1" d="M22.46,16.8c0-.16.15-.29.31-.29h.41l6.53,6.28h.02v-5.81c0-.16.13-.31.31-.31h1.96c.16,0,.31.15.31.31v11.01c0,.16-.15.29-.31.29h-.26s-.18-.05-.21-.08l-6.46-6.5h-.02v6.1c0,.16-.13.31-.31.31h-1.95c-.16,0-.31-.15-.31-.31l-.02-11.01Z"/><path id="Fill-19" class="cls-1" d="M34.83,17.06c0-.21.16-.39.39-.39h1.91c.21,0,.39.18.39.39v4.3l3.63-4.53c.07-.08.21-.16.31-.16h2.06c.31,0,.47.36.29.61l-3.83,4.79,4.17,5.43c.18.25,0,.61-.31.61h-2.26c-.11,0-.26-.07-.29-.11l-3.78-5.14v4.88c0,.21-.18.39-.39.39h-1.91c-.23,0-.39-.18-.39-.39v-10.67Z"/><path id="Fill-21" class="cls-1" d="M46.07,16.98c0-.16.15-.31.31-.31h1.96c.16,0,.31.15.31.31v10.83c0,.16-.15.31-.31.31h-1.96c-.16,0-.31-.15-.31-.31v-10.83Z"/><path id="Fill-23" class="cls-1" d="M51.21,16.8c0-.16.15-.29.31-.29h.41l6.53,6.28h.02v-5.81c0-.16.13-.31.31-.31h1.96c.16,0,.31.15.31.31v11.01c0,.16-.15.29-.31.29h-.26s-.18-.05-.21-.08l-6.46-6.5h-.02v6.1c0,.16-.13.31-.31.31h-1.95c-.16,0-.31-.15-.31-.31l-.02-11.01Z"/><path id="Fill-26" class="cls-1" d="M68.81,16.52c1.37,0,2.88.57,3.99,1.54.15.11.16.31.03.44l-1.29,1.37c-.13.11-.31.11-.44.02-.62-.57-1.34-.79-2.14-.79-1.78,0-3.22,1.51-3.22,3.31s1.46,3.26,3.24,3.26c.47,0,.97-.07,1.46-.26v-.95h-1.03c-.18,0-.31-.13-.31-.29v-1.62c0-.18.13-.31.31-.31h3.29c.16,0,.29.15.29.31l.02,4.4c0,.08-.07.21-.13.26,0,0-1.69,1.06-4.06,1.06-3.26,0-5.87-2.59-5.87-5.86s2.62-5.89,5.87-5.89"/></svg>