<?xml version="1.0" encoding="utf-8"?>
<svg xmlns="http://www.w3.org/2000/svg" xmlns:xlink="http://www.w3.org/1999/xlink" version="1.1" id="Layer_1" x="0px" y="0px" viewBox="0 0 141.2 69.1" style="enable-background:new 0 0 141.2 69.1;">
<style type="text/css">
	.st0{opacity:0.8;fill:#FFFFFF;}
	.st1{opacity:0.8;fill-rule:evenodd;clip-rule:evenodd;fill:#FFFFFF;}
</style>
<path class="st0" d="M104.8,46.5h7.9l1-14.4c0.1-1.8,0.1-3.6,0-5.4h0.1c0,0,1.1,3.4,1.8,5.4l3.4,9.3h6.7l3.4-9.3&#xA;	c0.7-2,1.8-5.4,1.8-5.4h0.1c-0.1,1.8-0.1,3.6,0,5.4l1,14.4h7.8l-2.6-32h-8.5L123.9,28c-0.7,2.1-1.6,5.3-1.6,5.3h-0.1&#xA;	c0,0-0.9-3.2-1.6-5.3L116,14.4h-8.5L104.8,46.5z"/>
<path class="st0" d="M63.3,14.4h-8.2l-10.9,32h8.1l1.9-6.7h10l2,6.7h8.1L63.3,14.4z M56,33.4l1.8-6.2c0.6-1.9,1.3-5.4,1.3-5.4h0.1&#xA;	c0,0,0.7,3.5,1.3,5.5l1.8,6.2L56,33.4z"/>
<path class="st0" d="M86.9,14.4H75.5v32h11.4c10.1,0,16.5-6,16.5-16.1S97,14.4,86.9,14.4 M86.6,39.8h-3.2V21.2h3.2&#xA;	c5.3,0,8.7,3.1,8.7,9.2S92,39.8,86.6,39.8"/>
<path class="st0" d="M34.9,17.9L34.9,17.9L34.9,17.9L34.9,17.9c0.1-0.1,0.1-0.1,0.2-0.1c0,0,0,0,0.1,0c0.1-0.1,0.1-0.2,0.2-0.3&#xA;	l0.2-0.4l0.5-1.1c0.1-0.2,0.2-0.5,0.3-0.7h0.1l0.8,1.9l0.1,0.2c0,0.1,0.1,0.2,0.1,0.2c0,0.1,0,0.1,0.1,0.2h0.1c0.1,0,0.1,0,0.2,0&#xA;	l0,0v0.1l0,0h-0.4h-0.6l0,0v-0.1l0,0c0.1,0,0.2,0,0.3,0c0,0,0,0,0-0.1c0,0,0-0.1,0-0.1L36.8,17h-1.1l-0.2,0.5c0,0.1,0,0.1-0.1,0.2&#xA;	c0,0,0,0.1,0.1,0.1c0.1,0,0.2,0,0.3,0v0.1h-0.4L34.9,17.9 M35.8,16.8h0.9l-0.4-1.1L35.8,16.8z"/>
<path class="st0" d="M37.6,21.5L37.6,21.5l-0.1,0.1l0,0c0,0,0,0.1,0,0.1c0,0.1,0,0.2,0,0.2c0,0.1,0,0.2,0,0.3l0,0&#xA;	c-0.3,0.1-0.7,0.2-1,0.2c-0.3,0-0.5-0.1-0.7-0.2c-0.2-0.1-0.4-0.3-0.5-0.5c-0.1-0.2-0.2-0.5-0.2-0.7c0-0.4,0.1-0.8,0.4-1&#xA;	c0.3-0.2,0.7-0.3,1.1-0.3c0.3,0,0.6,0.1,0.9,0.2l0,0c0,0.2-0.1,0.3-0.1,0.5h-0.1v-0.2c0,0,0-0.1,0-0.1l0,0l-0.1-0.1&#xA;	C37,20,36.9,20,36.9,20c-0.1,0-0.2,0-0.3,0c-0.2,0-0.4,0-0.6,0.1c-0.2,0.1-0.3,0.2-0.4,0.4c-0.1,0.2-0.1,0.4-0.1,0.6&#xA;	c0,0.2,0.1,0.4,0.1,0.6c0.1,0.2,0.2,0.4,0.4,0.5c0.2,0.1,0.4,0.2,0.6,0.2c0.1,0,0.2,0,0.3,0c0.1,0,0.2-0.1,0.2-0.1&#xA;	c0-0.1,0-0.2,0-0.2v-0.2c0-0.1,0-0.1,0-0.2c0,0,0,0-0.1-0.1h-0.3l0,0v-0.1l0,0H37.6L37.6,21.5z"/>
<path class="st0" d="M35.3,24.4h1.9c0,0.2-0.1,0.4-0.1,0.6h-0.1l0,0c0-0.1,0-0.2,0-0.3c-0.1,0-0.2-0.1-0.3-0.1h-0.3h-0.4v1h0.7h0.1&#xA;	c0,0,0,0,0-0.1c0,0,0-0.1,0-0.1v-0.2H37c0,0.1,0,0.3,0,0.4v0.4l0,0h-0.1l0,0V26c0-0.1,0-0.1,0-0.2v0h-0.1h-0.6c0,0.1,0,0.3,0,0.5&#xA;	s0,0.5,0,0.6H37c0.1,0,0.1,0,0.2-0.1l0.1-0.2c0-0.1,0-0.2,0-0.2h0.1c0,0.1,0,0.2,0,0.3c0,0.1,0,0.2,0,0.3l0,0h-1.6h-0.4V27l0.1-0.1&#xA;	c0-0.1,0-0.2,0-0.3c0-0.2,0-0.4,0-0.5V25c0-0.1,0-0.2,0-0.2c0,0,0-0.1,0-0.1l0,0c0,0,0,0,0,0h-0.1h-0.1l0,0V24.4z"/>
<path class="st0" d="M34.8,31.6L34.8,31.6L34.8,31.6L34.8,31.6l0.2-0.1c0,0,0.1,0,0.1,0v-0.1c0,0,0-0.1,0-0.3c0-0.1,0-0.2,0-0.3&#xA;	v-1.6c0,0,0-0.1,0-0.1c0,0-0.1,0-0.1-0.1h-0.2l0,0V29h0.7l0.6,0.8l0.9,1.1l0.3,0.4v-1.4c0,0,0-0.1,0-0.3c0-0.1,0-0.2,0-0.3&#xA;	c0,0,0,0,0-0.1c0,0-0.1,0-0.1,0h-0.3l0,0v-0.1l0,0h0.8l0,0v0.1l0,0h-0.2c0,0-0.1,0-0.1,0c0,0,0,0.1,0,0.1c0,0,0,0.1,0,0.3&#xA;	c0,0.1,0,0.2,0,0.3v1.9l-0.3-0.1L37,31.5L36.6,31l-1.3-1.6v1.7c0,0.1,0,0.2,0,0.3c0,0,0,0,0,0.1c0,0,0,0,0.1,0c0.1,0,0.1,0,0.2,0&#xA;	l0,0v0.2l0,0h-0.3H34.8"/>
<path class="st0" d="M35.1,36.1L35.1,36.1l0.4-0.6l1.1-1.4c0.2-0.2,0.3-0.4,0.3-0.4h-0.4h-0.6h-0.3c0,0-0.1,0-0.1,0c0,0,0,0.1,0,0.1&#xA;	v0.2l0,0h-0.2l0,0c0-0.1,0-0.2,0-0.2s0-0.3,0-0.4l0,0c0.4,0,0.8,0,0.9,0s0.7,0,1.1,0l0,0v0.1l-0.3,0.3l-1.5,2h1.2H37&#xA;	c0,0,0.1,0,0.1,0c0,0,0,0,0,0c0,0,0-0.1,0-0.1v-0.2l0,0h0.1l0,0c0,0.1,0,0.3,0,0.6l0,0H36h-1L35.1,36.1z"/>
<path class="st0" d="M35.8,38.1h0.5h0.5l0,0v0.1l0,0h-0.2c0,0-0.1,0-0.1,0c0,0,0,0.1,0,0.1c0,0.1,0,0.1,0,0.2v1.7c0,0.1,0,0.2,0,0.3&#xA;	v0.1h0.1h0.2l0,0v0.1l0,0h-0.5h-0.5l0,0v0l0,0H36h0.1v-0.1c0,0,0-0.1,0-0.3v-1.7c0-0.1,0-0.2,0-0.3c0,0,0-0.1,0-0.1c0,0,0,0-0.1,0&#xA;	c-0.1,0-0.2,0-0.2,0l0,0L35.8,38.1L35.8,38.1z"/>
<path class="st0" d="M34.9,45.3L34.9,45.3v-0.1l0,0c0.1,0,0.1,0,0.2,0c0,0,0.1,0,0.1,0c0-0.1,0.1-0.2,0.1-0.2l0.2-0.4l0.5-1.1&#xA;	c0.1-0.2,0.2-0.5,0.3-0.7h0.1l0.8,1.8l0.1,0.3c0,0.1,0.1,0.2,0.1,0.2c0,0.1,0,0.1,0.1,0.2h0.1c0.1,0,0.1,0,0.2,0l0,0v0.1l0,0h-0.4&#xA;	h-0.6l0,0v0l0,0c0.1,0,0.2,0,0.3,0c0,0,0,0,0-0.1c0,0,0-0.1,0-0.1l-0.2-0.6h-1.1l-0.2,0.5c0,0.1,0,0.1-0.1,0.2c0,0,0,0.1,0.1,0.1&#xA;	c0.1,0,0.2,0,0.3,0v0.1h-0.4L34.9,45.3 M35.8,44.3h0.9l-0.4-1.1L35.8,44.3z"/>
<rect x="33.8" y="14.2" class="st0" width="0.3" height="32.4"/>
<rect x="38.6" y="14.3" class="st0" width="0.3" height="32.4"/>
<path class="st0" d="M7.8,20.6L8,20.5l0,0.1l0,0l0.4,0.8l-0.1,0.1c-0.2,0.2-0.4,0.3-0.5,0.5l-0.2,0.3l-0.1,0.1l-0.1-0.2l0,0v-0.4&#xA;	l0,0l0.1-0.1l0.2-0.2c0.1-0.1,0.2-0.2,0.3-0.2l-0.1-0.1l-0.1-0.3L7.8,20.6z"/>
<path class="st0" d="M4.9,26l-0.2-0.1l0,0l-0.1,0.2l0,0l-0.1,0.2l0,0l0.3,0.1l0.1,0.1c-0.1,0.3-0.1,0.7-0.2,1l-0.7,0.2l-0.3,0.1l0,0&#xA;	v0.2c0,0.1,0,0.2,0,0.3c0,0.3,0,0.8,0,1v0.2l1,0.2c0,0.3,0.1,0.7,0.2,1l-0.9,0.5l0.1,0.2c0,0.1,0.1,0.3,0.2,0.6V32v0.1l0,0L4.3,32&#xA;	l0.1-0.3l0,0c0-0.1-0.1-0.2-0.1-0.2h0.2c0-0.1,0-0.1,0-0.1l0.2-0.1L5,31.1l0,0l0.3-0.5l0,0c0-0.1,0-0.2,0-0.2&#xA;	c-0.1-0.3-0.1-0.7-0.1-1v-0.2l-1-0.2v-0.9l0.9-0.2v-0.2c0-0.4,0.1-0.9,0.2-1.3v-0.2l-0.2-0.1L4.9,26L4.9,26z"/>
<path class="st0" d="M24.5,32L24.4,32l-0.1-0.4v-0.1c0,0,0,0,0-0.1l0-0.1L23.8,31l-0.2-0.1l0.2-0.3l0,0l0.1-0.1l0.1,0.1l0.9,0.5v0.2&#xA;	l-0.1,0.4l0,0c0,0.1,0,0.1-0.1,0.2L24.5,32z"/>
<path class="st0" d="M14.4,39.3h-0.8l-0.2-1c-0.3,0-0.7-0.1-1-0.2l-0.5,0.9l-0.2,0l-1.2-0.4l-0.2-0.1l0.1-1&#xA;	c-0.3-0.1-0.6-0.3-0.9-0.5l-0.7,0.7l-0.2-0.1c-0.2-0.1-0.9-0.6-1-0.8l-0.1-0.1l0.4-0.9c-0.3-0.2-0.5-0.5-0.7-0.7l-0.9,0.4l-0.1-0.1&#xA;	L6,35.2l0-0.1c-0.1-0.1-0.2-0.2-0.2-0.3l0.4-0.3l0.2,0.3l0.1,0.1h0l0.9-0.4l0.1,0.1C7.7,35,8,35.3,8.3,35.6l0.1,0.1L8,36.6l0.7,0.5&#xA;	l0.7-0.7l0.2,0.1c0.4,0.2,0.8,0.4,1.2,0.6l0.2,0.1l-0.1,1l0.8,0.3l0.5-0.9l0.2,0c0.4,0.1,0.9,0.2,1.3,0.2h0.2l0.2,1h0.9l0.2-0.9h0.2&#xA;	c0.4,0,0.9-0.1,1.3-0.2l0.2,0l0.5,0.9l0.8-0.3l-0.1-1l0.2-0.1c0.4-0.2,0.8-0.4,1.2-0.6l0.2-0.1l0.7,0.7c0.2-0.1,0.5-0.4,0.7-0.5&#xA;	l-0.4-0.9l0.1-0.1c0.3-0.3,0.6-0.6,0.9-0.9l0.1-0.1l0.9,0.4l0.4-0.6l0.1-0.2l0.4,0.3l-0.1,0.2l-0.5,0.7l-0.1,0.1l-0.9-0.4&#xA;	c-0.2,0.2-0.5,0.5-0.7,0.7l0.4,0.9L21.3,37c-0.2,0.1-0.9,0.6-1,0.8l-0.2,0.1l-0.8-0.8c-0.3,0.2-0.6,0.3-0.9,0.5l0.1,1l-0.2,0.1&#xA;	L17.1,39L17,39l-0.5-0.9c-0.3,0.1-0.7,0.1-1,0.2l-0.2,1L14.4,39.3L14.4,39.3z"/>
<path class="st0" d="M13.8,17.8L13.8,17.8z M22.2,22.3L22,22.4l-0.4,0.2l-0.1-0.1c-0.3-0.3-0.6-0.6-0.9-0.9l-0.1-0.1l0.4-0.9&#xA;	l-0.5-0.3L20.2,20l-0.7,0.7l-0.2-0.1c-0.4-0.2-0.8-0.4-1.2-0.6l-0.2-0.1l0.1-1c-0.2-0.1-0.6-0.2-0.8-0.3l-0.5,0.9h-0.2&#xA;	c-0.4-0.1-0.9-0.2-1.3-0.2h-0.2l-0.2-0.9c-0.2,0-0.6,0-0.9,0l-0.2,0.9h-0.2c-0.4,0-0.9,0.1-1.3,0.2h-0.2l-0.5-0.9&#xA;	c-0.2,0.1-0.6,0.2-0.8,0.3l0.1,1l-0.2,0.1c-0.4,0.2-0.8,0.4-1.2,0.6l-0.2,0.1L8.7,20L8.6,20l-0.4,0.3l0,0H8.2L8,20.1l0.2-0.5&#xA;	l0.1-0.1l0.3-0.2h0.1l0,0l0.1-0.1L9.5,20c0.3-0.2,0.6-0.3,0.9-0.5l-0.1-1l0.2-0.1c0.2-0.1,1-0.3,1.2-0.4h0.2l0.5,0.9&#xA;	c0.3-0.1,0.7-0.1,1-0.2l0.2-1.1h0.2h1.3h0.2l0.2,1c0.3,0,0.7,0.1,1,0.2l0.5-0.9h0.2c0.2,0.1,1,0.3,1.2,0.4l0.2,0.1l-0.1,1&#xA;	c0.3,0.1,0.6,0.3,0.9,0.5l0.7-0.7l0,0l0.1,0.1h0.1l0.4,0.2l0,0l0.3,0.2l0,0l0,0l0.3,0.2l0.1,0.1l-0.1,0.2l-0.3,0.7&#xA;	c0.3,0.2,0.5,0.5,0.7,0.7l0.3-0.1l0.1,0l0.1,0.2L22.2,22.3z"/>
<path class="st0" d="M23.8,29.2L23.8,29.2L23.8,29.2h0.2l0,0l0.8-0.2c0-0.2,0-0.6,0-0.9l-1-0.2v-0.2c0-0.5-0.1-0.9-0.2-1.4l0-0.2&#xA;	l0.4-0.2l0.4-0.2h0.2l0.1,0.1l-0.1,0.3l0,0l-0.2,0.1l-0.1,0.1c0.1,0.3,0.1,0.7,0.2,1l0.5,0.1l0.3,0.1l0.2,0.3c0,0,0,0,0,0.1v0.4&#xA;	c0,0.3,0,0.7,0,0.8v0.2l-1,0.2c0,0.2,0,0.4-0.1,0.6l0,0h-0.2L23.8,29.2z"/>
<path class="st0" d="M9.7,35l1.6-5.5l-4.5-3.5l5.7-0.1l1.9-5.4l1.9,5.4l5.7,0.1l-4.5,3.5l1.6,5.5l-4.7-3.2L9.7,35z M14.4,31.2&#xA;	l3.8,2.7l-1.3-4.5l3.7-2.8L16,26.4L14.4,22l-1.5,4.4l-4.7,0.1l3.7,2.8l-1.3,4.5L14.4,31.2z"/>
<path class="st0" d="M9.5,35.3l1.7-5.8L6.4,26l6-0.1l2-5.7l2,5.7l6,0.1l-4.8,3.6l1.7,5.7l-4.9-3.4L9.5,35.3z M7.2,26.2l4.3,3.3&#xA;	L10,34.7l4.4-3.1l4.5,3.1l-1.6-5.2l4.3-3.3l-5.4-0.1l-1.8-5.1l-1.8,5.1L7.2,26.2z M18.5,34.1l-4.1-2.8l-4.1,2.8l1.4-4.8l-3.9-3&#xA;	l4.9-0.1l1.6-4.6l1.6,4.7l4.9,0.1l-3.9,3L18.5,34.1z M14.4,31l3.6,2.5l-1.2-4.2l3.5-2.7l-4.4-0.1l-1.5-4.1L13,26.5l-4.4,0.1l3.5,2.7&#xA;	l-1.3,4.2L14.4,31z"/>
<path class="st0" d="M16.5,26.2h-0.4L16,25.9l-0.1-5.1H16c2.2,0.5,4.1,1.9,5.2,3.9l0.1,0.2L16.5,26.2z M16.3,25.9h0.2l4.5-1.2&#xA;	c-1-1.8-2.8-3-4.8-3.5L16.3,25.9L16.3,25.9z"/>
<path class="st0" d="M12.4,26.2l-4.8-1.4l0.1-0.2c1.1-2,3.1-3.3,5.3-3.7h0.2L12.9,26l-0.1,0.3L12.4,26.2z M8,24.6l4.4,1.3h0.1v-0.1&#xA;	l0.2-4.7C10.8,21.6,9,22.9,8,24.6L8,24.6z"/>
<path class="st0" d="M8.7,33.9l-0.1-0.1c-0.6-0.7-1.1-1.5-1.4-2.3v0v0c0.1-0.5,0.2-1.1,0.2-1.6v-0.1l0,0L6.9,30l0.4-0.8&#xA;	c0,0,0-0.1,0-0.1c-0.1,0-0.3,0-0.4,0.1l-0.2,0.1v-0.2c0-0.5,0-1,0-1.5v-0.2l4.9,1.8l0.2,0.1l-0.1,0.3L8.7,33.9z M7.4,31.4&#xA;	c0.3,0.7,0.7,1.4,1.3,2l2.7-3.9v-0.1l-4.5-1.7c0,0.4,0,0.7,0,1.1c0.2-0.1,0.4-0.1,0.6,0l0,0c0.1,0.1,0.1,0.2,0,0.4&#xA;	c0.1,0.1,0.2,0.2,0.2,0.4C7.6,30.3,7.6,30.9,7.4,31.4z"/>
<path class="st0" d="M14.4,36.4c-1.1,0-2.3-0.2-3.3-0.7L11,35.6l3.3-4.1l0.2-0.1l0.2,0.1l0,0l3.2,4.1l-0.2,0.1&#xA;	C16.6,36.1,15.5,36.4,14.4,36.4z M11.4,35.5c1.9,0.8,4,0.8,5.9,0l-2.9-3.8L11.4,35.5z"/>
<path class="st0" d="M20.1,34l-2.8-4.3l-0.1-0.3l0.2-0.1l0,0l4.9-1.8v0.2c0.1,0.7,0.1,1.4,0,2.1V30H22c0,0-0.1,0-0.1,0&#xA;	c0,0,0,0.1,0,0.2c0,0.1,0.1,0.3,0.1,0.4v0v0.1c-0.3,1.2-1,2.3-1.8,3.2L20.1,34z M17.5,29.6l2.6,3.9c0.7-0.8,1.3-1.9,1.6-2.9&#xA;	c-0.1-0.1-0.1-0.3-0.1-0.4c0-0.1,0-0.3,0.1-0.4c0.1-0.1,0.1-0.1,0.2-0.1c0.1-0.6,0.1-1.2,0.1-1.7l-4.5,1.6L17.5,29.6z"/>
<path class="st1" d="M28.5,30.7c0.3-0.3,0.4-0.8,0.1-1.2c0.1-0.6,0-1-0.2-1.1c-0.2-0.2-0.5-0.1-0.8,0.2c-0.2-0.1-0.4,0-0.8,0.3&#xA;	c0-0.1,0-0.3,0-0.4c0.2-0.1,0.4-0.2,0.6-0.5c0.1-0.2,0.1-0.5,0.1-0.8c0.1-0.4,0.3-0.8,0.6-1.2c0.3-0.5,0.1-0.7-0.5-0.6&#xA;	c0.3-0.2,0.4-0.5,0.5-0.8c0-0.3-0.1-0.5-0.3-0.8c-0.1-0.2-0.2-0.2-0.4-0.1c0.1-0.1,0.1-0.3,0.1-0.4c0-0.3-0.1-0.7-0.3-1&#xA;	c0-0.7-0.2-0.9-0.5-0.8c0-0.3-0.2-0.7-0.3-1c-0.3-0.4-0.5-0.5-0.6-0.3c-0.4-0.7-0.8-0.9-1.2-0.8c0-0.3-0.1-0.5-0.3-0.8&#xA;	c-0.1-0.3-0.2-0.6-0.4-0.9c-0.2-0.1-0.3,0-0.4,0.3c0-0.3-0.1-0.5-0.2-0.8c-0.1-0.2-0.3-0.4-0.6-0.4c-0.1,0-0.2,0-0.3,0.1&#xA;	c-0.1-0.1-0.3-0.2-0.5-0.2c-0.4-0.4-0.7-0.4-1-0.1l-0.1-0.3c-0.1-0.4-0.3-0.5-0.7-0.3c-0.4-0.5-0.8-0.8-1.4-1.1&#xA;	c-0.3-0.1-0.5-0.1-0.6,0.1c-0.1-0.1-0.3-0.3-0.5-0.3c-0.2,0-0.4-0.1-0.5-0.2c-0.3,0-0.4,0.1-0.3,0.4c-0.3,0-0.6,0.1-0.8,0.2&#xA;	c-0.2,0.1-0.2,0.3-0.1,0.5c0.1,0.2,0.3,0.4,0.5,0.5c-0.1,0.1-0.1,0.2-0.1,0.4c0,0.2,0.2,0.3,0.5,0.4c0.2,0.1,0.5,0.1,0.8,0&#xA;	c-0.1,0.2,0,0.4,0.2,0.5c0,0,0.1,0,0.1,0c0.3,0.4,0.8,0.5,1.2,0.3l0,0.3l0.7,0.3c0,0.3,0.2,0.5,0.4,0.7l0.3,0.1&#xA;	c-0.1,0.1-0.2,0.1-0.3,0.2c-0.1,0.1-0.1,0.2,0,0.3c0,0.1,0.1,0.1,0.2,0.1h0.4c0.2,0,0.3,0,0.5,0c0,0.1,0.1,0.2,0.1,0.3&#xA;	c0.1,0.2,0.2,0.3,0.4,0.5c0.2,0.2,0.5,0.4,0.8,0.5c-0.1,0.1-0.1,0.3-0.2,0.4c0,0.1-0.1,0.3-0.1,0.4c0,0.2,0,0.3,0.1,0.4&#xA;	c0,0-0.2,0.1-0.3,0.2c-0.2,0.3,0.2,0.8,0.3,0.9c-0.1,0-0.2,0.1-0.2,0.1c-0.2,0.1-0.1,0.7,0.3,0.8c0.3,0.2,0.6,0.4,0.9,0.6&#xA;	c0,0,0.2,0.3,0.4,0.6c0.2,0.3,0.2,0.4,0.5,0.4v0.1c0.2,0.6,0.5,1.2,0.8,1.7l0.1,0.1l0.2,0.3c0.2,0.3,0.4,0.6,0.6,0.9&#xA;	c0,0.2,0,0.3,0,0.5c-0.1,0.5-0.2,1-0.3,1.5c-0.5-0.2-0.6,0.1-0.6,0.4c0,0-0.2,0-0.3,0.1c0,0,0-0.1,0-0.1c-0.1-0.1-0.3-0.2-0.4-0.1&#xA;	L24,31.6c0,0-0.1-0.2-0.1-0.3c0-0.2,0-0.4,0-0.5l0-0.1c0-0.1,0.1-0.1,0.1-0.2c0.1-0.4,0.1-0.8,0-1.2c0-0.1-0.1-0.3-0.1-0.4&#xA;	c0-0.1-0.1-0.2-0.3-0.3c0,0-0.3,0-0.3,0.2c0-0.1-0.2-0.2-0.3-0.2c-0.4-0.1-0.8,0.6-0.7,1.3c-0.1,0-0.2,0-0.3,0&#xA;	c-0.2,0-0.4,0.1-0.3,0.3c0,0.2,0.1,0.3,0.2,0.4c0.3,0.4,0.5,0.9,0.7,1.4c-0.2-0.2-0.8-0.2-0.8,0.3c0,0.2,0.1,0.4,0.2,0.5&#xA;	c-0.1,0.5,0.5,0.9,1,1.4c0,0.2,0.1,0.2,0.1,0.3l0,0l-0.7,1c0,0-0.4-0.2-0.5-0.1c-0.1,0.1-0.2,0.2-0.3,0.4l0.1,0.6&#xA;	c0,0.4-0.1,0.7-0.4,0.9c-0.3,0.3-0.5,0.6-0.6,0.9c-0.1,0.3-0.4,0.5-0.7,0.7c-0.1-0.1-0.2-0.2-0.3-0.3c0,0-0.1-0.1-0.1-0.1&#xA;	c-0.8,0.3-1.6,0.6-2.3,1c-0.3,0.2-0.6,0.5-0.9,0.9h-0.7c-0.2-0.1-0.4-0.3-0.6-0.4c-0.1-0.1-0.4-0.1-0.8,0.1c-0.4-0.1-0.7,0-1,0.2&#xA;	c-0.1,0.1-0.3,0.1-0.5,0.1l-0.8-0.9c-0.9-0.5-1.8-0.8-2.8-1C9.1,38.7,9,38.8,8.9,39c-0.3-0.2-0.5-0.4-0.8-0.6l-0.5-0.6&#xA;	c-0.3-0.3-0.5-0.8-0.4-1.2L7.3,36c0-0.1,0-0.1,0-0.2c-0.1-0.1-0.3-0.2-0.5-0.2c0,0-0.1,0-0.2,0.3c-0.2-0.2-0.4-0.5-0.5-0.8&#xA;	c0,0,0,0,0,0c0.2-0.3,0.4-0.7,0.5-1.1c0.1-0.5,0.2-1,0.2-1.6c0,0,0-0.1,0.1-0.1c0.2-0.2,0.3-0.5,0.3-0.8c0.1-0.6,0.2-1.1,0.2-1.7&#xA;	c0-0.2-0.1-0.3-0.1-0.3c0,0-0.1,0-0.1,0l0.1-0.2c0.1-0.1,0.1-0.2,0-0.3c-0.2,0-0.4,0-0.6,0.1l0,0c0-0.3-0.1-0.6-0.2-0.9&#xA;	c0-0.1-0.1,0-0.1,0c-0.5,0.4-0.8,1-0.8,1.7l-0.1,0.2c-0.1,0.2-0.3,0.3-0.4,0.5c0,0.1-0.1,0.2-0.2,0.2c-0.2,0.3-0.3,0.6-0.5,1&#xA;	c-0.1,0.3-0.2,0.6-0.3,0.9C4.1,32.5,4,32.2,3.9,32c-0.1-0.2-0.1-0.4-0.1-0.6c0.1-0.1,0-0.3-0.1-0.4c-0.2-0.5-0.4-1-0.4-1.5&#xA;	c0-0.4,0.1-0.7,0.3-1.1c0.2-0.6,0.6-1.2,0.9-1.7c0.1-0.1,0.2-0.2,0.2-0.2c0.1,0,0.2-0.1,0.2-0.1c0.8-0.6,2.5-3,2.7-4.5&#xA;	c0-0.1,0-0.3,0-0.4c0.1-0.2,0.3-0.4,0.4-0.6c0.2-0.3,0.4-0.7,0.5-1c0.1-0.2,0.2-0.5,0.3-0.7l0.1,0L9.1,19c0.6-0.2,1-0.5,1.5-0.7&#xA;	l0.7-0.4c0.5-0.2,0.9-0.5,1.3-0.8c0.4-0.3,0.6-0.7,0.7-1.2c-0.1-0.1-0.3-0.2-0.7-0.2c0.2-0.2,0.3-0.4,0.3-0.7&#xA;	c-0.1-0.2-0.6-0.2-1.3-0.1c-0.7,0.2-1.4,0.5-2,0.9C9,16.3,8.5,16.7,8,17.3c-0.4,0.5-0.8,1-1.1,1.6l0.3-0.8c0.2-0.4,0.3-0.8,0.5-1.3&#xA;	c0-0.2,0-0.3,0-0.5c-0.1-0.1-0.2-0.1-0.3-0.1c-0.4,0.2-0.7,0.4-1,0.7c-0.5,0.6-1,1.2-1.4,1.9c-0.3,0.6-0.6,1.2-0.8,1.8&#xA;	c0.1-0.4,0.1-0.9,0-1.3c-0.1-0.1-0.2-0.2-0.4-0.1c-0.2,0.2-0.4,0.3-0.6,0.6l-0.5,0.7c-0.2,0.3-0.4,0.7-0.6,1c-0.3,0.5-0.5,1-0.6,1.5&#xA;	c-0.2,0.8-0.3,1.5-0.4,2.3c-0.1,0.7,0,1.3,0.1,2c0.1,0.5,0.3,1.1,0.5,1.6c0.2,0.3,0.3,0.5,0.5,0.6c0.1,0.3,0.2,0.7,0.4,1.2&#xA;	C2.9,30.9,3,31.1,3,31.3c0,0.1,0,0.2,0.1,0.3c0.1,0.1,0.2,0.2,0.2,0.3c0.1,0.5,0.3,1,0.6,1.5c0,0.2-0.1,0.5-0.1,0.7&#xA;	c-0.5-1.5-1-2.7-1.3-3.5c-0.7-1.4-1.1-2.1-1.5-2c-0.2,0.1-0.3,0.3-0.3,0.5c0,0.1,0,0.4,0,0.8c0,0.4,0,0.9,0.1,1.3&#xA;	C1,32.6,1.6,33.9,2.5,35l1.2,1.4c0.2,0.2,0.4,0.4,0.7,0.5C4.6,37.1,4.8,37.1,5,37c0.3,0.5,0.7,1,1,1.4c0.3,0.4,0.5,0.6,0.8,0.6&#xA;	c0.1,0.2,0.3,0.4,0.6,0.4h0.2C8,39.7,8.3,40,8.6,40.2l-0.3,0.9c-0.5,0.1-1,0.1-1.5,0.1C6.3,41,5.7,40.5,5,40v-1c0-0.3,0-0.6,0.2-0.9&#xA;	c0-0.2-0.1-0.4-0.3-0.5c-0.2-0.1-0.5-0.2-0.8-0.2c-0.1,0-0.1,0.1-0.1,0.2v0.6H2.3c-0.1,0-0.3,0.1-0.4,0.2c-0.1,0.1-0.1,0.3,0,0.7&#xA;	c0,0.1,0,0.2,0,0.3c-0.1,0.5-0.3,0.9-0.6,1.3c0,0.1,0,0.2,0.1,0.4c0.2,0.3,0.4,0.5,0.6,0.7c0.2,0.2,0.4,0.4,0.7,0.5&#xA;	c0.3,0.2,0.8,0.5,1.6,1c0.8,0.5,1.7,0.9,2.5,1.3c0.2,0,1.3-0.1,3.3-0.5v0.2c-0.6,0.5-1,0.6-1.1,0.6c-0.2-0.1-0.3,0.2-0.2,0.5&#xA;	c0.1,0.1,0.2,0.3,0.4,0.3l0.2,0.3l0.6,0.4c0.2,0.1,0.4,0.1,0.7,0c0.2-0.1,0.4-0.3,0.4-0.5l0.7-0.7l0.5-0.4c0.3,0,0.6-0.2,0.7-0.4&#xA;	c0-0.2,0.1-0.3,0.2-0.3l0.6-0.4c0-0.1,0.3,0,0.7,0.3c0.2,0.1,0.4,0.1,0.6,0l0.4-0.3c0.8,0.3,1.5,0.8,2.1,1.5c0,0.1,0,0.2,0.2,0.4&#xA;	c0.2,0.1,0.4,0.2,0.6,0.3l0.2,0.4l0.2,0.1c0.4,0,0.7-0.1,1-0.4l0.4-0.1c0.2-0.1,0.3-0.3,0.3-0.4L20.3,45L20,44.9&#xA;	c-0.4-0.2-0.8-0.5-1.2-0.8l-0.3-0.2c1.2,0.2,2.7,0.4,4.5,0.5c0.3,0,0.7-0.1,0.9-0.3c0.4-0.3,1.5-1.1,3.4-2.4c0.3-0.3,0.5-0.7,0.7-1&#xA;	c-0.2-0.2-0.3-0.4-0.4-0.7c-0.1-0.2-0.2-0.5-0.2-0.7c0-0.2,0-0.3,0-0.5c0-0.2,0-0.3-0.1-0.4c-0.1-0.1-0.2-0.1-0.4-0.2&#xA;	c-0.4,0-0.8,0-1.2,0c-0.2,0-0.3-0.1-0.4-0.2v-0.4c0-0.2,0-0.3-0.1-0.2c-0.3,0-0.6,0.2-0.9,0.4c-0.1,0.1-0.2,0.3,0,0.5c0,0,0,0,0,0&#xA;	c0.1,0.1,0.2,0.2,0.2,0.4c0,0.5-0.1,1-0.2,1.5c-0.5,0.4-1.1,0.8-1.7,1.2c-0.5,0.1-1.1,0.1-1.6-0.1c-0.2-0.2-0.3-0.5-0.4-0.8&#xA;	c0.3-0.2,0.6-0.4,0.9-0.6c0.2,0,0.4-0.1,0.5-0.1c0.1,0,0.2-0.2,0.2-0.4c0.2-0.1,0.3-0.2,0.3-0.4l1-1.2c0.3-0.3,0.7-0.4,1-0.5&#xA;	c0.6-0.1,1.2-0.4,1.7-0.8c0.1-0.1,0.1-0.3,0-0.5c0.4-0.3,0.7-0.6,1-1c0.2-0.3,0.2-0.6,0.1-0.9c0.3-0.4,0.6-0.8,0.7-1.3&#xA;	c0-0.3,0-0.6,0-0.9c0.2-0.1,0.3-0.2,0.4-0.3c0.1-0.1,0.1-0.2,0.1-0.4C28.7,31,28.6,30.8,28.5,30.7z M19.7,18.1l-0.6-0.2v-0.4&#xA;	l-0.3,0.1c-0.3,0.1-0.7,0-0.9-0.3c-0.2,0-0.3,0-0.3-0.2c0-0.2,0.1-0.3-0.1-0.3h-0.5c-0.2,0-0.5-0.1-0.6-0.3c-0.1-0.1,0-0.3,0.1-0.4&#xA;	c-0.2-0.1-0.4-0.2-0.6-0.4c-0.1-0.1,0-0.3,0.1-0.4c0.3-0.1,0.6-0.1,0.9,0C17,15.3,17,15.1,17,15c0-0.1,0.3-0.1,0.9,0.2l0.3,0.2&#xA;	c0.1-0.2,0.3-0.2,0.5-0.1c0,0,0,0,0,0c0.3,0.1,0.5,0.3,0.7,0.4c0.3,0.2,0.5,0.5,0.8,0.7c0.2-0.2,0.4-0.1,0.5,0.1l0.1,0.4&#xA;	c-0.2-0.2-0.6-0.3-0.9-0.1l-0.2-0.1c-0.2-0.3-0.4-0.6-0.6-0.9c-0.1-0.3-0.1-0.3-0.1-0.1c0.1,0.3,0.2,0.6,0.4,0.9&#xA;	c-0.4-0.1-0.8-0.3-1.1-0.6c-0.2-0.2-0.4-0.4-0.5-0.6c-0.1-0.2-0.2-0.2-0.2,0c0.1,0.3,0.3,0.6,0.6,0.8L17.6,16&#xA;	c-0.3-0.1-0.6-0.2-1-0.3c-0.1,0-0.1,0,0,0.1c0.3,0.1,0.6,0.2,0.9,0.3c0.1,0.1,0.3,0.1,0.4,0.3c-0.3,0.1-0.6,0.2-1,0.2&#xA;	c-0.2,0-0.3,0-0.3,0c0.1,0,0.1,0.1,0.2,0.1c0.4,0,0.8,0,1.2-0.2c0.3,0.2,0.7,0.3,1.1,0.5c-0.3,0.1-0.5,0.2-0.7,0.3&#xA;	c-0.1,0.1,0,0.1,0.1,0c0.2-0.2,0.5-0.2,0.8-0.3l0.3,0.1c0,0.3,0.1,0.7,0.3,0.9L19.7,18.1z M21,19.7c-0.6,0-0.8,0-0.8-0.1&#xA;	c0-0.1,0-0.1,0.2-0.3l0.1-0.2c-0.4-0.2-0.7-0.4-0.7-0.8l0.3-0.1c0.1-0.2,0.1-0.3,0-0.3c-0.1-0.1-0.2-0.3-0.2-0.6&#xA;	c0-0.3,0.4-0.3,0.9,0c0.2-0.4,0.5-0.5,0.8-0.4c-0.3,0-0.5,0.2-0.6,0.4c0,0.2,0,0.4,0,0.7c-0.1-0.2-0.2-0.3-0.4-0.4&#xA;	c-0.3-0.2-0.4-0.1-0.2,0.1c0.2,0.2,0.4,0.4,0.5,0.6c-0.2,0.2-0.5,0.3-0.8,0.3c-0.1,0-0.1,0.1,0,0.1c0.2,0,0.3,0,0.5,0&#xA;	c0,0.2,0,0.4,0.1,0.7c0.1,0.2,0.2,0.3,0.4,0.4C21.1,19.6,21.1,19.7,21,19.7z M21.4,20c0-0.1,0.1-0.2,0.4-0.2c0.3,0,0.3-0.1,0.1-0.2&#xA;	c-0.3-0.1-0.6-0.3-0.8-0.6c-0.1-0.2-0.1-0.3,0-0.4l0.2-0.1l0.1-0.1l-0.1-0.6c-0.1-0.2,0-0.5,0.3-0.6c0.3,0,0.7,0.1,0.9,0.3&#xA;	c0-0.2,0.1-0.2,0.3-0.1c0.2,0.1,0.4,0.5,0.5,1.2l0.3,0.1c0.1-0.2,0.2-0.3,0.2-0.3c0.1,0,0.2,0.2,0.3,0.6c0.2,0.3,0.3,0.6,0.3,1&#xA;	c-0.1,0.2-0.2,0.5-0.2,0.7L24,20.3c-0.1-0.3-0.1-0.7-0.1-1.1c0-0.2,0-0.2-0.1,0c0,0.3,0,0.5,0,0.8c-0.3-0.4-0.6-0.7-1-1.1&#xA;	c-0.1-0.3-0.1-0.6-0.1-0.8c0-0.3-0.1-0.3-0.1-0.2c0,0.3,0,0.6,0,0.9c-0.3-0.3-0.6-0.7-0.9-1.1c-0.1-0.2-0.1-0.2-0.1-0.1&#xA;	c0.2,0.4,0.4,0.7,0.7,1c0.2,0.3,0.4,0.5,0.6,0.6c-0.2-0.1-0.5-0.1-0.8-0.2c-0.2,0-0.4-0.1-0.6-0.2c-0.2,0-0.2,0,0,0.1&#xA;	c0.2,0.1,0.4,0.2,0.6,0.2c0.3,0.1,0.6,0.1,0.9,0.3c0.2,0.2,0.4,0.4,0.6,0.7l0.2,0.5c-0.3-0.2-0.7-0.3-1-0.4c-0.2,0-0.5-0.1-0.7-0.2&#xA;	c-0.3-0.1-0.3-0.1-0.1,0c0.2,0.1,0.5,0.2,0.7,0.2c0.4,0.1,0.8,0.2,1.2,0.5v0.1c-0.1,0.1-0.1,0.2-0.1,0.4l0.1,0.3&#xA;	c-0.1-0.1-0.2-0.1-0.4,0.2c0-0.1,0-0.2,0-0.3c-0.3-0.3-0.7-0.6-1.1-0.7l-0.1,0.2C21.9,20.8,21.5,20.5,21.4,20z M25.5,28.4&#xA;	c-0.1-0.2-0.3-0.4-0.5-0.8c-0.2-0.3-0.3-0.6-0.5-0.9c-0.1-0.2-0.1-0.5-0.1-0.7c0,0,0,0,0-0.1l0.1-0.3l0.1-0.2c0-0.1,0-0.1,0-0.1&#xA;	l-0.1,0.1c-0.1,0.2-0.2,0.3-0.2,0.5c0,0,0,0,0,0.1V26L24,25.1c0-0.2,0-0.3,0.1-0.5c0.1-0.3,0.3-0.7,0.5-1c0.1-0.2,0.1-0.2,0,0&#xA;	c-0.2,0.3-0.4,0.7-0.6,1c0,0.1-0.1,0.2-0.1,0.3l-0.1-0.3l-0.4-0.9c0.1-0.4,0.2-0.8,0.4-1.2c0.1-0.3,0.1-0.3-0.1,0&#xA;	c-0.2,0.3-0.3,0.6-0.4,0.9c-0.1-0.2-0.1-0.4-0.1-0.6c0-0.2-0.1-0.5-0.2-0.7c-0.1-0.2-0.1-0.2-0.1-0.3h-0.1l0,0.1v0.1&#xA;	c0.1,0.3,0.1,0.7,0.2,1c0,0.2,0.1,0.3,0.1,0.4c-0.1-0.1-0.2-0.2-0.3-0.2c-0.1-0.1-0.3-0.2-0.4-0.2c-0.1-0.1-0.1-0.1,0,0.1&#xA;	c0.1,0.1,0.2,0.1,0.4,0.2c0.1,0.1,0.3,0.2,0.4,0.3c0.1,0.3,0.3,0.6,0.4,0.9c-0.2-0.1-0.3-0.2-0.5-0.3c-0.2-0.1-0.3-0.2-0.5-0.2&#xA;	c-0.2-0.1-0.2,0,0,0.1c0.2,0.1,0.4,0.2,0.6,0.3c0.2,0.1,0.3,0.2,0.4,0.3c0,0,0.1,0.1,0.1,0.1l0.3,0.9c-0.1,0-0.3-0.2-0.5-0.6&#xA;	c-0.3-0.4-0.8-0.7-1.3-0.9c-0.1-0.1-0.2-0.2-0.2-0.4c0-0.1,0.1-0.2,0.4-0.2c-0.1-0.2-0.1-0.3-0.2-0.5l-0.1-0.2&#xA;	c-0.2-0.4-0.1-0.6,0.3-0.6c-0.1-0.2-0.2-0.4-0.2-0.5V22c0-0.2,0.1-0.4,0.2-0.5c0.1-0.1,0.1-0.3,0.2-0.4c0.2,0.1,0.4,0.2,0.6,0.3&#xA;	c0.2,0.1,0.3,0.3,0.3,0.5l-0.1,0.5c0,0.1,0.1,0.1,0.3-0.1c0.1-0.1,0.2-0.3,0.4-0.4c0.1,0.1,0.3,0.2,0.4,0.3c0.1,0.4,0.1,0.8-0.1,1.2&#xA;	L24,23.9c0.4-0.5,0.7-0.7,0.9-0.7c0.1,0.1,0.1,0.2,0.1,0.3c0,0.2,0,0.4,0,0.5c0,0.2,0,0.4-0.2,0.5c-0.2,0.2-0.3,0.4-0.3,0.7&#xA;	c0.4-0.3,0.5-0.2,0.4,0.2L24.7,26c-0.1,0.4,0,0.5,0.2,0.5s0.3,0,0.3,0.1c0,0.1,0,0.2,0,0.4c-0.1,0.1-0.1,0.3-0.1,0.5&#xA;	c0,0.1,0,0.1,0.1,0.2c0.1,0.1,0.2,0.1,0.3,0c0.2-0.1,0.3,0,0.3,0.1c0,0.1,0,0.3,0,0.5c0,0.2,0.1,0.3,0.2,0.5&#xA;	c0.1,0.1,0.2,0.2,0.3,0.2l0,0l0.1-0.2c-0.2,0-0.3-0.1-0.3-0.4c0-0.2,0-0.5,0-0.7c-0.1-0.2-0.2-0.3-0.3-0.4c-0.3-0.5-0.5-1.1-0.6-1.7&#xA;	h0.4c0.3,0.9,0.5,1.4,0.6,1.5c0.2,0.1,0.2,0.2,0.2,0.3c0,0.2,0,0.4,0.1,0.6c0.2-0.1,0.3-0.2,0.4-0.6c0.1-0.3,0-0.5-0.3-0.7&#xA;	c-0.2-0.1-0.4-0.3-0.4-0.4c0-0.1,0-0.3,0.2-0.4c0.2,0-0.2-0.3-0.9-0.8c-0.4-0.3-0.5-0.5-0.3-0.7s0.2-0.1,0.3,0&#xA;	c0.2,0.1,0.2,0.1,0.3,0.1s0-0.3-0.2-0.3c-0.2-0.1-0.3-0.1-0.3-0.2c0-0.2,0-0.5,0-0.7c0-0.1,0-0.3,0-0.4c-0.1-0.2-0.4-0.2-0.7,0&#xA;	c0.1-0.2,0.1-0.4,0.1-0.6c0-0.2-0.1-0.4-0.3-0.5l-0.2-0.5c0-0.2,0.1-0.3,0.3-0.4c-0.1-0.2-0.1-0.5,0-0.7c0.1-0.1,0.1-0.2,0.2-0.4&#xA;	c0-0.1,0.1-0.1,0.3,0c0.3,0.2,0.6,0.6,0.8,0.9c0.2-0.2,0.4-0.1,0.5,0.2c0.2,0.3,0.3,0.7,0.2,1.1c0.4-0.2,0.6-0.1,0.4,0.5&#xA;	c0.1,0.3,0.3,0.6,0.3,0.9c0,0.2,0,0.4-0.1,0.6c-0.1,0.1-0.1,0.3-0.2,0.4c0,0.1,0,0.1,0.1,0c0.1-0.1,0.3-0.2,0.5-0.2&#xA;	c0.1,0.2,0.2,0.4,0.2,0.6c0,0.2-0.1,0.3-0.2,0.4c-0.1,0.1-0.2,0.3-0.3,0.5c0,0.1,0.1,0.1,0.2,0.1l0.3-0.1c0.2,0,0.2,0.1,0,0.4&#xA;	c-0.1,0.2-0.2,0.5-0.3,0.7c-0.1,0.2-0.1,0.3-0.1,0.5c0,0.3-0.1,0.4-0.1,0.5c0-0.3,0-0.7,0-1c0-0.4-0.1-0.8-0.2-1.2&#xA;	c0.2-0.2,0.3-0.5,0.4-0.8c0.1-0.2,0.1-0.3-0.1-0.1c-0.1,0.2-0.2,0.5-0.4,0.6c-0.1-0.4-0.3-0.9-0.4-1.5c0.2-0.3,0.3-0.7,0.3-1&#xA;	c0-0.4,0-0.4-0.1-0.1c0,0.4-0.2,0.7-0.4,1c-0.1-0.5-0.3-0.9-0.5-1.3c0.1-0.3,0.1-0.5,0.1-0.8c0-0.3,0-0.3-0.1,0c0,0.2,0,0.4-0.1,0.6&#xA;	l-0.4-0.9l-0.2-0.5c-0.1-0.2-0.1-0.2-0.1,0l0.2,0.7c-0.1-0.2-0.3-0.3-0.5-0.4c-0.1-0.1-0.2-0.1-0.1,0c0.2,0.2,0.4,0.4,0.6,0.7&#xA;	c0.1,0.4,0.3,0.7,0.4,1.1c-0.3-0.3-0.6-0.5-0.9-0.6c-0.2-0.1-0.2,0,0,0.1c0.4,0.3,0.8,0.6,1.1,1l0.4,1c-0.3-0.2-0.6-0.4-0.8-0.7&#xA;	c-0.1-0.1-0.1-0.1,0,0.1c0.2,0.4,0.5,0.7,0.9,1l0.3,1c-0.3-0.3-0.6-0.6-1-0.8c-0.2-0.1-0.2-0.1,0,0.1c0.4,0.3,0.8,0.7,1.1,1.1&#xA;	c0.1,0.6,0.2,1.1,0.2,1.7c0,0.2-0.2,0.4-0.5,0.5l0,0l-0.1,0.8H26L25.5,28.4z M26,29.2c0.1,0,0.2,0,0.4,0C26.2,30,26,31,25.9,31.5&#xA;	l-0.2-0.1C25.8,30.7,26,29.9,26,29.2z M23,33.9l-0.6-0.5c-0.3-0.3-0.4-0.5-0.3-0.7c-0.1-0.1-0.1-0.2-0.2-0.3c-0.1-0.1,0-0.3,0-0.4&#xA;	c0.1-0.1,0.3-0.1,0.6,0.2c0.1-0.2,0.1-0.4,0-0.5c-0.1-0.2-0.1-0.3-0.2-0.5c-0.1-0.2-0.3-0.5-0.4-0.7c-0.1-0.1-0.1-0.2-0.1-0.3v-0.1&#xA;	l0,0c0.1,0,0.2,0,0.3,0.1c0.3-0.3,0.5-0.4,0.6-0.3c0.1,0.2,0.2,0.4,0.2,0.6c0,0.3,0,0.6,0,0.9l-0.1,0.1l0.1,0.1c0,0.3,0,0.5-0.1,0.8&#xA;	c0,0.1,0,0.2,0.1,0.3l0,0c0-0.1,0-0.2,0-0.3c0-0.1,0-0.2,0.1-0.4c0-0.1,0.1-0.2,0.1-0.4c0,0,0,0-0.1-0.1c0.1,0,0.1-0.1,0.1-0.1&#xA;	c0-0.1,0-0.1,0-0.2c0-0.2,0-0.4,0-0.5c0-0.2,0-0.4-0.1-0.7c0-0.2-0.1-0.3-0.1-0.4s-0.1-0.1-0.2-0.1c-0.1,0-0.3,0.1-0.5,0.4&#xA;	c0-0.3,0.2-0.7,0.3-1c0.1-0.2,0.2-0.2,0.3-0.1c0.1,0.1,0.2,0.1,0.2,0.2c0,0.1,0.1,0.1,0.2,0c0.1-0.1,0.2-0.1,0.2-0.1&#xA;	c0.1,0.1,0.1,0.1,0.1,0.2c0.1,0.1,0.1,0.2,0.1,0.3c0,0.2,0,0.4,0.1,0.6c0,0,0,0.1,0,0.1c0,0.2,0,0.3-0.1,0.5l0,0&#xA;	c-0.1,0.1-0.1,0.2-0.1,0.4c0,0.6,0.1,0.9,0.1,0.9c0.1,0,0.2-0.1,0.2-0.1c0.1-0.1,0.2-0.1,0.3-0.1c0.1,0,0.1,0.1,0.1,0.3&#xA;	c0,0,0,0.1,0,0.2c0,0.3,0,0.3,0.1,0.1s0.1-0.4,0.3-0.4s0.1,0.3,0.1,1c-0.3,0.3-0.6,0.6-0.9,1c-0.1-0.2-0.1-0.4,0-0.6&#xA;	c0.1-0.1,0.1-0.2,0.2-0.4c0.1-0.1,0.1-0.3,0.1-0.4v-0.1c0.1-0.2,0-0.2-0.1,0l0,0l-0.2,0.4c-0.1,0.1-0.1,0.2-0.2,0.3&#xA;	c0-0.2-0.1-0.5-0.2-0.7l0-0.2c-0.1-0.3-0.1-0.3-0.1,0v0.2c0.1,0.5,0.1,0.9,0.2,1.3c-0.2-0.2-0.4-0.4-0.6-0.5L22.9,33&#xA;	c-0.1-0.1-0.3-0.2-0.4-0.4c-0.1-0.1-0.1-0.1-0.1,0c0.1,0.2,0.2,0.3,0.4,0.4l0.2,0.2c0.2,0.1,0.3,0.3,0.5,0.5c0,0.1,0.1,0.1,0.1,0.2&#xA;	c-0.1,0.1-0.2,0.3-0.4,0.4l-0.1,0c0-0.1-0.1-0.1-0.1-0.2C23.1,34.1,23.1,34,23,33.9z M22.1,35.6c0.1,0,0.3,0.1,0.3,0.2&#xA;	c0,0.1-0.1,0.3-0.2,0.3c-0.1,0-0.3-0.1-0.3-0.3C21.9,35.7,22,35.6,22.1,35.6L22.1,35.6z M17.1,40.1c0.2-0.2,0.3-0.3,0.5-0.4&#xA;	c0.6-0.3,1.2-0.6,1.9-0.8c0.1,0,0.1,0,0.2,0l0.1,0.2l-0.2,0.1c-0.1,0.1-0.3,0.1-0.4,0.1c-0.2,0-0.4,0-0.6,0.1&#xA;	c-0.2,0.1-0.4,0.3-0.4,0.4c0,0.1-0.1,0.2-0.2,0.3l-0.7,0.4h-0.5L17.1,40.1z M18.4,40.2c-0.1-0.2,0-0.4,0.2-0.5&#xA;	c0.2-0.1,0.4-0.2,0.6-0.2c0.1,0,0.1,0.2,0,0.5c-0.1,0.2-0.4,0.3-1,0.6l-0.6-0.1l0.6-0.3l0.2,0.2h0.1L18.4,40.2z M15.2,40.3l0.2,0.2&#xA;	L15,40.3L15.2,40.3z M9.5,38.8c0.1-0.1,0.2-0.1,0.4,0l0.8,0.4l1.4,0.5c0.2,0.2,0.4,0.5,0.6,0.7c-0.3,0-0.6,0.1-0.9,0.1L11,40&#xA;	l-0.6-0.8c-0.1-0.1-0.2-0.3-0.4-0.3C9.8,38.8,9.7,38.8,9.5,38.8c0,0.1-0.1,0.2-0.2,0.4l0,0C9.3,38.9,9.4,38.9,9.5,38.8L9.5,38.8z&#xA;	 M10.2,39.5c-0.1,0.1-0.3,0.1-0.5,0l-0.3-0.2c0.1-0.2,0.2-0.3,0.4-0.2l0.3,0.2L10.2,39.5z M7.3,30.1c0,0.4-0.1,0.7-0.1,1.1&#xA;	c-0.1,0.3-0.1,0.5-0.2,0.8c0-0.4,0-0.8-0.1-1.2L7,30.5l0.1-0.2c0-0.1,0-0.1-0.1,0v0.1l-0.1,0.1v-0.3l0,0l0.2-0.3&#xA;	C7.3,29.6,7.3,29.7,7.3,30.1z M7.1,29.2c0.1,0,0.2,0,0.1,0.2l-0.3,0.5c0-0.1,0-0.2,0-0.3c0-0.1,0-0.1,0-0.2&#xA;	C6.9,29.3,7,29.2,7.1,29.2z M5.7,29.9C6,29,6.2,28.5,6.4,28.5c0.2,0.6,0.3,1.2,0.3,1.8c0.1,0.8,0.1,1.6,0,2.4c0,0.6-0.2,1.2-0.4,1.8&#xA;	L6,34.9c0-0.5,0-0.9,0-1.3c0-0.1,0-0.3,0-0.4v0c0-0.4,0-1,0.1-1.7c0-0.7,0.1-1.5,0.1-2.5c0-0.2,0-0.3,0-0.1&#xA;	c-0.2,1.2-0.3,2.4-0.3,3.6v1.4v0.8l0,0l-0.2-0.3c0,0,0-0.1,0-0.1c0-0.1,0-0.1,0-0.2c-0.1-0.6-0.2-1.2-0.3-1.8c0-0.1,0-0.2,0-0.3&#xA;	C5.5,31.3,5.6,30.6,5.7,29.9z M4.3,32.7c0-0.2,0.1-0.5,0.2-0.7c0.3-0.6,0.6-1.3,1-1.8c-0.1,0.3-0.1,0.7-0.2,1&#xA;	c-0.2,0.4-0.4,0.8-0.6,1.2c-0.2,0.4-0.4,0.9-0.5,1.4c-0.1,0.3-0.1,0.6-0.2,0.9C4,34,4.1,33.4,4.3,32.7z M5.4,34.1L5,33.7L5.3,33&#xA;	C5.2,33.4,5.3,33.8,5.4,34.1z M13,16.1c0,0.3-0.2,0.5-0.4,0.7c-0.4,0.4-0.9,0.7-1.5,1c-0.6,0.3-1.3,0.7-2.3,1.1v-0.1&#xA;	c1-0.8,2.1-1.5,3.2-2.1c0.3-0.2,0.2-0.2-0.1-0.1c-0.3,0.1-0.7,0.4-1.1,0.6l-2,1.3v-0.2c0.9-0.9,2-1.6,3.1-2.2&#xA;	C12.3,16,12.7,16,13,16.1z M9.2,16.5c0.6-0.5,1.4-0.9,2.2-1.2c0.3-0.1,0.7-0.1,1.1-0.1c0.1,0,0.2,0.1,0.1,0.3l-0.4,0.5&#xA;	c-0.5,0.1-0.9,0.3-1.3,0.5c-0.6,0.4-1.2,0.8-1.8,1.3l-0.2,0.1c-0.1-0.1-0.4,0-0.7,0.1c0.8-0.7,1.8-1.4,2.7-2&#xA;	c0.3-0.1,0.6-0.3,0.9-0.5c-0.4,0.1-0.7,0.3-1,0.5c-0.8,0.5-1.5,1-2.3,1.5l-1,0.9C8,17.7,8.5,17.1,9.2,16.5z M8.2,18.4&#xA;	c0.1-0.1,0.2-0.1,0.4-0.1c0,0.2,0,0.3,0,0.5c-0.1,0.4-0.2,0.8-0.4,1.2L8,20.2l-0.2,0.4l-0.3,0.6c-0.5,0.1-0.9,0.3-1.2,0.6&#xA;	C6.5,21.4,6.7,21,7,20.6c0.3-0.4,0.7-1.1,1.3-2c0.1-0.2,0.1-0.2,0-0.1c-0.3,0.3-0.5,0.6-0.8,1C7,20.2,6.4,21.1,5.9,22&#xA;	c0,0.1-0.1,0.1-0.1,0.2l-0.1,0.1l-0.1,0.1v0.1l0,0.1v0.1l-0.2,0.1v0.1l0,0.1v0.1c0,0,0,0,0,0.1l-0.1,0.1l-0.1,0.1&#xA;	c0,0-0.1,0.1-0.1,0.2l0,0L5,23.5L5,23.6l-0.1,0.1c0,0.1-0.1,0.2-0.2,0.2l0,0l-0.2,0.2c-0.1,0.1-0.2,0.1-0.5,0.1l-0.6,1.6&#xA;	c0,0.1,0.2,0,0.4-0.1c-0.1,0.2-0.3,0.3-0.5,0.3L3.3,26l-0.1-0.2v-0.2h0.1l0.6-1.5l-0.4-0.4l0.1-0.2c0.1,0.2,0.2,0.4,0.3,0.4&#xA;	c0.2-0.3,0.4-0.7,0.7-1.2c0.3-0.5,0.7-1.1,1.1-1.6v-0.1c0-0.1,0-0.1,0.1,0l0.8-1.2l-0.7,1.2C6.1,21,6,21.1,5.8,21.1&#xA;	C5.1,22,4.6,23,4.2,24l0.2,0c0.1,0,0.2,0,0.3-0.1l1-1.8l1-1.8C7,19.5,7.5,18.9,8.2,18.4z M4.5,24.4c-0.2,0.4-0.4,0.8-0.5,1.2H3.9&#xA;	l0.4-1.1L4.5,24.4z M3.8,26.2l-0.3,0.9l-0.2,0.8l0.1-0.7l0.1-0.5l0.1-0.5L3.8,26.2z M3.2,25.4c0.1-0.5,0.2-0.9,0.3-1.4l0.1,0.2&#xA;	L3.2,25.4z M5.7,19.4c0.2-0.5,0.5-0.9,0.8-1.3c0.1-0.3,0.1-0.3-0.2,0c-0.7,1-1.4,2.1-1.9,3.3l0.3-0.8c0.2-0.4,0.3-0.8,0.5-1.2&#xA;	c0.2-0.5,0.6-1,0.9-1.5c0.3-0.4,0.5-0.6,0.6-0.7c0.4-0.3,0.6-0.5,0.7-0.5c0,0.1,0,0.2,0,0.2L6.7,19c-0.6,1.1-1.3,2.2-2.1,3.2&#xA;	l-0.7,0.8c-0.1,0.1-0.2,0.2-0.2,0.3L3.8,23l0.3-0.5C4.7,21.5,5.2,20.4,5.7,19.4z M3.4,31.6c0-0.1,0-0.3-0.1-0.4&#xA;	c-0.1-0.1-0.1-0.2-0.2-0.3c0-0.2-0.1-0.4-0.2-0.7c-0.1-0.3-0.2-0.5-0.2-0.8l0,0c-0.3-0.1-0.5-0.4-0.7-0.7c-0.2-0.4-0.3-0.8-0.4-1.2&#xA;	c-0.1-0.6-0.2-1.2-0.1-1.8c0.1-0.8,0.2-1.7,0.4-2.5C2.2,22,2.8,20.9,3.6,20c0.2-0.2,0.3-0.3,0.4-0.2c0,0.4,0,0.9,0,1.3&#xA;	c-0.1,0.5-0.2,1-0.4,1.4C3.2,24,2.9,25,2.9,25.5c-0.2,0.6-0.4,1.4-0.6,2.3c-0.1-1,0-1.9,0.2-2.9c0.1-1.1,0.4-2.1,0.8-3.1&#xA;	c0.1-0.3,0.1-0.4,0-0.2C2.4,23.2,2,25,2,26.8c0,0.6,0,1.2,0.1,1.7c0.1,0.4,0.2,0.6,0.4,0.6c0.1,0.1,0.2,0.1,0.3,0&#xA;	c0.1-0.4,0.1-0.8,0.1-1S3,27.5,3,27.2c0-0.3,0.1-0.6,0.2-0.9l0.1,0.1c-0.1,0.4-0.1,0.7-0.2,1.1c0,0.2,0,0.4,0,0.6&#xA;	c0,0.2,0,0.6-0.1,1.2c0.1-0.5,0.3-0.9,0.4-1.3L4,26.3l0.5-1.1l0.2-0.5l0,0c0.1-0.1,0.1-0.3,0.2-0.4L5,24.2l0.1-0.2l0,0l0.1-0.2&#xA;	c0.1-0.1,0.1-0.2,0.2-0.3c0.1-0.1,0.1-0.2,0.2-0.3l0.1-0.1l0.5-0.8c0.1-0.1,0.2-0.2,0.3-0.3l0.1-0.1h0l0.1-0.1l0.1-0.2l0,0l0.1-0.1&#xA;	h0.1H7l0,0H7h0.2c0.1,0.1,0.1,0.2,0.1,0.4l0,0v0.1c0,0,0,0,0,0.1s0,0.1,0,0.1l0,0v0l0,0c-0.1,0.4-0.2,0.7-0.4,1.1l0,0l-0.1,0.1l0,0&#xA;	l-0.1,0.2c0,0,0,0.1-0.1,0.1L6.5,24c-0.1,0.2-0.2,0.3-0.3,0.4l-0.1,0.1l-0.1,0.1l0,0l0,0L6,24.8L6,24.9L5.9,25l-0.1,0.1l-0.3,0.2&#xA;	l0,0l-0.1,0.2l-0.2,0.2l-0.1,0.1l0,0L5,26l-0.1,0.1l0,0l-0.1,0.1l0,0l0,0l0,0l0.9-1.4H5.4l0,0c0,0,0,0.1-0.1,0.1L5.3,25&#xA;	c-0.1,0.2-0.3,0.4-0.4,0.6l-0.1,0.1l-0.1,0.1c0,0,0,0.1-0.1,0.1l-0.2,0.2v0.1c-0.2,0.4-0.4,0.8-0.7,1.2c-0.2,0.3-0.3,0.6-0.4,0.9&#xA;	c-0.1,0.2-0.2,0.6-0.4,1.1c0,0.3,0.1,0.6,0.2,0.9c0.1,0.3,0.2,0.6,0.3,0.8c0.1,0.1,0.1,0.2,0,0.3c0,0,0,0,0,0c0,0.2,0,0.3,0.1,0.5&#xA;	c0.1,0.4,0.2,0.8,0.4,1.1L4,33.2C3.8,32.7,3.6,32.2,3.4,31.6z M2.9,26.6c-0.1,0.9-0.2,1.6-0.3,2.1l-0.1-0.1&#xA;	C2.5,27.9,2.6,27.3,2.9,26.6L2.9,26.6z M8.2,39.2L8,38.9c-0.1-0.1-0.2-0.1-0.3-0.1c-0.1,0-0.2,0-0.3-0.2c-0.3,0.2-0.7,0.1-0.9-0.2&#xA;	l-0.6-0.7l-0.5-0.9l-0.2-0.1l0,0l0,0H5.2l0,0c-0.1,0-0.1,0-0.2,0H4.8l-0.7-0.4c-0.4-0.5-0.7-1.1-1-1.7c-0.5-0.9-1-1.9-1.4-2.9&#xA;	c-0.2-0.5-0.3-0.9-0.4-1c-0.1-0.1-0.1-0.1-0.1,0c0.1,0.3,0.1,0.6,0.2,0.9C1.8,32,2,32.7,2.5,33.7c0.4,0.8,0.7,1.4,1.1,2.1&#xA;	c-0.7-0.7-1.3-1.6-1.8-2.5c-0.3-0.7-0.6-1.4-0.7-2.1c-0.1-0.3-0.1-0.6-0.1-1c0-0.3,0-0.5,0-0.8c0.1-0.2,0.1-0.2,0.2-0.2&#xA;	s0.2,0.2,0.5,0.5c0.4,0.7,0.7,1.4,1,2.1c0.4,1.1,0.7,1.8,0.8,2.2c0.1,0.4,0.2,0.6,0.3,0.9c0.1,0.3,0.2,0.5,0.3,0.8&#xA;	c0.1,0.3,0.3,0.6,0.6,0.8l0.1,0.1h0.1l0,0h0h0.2l0,0l0,0l0,0l-0.5-0.9c-0.1-0.2-0.1-0.3-0.2-0.3l0.1,0.1c-0.1,0-0.1,0-0.2,0h0.1&#xA;	c0,0-0.1,0-0.1,0l-0.1-0.1l0,0l0,0l0,0c0,0,0,0,0-0.1c0,0,0,0,0,0v-0.1l0,0v-0.1c0,0,0,0,0-0.1c0-0.2,0.1-0.5,0.2-1&#xA;	c0-0.1,0-0.1,0.1-0.2v-0.1v-0.1c0-0.1,0.1-0.1,0.1-0.2c0-0.1,0-0.1,0.1-0.2h0v-0.1c0,0,0-0.1,0-0.1l0,0c0-0.1,0-0.1,0.1-0.2l0.2-0.4&#xA;	l0.1-0.2l0,0L5,32.1C5,32,5.1,32,5.1,31.9l0,0l0,0l0,0l0,0c0,0,0-0.1,0.1-0.1l0.1-0.2c0,0.3-0.1,0.5-0.1,0.7v0.2&#xA;	c-0.4,0.9-0.7,1.7-0.9,2.2c-0.1,0.4-0.1,0.6,0,0.6l0.2-0.1l-0.1-0.2l0.1-0.2l0.2,0.3L4.8,35l0.1,0.2l-0.1,0.1l0.8,1.1l0.2-0.2&#xA;	l0.1,0.2c-0.2,0.2-0.3,0.4-0.3,0.4c0.2,0.3,0.4,0.6,0.6,0.9c0.3,0.5,0.6,0.6,0.8,0.4c0.1-0.1,0.2,0,0.3,0c0.1,0.1,0.3,0.3,0.3,0.5&#xA;	v-0.4l-0.6-0.6l-0.4-0.7c-0.3-0.4-0.5-0.7-0.6-1c-0.1-0.2-0.3-0.5-0.5-0.8c-0.2-0.3-0.4-0.7-0.7-1v-0.2l0.5,0.7&#xA;	c0.4,0.4,0.7,0.9,1,1.4c0.2,0.3,0.3,0.4,0.3,0.2l0.1-0.3L7,36l-0.1,0.7v0.2c0,0.2,0,0.3,0.1,0.3c0.1,0,0.1,0.1,0.2,0.3&#xA;	c0.1,0.3,0.3,0.5,0.5,0.7c0.3,0.3,0.6,0.6,1,0.9l0.9,0.6c0.2,0.2,0.3,0.3,0.3,0.4l0.3,0.1l-0.1-0.3l0.2,0c0.1,0.1,0.2,0.2,0.3,0.4&#xA;	c0.3,0.2,0.5,0.4,0.8,0.5l-0.7,0.1L9.3,40L8.2,39.2z M5.1,35.2L5.1,35.2l0.6,0.7L5.6,36L5.1,35.2z M5.9,36.8l0.2-0.2l0.4,0.6&#xA;	l0.3,0.5l0.1,0.3c-0.2-0.1-0.3-0.2-0.4-0.4l-0.3-0.4L5.9,36.8z M9.7,40.9l-1,0.2L9,40.4L9.7,40.9z M12.1,44c-0.5,0.5-1,0.9-1.6,1.3&#xA;	l-0.2-0.1c0.3-0.2,0.8-0.6,1.5-1l0.3-0.3H12c-0.2,0.2-0.5,0.4-0.7,0.6c-0.3,0.2-0.6,0.4-1,0.6l-0.5,0.2l0.1,0.1l0.4,0.1&#xA;	c0.2,0.1,0.3,0.3,0.3,0.4c0,0.1-0.3,0.2-0.5,0.1l-0.4-0.2c-0.1-0.1-0.3-0.2-0.4-0.3L9,45.2L9,45l0.5,0.2h0.2l-0.1-0.3l0.6-0.4&#xA;	c0.2-0.1,0.2-0.2,0.2-0.3l0.1-0.3c0.3,0.1,0.6,0,0.8-0.1c0.3-0.1,0.6-0.2,0.9-0.2C12.3,43.8,12.3,43.9,12.1,44L12.1,44z M11.7,43.3&#xA;	l-1.6,0.3C9,43.9,7.8,44,6.7,44.2c-0.9-0.4-1.7-0.8-2.5-1.3c-0.7-0.4-1.4-0.9-2.1-1.4c-0.5-0.5-0.6-0.8-0.5-0.9&#xA;	c0.3-0.4,0.5-0.8,0.6-1.3c0-0.1,0-0.2,0-0.4c-0.1-0.4,0-0.6,0.3-0.6c0.5,0,1,0,1.5,0c0.1,0,0.2,0,0.2-0.1l0.3-0.5l-0.2-0.1L4.1,38&#xA;	v-0.4c0-0.1,0-0.1,0.1-0.1c0.5,0.1,0.7,0.3,0.7,0.5c-0.1,0.3-0.2,0.5-0.2,0.8v0.9c-0.6-0.4-1.2-0.7-1.9-1H3c0.1,0,0.2,0,0.2-0.1&#xA;	c0-0.1,0-0.1-0.2-0.1c-0.2,0-0.5,0-0.7,0.1c-0.1,0.1-0.1,0.2,0,0.3c0.8,0.3,1.5,0.7,2.2,1.2c0.9,0.7,1.7,1.1,2.2,1.5&#xA;	c0.7,0,1.5-0.1,2.2-0.2l1.4-0.3c0.6-0.1,1.2-0.2,1.8-0.3c0.2,0,0.5-0.1,0.9-0.1c0.3,0,0.7,0,1-0.1c0.3,0.4,0.4,0.9,0.5,1.4&#xA;	c0,0.2,0,0.3-0.1,0.4C13.7,42.8,12.7,43.1,11.7,43.3L11.7,43.3z M16,42.7l-0.1-0.3L15.5,43l-0.4,0.2c-0.1,0.1-0.3,0.2-0.5,0.2&#xA;	L14,43.2l0.3-0.1l0.1,0.1c-0.1,0.2,0,0.1,0.2-0.1l0.5-0.5c0-0.4-0.1-0.8-0.2-1.2c-0.1-0.3-0.2-0.6-0.4-0.9c0-0.1-0.3-0.1-0.8-0.1&#xA;	c0.3-0.1,0.7-0.1,1,0l0.4,0.2l0.2-0.1l0.1,0.1c0.4,0.4,0.7,0.8,1,1.3c0.1,0.2,0.1,0.4,0,0.7C16.3,42.8,16.1,42.9,16,42.7L16,42.7z&#xA;	 M17.8,45.1c-0.1-0.1-0.1-0.2-0.1-0.2l0.4,0.3C18,45.3,18,45.2,17.8,45.1L17.8,45.1z M20,45.1h0.2l-0.1,0.1l-0.4,0.1&#xA;	c-0.2,0.2-0.4,0.3-0.7,0.3h-0.3l-0.1-0.2c0.1-0.1,0.2-0.2,0.3-0.2c0.1-0.1,0.3-0.1,0.4-0.1l0.4,0.1L20,45.1z M19.4,44.9&#xA;	c-0.2,0-0.4,0-0.6,0.1h-0.2c-0.3-0.2-0.5-0.4-0.8-0.6L17,43.8c0.3-0.1,0.6,0,0.9,0.1L19.4,44.9z M21.8,41.6c0.2,0,0.5,0,0.7,0&#xA;	c0.7-0.4,1.3-0.8,1.9-1.4c0.7-0.6,1.5-1,2.3-1.4c0.2-0.1,0.2-0.2,0-0.2c-0.3-0.1-0.5-0.1-0.8-0.1c-0.1,0.1-0.1,0.2,0,0.2&#xA;	c0.1,0,0.2,0,0.3,0c-0.6,0.4-1.2,0.8-1.8,1.2c0-0.3,0.1-0.7,0.1-1.3c0-0.2-0.1-0.4-0.2-0.5c-0.1-0.1,0-0.2,0.3-0.3l0.2-0.1V38&#xA;	L24.6,38v0.2c0.1,0.1,0.2,0.2,0.4,0.3l0.9,0.1h0.4c0.5,0,0.7,0.1,0.7,0.3c0,0.2,0,0.4,0,0.6c0.1,0.5,0.3,0.9,0.6,1.3&#xA;	c-0.1,0.3-0.2,0.5-0.4,0.7l-0.9,0.6c-0.8,0.5-1.8,1.2-3.1,2.1c-2.2,0-4.4-0.3-6.5-0.9l-0.3-0.1l0.1-0.1c0.1-0.1,0.2-0.3,0.3-0.5&#xA;	c0-0.2,0-0.4-0.1-0.6c-0.1-0.4-0.3-0.8-0.6-1v-0.1h0.3c0.6,0,1.2,0.1,1.9,0.3c0.6,0.2,1.3,0.3,1.9,0.4&#xA;	C20.9,41.5,21.5,41.6,21.8,41.6z M20.5,41.1l-1.4-0.3l0.6-0.2c0.3,0.1,0.5,0,0.5-0.2C20.3,40.7,20.4,41,20.5,41.1L20.5,41.1z&#xA;	 M24,36.2c-0.2,0.2-0.3,0.5-0.2,0.8c-0.3,0.2-0.6,0.4-0.9,0.7c-0.2,0.3-0.5,0.5-0.7,0.8c-0.1,0.2-0.3,0.3-0.5,0.4&#xA;	c-0.2,0.1-0.5,0-0.7-0.1l-0.1,0.4l-1.1,0.7l-0.6,0.2c0.1-0.2,0.1-0.4,0.1-0.6l0.2-0.2c0.8-0.4,1.2-0.8,1.3-1.1&#xA;	c0.1-0.3,0.3-0.5,0.5-0.7c0.2-0.2,0.3-0.4,0.4-0.7v-0.4l0-0.4c0.2,0.2,0.3,0.2,0.5,0.1c0.2-0.4,0.5-0.8,0.8-1.2&#xA;	c0.3-0.4,0.6-0.7,0.9-1l0.8-0.8v0.4c-0.5,0.5-0.9,1.1-1.3,1.6c-0.4,0.6-0.8,1.3-1.1,2c-0.1,0.3-0.3,0.5-0.6,0.7&#xA;	c-0.2,0.1-0.3,0.2-0.4,0.3c-0.1,0.1,0,0.2,0.1,0.1c0.1-0.1,0.2-0.2,0.4-0.3c0.6-0.5,1.1-1.1,1.6-1.7v-0.6l0.2-0.3&#xA;	c0,0.3,0,0.5,0.1,0.5s0.2-0.1,0.3-0.3c0.1-0.2,0.4-0.8,0.9-1.8c-0.1,0.3-0.1,0.5,0,0.8c-0.3,0.2-0.4,0.6-0.2,1L24,36.2z M27.8,32.5&#xA;	c0,0.3-0.1,0.5-0.3,0.7c-0.5,0.5-0.7,0.8-0.6,0.9c0.1,0.2,0.1,0.5-0.1,0.7c-0.3,0.4-0.6,0.7-1,1c0.1,0.2,0,0.4-0.3,0.6&#xA;	c-0.3,0.2-0.7,0.3-1.1,0.5c0.6-0.4,1.1-1,1.3-1.8c0.2-0.2,0.4-0.3,0.6-0.4c0.2-0.1,0.2-0.1,0.1-0.1c-0.2,0.1-0.4,0.2-0.6,0.4&#xA;	c0.2-0.4,0.4-0.9,0.5-1.4c0.3-0.3,0.6-0.6,0.8-1c0.2-0.2,0.2-0.3,0-0.1c-0.2,0.3-0.5,0.6-0.8,0.9c0.2-0.5,0.3-1.1,0.4-1.6&#xA;	c0.1-0.3,0-0.4-0.1-0.2l-0.2,0.6c-0.1-0.2-0.1-0.4-0.3-0.5l0.2,0.7c-0.1,0.4-0.2,0.8-0.3,1.2c-0.1-0.4-0.4-0.8-0.6-1.2&#xA;	c-0.2-0.3-0.3-0.3-0.1,0c0.3,0.4,0.5,0.9,0.6,1.4c-0.1,0.5-0.3,0.9-0.5,1.3c-0.1-0.2-0.2-0.3-0.4-0.4c-0.1-0.1-0.1,0,0,0.1&#xA;	c0.1,0.1,0.3,0.3,0.4,0.4c-0.1,0.3-0.3,0.6-0.5,0.9c-0.2,0.2-0.4,0.4-0.6,0.6c0.3-0.4,0.4-0.9,0.3-1.4c0-0.1,0.1-0.2,0.2-0.2&#xA;	c0.1-0.1,0.2-0.1,0.1-0.2c-0.1-0.2-0.2-0.4-0.2-0.6c0.1,0,0.3,0,0.4,0.1c0.1-0.1,0.1-0.2,0-0.4c-0.2-0.2-0.3-0.5-0.3-0.8&#xA;	c0-0.2,0.1-0.3,0.4-0.2c0.1,0,0.1-0.2,0-0.4l-0.3-0.4c-0.2-0.5-0.1-0.6,0.3-0.5l0.4,0.3c0.3,0.1,0.4-0.1,0.4-0.6&#xA;	c0-0.1,0.1-0.1,0.3-0.1c0.2,0.1,0.3-0.1,0.5-0.4c0.1-0.2,0.3,0,0.3,0.4c0,0.6,0.1,0.9,0.4,0.8C27.8,32.1,27.8,32.2,27.8,32.5z&#xA;	 M28.3,31.1c0,0.1,0,0.2-0.1,0.3c-0.1,0.1-0.2,0.2-0.4,0.2l-0.2-0.3c0-0.3-0.1-0.6-0.3-0.8c0.1-0.1,0.2-0.2,0.4-0.2&#xA;	c0.1-0.1,0.1-0.1-0.1-0.1c-0.1,0-0.3,0.1-0.4,0.1l0,0c0.1-0.4,0.3-0.7,0.5-1c0.1-0.1,0-0.1-0.1,0c-0.2,0.3-0.4,0.6-0.5,0.9&#xA;	c-0.1-0.1-0.1-0.2-0.1-0.4c0-0.2-0.1-0.2-0.1,0c0,0.2,0.1,0.4,0.1,0.6c-0.2,0.4-0.4,0.5-0.6,0.5c0.1-0.5,0.2-1.1,0.3-1.7&#xA;	c0.3-0.3,0.5-0.3,0.7-0.3c0.3-0.2,0.5-0.2,0.7-0.1c0.1,0.1,0.1,0.3,0.1,0.5c0,0.2-0.1,0.4-0.2,0.5c0.2,0,0.3,0.1,0.3,0.3&#xA;	c-0.1,0.3-0.3,0.6-0.5,0.8C28.2,30.9,28.3,31,28.3,31.1L28.3,31.1z"/>
<path class="st0" d="M12.5,42.9c0.2,0,0.3-0.1,0.4-0.2l0.1,0.1l-0.1-0.6l0,0C12.9,42.5,12.9,42.7,12.5,42.9c-0.2,0-0.5-0.4-0.5-0.8&#xA;	c-0.1-0.4,0-0.8,0.4-0.9c0.2,0,0.4,0.1,0.5,0.4l0,0l-0.1-0.5l0,0v0.1c-0.1-0.1-0.3-0.1-0.5-0.1c-0.4,0-0.6,0.5-0.6,0.9&#xA;	C11.8,42.5,12.2,42.9,12.5,42.9"/>
<path class="st0" d="M17,41.2L17,41.2c0.1,0.1,0.2,0.1,0.2,0.2s0,0.2,0,0.3L17,42.4c0,0.1,0,0.2-0.1,0.3c0,0.1-0.1,0.1-0.2,0.1l0,0&#xA;	c0.1,0,0.2,0,0.3,0c0.1,0,0.2,0,0.3,0.1v-0.1c-0.1,0-0.2,0-0.2-0.1c0-0.1,0-0.2,0-0.3l0.1-0.7c0-0.1,0-0.2,0.1-0.3&#xA;	c0.1-0.1,0.1-0.1,0.2-0.1h0c-0.1,0-0.2,0-0.3,0C17.2,41.3,17.1,41.3,17,41.2"/>
<path class="st0" d="M11.2,41.6c0,0.1,0,0.2,0,0.3l0.1,0.7c0,0.1,0,0.2,0,0.3c0,0.1-0.1,0.1-0.2,0.1l0,0c0.1,0,0.2,0,0.3,0h0.4v-0.1&#xA;	c-0.1,0-0.1,0-0.2-0.1c0-0.1-0.1-0.2-0.1-0.3l-0.1-0.7c0-0.1,0-0.2,0-0.3c0-0.1,0.1-0.1,0.1-0.1l0,0c-0.1,0-0.2,0-0.3,0&#xA;	c-0.1,0-0.2,0-0.3,0l0,0C11.1,41.4,11.1,41.5,11.2,41.6"/>
<path class="st0" d="M3,40.4c0.2,0.1,0.4,0.1,0.5-0.1c0,0,0,0,0,0c0.2-0.3,0-0.4-0.2-0.6c-0.1-0.1-0.1-0.1-0.2-0.1&#xA;	c-0.1-0.1-0.2-0.1-0.3-0.2v0.1c0,0,0.1,0.1,0.1,0.1c-0.1,0.1-0.1,0.2-0.2,0.3l-0.4,0.6c-0.1,0.1-0.1,0.2-0.2,0.3c-0.1,0-0.1,0-0.2,0&#xA;	l0,0c0.1,0,0.2,0.1,0.3,0.2c0.1,0,0.1,0.1,0.2,0.1l0,0c-0.1,0-0.1-0.1-0.1-0.1c0-0.1,0.1-0.2,0.2-0.3l0.2-0.3&#xA;	c0.1,0.1,0.1,0.1,0.1,0.2v0.6v0.2c0,0,0.1,0,0.2,0.1l0.1,0.1l0,0C3,41.4,3,41.3,3,41.2L3,40.4z M2.8,40.2l0.3-0.5c0,0,0,0,0.1,0&#xA;	c0,0,0.1,0,0.1,0.1c0.1,0.1,0.1,0.3,0,0.4S3,40.4,2.8,40.2"/>
<path class="st0" d="M9.5,42.6c-0.1-0.1-0.2-0.1-0.3-0.1c0.2-0.1,0.3-0.2,0.3-0.4c0-0.3-0.3-0.3-0.5-0.3c-0.1,0-0.1,0-0.2,0&#xA;	c-0.1,0-0.2,0-0.3,0l0,0c0.1,0,0.2,0,0.2,0.1c0.1,0.1,0.1,0.2,0.1,0.3l0.1,0.7c0,0.1,0,0.2,0,0.3c0,0.1-0.1,0.1-0.2,0.1v0.1&#xA;	c0.1,0,0.2-0.1,0.3-0.1c0.1,0,0.2,0,0.2,0c0.1,0,0.3,0,0.4-0.1c0.1-0.1,0.1-0.2,0.1-0.4C9.7,42.7,9.6,42.6,9.5,42.6 M8.9,41.9&#xA;	c0,0,0.1,0,0.1,0c0.1,0,0.2,0.1,0.3,0.3c0,0.1,0,0.2-0.1,0.3c0,0-0.1,0-0.2,0.1h0L8.9,42V41.9z M9.3,43.2c-0.1,0-0.1,0-0.2-0.1&#xA;	s0-0.2-0.1-0.3v-0.3h0.1c0.1,0,0.2,0,0.3,0c0.1,0.1,0.1,0.2,0.2,0.3C9.5,43,9.5,43.2,9.3,43.2C9.3,43.2,9.3,43.2,9.3,43.2"/>
<path class="st0" d="M9.9,43.2L9.9,43.2c0.3,0,0.7-0.1,1-0.2H11l0-0.5h-0.1c0,0.1,0,0.2-0.1,0.3C10.8,43,10.7,43,10.6,43&#xA;	c-0.3,0-0.3,0-0.4-0.3L10.1,42c0-0.1,0-0.3,0-0.3c0-0.1,0.1-0.1,0.2-0.1v-0.1c-0.1,0-0.2,0-0.3,0c-0.1,0-0.2,0-0.3,0v0.1&#xA;	c0.1-0.1,0.1-0.1,0.2,0c0,0.1,0,0.3,0,0.3l0.1,0.7c0,0.1,0,0.2,0,0.3C10,43,9.9,43,9.9,43"/>
<path class="st0" d="M8.3,42.7c-0.1,0-0.2,0-0.3,0c0.2-0.1,0.3-0.2,0.2-0.4C8.2,42.1,8,42,7.8,42c0,0,0,0-0.1,0&#xA;	c-0.1,0-0.2,0.1-0.3,0c-0.1,0-0.2,0-0.3,0v0.1c0.1,0,0.1,0,0.2,0c0,0,0,0.3,0,0.3l0.1,0.7c0,0.1,0,0.3,0,0.3c0,0.1-0.1,0.1-0.2,0.1&#xA;	l0,0c0.1,0,0.2,0,0.4,0c0.1,0,0.2,0,0.3,0c0.1,0,0.2,0,0.3-0.1C8.5,43.3,8.5,43,8.3,42.7C8.3,42.8,8.3,42.8,8.3,42.7 M7.5,42.2&#xA;	L7.5,42.2c0-0.1,0.1-0.1,0.1-0.1c0.2,0,0.3,0.1,0.3,0.3s0,0.2-0.1,0.3s-0.1,0.1-0.2,0.1H7.6L7.5,42.2z M8,43.5c-0.1,0-0.2,0-0.2,0&#xA;	c0-0.1-0.1-0.2-0.1-0.3v-0.3l0,0c0.1,0,0.2,0,0.3,0c0.1,0,0.2,0.1,0.2,0.3C8.2,43.2,8.2,43.5,8,43.5"/>
<path class="st0" d="M13.6,42.7L13.6,42.7c-0.1-0.1-0.2-0.1-0.2-0.1c0-0.1,0-0.3,0-0.4v-0.1l0.5-0.1l0.2,0.3c0,0,0,0.1,0,0.1&#xA;	c0,0.1-0.1,0.1-0.1,0.2l0,0c0.1,0,0.2,0,0.3,0c0.1,0,0.2-0.1,0.3,0v-0.1c-0.1,0-0.1,0-0.2,0c-0.1-0.1-0.1-0.2-0.2-0.3L13.6,41l0,0&#xA;	l-0.2,1c0,0.2,0,0.3-0.1,0.5c0,0.1-0.1,0.2-0.2,0.2l0,0c0.1,0,0.1,0,0.2,0L13.6,42.7z M13.6,41.3l0.3,0.6l-0.4,0L13.6,41.3z"/>
<path class="st0" d="M23.3,43c0,0.1,0,0.2-0.1,0.3l0,0c0.1,0,0.1-0.1,0.2-0.1c0.1,0,0.1-0.1,0.2-0.1l0,0c0,0-0.1,0.1-0.2,0&#xA;	c0-0.1-0.1-0.2-0.1-0.4v-0.1l0.4-0.2l0.2,0.2c0.1,0,0.1,0.1,0.1,0.1c0,0,0,0.1-0.1,0.2l0,0.1c0.1-0.1,0.2-0.1,0.3-0.2&#xA;	c0.1-0.1,0.2-0.1,0.3-0.2l0,0c-0.1,0-0.1,0-0.2,0c-0.1-0.1-0.2-0.1-0.2-0.2l-1-0.9h-0.1l0.2,1C23.3,42.7,23.4,42.9,23.3,43&#xA;	 M23.8,42.3l-0.4,0.2l-0.1-0.6L23.8,42.3z"/>
<path class="st0" d="M24,41.2l0.5,0.7c0.1,0.1,0.1,0.2,0.2,0.3c0,0.1,0,0.2-0.1,0.2l0,0c0.1-0.1,0.1-0.1,0.2-0.2&#xA;	c0.1,0,0.1-0.1,0.2-0.1v0c-0.1,0.1-0.1,0.1-0.2,0c-0.1-0.1-0.2-0.2-0.2-0.3L24,41.2l1.4,0.4c0.1,0,0.1,0.1,0.2,0.1l0,0l-0.6-0.8&#xA;	c-0.1-0.1-0.2-0.3-0.3-0.4c0-0.1,0-0.1,0.1-0.2l0,0c-0.1,0-0.1,0.1-0.1,0.2l-0.2,0.1v0c0.1,0,0.2-0.1,0.3,0s0.2,0.2,0.2,0.3l0.4,0.6&#xA;	L23.9,41c0,0-0.1,0.1-0.2,0.1c0,0.1-0.1,0.1-0.1,0.1v0.1c0.1-0.1,0.2-0.1,0.3,0"/>
<path class="st0" d="M5.7,41.8c0.1-0.2,0.1-0.4-0.1-0.5c0,0-0.1,0-0.1-0.1c-0.1-0.1-0.1-0.1-0.2-0.1C5.2,41,5.1,41,5,40.9l0,0&#xA;	c0.1,0,0.2,0.1,0.1,0.2c-0.1,0.1-0.1,0.2-0.2,0.3l-0.4,0.6c-0.1,0.1-0.1,0.2-0.2,0.3c0,0.1-0.1,0-0.2,0v0.1c0.1,0,0.1,0.1,0.2,0.1&#xA;	c0.1,0.1,0.2,0.1,0.3,0.2l0,0c-0.1-0.1-0.1-0.1-0.1-0.2c0-0.1,0.1-0.2,0.1-0.3l0.2-0.2c0,0,0.1,0.1,0.1,0.1&#xA;	C5.2,42.1,5.4,42.1,5.7,41.8C5.6,41.9,5.7,41.9,5.7,41.8 M5.5,41.7C5.3,41.9,5.2,42,5,41.8c-0.2-0.1-0.1,0-0.1-0.1l0.3-0.5&#xA;	c0.1-0.1,0.1-0.1,0.2,0C5.5,41.4,5.6,41.6,5.5,41.7C5.5,41.7,5.4,41.7,5.5,41.7"/>
<path class="st0" d="M25.9,41.3c0,0.1,0,0.2-0.1,0.2l0,0.1c0-0.1,0.1-0.1,0.1-0.1l0.2-0.1l0-0.1C26.2,41.2,26.1,41.3,25.9,41.3&#xA;	c0-0.1,0-0.3,0-0.4l0,0l0.4-0.3l0.2,0.1c0,0,0.1,0.1,0.1,0.1c0,0.1,0,0.1-0.1,0.2v0c0.1-0.1,0.1-0.1,0.2-0.2&#xA;	c0.1-0.1,0.1-0.1,0.2-0.1v-0.1c-0.1,0-0.2,0-0.2,0c-0.1,0-0.2-0.1-0.2-0.1l-1.1-0.7v0l0.3,1C25.8,40.9,25.9,41.1,25.9,41.3&#xA;	 M26.2,40.5l-0.3,0.3l-0.2-0.6L26.2,40.5z"/>
<path class="st0" d="M6.7,42L6.7,42c0,0.1,0.1,0.1,0,0.3c-0.1,0.1-0.3,0.3-0.4,0.4L5.8,43l0.1-0.6c0-0.1,0.2-0.5,0.2-0.6&#xA;	c0-0.1,0.1,0,0.2,0v0c-0.1-0.1-0.1-0.1-0.2-0.2c-0.1,0-0.2-0.1-0.2-0.1l0,0c0.1,0.1,0.1,0.2,0,0.4l-0.3,1.3h0.1l0.9-0.7&#xA;	c0.2-0.1,0.3-0.3,0.5-0.2l0,0c-0.1,0-0.1-0.1-0.2-0.1C6.8,42.1,6.8,42.1,6.7,42"/>
<path class="st0" d="M21.5,43.6l0.1-0.5h-0.1c0,0.1,0,0.2-0.2,0.3s-0.2,0-0.3,0s-0.3-0.1-0.2-0.4l0.1-0.7c0-0.1,0-0.3,0.1-0.3&#xA;	c0.1-0.1,0.1,0,0.2,0v-0.1c-0.1,0-0.2,0-0.3,0c-0.1,0-0.2,0-0.3,0l0,0c0.1,0,0.1,0,0.2,0.1c0,0.1,0,0.3,0,0.3L20.7,43&#xA;	c0,0.1-0.1,0.2-0.1,0.3c-0.1,0.1-0.1,0.1-0.2,0.1l0,0C20.8,43.5,21.1,43.5,21.5,43.6L21.5,43.6"/>
<path class="st0" d="M4.2,41.8C4,42,3.9,42,3.7,41.8c-0.1,0-0.1-0.1-0.2-0.2c0-0.1,0.1-0.2,0.1-0.2L3.9,41c0.2,0.1,0.3,0.2,0.1,0.4&#xA;	l0,0c0.1-0.1,0.1-0.2,0.2-0.3c0-0.1,0.1-0.2,0.2-0.3l0,0c-0.1,0.1-0.2,0.2-0.5,0l0.3-0.5c0.1-0.1,0.1-0.1,0.1,0l0.1,0.1&#xA;	c0.2,0.1,0.3,0.2,0.1,0.4l0,0l0.2-0.3L4,40.1H3.9c0.1,0,0.2,0.1,0.1,0.2c-0.1,0.1-0.1,0.2-0.2,0.3l-0.4,0.5l-0.2,0.3&#xA;	c-0.1,0-0.1,0-0.2,0l0,0L4,42l0.2-0.3L4.2,41.8z"/>
<path class="st0" d="M20.1,43.2c0-0.1,0-0.2-0.1-0.3l-0.2-1.3h-0.1l-0.4,0.9L19,43c-0.1,0.1-0.1,0.1-0.2,0.2l0,0c0.1,0,0.2,0,0.2,0&#xA;	c0.1,0,0.2,0,0.2,0l0,0c0,0-0.1,0-0.2-0.1l0.1-0.3v-0.1l0.5,0.1v0.3v0.2c0,0.1-0.1,0-0.1,0v0.1c0.1,0,0.2,0,0.3,0c0.1,0,0.2,0,0.3,0&#xA;	l0,0C20.1,43.3,20.1,43.3,20.1,43.2 M19.3,42.5l0.3-0.6l0.1,0.7L19.3,42.5z"/>
<path class="st0" d="M19,41.9L19,41.9l0.1-0.3l-1.3-0.2l-0.1,0.4h0.1c0-0.3,0.1-0.3,0.3-0.3c0.1,0,0.2,0,0.2,0.1l-0.1,1.2&#xA;	c0,0.2-0.1,0.2-0.3,0.2l0,0c0.1,0,0.2,0,0.3,0c0.1,0,0.2,0.1,0.3,0.1l0,0c-0.2-0.1-0.2-0.1-0.2-0.3l0.2-1.1c0-0.1,0.1,0,0.2,0&#xA;	S19,41.7,19,41.9"/>
<path class="st0" d="M22.2,42.1c0,0,0,0.2,0,0.3l0.1,0.7c0,0.1,0,0.2,0,0.3c0,0.1-0.1,0.1-0.2,0.1v0c0.1,0,0.2,0,0.3,0h0.3l0,0&#xA;	c-0.1,0-0.2,0-0.2-0.1c0-0.1,0-0.2,0-0.3l-0.1-0.7v-0.3c0-0.1,0.1-0.1,0.2-0.1V42c-0.1,0-0.2,0-0.3,0H22v0.1&#xA;	C22.1,42.1,22.2,42.1,22.2,42.1"/>
<path class="st0" d="M1.4,52.3h0.4v3.8h1.9v0.4H1.4V52.3z"/>
<path class="st0" d="M4,52.2h0.4l-0.3,1H3.8L4,52.2z"/>
<path class="st0" d="M7.5,55.1H5.8l-0.5,1.3H4.9l1.5-4.1h0.4l1.5,4.1H7.9L7.5,55.1z M6.6,52.7c0,0-0.1,0.3-0.2,0.5l-0.6,1.5h1.4&#xA;	l-0.5-1.5C6.7,53,6.6,52.7,6.6,52.7L6.6,52.7z"/>
<path class="st0" d="M10.9,52.2c0.5,0,1,0.2,1.5,0.5L12.1,53c-0.4-0.3-0.8-0.4-1.2-0.4c-1,0.1-1.7,1-1.5,2c0.1,0.8,0.7,1.4,1.5,1.5&#xA;	c0.5,0,1-0.2,1.3-0.6v-0.7h-0.7v-0.4h1.1v2h-0.4v-0.3c0-0.1,0-0.2,0-0.2l0,0c-0.4,0.4-0.8,0.6-1.3,0.6c-1.1,0-2-0.9-2-2.1&#xA;	c0,0,0,0,0-0.1C8.8,53.2,9.7,52.2,10.9,52.2C10.9,52.2,10.9,52.2,10.9,52.2z"/>
<path class="st0" d="M13.7,52.3H16v0.4h-1.9v1.5h1.6v0.4h-1.6v1.6h2v0.4h-2.4V52.3z"/>
<path class="st0" d="M17.1,52.3h0.4l2.1,3c0.1,0.2,0.3,0.6,0.3,0.6l0,0c0,0,0-0.3,0-0.6v-3h0.4v4.1h-0.5l-2.1-3&#xA;	c-0.1-0.2-0.3-0.6-0.3-0.6l0,0c0,0,0,0.3,0,0.6v3h-0.4L17.1,52.3z"/>
<path class="st0" d="M21.3,56.1l2.1-3.1c0.1-0.2,0.3-0.4,0.3-0.4h-2.3v-0.4h2.8v0.3l-2.1,3.1c-0.1,0.1-0.2,0.3-0.3,0.4h2.4v0.4h-2.9&#xA;	V56.1z"/>
<path class="st0" d="M25.3,52.3h0.4v4.1h-0.4V52.3z"/>
<path class="st0" d="M29,55.1h-1.7l-0.5,1.3h-0.4l1.5-4.1h0.4l1.5,4.1h-0.4L29,55.1z M28.2,52.7c0,0-0.1,0.3-0.2,0.5l-0.6,1.5h1.4&#xA;	l-0.5-1.5C28.3,53,28.2,52.7,28.2,52.7L28.2,52.7z"/>
<path class="st0" d="M32.4,52.3h1.3c1.1,0,2.1,0.9,2.1,2.1s-0.9,2.1-2.1,2.1l0,0h-1.3V52.3z M33.7,56.1c0.9,0,1.7-0.8,1.7-1.7&#xA;	c0-0.9-0.8-1.7-1.7-1.7h-0.9v3.4H33.7z"/>
<path class="st0" d="M36.9,52.3h2.3v0.4h-1.9v1.5h1.6v0.4h-1.6v1.6h2v0.4h-2.4V52.3z"/>
<path class="st0" d="M40.3,52.3h0.4v3.8h1.9v0.4h-2.3V52.3z"/>
<path class="st0" d="M43.5,52.3h0.4v3.8h1.9v0.4h-2.3V52.3z"/>
<path class="st0" d="M46.6,52.3H49v0.4h-1.9v1.5h1.6v0.4h-1.6v1.6h2v0.4h-2.4V52.3z"/>
<path class="st0" d="M53.8,55.1h-1.7l-0.5,1.3h-0.4l1.5-4.1h0.4l1.5,4.1h-0.4L53.8,55.1z M53,52.7c0,0-0.1,0.3-0.2,0.5l-0.6,1.5h1.4&#xA;	l-0.5-1.5C53.1,53,53,52.7,53,52.7L53,52.7z"/>
<path class="st0" d="M57.3,52.2c0.5,0,1.1,0.2,1.5,0.5L58.6,53c-0.4-0.3-0.8-0.5-1.3-0.5c-0.9,0-1.7,0.7-1.7,1.6c0,0,0,0.1,0,0.1&#xA;	c-0.1,0.9,0.7,1.7,1.6,1.8c0,0,0.1,0,0.1,0c0.5,0,1-0.2,1.3-0.6l0.2,0.3c-0.4,0.4-1,0.7-1.6,0.6c-1.1,0-2.1-0.9-2.1-2.1&#xA;	c0,0,0-0.1,0-0.1C55.2,53.2,56.1,52.2,57.3,52.2C57.3,52.2,57.3,52.2,57.3,52.2z"/>
<path class="st0" d="M61.6,52.2c0.5,0,1.1,0.2,1.5,0.5L62.9,53c-0.3-0.3-0.8-0.5-1.2-0.5c-0.9,0-1.7,0.7-1.7,1.6c0,0,0,0.1,0,0.1&#xA;	c-0.1,0.9,0.7,1.7,1.6,1.8c0,0,0.1,0,0.1,0c0.5,0,1-0.2,1.3-0.6l0.2,0.3c-0.4,0.4-1,0.6-1.6,0.6c-1.1,0-2.1-0.9-2.1-2.1&#xA;	c0,0,0-0.1,0-0.1C59.5,53.2,60.4,52.2,61.6,52.2C61.6,52.2,61.6,52.2,61.6,52.2z"/>
<path class="st0" d="M64.3,52.3h0.4v4.1h-0.4V52.3z"/>
<path class="st0" d="M65.9,55.6c0.3,0.3,0.7,0.4,1.1,0.4c0.4,0,0.8-0.2,0.8-0.7c0,0,0,0,0-0.1c0-1-2.1-0.8-2.1-2.1&#xA;	c0-0.6,0.6-1.1,1.2-1.1c0.4,0,0.8,0.1,1.1,0.4l-0.2,0.3c-0.3-0.2-0.6-0.3-0.9-0.4c-0.4-0.1-0.8,0.2-0.9,0.7c0,0,0,0,0,0&#xA;	c0,1,2.1,0.7,2.1,2.1c0,0.6-0.5,1.1-1.2,1.1c-0.5,0-1-0.2-1.3-0.5L65.9,55.6z"/>
<path class="st0" d="M69.2,52.3h2.3v0.4h-1.9v1.5h1.6v0.4h-1.6v1.6h2v0.4h-2.4V52.3z"/>
<path class="st0" d="M72.6,55.9h0.4l-0.4,1h-0.3L72.6,55.9z"/>
<path class="st0" d="M75.9,52.3h1.3c1.1,0,2.1,0.9,2.1,2.1s-0.9,2.1-2.1,2.1h-1.3V52.3z M77.2,56.1c0.9,0,1.7-0.8,1.7-1.7&#xA;	c0-0.9-0.8-1.7-1.7-1.7h-0.9v3.4H77.2z"/>
<path class="st0" d="M82.2,52.2c1.2,0,2.1,0.9,2.1,2.1c0,0,0,0,0,0c0.1,1.2-0.8,2.2-2,2.2c-1.2,0.1-2.2-0.8-2.2-2c0-0.1,0-0.2,0-0.3&#xA;	C80.1,53.2,81,52.2,82.2,52.2C82.2,52.2,82.2,52.2,82.2,52.2z M82.2,56.1c0.9,0,1.7-0.8,1.7-1.8c0,0,0,0,0-0.1&#xA;	c0.1-0.9-0.6-1.7-1.6-1.8s-1.7,0.6-1.8,1.6c0,0.1,0,0.2,0,0.2C80.5,55.2,81.2,56,82.2,56.1C82.2,56.1,82.2,56.1,82.2,56.1L82.2,56.1&#xA;	z"/>
<path class="st0" d="M87.1,52.2c0.5,0,1.1,0.1,1.5,0.5L88.4,53c-0.4-0.3-0.8-0.4-1.2-0.4c-1,0-1.8,0.8-1.8,1.8s0.8,1.8,1.8,1.8&#xA;	c0.5,0,1-0.2,1.3-0.6v-0.7h-0.7v-0.4h1.1v2h-0.4v-0.3c0-0.1,0-0.2,0-0.2l0,0c-0.3,0.4-0.8,0.6-1.3,0.6c-1.1,0-2-0.9-2-2.1&#xA;	c0,0,0,0,0,0C85.1,53.2,86,52.2,87.1,52.2C87.1,52.2,87.1,52.2,87.1,52.2z"/>
<path class="st0" d="M91.9,55.1h-1.7l-0.5,1.3h-0.4l1.5-4.1h0.4l1.5,4.1h-0.4L91.9,55.1z M91.1,52.7c0,0-0.1,0.3-0.2,0.5l-0.6,1.5&#xA;	h1.4l-0.5-1.5C91.2,53,91.1,52.7,91.1,52.7L91.1,52.7z"/>
<path class="st0" d="M93.6,52.3H94l2.1,3c0.1,0.2,0.3,0.6,0.3,0.6l0,0c0,0,0-0.3,0-0.6v-3h0.4v4.1h-0.4l-2.1-3&#xA;	c-0.1-0.2-0.3-0.6-0.3-0.6l0,0c0,0,0,0.3,0,0.6v3h-0.4L93.6,52.3z"/>
<path class="st0" d="M98.2,52.3h2.3v0.4h-1.9v1.5h1.6v0.4h-1.6v1.6h2v0.4h-2.4L98.2,52.3z"/>
<path class="st0" d="M103.3,52.3h2.3v0.4h-1.9v1.5h1.6v0.4h-1.6v1.6h2v0.4h-2.4L103.3,52.3z"/>
<path class="st0" d="M108.7,52.3h0.4l1.1,2.4c0.1,0.2,0.2,0.5,0.2,0.5l0,0c0,0,0.1-0.3,0.2-0.5l1.1-2.4h0.4l0.3,4.1H112l-0.2-2.9&#xA;	c0-0.2,0-0.6,0-0.6l0,0c0,0-0.1,0.4-0.2,0.6l-1,2.1h-0.4l-1-2.1c-0.1-0.2-0.2-0.6-0.2-0.6l0,0c0,0,0,0.4,0,0.6l-0.2,2.9h-0.4&#xA;	L108.7,52.3z"/>
<path class="st0" d="M115.4,52.2c1.1,0,2.1,0.9,2.1,2.1c0,0,0,0,0,0c0,1.2-0.9,2.1-2.1,2.1c-1.2,0-2.1-0.9-2.1-2.1c0,0,0,0,0,0&#xA;	C113.3,53.2,114.2,52.2,115.4,52.2C115.4,52.2,115.4,52.2,115.4,52.2z M115.4,56.1c0.9,0,1.7-0.8,1.7-1.8c0,0,0,0,0-0.1&#xA;	c0.1-0.9-0.6-1.7-1.6-1.8c-0.9-0.1-1.7,0.6-1.8,1.6c0,0.1,0,0.2,0,0.2C113.7,55.2,114.4,56,115.4,56.1&#xA;	C115.4,56.1,115.4,56.1,115.4,56.1L115.4,56.1z"/>
<path class="st0" d="M118.6,52.3h0.4l2.1,3c0.1,0.2,0.3,0.6,0.3,0.6l0,0c0,0,0-0.3,0-0.6v-3h0.4v4.1h-0.4l-2.1-3&#xA;	c-0.1-0.2-0.3-0.6-0.3-0.6l0,0c0,0,0,0.3,0,0.6v3h-0.4V52.3z"/>
<path class="st0" d="M124.9,52.2c1.1,0,2.1,0.9,2.1,2.1c0,0,0,0,0,0c0,1.2-0.9,2.1-2.1,2.1c-1.2,0-2.1-0.9-2.1-2.1c0,0,0,0,0,0&#xA;	C122.8,53.2,123.7,52.2,124.9,52.2C124.9,52.2,124.9,52.2,124.9,52.2z M124.9,56.1c0.9,0,1.7-0.8,1.7-1.8c0,0,0,0,0-0.1&#xA;	c0.1-0.9-0.6-1.7-1.6-1.8c-0.9-0.1-1.7,0.6-1.8,1.6c0,0.1,0,0.2,0,0.2C123.2,55.2,123.9,56,124.9,56.1&#xA;	C124.9,56.1,124.9,56.1,124.9,56.1L124.9,56.1z"/>
<path class="st0" d="M128,52.3h1.4c0.7,0,1.2,0.4,1.3,1.1c0,0,0,0.1,0,0.1c0,0.7-0.5,1.2-1.1,1.3c0,0-0.1,0-0.1,0h-1v1.6H128&#xA;	L128,52.3z M129.5,54.4c0.5,0,0.9-0.3,0.9-0.8c0-0.1,0-0.1,0-0.2c0-0.5-0.3-0.9-0.7-0.9c-0.1,0-0.1,0-0.2,0h-1v1.8H129.5z"/>
<path class="st0" d="M133.5,52.2c1.2,0,2.1,0.9,2.1,2.1c0,0,0,0,0,0c0.1,1.2-0.8,2.2-2,2.2c-1.2,0.1-2.2-0.8-2.2-2&#xA;	c0-0.1,0-0.2,0-0.3C131.4,53.2,132.3,52.2,133.5,52.2C133.4,52.2,133.5,52.2,133.5,52.2z M133.5,56.1c0.9,0,1.7-0.8,1.7-1.8&#xA;	c0,0,0,0,0-0.1c0.1-0.9-0.6-1.7-1.6-1.8c-0.9-0.1-1.7,0.6-1.8,1.6c0,0.1,0,0.2,0,0.2C131.8,55.2,132.5,56,133.5,56.1&#xA;	C133.5,56.1,133.5,56.1,133.5,56.1L133.5,56.1z"/>
<path class="st0" d="M136.6,52.3h0.4v3.8h1.9v0.4h-2.3L136.6,52.3z"/>
<path class="st0" d="M139.8,52.3h0.4v4.1h-0.4V52.3z"/>
</svg>