<?xml version="1.0" encoding="utf-8"?>
<svg xmlns="http://www.w3.org/2000/svg" xmlns:xlink="http://www.w3.org/1999/xlink" version="1.1" id="Layer_1" x="0px" y="0px" viewBox="0 0 141.2 69.1" style="enable-background:new 0 0 141.2 69.1;">
<style type="text/css">
	.st0{opacity:0.8;fill:#FFFFFF;}
	.st1{opacity:0.5;fill:#FFFFFF;}
</style>
<path class="st0" d="M45,33c-0.8,0.4-1.7,0.6-2.7,0.6c-1.3,0-2.5-0.4-3.6-1.1c-1.1-0.8-2-1.9-2.5-3.1c-0.4-1-0.7-2.1-0.7-3.1&#xA;	c0-2.5,1.5-4.8,3.8-5.8c1-0.5,2.1-0.7,3.3-0.7c1.5,0,2.4,0.4,2.8,1.3c0.1,0.2,0.2,0.5,0.2,0.8c0,0.6-0.3,1.2-0.9,1.4&#xA;	c-0.6,0.2-1.2,0.2-1.7,0.1c-0.7-0.1-1.5,0-2.2,0.3c-1,0.4-1.7,1.4-1.6,2.5c0,0.7,0.2,1.3,0.4,1.9c0.7,1.6,1.7,2.4,3,2.4&#xA;	c0.7,0,1.3-0.3,1.9-0.7c0.6-0.4,0.9-1,0.9-1.7c0-0.2,0-0.4-0.1-0.6L44,27.8c-0.2,0.1-0.5,0.2-0.7,0.2c-0.7,0-1.3-0.4-1.5-1&#xA;	c-0.1-0.2-0.2-0.5-0.2-0.7c0-0.7,0.4-1.3,1-1.5l2.7-1.2c0.3-0.1,0.6-0.2,1-0.2c0.8,0,1.5,0.6,1.7,1.4c0.4,0.9,0.6,1.9,0.6,2.9&#xA;	c0,1.1-0.3,2.2-0.9,3.2C47.1,31.8,46.2,32.6,45,33z"/>
<path class="st0" d="M49.3,30.9c0-0.1,0-0.2,0-0.4l1.6-9.9c0-0.4,0.3-0.8,0.6-1.1c0.3-0.3,0.7-0.4,1.1-0.4c0.5,0,0.9,0.2,1.3,0.5&#xA;	c0.3,0.3,0.5,0.8,0.5,1.3c0,0.1,0,0.2,0,0.4l-1.6,9.9c0,0.4-0.3,0.8-0.6,1.1c-0.3,0.3-0.7,0.4-1.1,0.4c-0.5,0-0.9-0.2-1.3-0.5&#xA;	C49.4,31.9,49.3,31.4,49.3,30.9z"/>
<path class="st0" d="M62,32.8c-1.6-0.2-3-1-4-2.3c-1-1.2-1.5-2.8-1.4-4.3c0-0.4,0-0.8,0.1-1.3c0.2-1.6,1-3.1,2.2-4.3&#xA;	C60,19.6,61.5,19,63,19c0.4,0,0.7,0,1.1,0.1c1.6,0.2,3,1,4,2.3c1,1.2,1.5,2.8,1.5,4.4c0,0.4,0,0.8-0.1,1.2c-0.2,1.6-1,3.1-2.2,4.2&#xA;	c-1.1,1.1-2.7,1.7-4.2,1.7C62.7,32.8,62.4,32.8,62,32.8z M63.6,22.4c-0.2,0-0.3-0.1-0.5-0.1c-0.7,0-1.5,0.3-1.9,0.9&#xA;	c-0.5,0.7-0.9,1.4-1,2.3c0,0.3-0.1,0.6-0.1,0.9c0,0.7,0.2,1.5,0.6,2.1c0.4,0.6,1,0.9,1.7,1c0.2,0,0.3,0.1,0.5,0.1&#xA;	c0.8,0,1.5-0.3,2-0.9c0.5-0.7,0.9-1.4,1-2.3c0-0.3,0.1-0.6,0.1-0.8c0-0.7-0.2-1.5-0.6-2.1C65,22.8,64.3,22.5,63.6,22.4L63.6,22.4z"/>
<path class="st0" d="M77.5,32.9c-1.6-0.2-3-1-4-2.3c-1-1.2-1.5-2.8-1.5-4.3c0-0.4,0-0.9,0.1-1.3c0.2-1.6,1-3.1,2.2-4.3&#xA;	c1.1-1.1,2.7-1.7,4.2-1.6c0.4,0,0.7,0,1.1,0.1c0.9,0.1,1.7,0.4,2.4,0.9c0.8,0.3,1.3,1.1,1.4,1.9c0,0.4-0.2,0.8-0.4,1.1&#xA;	c-0.3,0.3-0.7,0.5-1.1,0.5c-0.5-0.1-1-0.3-1.4-0.5c-0.4-0.3-0.9-0.4-1.4-0.5c-0.2,0-0.3,0-0.5,0c-0.7,0-1.4,0.3-1.9,0.8&#xA;	c-0.5,0.6-0.9,1.4-1,2.3c0,0.3-0.1,0.5-0.1,0.8c0,0.7,0.2,1.4,0.6,2c0.4,0.6,1.1,0.9,1.8,1c0.2,0,0.3,0,0.5,0c0.4,0,0.8-0.1,1.2-0.2&#xA;	c0.3-0.1,0.6-0.2,1-0.2c0.5,0,0.9,0.2,1.2,0.6c0.3,0.4,0.4,0.8,0.4,1.3c-0.1,0.7-0.6,1.3-1.3,1.5c-0.7,0.3-1.5,0.4-2.3,0.4&#xA;	C78.3,33,77.9,33,77.5,32.9z"/>
<path class="st0" d="M90.7,32.8c-1.6-0.2-3-1-4-2.3c-1-1.2-1.5-2.8-1.4-4.3c0-0.4,0-0.8,0.1-1.3c0.2-1.6,1-3.1,2.2-4.3&#xA;	c1.1-1.1,2.7-1.7,4.2-1.6c0.4,0,0.7,0,1.1,0.1c1.6,0.2,3,1,4,2.3c1,1.2,1.5,2.8,1.5,4.4c0,0.4,0,0.8-0.1,1.2c-0.2,1.6-1,3.1-2.2,4.2&#xA;	c-1.1,1.1-2.7,1.7-4.2,1.7C91.4,32.8,91.1,32.8,90.7,32.8z M92.4,22.4c-0.2,0-0.3-0.1-0.5-0.1c-0.7,0-1.5,0.3-1.9,0.9&#xA;	c-0.5,0.7-0.9,1.4-1,2.3c0,0.3-0.1,0.6-0.1,0.9c0,0.7,0.2,1.5,0.6,2.1c0.4,0.6,1,0.9,1.7,1c0.2,0,0.3,0.1,0.5,0.1&#xA;	c0.8,0,1.5-0.3,2-0.9c0.5-0.7,0.9-1.4,1-2.3c0-0.3,0.1-0.6,0.1-0.8c0-0.7-0.2-1.5-0.6-2.1C93.7,22.8,93.1,22.5,92.4,22.4L92.4,22.4z"/>
<path class="st1" d="M38.5,43.2c0,0.8,0,1.5-0.1,2.3c0,0.4-0.2,0.8-0.5,1.1c-0.3,0.2-0.7,0.4-1.1,0.3c-0.4,0-0.7-0.2-1-0.5&#xA;	c-0.3-0.3-0.4-0.7-0.3-1.1l0.7-8.1c0-0.4,0.2-0.8,0.5-1.1c0.3-0.3,0.7-0.4,1.1-0.3l2.5,0.2c1,0,1.9,0.4,2.7,1c0.7,0.6,1.1,1.6,1,2.5&#xA;	c0,0.2,0,0.3,0,0.5c0,0.7-0.4,1.4-0.9,1.9c-0.5,0.5-1.1,0.8-1.8,0.9l1.8,2.4c0.2,0.3,0.3,0.6,0.3,0.9c0,0.4-0.2,0.7-0.5,1&#xA;	c-0.3,0.3-0.7,0.4-1.1,0.4c-0.4,0-0.8-0.2-1.1-0.6L38.5,43.2z M40.1,38.7L39,38.6l-0.2,1.8l1.1,0.1c0.7,0.1,1-0.2,1.1-0.8&#xA;	C41.1,39.1,40.8,38.8,40.1,38.7L40.1,38.7z"/>
<path class="st1" d="M49.3,47.3l-3.7-0.7c-0.3-0.1-0.6-0.2-0.9-0.5c-0.2-0.3-0.3-0.6-0.3-0.9c0-0.1,0-0.2,0-0.3L46,37&#xA;	c0.2-0.9,0.6-1.3,1.4-1.3c0.1,0,0.2,0,0.3,0l3.5,0.7c0.3,0.1,0.6,0.2,0.9,0.5c0.4,0.6,0.4,1.3-0.1,1.8c-0.2,0.3-0.6,0.4-1,0.4&#xA;	c-0.1,0-0.2,0-0.3,0l-2.2-0.4L48.4,40l2,0.4c0.3,0.1,0.6,0.2,0.9,0.5c0.2,0.2,0.3,0.5,0.3,0.8c0,0.8-0.6,1.4-1.3,1.4c0,0,0,0,0,0&#xA;	c-0.1,0-0.2,0-0.3,0l-2-0.4l-0.3,1.5l2.3,0.5c0.7,0.1,1.1,0.7,1.1,1.3c0,0.4-0.1,0.7-0.4,1c-0.2,0.3-0.6,0.4-1,0.4&#xA;	C49.5,47.3,49.4,47.3,49.3,47.3z"/>
<path class="st1" d="M56.6,47.2c-0.8,0-1.6-0.1-2.4-0.4c-1-0.4-1.5-0.9-1.5-1.6c0-0.4,0.1-0.7,0.4-1c0.2-0.3,0.6-0.4,1-0.4&#xA;	c0.4,0,0.8,0.1,1.2,0.3c0.4,0.2,0.8,0.3,1.2,0.3c0.7,0,1.1-0.3,1.1-0.9c0-0.3-0.4-0.6-1.3-0.8c-0.8-0.2-1.6-0.5-2.3-0.9&#xA;	c-0.8-0.5-1.3-1.4-1.3-2.4c0-1,0.4-2,1.2-2.7c0.8-0.7,1.8-1,2.8-1c0.7,0,1.3,0.1,2,0.4c0.8,0.4,1.2,0.8,1.2,1.4c0,0.4-0.1,0.7-0.4,1&#xA;	c-0.2,0.3-0.6,0.4-1,0.4c-0.3,0-0.7-0.1-1-0.2c-0.3-0.1-0.6-0.2-1-0.2c-0.6,0-0.8,0.2-0.8,0.6c0,0.2,0.4,0.4,1.3,0.7&#xA;	c0.8,0.2,1.6,0.5,2.3,1c0.8,0.6,1.3,1.6,1.3,2.6c0,1.1-0.4,2.1-1.2,2.7C58.7,46.9,57.7,47.2,56.6,47.2z"/>
<path class="st1" d="M66,43.6l-1.2,0.2l0.3,2c0,0.1,0,0.2,0,0.3c0,0.4-0.1,0.8-0.4,1c-0.3,0.3-0.7,0.4-1.1,0.4&#xA;	c-0.3,0-0.7-0.1-0.9-0.3c-0.3-0.2-0.4-0.6-0.5-0.9l-1.4-8c0-0.1,0-0.2,0-0.3c-0.1-0.7,0.5-1.4,1.2-1.4c0,0,0,0,0,0l2.5-0.5&#xA;	c0.3,0,0.6-0.1,0.9-0.1c0.9,0,1.8,0.3,2.5,0.8c0.7,0.6,1.2,1.4,1.3,2.3c0,0.2,0.1,0.5,0.1,0.7c0,0.9-0.3,1.8-0.9,2.4&#xA;	C67.7,43,66.9,43.4,66,43.6z M64.9,38.7l-1.1,0.2l0.4,2.3l1.1-0.2c0.6,0,1-0.5,0.9-1.1c0,0,0,0,0,0c0-0.3-0.1-0.6-0.3-0.9&#xA;	c-0.2-0.2-0.5-0.4-0.8-0.4C65.1,38.6,65,38.6,64.9,38.7z"/>
<path class="st1" d="M74.3,47.1C73,47,71.9,46.3,71,45.3c-0.8-1-1.2-2.3-1.2-3.6c0-0.4,0-0.7,0.1-1c0.2-1.3,0.8-2.6,1.8-3.5&#xA;	c0.9-0.9,2.2-1.4,3.5-1.4c0.3,0,0.6,0,0.9,0.1c1.3,0.2,2.5,0.8,3.3,1.9c0.8,1,1.2,2.3,1.2,3.6c0,0.3,0,0.7-0.1,1&#xA;	c-0.2,1.3-0.8,2.6-1.8,3.5c-0.9,0.9-2.2,1.4-3.5,1.4C74.9,47.2,74.6,47.2,74.3,47.1z M75.7,38.6c-0.1,0-0.3,0-0.4,0&#xA;	c-0.6,0-1.2,0.3-1.6,0.7c-0.5,0.5-0.7,1.2-0.8,1.9c0,0.2-0.1,0.5-0.1,0.7c0,0.6,0.2,1.2,0.5,1.7c0.3,0.5,0.9,0.8,1.4,0.8&#xA;	c0.1,0,0.3,0,0.4,0c0.6,0,1.2-0.3,1.6-0.7c0.4-0.5,0.7-1.2,0.8-1.9c0-0.2,0.1-0.5,0.1-0.7c0-0.6-0.1-1.2-0.5-1.7&#xA;	C76.8,39,76.3,38.6,75.7,38.6z"/>
<path class="st1" d="M88.5,41.8c-0.2-0.8-0.4-2.3-0.7-4.6c0-0.1,0-0.2,0-0.3c0-0.4,0.1-0.7,0.4-0.9c0.2-0.3,0.6-0.4,0.9-0.5&#xA;	c0.4-0.1,0.8,0,1.1,0.3c0.3,0.3,0.5,0.6,0.5,1l1,8.2c0,0.1,0,0.2,0,0.2c0,0.4-0.1,0.7-0.3,1c-0.2,0.3-0.6,0.4-0.9,0.5&#xA;	c-0.2,0-0.5,0-0.7-0.1c-0.2-0.1-0.4-0.2-0.6-0.4l-4.8-4.9c0.2,0.8,0.4,2.3,0.7,4.5c0,0.1,0,0.2,0,0.3c0,0.4-0.1,0.7-0.4,0.9&#xA;	c-0.2,0.3-0.6,0.4-0.9,0.5c-0.4,0.1-0.8,0-1.1-0.3c-0.3-0.3-0.5-0.6-0.5-1l-1-8.2c0-0.1,0-0.2,0-0.2c0-0.4,0.1-0.7,0.3-1&#xA;	c0.2-0.3,0.6-0.4,0.9-0.5c0.2,0,0.5,0,0.7,0.1c0.2,0.1,0.4,0.2,0.6,0.4L88.5,41.8z"/>
<path class="st1" d="M96.5,47.2c-0.8,0-1.6-0.1-2.4-0.4c-1-0.4-1.5-0.9-1.5-1.6c0-0.4,0.1-0.7,0.4-1c0.2-0.3,0.6-0.4,1-0.4&#xA;	c0.4,0,0.8,0.1,1.2,0.3c0.4,0.2,0.8,0.3,1.2,0.3c0.7,0,1.1-0.3,1.1-0.9c0-0.3-0.4-0.6-1.3-0.8c-0.8-0.2-1.6-0.5-2.3-0.9&#xA;	c-0.8-0.5-1.3-1.4-1.3-2.4c0-1,0.4-2,1.2-2.7c0.8-0.7,1.8-1,2.8-1c0.7,0,1.3,0.1,2,0.4c0.8,0.4,1.2,0.8,1.2,1.4c0,0.4-0.1,0.7-0.4,1&#xA;	c-0.2,0.3-0.6,0.4-1,0.4c-0.3,0-0.7-0.1-1-0.2c-0.3-0.1-0.6-0.2-1-0.2c-0.6,0-0.8,0.2-0.8,0.6c0,0.2,0.4,0.4,1.3,0.7&#xA;	c0.8,0.2,1.6,0.5,2.3,1c0.8,0.6,1.3,1.6,1.3,2.6c0,1.1-0.4,2.1-1.2,2.7C98.5,46.9,97.5,47.2,96.5,47.2z"/>
<path class="st1" d="M109.1,47.4c-0.5,0-1-0.3-1.2-0.8c-0.2-0.5-0.3-1-0.4-1.5l-3.5-0.3c-0.2,0.5-0.4,0.9-0.6,1.4&#xA;	c-0.3,0.4-0.8,0.7-1.3,0.6c-0.4,0-0.7-0.2-1-0.5c-0.3-0.3-0.4-0.6-0.3-1c0-0.2,0.1-0.4,0.2-0.6l3.6-7.6c0.2-0.4,0.5-0.7,0.8-1&#xA;	c0.4-0.2,0.8-0.3,1.2-0.3c0.9,0.1,1.6,0.7,1.8,1.6l2.1,8.1c0.1,0.2,0.1,0.4,0.1,0.7c0,0.4-0.2,0.7-0.5,0.9&#xA;	C109.9,47.3,109.5,47.4,109.1,47.4z M106.3,39.4c-0.2,0.6-0.6,1.5-1.1,2.8l1.8,0.1L106.3,39.4z"/>
<path class="st1" d="M117.3,40.7c0.5,0,1,0.3,1.4,0.7c0.4,0.4,0.7,1,0.8,1.6c0,0.2,0,0.4,0,0.6c0,0.9-0.3,1.7-0.9,2.3&#xA;	c-0.7,0.6-1.5,1-2.4,1.1l-3,0.4c-0.4,0.1-0.8,0-1.1-0.3c-0.3-0.2-0.5-0.6-0.6-1l-1-8.1c-0.1-0.4,0-0.8,0.3-1.1&#xA;	c0.3-0.3,0.6-0.5,1-0.5l2.8-0.3c0.2,0,0.3,0,0.5,0c0.7,0,1.4,0.2,2,0.7c0.6,0.5,0.9,1.1,1,1.9c0,0.1,0,0.3,0,0.4&#xA;	C118.1,39.6,117.8,40.3,117.3,40.7z M114.3,38.7l-0.8,0.1l0.2,1.4l0.8-0.1c0.4,0,0.7-0.3,0.7-0.7c0-0.1,0-0.1,0-0.2&#xA;	C115.2,38.8,114.9,38.6,114.3,38.7z M115.2,42.7l-1.2,0.1l0.2,1.7l1.3-0.2c0.7-0.1,1-0.4,0.9-1c0-0.4-0.4-0.7-0.9-0.7&#xA;	C115.4,42.7,115.3,42.7,115.2,42.7L115.2,42.7z"/>
<path class="st1" d="M120.1,45.6c0-0.1,0-0.2,0-0.3l1.3-8.1c0-0.4,0.2-0.7,0.5-0.9c0.3-0.2,0.6-0.3,0.9-0.3c0.4,0,0.8,0.1,1.1,0.4&#xA;	c0.3,0.3,0.4,0.6,0.4,1c0,0.1,0,0.2,0,0.3l-1.3,8.1c0,0.4-0.2,0.7-0.5,0.9c-0.3,0.2-0.6,0.3-0.9,0.3c-0.4,0-0.8-0.1-1.1-0.4&#xA;	C120.2,46.4,120.1,46,120.1,45.6z"/>
<path class="st1" d="M129.8,47.2l-3.6-0.3c-0.4,0-0.8-0.2-1-0.5c-0.2-0.3-0.4-0.7-0.3-1.2l0.7-8.1c0-0.4,0.2-0.8,0.5-1&#xA;	c0.3-0.2,0.7-0.4,1.1-0.3c0.4,0,0.8,0.2,1,0.5c0.3,0.3,0.4,0.7,0.3,1.1l-0.6,6.9l2.2,0.2c0.4,0,0.7,0.2,1,0.4&#xA;	c0.2,0.2,0.3,0.6,0.3,0.9c0,0.4-0.1,0.7-0.4,1C130.7,47.1,130.3,47.2,129.8,47.2z"/>
<path class="st1" d="M136.8,47.3l-3.7-0.7c-0.3-0.1-0.6-0.2-0.9-0.5c-0.2-0.3-0.3-0.6-0.3-0.9c0-0.1,0-0.2,0-0.3l1.5-7.8&#xA;	c0.2-0.9,0.6-1.3,1.4-1.3c0.1,0,0.2,0,0.3,0l3.5,0.7c0.3,0.1,0.6,0.2,0.9,0.5c0.4,0.5,0.4,1.3-0.1,1.8c-0.2,0.3-0.6,0.4-1,0.4&#xA;	c-0.1,0-0.2,0-0.3,0l-2.2-0.4l-0.3,1.4l2,0.4c0.3,0.1,0.6,0.2,0.9,0.5c0.2,0.2,0.3,0.5,0.3,0.8c0,0.8-0.6,1.4-1.3,1.4c0,0,0,0,0,0&#xA;	c-0.1,0-0.2,0-0.3,0l-2-0.4l-0.3,1.5l2.3,0.5c0.7,0.1,1.2,0.7,1.1,1.3c0,0.4-0.1,0.7-0.4,1c-0.2,0.3-0.6,0.4-1,0.4&#xA;	C137,47.3,136.9,47.3,136.8,47.3z"/>
<path class="st0" d="M21.9,40.6c-0.2,0.8-0.9,1.3-1.7,1.3c-1,0-1.8-0.8-1.8-1.8c0-0.1,0-0.1,0-0.2l-7.9-1.5l0.2-2&#xA;	c2.5-0.8,4.3-8.5,4.3-8.5c1-5.2,6.8-5.5,6.8-5.5c0.1-0.6,0.3-1.1,0.5-1.4c-2.1-1.2-4.5-1.8-7-1.8c-8,0-14.5,6.5-14.5,14.5&#xA;	s6.5,14.5,14.5,14.5c5.1,0,9.5-2.6,12.1-6.5L21.9,40.6z"/>
<path class="st1" d="M31.1,37.4c-2-1.3-1.5-8.1-1.5-8.1c0.5-4.6-4.4-6.2-4.4-6.2c0.3-2.6-1.3-2.8-1.3-2.8l0,0c0,0-1.6,0-1.9,2.5&#xA;	c0,0-5.1,0.6-5.6,5.2c0,0-0.9,6.8-3.1,7.6l-0.1,0.9l7.3,0.7c0,0.1-0.1,0.2-0.1,0.3l-0.1,0.7c-0.1,0.9,0.6,1.7,1.5,1.8&#xA;	c0.9,0.1,1.7-0.6,1.8-1.5l0.1-0.7c0-0.1,0-0.2,0-0.4l7.3,0.7L31.1,37.4z"/>
</svg>