<svg width="144" height="48" viewBox="0 0 144 48" fill="none" xmlns="http://www.w3.org/2000/svg">
<mask id="mask0_5532_8627" style="mask-type:luminance" maskUnits="userSpaceOnUse" x="38" y="15" width="68" height="18">
<path d="M105.715 15H38.2843V33H105.715V15Z" fill="white"/>
</mask>
<g mask="url(#mask0_5532_8627)">
<path d="M87.9748 24H85.7572V26.25H87.9748V24Z" fill="white"/>
<path d="M103.498 24H101.28V26.25H103.498V24Z" fill="white"/>
<path d="M101.28 19.5H99.0628V21.75H101.28V19.5Z" fill="white"/>
<path d="M99.0628 21.75L96.8451 21.75V24H99.0627L99.0628 21.75Z" fill="white"/>
<path d="M90.1925 26.25L87.9748 26.25L87.9749 28.5H90.1925V26.25Z" fill="white"/>
<path d="M101.28 26.25L99.0628 26.25V28.5H101.28L101.28 26.25Z" fill="white"/>
<path d="M99.0628 28.5L96.8451 28.5V30.75H99.0627L99.0628 28.5Z" fill="white"/>
<path d="M103.498 15H96.8451V17.25H103.498V15Z" fill="white"/>
<path d="M96.8451 30.75V33H38.2843V17.25H40.5019V30.75H90.1923L90.1925 28.5L92.4099 28.5V30.75L96.8451 30.75Z" fill="white"/>
<path d="M105.715 17.25L103.498 17.25L103.498 24L105.715 24V17.25Z" fill="white"/>
<path d="M96.8451 17.25L92.4098 17.25V19.5H96.845L96.8451 17.25Z" fill="white"/>
<path d="M96.8451 17.25L96.845 19.5H92.4098V17.25H85.7572V24H87.9748V26.25L90.1925 26.25V28.5L92.4099 28.5V30.75L96.8451 30.75V28.5L99.0628 28.5V26.25L101.28 26.25V24H103.498L103.498 17.25H96.8451ZM101.28 21.75H99.0628L99.0627 24H96.8451V21.75L99.0628 21.75V19.5H101.28V21.75Z" fill="#FF5F5F"/>
<path d="M92.4099 15L92.4098 17.25H85.7572V24L83.5396 24V17.25L40.5019 17.25L40.5019 15H92.4099Z" fill="white"/>
<path d="M56.4355 21V20.25H51.2611V21H50.522V27.0001H51.2611V27.75H56.4355V27.0001H57.1747V21H56.4355ZM55.6963 26.25H52.0003V21.75H55.6963V26.25Z" fill="white"/>
<path d="M79.8435 21V20.25H73.9299V27.75H75.4084V24.75H79.8435V24H80.5827V21H79.8435ZM79.1043 23.25H75.4084V21.75H79.1043V23.25Z" fill="white"/>
<path d="M72.7801 20.25V27.75H71.3018V24.75H67.6057V27.75H66.1273V20.25H67.6057V23.25H71.3018V20.25H72.7801Z" fill="white"/>
<path d="M64.2382 21V20.25H59.0639V21H58.3246V27.0001H59.0639V27.75H64.2382V27.0001H64.9773V21H64.2382ZM63.499 26.25H59.803V21.75H63.499V26.25Z" fill="white"/>
<path d="M49.3722 26.25V27.75H43.4586V26.25H45.6762V23.25H44.1978V21.75H44.937V21H45.6762V20.25H47.1546V26.25H49.3722Z" fill="white"/>
</g>
</svg>
