<svg width="144" height="48" viewBox="0 0 144 48" fill="none" xmlns="http://www.w3.org/2000/svg">
<path d="M108.525 13.9998H95.8659L94.9579 19.8076L95.1405 20.6268L96.1372 15.1791L98.0105 23.1315L96.0015 32.785L94.9579 26.6694L94.7544 27.8696L95.7406 33.8286H108.64L112 23.1315L108.525 13.9998ZM100.854 15.2782L105.029 17.9916L104.058 15.2782H106.824L109.047 21.3939H106.61L102.378 18.5552L103.197 21.3678H100.275L98.6106 15.2782H100.854ZM108.295 33.3694H96.4294L98.5167 23.1576H111.52L108.316 33.3694H108.295Z" fill="white"/>
<path d="M93.5604 14.1035H80.8386L80.6299 21.2158L81.0682 16.5195L81.3917 23.11L81.1569 30.2223L80.6351 26.2565L81.016 33.828H93.5865L95.4807 23.1361L93.5604 14.1035ZM88.8902 15.3298L89.7877 21.3671H86.8394L86.0411 15.3559H88.8902V15.3298ZM93.2003 33.3427H81.5796L81.9135 23.1309H94.9588L93.2003 33.3427Z" fill="white"/>
<path d="M65.8362 14.1043L64.5786 23.1839L65.9353 33.8288H78.5319L78.6362 22.9543L78.5319 14.0835L65.8362 14.1043ZM68.4765 15.3828H73.1729C73.1729 15.3828 76.2255 15.6124 76.2515 17.5587C76.2776 19.5051 72.7084 19.8338 72.7084 19.8338H70.9604L70.8038 21.3993H67.7773L68.4974 15.388L68.4765 15.3828ZM78.0205 33.3696H66.3215L65.0378 23.236L78.1196 23.2621L78.0205 33.3696Z" fill="white"/>
<path d="M73.3213 17.5073C73.3213 16.8394 72.5021 16.8394 72.5021 16.8394H71.1402L71.041 18.3005H72.476C72.476 18.3005 73.3213 18.1439 73.3213 17.5073Z" fill="white"/>
<path d="M61.6456 24.7954L63.0336 16.2012L64.3173 22.082L63.2737 14.1035H50.411L47.875 24.7954L51.0059 33.6245L63.6494 33.4941L64.5469 24.999L63.3154 32.5235L61.6456 24.7954ZM53.9802 19.6817C53.4114 19.4991 52.4669 19.0399 52.4669 18.1684C52.4954 17.7936 52.6094 17.4303 52.8003 17.1064C52.9912 16.7825 53.2538 16.5068 53.568 16.3003C54.5754 15.7052 55.7332 15.4135 56.9024 15.4602C57.9934 15.4504 59.0754 15.658 60.0854 16.0707L58.9531 17.7353L58.52 17.5579C57.9006 17.3389 57.2511 17.2175 56.5945 17.1979C55.5926 17.1718 55.4152 17.584 55.4152 17.6571C55.4152 17.7301 55.3369 17.991 56.5162 18.1423C57.3204 18.239 58.1115 18.4245 58.8748 18.6955C59.1203 18.816 59.3315 18.9961 59.4893 19.2195C59.647 19.4429 59.7461 19.7023 59.7775 19.9739C59.7823 20.2721 59.72 20.5675 59.5954 20.8384C59.4707 21.1094 59.2869 21.3489 59.0574 21.5393C58.4678 22.129 57.4398 22.6665 55.1334 22.6925C53.8815 22.7486 52.6331 22.5221 51.4807 22.0298C51.4807 22.0298 52.8113 20.2609 52.8374 20.2609C53.0885 20.3941 53.3463 20.5142 53.6097 20.6209C54.2223 20.8247 54.8593 20.9458 55.5039 20.981C55.8379 20.981 56.6623 20.9549 56.8136 20.4905C56.965 20.0261 54.5438 19.8591 53.9802 19.6817ZM51.3711 33.1653L48.3968 24.8476L61.1447 24.7954L62.9397 33.0349L51.3711 33.1653Z" fill="white"/>
<path d="M106.205 24.7958L105.281 27.9945L102.787 24.7958H100.282L98.7168 31.7829H101.54L102.333 28.7094L104.822 31.7829H107.134L109.221 24.7958H106.205Z" fill="#FFA700"/>
<path d="M86.2017 31.986H89.0507L89.8961 24.9259H86.8957L86.2017 31.986Z" fill="#FFA700"/>
<path d="M68.7553 31.8821H71.1139L72.001 29.0695L73.1594 31.8821H75.4658L77.553 24.9003H74.9909L74.1665 28.0885L72.8359 24.9159H70.806L69.7624 28.0103L68.7605 24.9159H65.9375L68.7553 31.8821Z" fill="#FFA700"/>
<path d="M60.6527 29.5819H59.5725L59.3169 28.6844H56.5721L56.7495 29.5819H55.6746L58.0593 26.284H54.9806L52.3141 29.9367L52.7264 31.163L57.1357 31.189L57.4175 32.1596H60.1883L59.9587 31.163H61.0441L60.6527 29.5819ZM50.0077 31.2986L49.7468 32.4988L45.6454 28.3243L47.4769 15.4095L49.272 18.2481L49.4285 17.6063L47.4769 14.5641L34.1133 14.6894L32 28.3034L37.6669 32.7858L50.133 32.911L50.3156 32.1179L50.0077 31.2725V31.2986ZM38.0843 16.6618V16.6357H42.4936L41.3143 25.6944H38.2878L39.2114 18.963H37.7712L38.0843 16.6618ZM37.8234 32.3162L32.7723 28.3243H44.9305L49.0424 32.4466L37.8234 32.3162Z" fill="#FFA700"/>
<path d="M42.4373 29.9675L39.5934 28.9239L39.1029 29.9675L36.2329 30.171L39.3638 31.0372L40.1622 32.0808L42.4947 31.5903L45.829 32.1121L44.3471 31.0163L45.8082 30.171L42.4216 29.9675H42.4373Z" fill="#FFA700"/>
</svg>
