<svg width="144" height="48" viewBox="0 0 144 48" fill="none" xmlns="http://www.w3.org/2000/svg">
<path d="M32.4751 31.9951H111.525V32.5H32.4751V31.9951ZM56.8747 27.6863H56.917L60.1863 19.3842H63.1662V19.6596C62.9068 19.6596 62.6836 19.6826 62.5207 19.7285C62.3518 19.7744 62.2252 19.8547 62.1286 19.958C62.0321 20.0613 61.9658 20.2219 61.9296 20.417C61.8934 20.612 61.8813 20.853 61.8813 21.1514V28.8567C61.8813 29.1666 61.9055 29.419 61.9417 29.6141C61.9778 29.8034 62.0563 29.9641 62.1528 30.0731C62.2493 30.1878 62.376 30.2509 62.5509 30.2854C62.7198 30.3198 62.9309 30.3427 63.1782 30.3427V30.6181H58.6663V30.3427C58.9679 30.3427 59.2091 30.3313 59.4082 30.2968C59.6073 30.2624 59.7701 30.1936 59.8787 30.0903C59.9933 29.987 60.0778 29.8378 60.126 29.6313C60.1743 29.442 60.1984 29.1723 60.1984 28.8453V21.2776H60.1622L56.4947 30.6296H56.2836L52.6282 21.4899H52.592V28.8625C52.592 29.1952 52.6161 29.4592 52.6523 29.6542C52.6885 29.8436 52.7729 29.9985 52.8876 30.1132C52.9961 30.2108 53.159 30.2854 53.346 30.314C53.539 30.3485 53.7743 30.3599 54.0819 30.3599V30.6353H50.4747V30.3599C50.7643 30.3599 50.9935 30.337 51.1805 30.3026C51.3614 30.2681 51.5122 30.1878 51.6269 30.0845C51.7354 29.9813 51.8078 29.8321 51.85 29.6255C51.8862 29.4362 51.9104 29.1666 51.9104 28.851V21.1399C51.9104 20.8415 51.8983 20.6006 51.8621 20.4055C51.8259 20.2104 51.7475 20.0613 51.651 19.9465C51.5545 19.8318 51.3916 19.7629 51.2046 19.717C51.0236 19.6711 50.7763 19.6482 50.4808 19.6482V19.3728H53.6054L56.8747 27.6863ZM69.3309 29.7173C69.3309 29.9296 69.4154 30.1018 69.5903 30.205C69.7652 30.3198 70.0849 30.3657 70.5675 30.3542V30.6296H67.1172V30.3542C67.3403 30.3542 67.5394 30.3313 67.7143 30.2854C67.8832 30.2395 68.022 30.1591 68.1426 30.0444C68.2693 29.9296 68.3839 29.769 68.4804 29.5682C68.5769 29.3616 68.6795 29.1092 68.776 28.7994L72.0333 19.1318H72.3349L75.8455 28.7994C75.9782 29.178 76.1049 29.4649 76.2014 29.6714C76.31 29.8723 76.4246 30.0329 76.5452 30.1304C76.6659 30.228 76.8046 30.2854 76.9554 30.3083C77.1062 30.3313 77.2872 30.3427 77.5104 30.3427V30.6181H73.1673V30.3427C73.5594 30.3427 73.8429 30.2968 73.9997 30.1936C74.1626 30.0903 74.247 29.9296 74.247 29.7059C74.247 29.6141 74.235 29.5223 74.2108 29.4305L74.0661 28.96L73.3603 27.0322H70.1452L69.4214 29.2125C69.3671 29.4649 69.3309 29.6255 69.3309 29.7173ZM71.6653 22.4136L70.3564 26.4298H73.1371L71.7015 22.4136H71.6653ZM84.8876 29.6485C84.9358 29.8378 85.0203 29.9927 85.1289 30.1075C85.2555 30.205 85.4184 30.2796 85.6416 30.3083C85.8648 30.3427 86.1362 30.3542 86.468 30.3542V30.6296H81.401V30.3542C81.7388 30.3542 82.0223 30.3427 82.2335 30.3083C82.4506 30.2854 82.6135 30.2165 82.7402 30.1132C82.8608 30.01 82.9332 29.8493 82.9814 29.6542C83.0357 29.4534 83.0599 29.1895 83.0599 28.851V20.0211H81.7328C81.3528 20.0211 81.021 20.0555 80.7617 20.1244C80.5165 20.1726 80.2904 20.2853 80.1091 20.4496C79.9279 20.6139 79.7987 20.8232 79.7362 21.0538C79.6457 21.2948 79.6156 21.5931 79.5975 21.9603H79.3019V19.3957H88.5912V21.9431H88.2957C88.2715 21.2432 88.1026 20.7383 87.7769 20.4514C87.4572 20.1645 86.9264 20.0154 86.1603 20.0154H84.8152V28.851C84.8152 29.1895 84.8393 29.4534 84.8876 29.6485ZM97.2895 19.6711C97.0292 19.6664 96.769 19.6818 96.5113 19.717C96.3299 19.7381 96.1606 19.8146 96.0288 19.935C95.9202 20.0498 95.8357 20.199 95.7875 20.394C95.7332 20.5891 95.7272 20.8415 95.7272 21.1628V28.8682C95.7272 29.2125 95.7453 29.4764 95.8116 29.6714C95.8719 29.8608 95.9564 30.0157 96.071 30.1304C96.1916 30.228 96.3424 30.3026 96.5536 30.3198C96.7466 30.3427 96.9939 30.3657 97.2895 30.3657V30.6411H92.4035V30.3657C92.7232 30.3657 92.9946 30.3427 93.1877 30.3083C93.3988 30.2739 93.5496 30.1936 93.6702 30.0788C93.7848 29.9641 93.8572 29.8149 93.9115 29.6198C93.9537 29.4305 93.9718 29.178 93.9718 28.8739V21.1801C93.9718 20.8588 93.9417 20.6063 93.9115 20.4112C93.8572 20.2162 93.7848 20.067 93.6582 19.9522C93.5375 19.8375 93.3747 19.7686 93.1756 19.7342C92.918 19.6988 92.6577 19.6834 92.3975 19.6883V19.4129H97.2895V19.6768V19.6711ZM110.403 22.8611C110.365 22.0063 110.016 21.1906 109.414 20.5547C109.132 20.271 108.79 20.0476 108.41 19.8992C108.031 19.7508 107.622 19.6809 107.212 19.6941C106.681 19.6715 106.154 19.7947 105.694 20.049C105.234 20.3033 104.861 20.678 104.618 21.1284C104.063 22.0808 103.774 23.5037 103.774 25.3741C103.774 26.2405 103.864 26.9863 104.027 27.6117C104.196 28.2428 104.431 28.7535 104.751 29.1608C105.077 29.5624 105.457 29.8608 105.915 30.0444C106.374 30.228 106.88 30.3198 107.435 30.3198C108.177 30.3198 108.805 30.1477 109.329 29.7919C109.923 29.3415 110.407 28.7738 110.747 28.1281L111.049 28.2715C110.168 30.0214 108.781 30.9107 106.917 30.9107C105.57 30.9076 104.278 30.4006 103.322 29.4993C102.805 29.0011 102.4 28.4075 102.133 27.7551C101.823 26.9869 101.673 26.1683 101.693 25.3454C101.693 24.4504 101.826 23.6414 102.085 22.8783C102.332 22.1659 102.714 21.5026 103.213 20.9219C103.677 20.3842 104.251 19.9429 104.902 19.6252C105.598 19.2984 106.368 19.139 107.144 19.161C107.92 19.183 108.679 19.3857 109.354 19.7514C109.51 19.8203 109.649 19.8547 109.758 19.8547C109.878 19.8547 109.981 19.7973 110.041 19.6941C110.102 19.5908 110.156 19.4072 110.192 19.1547H110.512L110.735 22.8726H110.403V22.8611ZM36.3416 29.5108C36.3416 29.7977 36.4623 30.01 36.7156 30.1591C36.9569 30.3083 37.4033 30.3657 38.0728 30.3542V30.7214H33.2291V30.3542C33.5367 30.3542 33.8202 30.3198 34.0555 30.2624C34.2968 30.205 34.5019 30.1018 34.6768 29.9411C34.8457 29.7919 35.0086 29.5796 35.1413 29.31C35.28 29.0518 35.4308 28.7076 35.5635 28.2945L40.1358 15.5H40.558L45.444 28.3174C45.6491 28.8108 45.8059 29.201 45.9567 29.4764C46.1015 29.746 46.2583 29.9526 46.4393 30.0788C46.6082 30.205 46.8072 30.2854 47.0184 30.3198C47.2295 30.3542 47.4889 30.3657 47.7965 30.3657V30.7329H41.7162V30.3657C42.1191 30.393 42.523 30.326 42.8924 30.1706C43.1156 30.0444 43.2242 29.8264 43.2242 29.5223C43.2242 29.4075 43.2121 29.2813 43.176 29.1666C43.1398 29.0403 43.0734 28.8338 42.9648 28.5469L41.9756 25.988H37.4938L36.4804 28.8682C36.4049 29.0758 36.3583 29.2918 36.3416 29.5108ZM39.5989 19.8318L37.7833 25.1389H41.674L39.6532 19.8318H39.605H39.5989Z" fill="white"/>
</svg>
