<svg width="144" height="48" viewBox="0 0 144 48" fill="none" xmlns="http://www.w3.org/2000/svg">
<path d="M19 33.225L28.54 15.075L32.9314 12L42.2443 33.975L31.19 20.325L19 33.225Z" fill="#F9FAFB"/>
<path d="M27.1014 29.85L30.9629 33.075L45.2729 19.95L31.19 36L27.1014 29.85Z" fill="#7CD6FB"/>
<path fill-rule="evenodd" clip-rule="evenodd" d="M64.5043 21.45L65.3371 20.025H63.52L62.6871 21.45L60.7186 24.9L58.75 21.45L57.9171 20.025H56.1L56.9329 21.45L60.7186 27.975L64.5043 21.45ZM56.7814 27.975H58.5986L57.7657 26.55L53.98 20.025L50.1943 26.55L49.3614 27.975H51.1786L52.0114 26.55L53.98 23.1L55.9486 26.55L56.7814 27.975ZM72.1514 27.975H70.3343L69.5014 26.55L67.5329 23.1L65.5643 26.55L64.7314 27.975H62.9143L63.7471 26.55L67.5329 20.025L71.3186 26.55L72.1514 27.975ZM79.42 21.45V20.025H70.3343V21.45H74.0443V27.975H75.6343V21.45H79.42ZM86.9157 27.975H85.0986L84.2657 26.55L82.2971 23.1L80.3286 26.55L79.4957 27.975H77.6786L78.5114 26.55L82.2971 20.025L86.0829 26.55L86.9157 27.975ZM95.9257 27.975L95.0929 26.55L93.8057 24.3C94.0329 24.3 94.26 24.225 94.4871 24.15C95.32 23.775 95.9257 23.025 95.9257 22.2C95.9257 21.6 95.6229 21.075 95.2443 20.7C94.79 20.325 94.1843 20.1 93.5029 20.1H87.7486V28.05H89.3386V24.375H90.9286C91.5343 24.375 91.9886 24.675 92.2914 25.05L92.3671 25.125L93.2757 26.625L94.1086 28.05L95.9257 27.975ZM93.8057 22.8C93.73 22.875 93.5786 22.875 93.5029 22.875H89.4143V21.375H93.5029C93.8057 21.375 93.9571 21.525 94.1086 21.6C94.1843 21.675 94.3357 21.825 94.3357 22.125C94.26 22.425 94.1086 22.725 93.8057 22.8Z" fill="#F9FAFB"/>
<path fill-rule="evenodd" clip-rule="evenodd" d="M112.734 26.175V20.025H112.053V26.175C112.053 26.775 111.599 27.225 111.069 27.225H103.8C103.27 27.225 102.816 26.775 102.816 26.175V20.025H102.134V26.175C102.134 27.15 102.891 27.975 103.8 27.975H111.069C111.977 27.975 112.734 27.225 112.734 26.175ZM125 27.975L120.306 24L125 20.025H123.94L119.776 23.55L115.611 20.025H114.551L119.246 24L114.551 27.975H115.611L119.776 24.45L123.94 27.975H125Z" fill="#7CD6FB"/>
</svg>
