<svg width="144" height="48" viewBox="0 0 144 48" fill="none" xmlns="http://www.w3.org/2000/svg">
<path fill-rule="evenodd" clip-rule="evenodd" d="M108.075 21.1776C108.119 21.1971 108.163 21.218 108.204 21.2403C108.43 21.3549 108.638 21.4995 108.825 21.6702C109.12 21.9297 109.353 22.2514 109.507 22.6118C109.636 22.9137 109.707 23.2365 109.718 23.564V23.5978L115.379 17.1543L115.457 17.0654L118.973 13.0558C119.231 12.7609 119.271 12.4962 119.151 12.2741C119.145 12.2723 119.139 12.2691 119.135 12.2648C119.131 12.2605 119.127 12.2552 119.125 12.2492C119.113 12.2238 119.1 12.1994 119.083 12.1764C119.05 12.1356 119.013 12.0982 118.973 12.0645C118.9 12.0185 118.815 11.9962 118.728 12.0005H115.284C114.996 12.0004 114.707 12.0235 114.423 12.0698C113.479 12.4117 112.634 12.9804 111.963 13.7255C110.554 15.3324 109.327 17.9539 108.471 20.1113L108.075 21.1776ZM111.087 15.8947C110.919 16.287 110.782 16.6914 110.677 17.1045C110.608 17.3834 110.552 17.6659 110.502 17.9519V17.9522V17.9523C110.481 18.089 110.46 18.2256 110.44 18.3605C110.39 18.7709 110.348 19.1813 110.326 19.6041C110.311 19.9062 110.289 20.202 110.268 20.4959V20.496C110.259 20.6134 110.25 20.7306 110.242 20.8477C110.219 21.1373 110.185 21.4268 110.144 21.7146C110.138 21.7609 110.131 21.807 110.123 21.8532C110.119 21.8763 110.116 21.8994 110.112 21.9225C110.044 22.3768 109.948 22.8265 109.825 23.2691C110.073 22.8515 110.269 22.4053 110.409 21.9403L112.1 19.6574L112.992 18.4618L110.606 21.1959C110.626 21.0982 110.643 21.0005 110.661 20.9027C110.695 20.7251 110.722 20.5475 110.745 20.3698L112.976 17.3319L110.822 19.7729C110.823 19.7577 110.825 19.7421 110.828 19.7265V19.7264C110.832 19.7019 110.836 19.677 110.836 19.6521L110.902 18.9948L110.914 19.0054L112.498 16.8078L112.833 16.3406L112.424 16.8061L110.977 18.4156C111.009 18.1551 111.048 17.8957 111.095 17.6375L112.807 15.2303L111.228 16.9695C111.3 16.6568 111.379 16.3477 111.478 16.0439C111.742 15.2619 112.062 14.4996 112.435 13.7629C111.877 14.3994 111.423 15.1186 111.087 15.8947Z" fill="white"/>
<path d="M56.3142 16.7174C56.1507 16.7174 56.0244 16.6656 55.9353 16.562C55.8461 16.4435 55.8164 16.3029 55.8461 16.14L56.2919 14.0745C56.3216 13.9116 56.4033 13.7784 56.537 13.6747C56.6857 13.5563 56.8343 13.4971 56.9829 13.4971H59.7689C59.9324 13.4971 60.0587 13.5563 60.1478 13.6747C60.237 13.7784 60.2667 13.9116 60.237 14.0745L59.7689 16.14C59.7541 16.3029 59.6798 16.4435 59.546 16.562C59.4123 16.6656 59.2637 16.7174 59.1003 16.7174H56.3142Z" fill="white"/>
<path d="M53.5054 29.8653C53.3419 29.8653 53.2156 29.8135 53.1265 29.7098C53.0522 29.5914 53.0299 29.4581 53.0596 29.3101L55.2662 18.8717C55.2959 18.7236 55.3776 18.5977 55.5114 18.4941C55.6451 18.3757 55.7937 18.3164 55.9572 18.3164H58.7432C58.9067 18.3164 59.0256 18.3683 59.0999 18.4719C59.189 18.5755 59.2187 18.7088 59.189 18.8717L56.9601 29.3101C56.9304 29.473 56.8487 29.6062 56.7149 29.7098C56.5961 29.8135 56.4549 29.8653 56.2914 29.8653H53.5054Z" fill="white"/>
<path fill-rule="evenodd" clip-rule="evenodd" d="M24.8956 29.7543C24.9699 29.8283 25.0739 29.8654 25.2077 29.8654H28.2612C28.6178 29.8654 28.9002 29.7025 29.1082 29.3768L30.4009 27.2225H36.2183L36.5749 29.3324C36.6343 29.6877 36.8646 29.8654 37.2658 29.8654H40.0965C40.26 29.8654 40.3937 29.8062 40.4977 29.6877C40.6018 29.5693 40.6463 29.4064 40.6314 29.1991L38.4694 14.9629C38.41 14.5335 38.1574 14.3188 37.7116 14.3188H34.1009C33.6699 14.3188 33.3282 14.5335 33.0756 14.9629L24.851 29.1991C24.8065 29.288 24.7842 29.3694 24.7842 29.4434C24.7842 29.5618 24.8213 29.6655 24.8956 29.7543ZM35.9954 23.8911H32.028L35.2153 18.2277L35.9954 23.8911Z" fill="white"/>
<path d="M43.5859 29.732C43.675 29.8209 43.8236 29.8653 44.0317 29.8653H46.5726C46.7806 29.8653 46.9441 29.8209 47.063 29.732C47.1967 29.6284 47.323 29.4877 47.4418 29.3101L53.8387 19.0049C53.913 18.8865 53.9502 18.7828 53.9502 18.694C53.9502 18.5755 53.913 18.4867 53.8387 18.4275C53.7644 18.3534 53.6604 18.3164 53.5267 18.3164H50.6737C50.3617 18.3164 50.1165 18.4719 49.9382 18.7828L46.06 25.4234L45.057 18.8273C45.0124 18.6644 44.9455 18.5385 44.8564 18.4497C44.7821 18.3608 44.6483 18.3164 44.4552 18.3164H41.9588C41.7359 18.3164 41.5725 18.3757 41.4685 18.4941C41.3793 18.6126 41.3496 18.768 41.3793 18.9605L43.4076 29.3101C43.4522 29.4877 43.5116 29.6284 43.5859 29.732Z" fill="white"/>
<path fill-rule="evenodd" clip-rule="evenodd" d="M60.4971 29.0878C61.1806 29.7541 62.1465 30.0873 63.3947 30.0873C64.1822 30.0873 64.836 29.9688 65.3561 29.7319C65.8761 29.4802 66.3962 29.1101 66.9163 28.6215L66.7603 29.31C66.7305 29.458 66.7603 29.5913 66.8494 29.7097C66.9386 29.8134 67.0649 29.8652 67.2283 29.8652H69.8807C70.0293 29.8652 70.1705 29.8134 70.3042 29.7097C70.4379 29.6061 70.5196 29.4729 70.5493 29.31L72.7782 18.8716C72.8079 18.7235 72.7782 18.5976 72.6891 18.494C72.5999 18.3756 72.4736 18.3163 72.3102 18.3163H69.6801C69.5167 18.3163 69.3681 18.3682 69.2343 18.4718C69.1155 18.5754 69.0412 18.7087 69.0114 18.8716L68.8777 19.4268C68.5657 18.9974 68.1719 18.6717 67.6964 18.4496C67.2209 18.2127 66.5671 18.0942 65.735 18.0942C64.2342 18.0942 63.0009 18.5532 62.035 19.4712C61.0692 20.3744 60.3708 21.6477 59.9399 23.2912L59.6056 24.8681C59.5313 25.253 59.4941 25.6972 59.4941 26.2006C59.4941 27.4444 59.8285 28.4068 60.4971 29.0878ZM66.6265 26.4006C66.2253 26.8003 65.6979 27.0002 65.044 27.0002C64.5388 27.0002 64.1822 26.8744 63.9742 26.6226C63.7661 26.3709 63.6621 26.0082 63.6621 25.5344C63.6621 25.2975 63.6844 25.0458 63.729 24.7793C63.7736 24.3647 63.8702 23.9057 64.0188 23.4023C64.2267 22.7064 64.5165 22.166 64.888 21.781C65.2595 21.3812 65.7647 21.1814 66.4036 21.1814C66.9237 21.1814 67.3026 21.3146 67.5404 21.5811C67.7781 21.8476 67.897 22.2104 67.897 22.6694C67.897 22.773 67.8821 22.9433 67.8524 23.1802C67.7781 23.6688 67.6592 24.224 67.4958 24.8459C67.3323 25.4677 67.0426 25.986 66.6265 26.4006Z" fill="white"/>
<path d="M79.217 29.8653C76.4383 29.8653 75.049 28.8289 75.049 26.756C75.049 26.3414 75.101 25.9047 75.205 25.4457L76.0743 21.3369H74.3358C74.1723 21.3369 74.046 21.2851 73.9568 21.1815C73.8677 21.063 73.8454 20.9298 73.89 20.7817L74.2689 18.8717C74.2986 18.7236 74.3803 18.5978 74.5141 18.4941C74.6478 18.3757 74.7964 18.3164 74.9598 18.3164H76.7206L77.5007 14.6519C77.5305 14.489 77.6122 14.3558 77.7459 14.2521C77.8797 14.1485 78.0208 14.0967 78.1694 14.0967H80.9109C81.0744 14.0967 81.1932 14.1559 81.2675 14.2744C81.3567 14.378 81.3864 14.5039 81.3567 14.6519L80.5766 18.3164H83.3627C83.5261 18.3164 83.645 18.3683 83.7193 18.4719C83.8084 18.5756 83.8382 18.7088 83.8084 18.8717L83.4072 20.7817C83.3776 20.9446 83.2958 21.0778 83.1621 21.1815C83.0284 21.2851 82.8872 21.3369 82.7386 21.3369H79.9302L79.1278 25.1125C79.0684 25.3642 79.0386 25.6159 79.0386 25.8676C79.0386 26.149 79.1055 26.3563 79.2392 26.4895C79.3878 26.6228 79.6331 26.6894 79.9748 26.6894H81.7802C81.9436 26.6894 82.0625 26.7486 82.1368 26.867C82.226 26.9707 82.2557 27.1039 82.226 27.2668L81.7802 29.3101C81.7505 29.473 81.6687 29.6062 81.535 29.7098C81.4013 29.8135 81.2601 29.8653 81.1115 29.8653H79.217Z" fill="white"/>
<path d="M83.6465 29.7098C83.7357 29.8135 83.862 29.8653 84.0254 29.8653H86.9675C87.1307 29.8653 87.2797 29.8135 87.4131 29.7098C87.5472 29.6062 87.6288 29.473 87.6586 29.3101L88.8621 23.7133C88.9807 23.1211 89.2333 22.6621 89.6199 22.3363C90.006 22.0106 90.4963 21.8477 91.0909 21.8477H93.3424C93.5056 21.8477 93.654 21.7959 93.788 21.6922C93.9215 21.5738 93.996 21.4405 94.0109 21.2925L94.5232 18.8717C94.553 18.7088 94.5232 18.5755 94.4345 18.4719C94.36 18.3683 94.2486 18.3164 94.0996 18.3164H92.8074C92.0346 18.3164 91.3805 18.4423 90.846 18.694C90.311 18.9309 89.8499 19.2788 89.4638 19.7378L89.642 18.8939C89.6718 18.731 89.642 18.5977 89.5532 18.4941C89.4787 18.3757 89.3596 18.3164 89.1963 18.3164H86.4772C86.3139 18.3164 86.165 18.3757 86.0315 18.4941C85.8975 18.5977 85.8159 18.731 85.7861 18.8939L83.5796 29.3101C83.5499 29.4581 83.5722 29.5914 83.6465 29.7098Z" fill="white"/>
<path d="M97.1508 16.7174C96.987 16.7174 96.8607 16.6656 96.7719 16.562C96.6826 16.4435 96.6528 16.3029 96.6826 16.14L97.1282 14.0745C97.158 13.9116 97.2396 13.7784 97.3737 13.6747C97.522 13.5563 97.671 13.4971 97.8193 13.4971H100.605C100.769 13.4971 100.895 13.5563 100.984 13.6747C101.073 13.7784 101.103 13.9116 101.073 14.0745L100.605 16.14C100.59 16.3029 100.516 16.4435 100.382 16.562C100.249 16.6656 100.1 16.7174 99.9367 16.7174H97.1508Z" fill="white"/>
<path d="M94.3423 29.8653C94.179 29.8653 94.0527 29.8135 93.9633 29.7098C93.8889 29.5914 93.8668 29.4581 93.8966 29.3101L96.1028 18.8717C96.1326 18.7236 96.2142 18.5977 96.3483 18.4941C96.4817 18.3757 96.6307 18.3164 96.7939 18.3164H99.5798C99.7436 18.3164 99.8622 18.3683 99.9367 18.4719C100.026 18.5755 100.056 18.7088 100.026 18.8717L97.7972 29.3101C97.7674 29.473 97.6858 29.6062 97.5517 29.7098C97.4332 29.8135 97.292 29.8653 97.1281 29.8653H94.3423Z" fill="white"/>
<path fill-rule="evenodd" clip-rule="evenodd" d="M101.918 19.1094L104.08 23.4408C104.046 23.6107 104.027 23.7866 104.027 23.9667C104.027 25.4135 105.205 26.5862 106.657 26.5862C108.109 26.5862 109.285 25.4135 109.285 23.9667C109.285 22.7112 108.399 21.662 107.215 21.4067L105.818 18.7318C105.699 18.4653 105.498 18.332 105.216 18.332H102.452C102.289 18.332 102.148 18.3987 102.029 18.5319C101.925 18.6503 101.873 18.7836 101.873 18.9317C101.873 18.9613 101.888 19.0205 101.918 19.1094ZM106.657 24.9656C107.21 24.9656 107.659 24.5184 107.659 23.9667C107.659 23.4151 107.21 22.968 106.657 22.968C106.103 22.968 105.654 23.4151 105.654 23.9667C105.654 24.5184 106.103 24.9656 106.657 24.9656Z" fill="white"/>
<path fill-rule="evenodd" clip-rule="evenodd" d="M105.186 26.7598C105.227 26.7822 105.27 26.8031 105.315 26.8225L104.919 27.8888C104.063 30.0462 102.836 32.6677 101.427 34.2746C100.756 35.0197 99.9111 35.5884 98.9668 35.9303C98.682 35.9766 98.3942 35.9998 98.1058 35.9996H94.661C94.5752 36.0039 94.49 35.9816 94.4168 35.9356C94.3768 35.902 94.3399 35.8645 94.3065 35.8237C94.2904 35.8007 94.2767 35.7763 94.2654 35.7509C94.263 35.7449 94.2595 35.7396 94.2553 35.7353C94.2505 35.731 94.2446 35.7278 94.2386 35.726C94.1195 35.5039 94.1588 35.2392 94.4168 34.9443L97.9331 30.9347L98.0111 30.8458L103.672 24.4023V24.4361C103.683 24.7637 103.754 25.0864 103.883 25.3883C104.037 25.7487 104.27 26.0704 104.565 26.3299C104.751 26.5006 104.96 26.6452 105.186 26.7598ZM102.713 30.8956C102.608 31.3087 102.47 31.7132 102.303 32.1054C101.967 32.8815 101.513 33.6007 100.955 34.2373C101.328 33.5005 101.648 32.7382 101.912 31.9562C102.011 31.6524 102.09 31.3433 102.162 31.0306L100.583 32.7698L102.295 30.3626C102.342 30.1045 102.381 29.845 102.413 29.5845L100.966 31.194L100.557 31.6595L100.892 31.1923L102.476 28.9947L102.488 29.0053L102.554 28.3481C102.554 28.3231 102.558 28.2982 102.562 28.2737V28.2737C102.565 28.258 102.567 28.2425 102.568 28.2272L100.415 30.6682L102.645 27.6303C102.668 27.4527 102.695 27.275 102.729 27.0974C102.746 26.9996 102.764 26.9019 102.784 26.8042L100.398 29.5383L101.29 28.3427L102.98 26.0598C103.12 25.5948 103.317 25.1486 103.565 24.731C103.442 25.1736 103.346 25.6234 103.278 26.0776C103.274 26.1007 103.271 26.1238 103.267 26.1469C103.259 26.1931 103.252 26.2393 103.246 26.2855C103.205 26.5733 103.171 26.8629 103.148 27.1524C103.14 27.2695 103.131 27.3867 103.122 27.5041V27.5042C103.101 27.7981 103.079 28.0939 103.064 28.396C103.043 28.8188 103 29.2292 102.95 29.6396C102.93 29.7745 102.909 29.9111 102.888 30.0478V30.0479V30.0482C102.838 30.3342 102.782 30.6167 102.713 30.8956Z" fill="white"/>
<path d="M106.657 27.0951C107.791 27.0951 108.784 26.496 109.336 25.5981L111.084 29.0975C111.113 29.1864 111.128 29.2455 111.128 29.2751C111.128 29.4233 111.076 29.5565 110.973 29.6749C110.854 29.8082 110.712 29.8748 110.549 29.8748H107.785C107.503 29.8748 107.302 29.7416 107.183 29.4751L105.891 27.0014C106.136 27.0626 106.392 27.0951 106.657 27.0951Z" fill="white"/>
</svg>
