<svg fill="none" height="50" viewBox="0 0 140 50" width="140" xmlns="http://www.w3.org/2000/svg"><path d="m20.2053 11.0295-7.1777 7.1906c-.1713.1716-.2595.4004-.2595.6239 0 .2288.0882.4576.2543.6291l7.1829 7.1907c.1713.1716.3996.2599.6228.2599.2283 0 .4567-.0883.628-.2599l7.1777-7.1907c.1712-.1715.2595-.4003.2595-.6291 0-.2235-.0883-.4523-.2595-.6239l-7.1777-7.1958c-.1713-.1716-.3997-.2548-.6228-.2548-.2284 0-.4567.0832-.628.26zm1.7957-.546 2.8701 2.8753c2.2109-1.695 3.8509-2.7141 3.8561-2.7193l.1349-.0884.1401.0884c.0416.026 15.3934 9.6603 15.3934 18.8631 0 2.2409-.8823 4.279-2.3095 5.7504-1.4272 1.4766-3.4046 2.3917-5.5792 2.3917-1.6037 0-3.1866-.4835-4.5152-1.3206-.9861-.6187-1.8321-1.435-2.4601-2.3917.7059 5.2513 6.285 5.5373 6.9182 5.5529l.0571.0052v.2547.2548h-7.1258-8.1534v-.2548-.2547l.0519-.0052c.6332-.0156 6.2072-.3016 6.9182-5.5425-.6228.9515-1.4687 1.7626-2.4496 2.3813-1.3287.8371-2.9116 1.3206-4.5205 1.3206-2.1798 0-4.1571-.9151-5.5844-2.3917-1.4272-1.4714-2.3095-3.5043-2.3095-5.7504 0-1.149.2336-2.2981.6436-3.4367.3736-1.0295.8874-2.0486 1.5051-3.0416l-2.9998-3.0052c-.3218-.3276-.4827-.7487-.4827-1.1751 0-.4211.1609-.8475.4827-1.1698l7.1777-7.1907c.3269-.3223.7473-.4835 1.1729-.4835.4204 0 .8459.1612 1.1677.4835zm24.1281 13.5858v-12.3327h6.9649c1.0847 0 1.8787.1196 2.377.3691.576.2964 1.012.7747 1.3078 1.4298.2076.4628.3114.9359.3114 1.4298 0 .6396-.1661 1.2323-.5034 1.7886-.3425.5511-.7681.9307-1.2871 1.1438 1.1937.5512 1.7905 1.5182 1.7905 2.9065 0 .8059-.1868 1.4818-.5657 2.0277-.327.4679-.7473.7955-1.2663.9723-.5242.1767-1.2923.2651-2.3199.2651zm2.6209-7.2686h3.5655c.3736 0 .6435-.0156.8148-.0572s.3321-.1196.4878-.2392c.3841-.2963.5761-.7071.5761-1.227 0-.4991-.1764-.8683-.5397-1.1075-.2595-.1715-.6851-.2547-1.2819-.2547h-3.6226zm0 5.0849h3.5655c.3736 0 .6435-.0156.82-.0572.1713-.0416.3373-.1196.4826-.2443.3841-.2964.5761-.7072.5761-1.2323 0-.5043-.1764-.8735-.5397-1.1126-.2595-.1664-.6851-.2548-1.2819-.2548h-3.6226zm19.5038-10.149v2.1785h-3.415c-.8927 0-1.5466.0624-1.9514.1924-.4048.1195-.7422.3639-1.0121.7175-.1816.2443-.3062.4939-.3736.7383-.0675.2495-.1194.6759-.1713 1.2738h6.9234v2.1837h-6.9234c.0934 1.0711.3996 1.8198.929 2.2357.5294.4211 1.4272.6291 2.6988.6291h3.2956v2.1837h-3.415c-.9238 0-1.7386-.0572-2.4445-.1716-1.1002-.1767-1.9825-.6655-2.6365-1.4558-.9341-1.1282-1.396-2.6672-1.396-4.6065 0-2.1526.6591-3.8215 1.9721-5.0174.4516-.4003.929-.6863 1.4428-.8423.5086-.1611 1.1937-.2391 2.0553-.2391zm1.9462 0h2.6209v6.9358c.0364.8735.0727 1.461.1142 1.7522.0831.5615.3529.9411.8045 1.1543.4567.2027 1.2507.3067 2.3873.3067h2.5068v2.1837h-2.7767c-1.3078.0052-2.2628-.0676-2.8596-.2235-1.3598-.4004-2.2213-1.2635-2.5794-2.5893-.1401-.5095-.2128-1.3726-.218-2.5841zm9.1551 12.3327 5.0965-12.3327h3.0153l5.0914 12.3327h-3.0725l-1.1885-2.8492h-4.6761l-1.1937 2.8492zm6.6068-9.3639-1.7542 4.3362h3.5032zm9.181-.7903h-3.9132v-2.1785h10.6133v2.1785h-4.0792v10.1542h-2.6209zm10.6601 5.4592v4.695h-2.621v-12.3327h6.015c1.723 0 2.933.2183 3.623.6603.457.2911.82.6811 1.074 1.1646.254.4888.384 1.0191.384 1.6066 0 1.1751-.296 2.0797-.892 2.7089-.374.3847-.862.6811-1.469.8838.482.1664.846.338 1.09.5356.249.1923.467.4783.669.8474.151.2912.254.572.322.8475.057.2756.109.6811.156 1.2167.067.8839.171 1.5078.295 1.8613h-2.942c-.088-.2911-.177-.8735-.265-1.7573-.073-.7227-.202-1.2739-.394-1.6586-.187-.3848-.478-.6811-.862-.8995-.472-.26-1.168-.39-2.071-.3796zm0-2.1837h3.68c.612 0 1.053-.0935 1.308-.2755.394-.2756.591-.7539.591-1.435 0-.7539-.296-1.2427-.887-1.4558-.203-.0676-.54-.1092-1.012-.1092h-3.68zm9.394 6.8787 5.091-12.3327h3.021l5.091 12.3327h-3.072l-1.189-2.8492h-4.681l-1.189 2.8492zm6.607-9.3639-1.755 4.3362h3.504zm-63.4993 17.2877h6.0359v7.3206h-5.4858c-.955 0-1.7127-.0728-2.2628-.2132-.5553-.1404-1.064-.3847-1.5207-.7435-1.2871-.9982-1.9358-2.7192-1.9358-5.1629 0-1.6014.3062-2.9272.9186-3.9827.4567-.7747 1.0795-1.3466 1.858-1.7001.7837-.3536 1.8061-.5304 3.0673-.5304h5.3612v2.1785h-5.0654c-1.0847 0-1.8788.2444-2.3718.7279-.5761.5668-.8667 1.5858-.8667 3.0572 0 .7539.0778 1.4351.2283 2.0434s.3581 1.0606.6228 1.357c.2387.2704.5605.4679.9653.5979.4048.1248.9083.1872 1.5103.1872h2.3562v-2.9584h-3.4149zm7.105 7.3206 5.0913-12.3328h3.0206l5.0913 12.3328h-3.0724l-1.1885-2.8492h-4.6814l-1.1885 2.8492zm6.6068-9.364-1.7594 4.3363h3.5084zm11.7085-2.9688 3.0621 9.624 3.2281-9.624h3.8198v12.3328h-2.4964v-9.2548l-3.2177 9.2548h-2.6936l-3.0413-9.2548v9.2548h-2.4912v-12.3328zm21.86 0v2.1785h-3.415c-.893 0-1.547.0624-1.951.1924-.4052.1196-.7425.3588-1.0124.7175-.1817.2444-.3062.494-.3737.7435-.0675.2444-.1194.6707-.1713 1.2687h6.9234v2.1837h-6.9234c.0883 1.071.3997 1.8197.9291 2.2409.5293.4159 1.4273.6239 2.6983.6239h3.296v2.1837h-3.415c-.924 0-1.739-.0572-2.4444-.1716-1.1003-.1768-1.9826-.6655-2.6365-1.4558-.9342-1.1282-1.3961-2.6672-1.3961-4.6066 0-2.1525.6539-3.8215 1.9722-5.0173.4515-.4004.929-.6863 1.4428-.8423.5086-.1612 1.194-.2392 2.055-.2392zm2.04 12.3328v-2.1837h5.62c.909 0 1.511-.0884 1.812-.2704.43-.26.648-.6499.648-1.1698 0-.6031-.249-1.0399-.757-1.3155-.291-.1559-.753-.2391-1.386-.2391h-2.284c-1.396 0-2.403-.2496-3.02-.7591-.384-.3172-.685-.7175-.898-1.2063-.223-.4835-.327-1.0034-.327-1.5494 0-.8682.249-1.6585.758-2.376.493-.6915 1.287-1.0971 2.377-1.2115.368-.0364.918-.052 1.645-.052h6.109v2.1785h-5.517c-.82.0104-1.371.0468-1.646.1144-.555.1404-.83.5616-.83 1.2635 0 .5979.234 1.0034.695 1.2062.317.1404.836.208 1.557.208h1.978c1.012 0 1.77.0884 2.268.2651.877.2912 1.474.8111 1.801 1.5494.264.5928.394 1.2323.394 1.9134 0 .7487-.171 1.4142-.514 2.0121-.482.8423-1.209 1.3414-2.179 1.5078-.468.0728-1.173.1144-2.113.1144z" fill="#0293ff"/></svg>