<svg width="144" height="48" viewBox="0 0 144 48" fill="none" xmlns="http://www.w3.org/2000/svg">
<path d="M53.7188 23.6086C54.0428 23.1073 54.2079 22.5511 54.2079 21.9337L54.2018 17.5996V17.3307C54.1444 16.5569 53.7921 15.8348 53.2176 15.3134C52.6537 14.7796 51.9033 14.4878 51.127 14.5004H48.2539V23.6086H53.7188ZM51.8055 16.8355C52.0011 17.0189 52.1111 17.2451 52.1295 17.514V17.5996L52.1417 21.9398C52.1401 22.2143 52.0299 22.4771 51.8352 22.6707C51.6405 22.8642 51.3771 22.9729 51.1025 22.9729H50.2895V16.5727H51.1086C51.3837 16.5665 51.616 16.6582 51.8055 16.8355ZM54.4035 25.7909C54.3664 25.2903 54.2046 24.807 53.9328 24.3849H48.2661V33.487H51.3348C52.1845 33.487 52.9058 33.1814 53.5049 32.5823C54.1039 31.971 54.4035 31.2436 54.4096 30.3939L54.4035 26.0538C54.4157 25.9743 54.4035 25.8765 54.4035 25.7909ZM52.3495 30.4C52.3495 30.6934 52.2395 30.938 52.0439 31.1336C51.8422 31.3353 51.6038 31.4392 51.3348 31.4392H50.314V25.0329H51.3409C51.5979 25.0352 51.8448 25.1338 52.0326 25.3092C52.2205 25.4846 52.3358 25.7241 52.3557 25.9804L52.3618 26.066L52.3495 30.3939V30.4ZM64.7159 23.5842H66.7637V16.5665H68.5976L68.6221 14.5004L62.6803 14.5065V16.5727L64.7098 16.5665L64.7159 23.5842ZM64.7159 24.3727V33.4931H66.7515L66.7637 24.3727H64.7159ZM61.2132 23.5842V22.9667H57.9306V16.5665L61.201 16.5727L61.2071 14.5065L55.895 14.5004V23.5842H61.2132ZM57.9428 25.0268H61.2071V24.3727H55.8889V33.4931H61.2071L61.2132 31.4392L57.9367 31.427L57.9428 25.0268Z" fill="white"/>
<path d="M92.9518 23.5845H95.0118V16.5669H96.8579V14.5008H90.9101L90.9039 16.5669H92.9579L92.9518 23.5845ZM92.9518 24.3731V33.4935H95.0118V24.3731H92.9518ZM90.1215 23.5845V22.9671H86.8205V16.5669H90.1215L90.1276 14.5008H84.7483V23.5845H90.1215ZM84.7483 24.3731V33.4935H86.8144L86.8266 25.0272H90.1337V24.3731H84.7483ZM79.2772 23.5845L79.2833 17.6C79.2833 17.3127 79.3934 17.0682 79.589 16.8664C79.7907 16.6647 80.0352 16.5608 80.3042 16.5608C80.5645 16.5614 80.8152 16.6598 81.0065 16.8364C81.1978 17.013 81.3158 17.2549 81.3373 17.5144L81.3434 17.6061V23.5967H83.379V17.6061C83.3876 17.1774 83.3048 16.7518 83.1362 16.3576C82.9675 15.9635 82.7169 15.6097 82.4009 15.3199C81.8455 14.7876 81.104 14.4936 80.3348 14.5008C79.4912 14.5008 78.7699 14.8064 78.183 15.4055C77.8922 15.6931 77.6618 16.0359 77.5054 16.4138C77.349 16.7917 77.2697 17.1971 77.2722 17.6061V23.5845H79.2894H79.2772ZM81.3373 24.3731L81.325 30.4004C81.325 30.6877 81.215 30.9383 81.0194 31.1339C80.8177 31.3357 80.5793 31.4396 80.3042 31.4396C80.1746 31.4426 80.0458 31.4198 79.9251 31.3726C79.8044 31.3254 79.6943 31.2546 79.6012 31.1645C79.4114 30.9892 79.2937 30.7495 79.2711 30.4921L79.265 30.4004L79.2711 24.3731H77.2477L77.2416 30.4004V30.6755C77.3089 31.4701 77.6329 32.1426 78.2197 32.6927C78.7804 33.223 79.5265 33.5126 80.2981 33.4996C81.1417 33.4996 81.8569 33.194 82.4498 32.5949C83.0428 31.9836 83.3484 31.2562 83.3545 30.4004L83.3606 24.3731H81.3373ZM70.8842 23.5845H74.2341L73.1215 22.6554C72.4642 22.0592 72.0652 21.2303 72.009 20.3447C71.9968 20.1919 71.9845 20.039 71.9845 19.874L72.0029 17.6C72.0029 17.3127 72.1068 17.0682 72.3085 16.8664C72.4912 16.6764 72.7417 16.5665 73.0052 16.5608C73.2687 16.5551 73.5237 16.654 73.7145 16.8359C73.9101 17.0193 74.0201 17.2454 74.0385 17.5144L74.0446 17.6V19.0426H76.0863V17.331C76.0353 16.5582 75.6869 15.8353 75.1143 15.3138C74.5565 14.7822 73.8126 14.4904 73.0421 14.5008C72.1985 14.5008 71.4833 14.8064 70.8842 15.4055C70.594 15.6913 70.3636 16.032 70.2062 16.4077C70.0487 16.7833 69.9676 17.1866 69.9673 17.5939V20.4853C69.9551 20.7237 69.9673 20.9499 69.9795 21.1638C70.0529 22.1296 70.3524 22.9365 70.8842 23.5845ZM75.096 24.3731H71.7339L72.9076 25.345C73.5562 25.9444 73.9446 26.7737 73.9896 27.6557C74.0018 27.8085 73.9957 28.1447 74.0018 28.1325L74.014 30.4004C74.0018 30.6877 73.904 30.9383 73.6962 31.1339C73.4883 31.3357 73.256 31.4396 72.9748 31.4396C72.6998 31.4396 72.4736 31.354 72.278 31.1645C72.0881 30.9906 71.974 30.7492 71.9601 30.4921L71.954 30.4004L71.9723 28.9577H69.9367V30.4004C69.9265 30.8287 70.008 31.2543 70.1756 31.6485C70.3432 32.0428 70.5932 32.3968 70.9087 32.6866C71.465 33.2167 72.2064 33.5084 72.9748 33.4996C73.3784 33.5058 73.7788 33.4286 74.1511 33.2729C74.5235 33.1172 74.8597 32.8864 75.1388 32.5949C75.7379 31.9836 76.0374 31.2562 76.0557 30.4065V27.5151C76.0618 27.2828 76.0557 27.0505 76.0435 26.8427C75.9899 25.9415 75.659 25.0789 75.096 24.3731ZM42.7466 27.509V20.363L46.341 23.9696L42.7466 27.509ZM101.253 27.5518V20.418L97.6648 23.9819L101.253 27.5518Z" fill="#FCC42C"/>
</svg>
