<svg width="144" height="48" viewBox="0 0 144 48" fill="none" xmlns="http://www.w3.org/2000/svg">
<rect x="25.8403" y="16" width="13.5254" height="15.9999" fill="black"/>
<path fill-rule="evenodd" clip-rule="evenodd" d="M25.8403 16H39.3657V32H25.8403V16ZM29.1162 29.5708V18.8964H32.4417C33.6081 18.8964 34.5263 19.1299 35.1716 19.6204C35.8168 20.1109 36.1643 20.835 36.1643 21.7927C36.1643 22.2599 36.0402 22.727 35.8168 23.1474C35.5687 23.5445 35.1964 23.8482 34.7497 24.035C35.2957 24.1285 35.792 24.4555 36.065 24.8993C36.3628 25.3664 36.5117 25.9036 36.4869 26.4409C36.4869 27.4686 36.1891 28.2394 35.5687 28.7533C34.9482 29.2672 34.0548 29.5474 32.9132 29.5474L29.1162 29.5708ZM31.176 24.8526V27.9124H32.7395C33.1366 27.9358 33.5088 27.7956 33.7818 27.5387C34.03 27.235 34.1541 26.838 34.1293 26.4409C34.1541 26.0438 34.0548 25.6234 33.8315 25.273C33.6081 24.9927 33.2607 24.8292 32.8884 24.8526H31.176ZM31.176 23.4044H32.3921C32.7891 23.4277 33.1614 23.2876 33.4344 23.0307C33.6826 22.7504 33.8315 22.3766 33.7818 22.0029C33.8066 21.6058 33.6826 21.2088 33.4096 20.9051C33.1118 20.6482 32.6899 20.5314 32.2928 20.5547H31.176C31.176 20.5781 31.176 23.4044 31.176 23.4044Z" fill="#FECA00"/>
<path d="M53.1394 31.9769H52.3452V16.0002H53.1394V31.9769Z" fill="white"/>
<path d="M66.9382 31.9769H66.144V16.0002H66.9382V31.9769Z" fill="white"/>
<path d="M80.7111 31.9769H79.917V16.0002H80.7111V31.9769Z" fill="white"/>
<path d="M94.5105 31.9769H93.7412V16.0002H94.5105V31.9769Z" fill="white"/>
<path d="M108.332 31.9769H107.538V16.0002H108.332V31.9769Z" fill="white"/>
<path d="M49.3176 27.7957C49.0198 28.2862 48.5731 28.6833 48.052 28.9636C47.3819 29.3373 46.5877 29.5008 45.8184 29.4775C44.6272 29.4775 43.6593 29.1271 42.9396 28.4497C42.2199 27.7723 41.8477 26.8147 41.8477 25.5534V22.4001C41.8477 21.1621 42.1951 20.2045 42.89 19.5271C43.5849 18.8497 44.5031 18.4993 45.6447 18.5227C46.8111 18.5227 47.6797 18.803 48.3001 19.3402C48.9206 19.8774 49.2432 20.6483 49.2928 21.6526L49.268 21.6993H47.779C47.7541 21.022 47.5804 20.5081 47.233 20.1811C46.8855 19.8541 46.3644 19.6672 45.6943 19.6672C45.0739 19.6439 44.4535 19.9008 44.0564 20.368C43.6593 20.8351 43.4608 21.5125 43.4608 22.4001V25.5767C43.4608 26.4877 43.6841 27.1884 44.106 27.6556C44.5279 28.1227 45.1732 28.403 45.8432 28.3796C46.2899 28.403 46.7118 28.3096 47.1089 28.1227C47.3819 27.9592 47.6301 27.7256 47.779 27.4687V25.0161H45.8432V23.9417H49.3673V27.7957H49.3176Z" fill="white"/>
<path d="M58.1037 25.6703H60.9825L59.5928 20.9987H59.5431L58.1037 25.6703ZM61.3548 26.8381H57.7563L56.9373 29.5243H55.3242L58.7986 18.8732H60.3373L63.7869 29.5243H62.1738L61.3548 26.8381Z" fill="white"/>
<path d="M70.7601 18.8732L73.4155 27.5622H73.4652L76.1206 18.8732H78.1556V29.5243H76.5921V25.4367L76.7162 21.3491L76.6666 21.3257L73.9615 29.5243H72.9192L70.1893 21.3491H70.1645L70.2886 25.4367V29.5243H68.7251V18.8732H70.7601Z" fill="white"/>
<path d="M87.9575 29.5243H86.394V18.8732H87.9575V29.5243Z" fill="white"/>
<path d="M104.958 29.5243H103.369L99.076 21.606H99.0264V29.5243H97.4629V18.8732H99.0264L103.32 26.7681H103.369V18.8732H104.958V29.5243Z" fill="white"/>
<path d="M118.16 27.8661C117.837 28.3566 117.415 28.7537 116.894 29.034C116.224 29.4077 115.43 29.5712 114.661 29.5479C113.469 29.5479 112.526 29.2208 111.782 28.5435C111.062 27.8661 110.69 26.9084 110.69 25.6471V22.4471C110.69 21.2092 111.037 20.2515 111.732 19.5741C112.427 18.8968 113.345 18.5464 114.462 18.5464C115.629 18.5464 116.497 18.8267 117.118 19.3639C117.738 19.9011 118.061 20.6719 118.11 21.6763L118.085 21.723H116.596C116.572 21.0457 116.398 20.5551 116.05 20.2048C115.703 19.8544 115.182 19.6909 114.512 19.6909C113.891 19.6676 113.271 19.9245 112.874 20.3916C112.477 20.8588 112.278 21.5362 112.278 22.4238V25.6004C112.278 26.5114 112.502 27.2121 112.923 27.6792C113.345 28.1464 113.991 28.4267 114.661 28.4033C115.107 28.4267 115.529 28.3333 115.926 28.1464C116.199 27.9829 116.448 27.7493 116.596 27.4924V25.0632H114.661V23.9887H118.16V27.8661Z" fill="white"/>
</svg>
