<svg width="92" height="32" viewBox="0 0 92 32" fill="none" xmlns="http://www.w3.org/2000/svg">
<path fill-rule="evenodd" clip-rule="evenodd" d="M19.9877 23.9909C20.4435 23.9909 21.2239 24.1314 21.6422 24.2273C21.867 24.272 22.1417 24.3678 22.3727 24.4636C22.4663 24.5084 22.6037 24.5531 22.6973 24.6042L23.0157 24.7447L23.2904 24.8853C23.8408 25.2043 24.3762 25.5497 24.8949 25.9203L25.1759 26.1055C25.2196 26.1503 25.2695 26.1503 25.3132 26.2014L24.5328 26.0608C23.1123 25.7857 21.7639 25.209 20.5746 24.3678L20.2999 24.1761C20.1834 24.1353 20.0754 24.0724 19.9815 23.9909H19.9877ZM21.6422 22.2531C22.1056 22.2647 22.5662 22.3289 23.0157 22.4448C23.4278 22.5342 24.1645 22.7259 24.5328 22.8665C24.6265 22.9112 24.7201 22.9112 24.8512 22.9559C25.4069 23.0964 26.0936 23.3776 26.643 23.5692L27.8355 23.9461C28.0228 23.9909 28.2475 24.0867 28.4348 24.1378C29.2589 24.4125 30.8697 24.7895 31.6938 24.7895L31.4191 24.9811L30.4514 25.4475C29.9519 25.6392 29.2652 25.9203 28.7095 26.0097C28.5722 26.0608 28.3412 25.8692 28.2475 25.818L26.1873 24.6042C26.1373 24.5531 26.0936 24.5531 26.0499 24.5084C25.4943 24.1761 24.8512 23.7545 24.3018 23.4223C23.5835 23.0128 22.8314 22.6686 22.0543 22.3937C21.9606 22.2979 21.7296 22.2531 21.6422 22.2531ZM23.7524 21.5951C23.8898 21.5951 24.4891 21.6909 24.6702 21.6909C24.9886 21.7357 25.2695 21.7804 25.5442 21.8315C28.0228 22.1573 30.5887 22.7259 33.2109 22.2979C33.6229 22.2084 34.266 22.0679 34.678 21.9273L34.7717 21.8762C34.8154 21.8762 34.8591 21.8315 34.8591 21.8315C34.8154 21.8762 34.8154 21.9273 34.7717 21.972C34.7218 22.0168 34.7218 22.0679 34.678 22.1126L34.035 22.9112C33.8976 23.0517 33.3482 23.5692 33.2109 23.7545H32.9799C31.7375 23.895 30.0456 23.5628 28.8469 23.1923C28.2475 23.0006 27.6544 22.8153 27.0114 22.6301C26.874 22.579 26.7804 22.5342 26.643 22.4895L25.2196 22.0168C24.9886 21.9273 24.7638 21.8762 24.4891 21.7804C24.3455 21.7357 24.2581 21.6909 24.1145 21.6909C24.0271 21.6909 23.8461 21.6398 23.7524 21.5951ZM30.1829 5.71912C30.5887 5.85967 31.007 6.04494 31.3691 6.28132C31.4191 6.28132 31.4191 6.32604 31.4628 6.32604C31.5564 6.37715 31.6501 6.42187 31.6938 6.4666C32.0122 6.65826 32.3368 6.88825 32.6552 7.12463L33.2109 7.54629L33.9413 8.30016L34.3534 8.72182L34.4471 8.81765L34.5407 8.91348L34.9528 9.47569L35.4522 10.2743C35.7769 10.7854 36.1015 11.4945 36.2826 12.0631C37.1331 14.5031 37.0843 17.1769 36.1452 19.5826C36.1015 19.7615 36.0079 19.9021 35.9142 20.0937L35.6895 20.6048C35.6395 20.656 35.6395 20.7007 35.6395 20.7007C35.5958 20.7965 35.3648 21.2182 35.3211 21.2693C35.2403 21.3264 35.1446 21.3576 35.0464 21.3587C34.6718 21.4993 34.3097 21.6398 33.9413 21.742C33.0673 21.972 32.0621 22.0168 31.007 22.0168C30.7323 22.0168 29.8583 21.972 29.5336 21.9273C27.1487 21.6909 24.5328 21.0776 22.1916 21.0776C21.4112 21.0776 20.6308 21.1734 19.944 21.314C19.301 21.4098 18.7953 21.5951 18.2396 21.8251C18.1793 21.8859 18.0994 21.9222 18.0149 21.9273C17.9649 21.8762 17.9212 21.8315 17.9212 21.7804C17.6028 21.314 17.3219 20.8412 17.0971 20.3237C16.8661 19.8574 16.6788 19.3399 16.4978 18.8735C15.8676 16.8629 15.835 14.706 16.4041 12.6764C16.4541 12.4848 16.4978 12.2931 16.5415 12.1526C16.5914 12.0567 16.5914 12.012 16.6351 11.9162L16.8224 11.4498C17.148 10.618 17.5965 9.84233 18.1522 9.14986L19.07 8.06378L19.3884 7.78267L19.482 7.68684C19.7988 7.39466 20.1369 7.12768 20.4934 6.88825L21.2738 6.37715L21.9169 6.04494C22.6066 5.70476 23.3283 5.43719 24.0708 5.24635C26.231 4.82469 28.1601 4.92052 30.1767 5.71912H30.1829ZM31.007 11.7245C30.4247 11.8065 29.8713 12.0347 29.3963 12.3889L29.3089 12.4848L29.1216 12.67C28.7404 13.0186 28.4416 13.4511 28.2475 13.935C27.9946 14.4971 27.8545 15.1054 27.8355 15.7239C27.8355 16.6183 27.8355 16.9888 28.1601 17.8321C28.2475 18.0238 28.3911 18.356 28.4785 18.4966L28.8032 18.9182L28.9405 19.0588L29.1715 19.2952C30.2266 20.2343 31.6501 20.3749 32.9799 20.0426C33.4794 19.9021 33.9413 19.7615 34.4033 19.4357L34.6343 19.2952C34.6781 19.2952 34.678 19.244 34.678 19.1993V15.2064H31.9248C31.8748 15.2064 31.8748 15.2064 31.8748 15.2511V16.7588H32.9799V18.2602C32.9362 18.2602 32.9362 18.3049 32.8862 18.3049C32.3368 18.6882 31.4628 18.586 30.9134 18.356C30.6621 18.238 30.4417 18.0606 30.2703 17.8385C30.083 17.6021 29.9519 17.3658 29.8583 17.0847C29.5336 16.1008 29.671 14.7847 30.2703 13.9861L30.5013 13.7497L30.5887 13.6539C30.6387 13.6092 30.6824 13.5645 30.776 13.5134C30.8197 13.5134 30.8197 13.4686 30.8697 13.4686C30.9134 13.4239 30.9134 13.4239 30.9571 13.4239C31.2693 13.2795 31.6091 13.2085 31.9516 13.2163C32.2941 13.224 32.6306 13.3103 32.9362 13.4686C33.2109 13.6092 33.2546 13.6092 33.4856 13.7945C33.5293 13.8456 33.573 13.8903 33.6729 13.935L34.1286 13.0406C34.1723 12.9959 34.1723 12.9512 34.2161 12.8553C34.266 12.7148 34.3534 12.6253 34.4033 12.4848C33.8666 11.9621 33.1694 11.646 32.4305 11.5904H32.1058C31.7874 11.6351 31.1444 11.6862 31.007 11.7309V11.7245ZM21.1365 11.6415C20.1251 11.6415 19.251 11.9737 18.6579 12.6764C18.608 12.7212 18.4706 12.9128 18.4706 13.0023V19.161C18.4706 19.2504 18.8827 19.4421 18.9763 19.4868C19.1636 19.5826 19.3447 19.6785 19.5757 19.7679C20.0316 19.9421 20.5127 20.0371 20.9991 20.049C21.6422 20.049 22.4663 20.0043 23.0594 19.819C23.5291 19.6561 23.9372 19.3466 24.2261 18.934C24.515 18.5215 24.6703 18.0266 24.6702 17.5191C24.6702 16.5736 24.2581 15.9666 23.5651 15.4939L23.2904 15.3533C23.4278 15.3086 23.7524 14.9764 23.8898 14.7911C24.2581 14.3183 24.2581 13.6156 24.0271 13.0981C23.9834 12.9064 23.9335 12.8617 23.7961 12.6764C23.7524 12.6317 23.7087 12.5359 23.6588 12.4848C23.5651 12.3953 23.4715 12.2995 23.3404 12.2037C22.6973 11.6926 22.1479 11.6415 21.1365 11.6415ZM30.0393 11.6415H22.972C22.972 11.6926 22.972 11.6415 23.0157 11.6926C23.3503 11.8444 23.6485 12.069 23.8898 12.3506L24.1208 12.67C24.2425 12.8988 24.3488 13.1357 24.4392 13.3792H25.4506V20.0043C25.4506 20.049 25.4506 20.049 25.4943 20.049H27.0551C27.105 20.049 27.105 20.049 27.105 20.0043V13.3728H28.0665C28.0665 13.2323 28.4348 12.8106 28.5722 12.7148C28.7095 12.5742 29.0279 12.2931 29.1715 12.2037C29.3963 12.012 29.7209 11.8203 29.9519 11.7309C30.0393 11.6862 30.0393 11.7309 30.0393 11.6351V11.6415ZM21.8233 16.2861C22.0105 16.3308 22.1479 16.3819 22.2852 16.4777C22.8784 16.8483 22.7847 17.7874 22.4226 18.2155C22.1916 18.4455 21.9606 18.4966 21.5485 18.4966C21.1802 18.4966 20.8618 18.4966 20.5371 18.356C20.4934 18.356 20.3998 18.2602 20.3499 18.2602V16.2413C20.7681 16.2413 21.5048 16.1902 21.8233 16.2861ZM21.9169 13.4686C22.1042 13.6092 22.2353 13.7497 22.2353 14.0308C22.2353 14.6442 21.867 14.8805 21.3176 14.8805H20.3561C20.3561 14.5483 20.3061 14.0308 20.3998 13.7497C20.4934 13.5581 20.6745 13.3728 20.9055 13.3281C21.0707 13.2556 21.2521 13.2304 21.4302 13.2552C21.6083 13.2799 21.7766 13.3537 21.9169 13.4686ZM34.3097 10.319C34.266 10.319 33.9413 10.7023 33.9413 10.7407C33.804 10.7407 33.5293 10.5554 33.3919 10.5554C33.3919 10.6512 33.6229 10.977 33.6666 11.0281C33.6229 11.0729 33.3482 11.354 33.2983 11.4498C33.4356 11.4498 33.7603 11.354 33.8539 11.3093C33.8539 11.354 34.1286 11.7756 34.1723 11.8203L34.2161 11.2581L34.7717 11.1176C34.7717 11.0729 34.3534 10.8876 34.266 10.8876C34.266 10.6959 34.3097 10.5554 34.3097 10.319ZM18.5143 10.319C18.5143 10.4595 18.5643 10.7023 18.5643 10.8876C18.5206 10.8876 18.0648 11.0729 18.0648 11.1176C18.1023 11.1176 18.5643 11.2134 18.5643 11.2581C18.5955 11.2581 18.6267 11.4626 18.6579 11.8715L18.9763 11.3987C19.07 11.3987 19.4383 11.4945 19.5257 11.4945C19.5257 11.4306 19.4009 11.2901 19.1636 11.0729C19.2073 10.977 19.4383 10.6001 19.4383 10.5554C19.3447 10.5554 19.02 10.747 18.8827 10.747C18.7016 10.4595 18.5768 10.319 18.5206 10.319H18.5143ZM31.1444 7.92323C31.0944 7.92323 30.7323 8.72182 30.7323 8.81765C30.5013 8.81765 29.902 8.6771 29.7646 8.6771C29.7646 8.70904 29.9956 8.94542 30.4514 9.37986C30.1767 9.91651 30.0393 10.2104 30.0393 10.2743C30.0705 10.2743 30.3515 10.1146 30.8697 9.80151L31.6001 10.5043C31.6001 10.3701 31.4128 9.61624 31.4128 9.52041C31.9747 9.2393 32.2619 9.08597 32.2869 9.05403L31.3254 8.91348L31.1381 7.92323H31.1444ZM21.7296 7.97434C21.6422 7.97434 21.5048 8.86876 21.5048 8.91348L20.5371 9.10514C20.6308 9.10514 21.2738 9.47569 21.4112 9.57152L21.2239 10.5554C21.3176 10.5554 21.8233 9.94206 21.9606 9.89734C22.4788 10.2168 22.7722 10.3701 22.8347 10.3701C22.7163 10.0632 22.5786 9.76444 22.4226 9.47569C22.8784 9.06681 23.1218 8.83681 23.1531 8.77293C23.0157 8.77293 22.329 8.91348 22.1916 8.91348C22.1916 8.86237 21.7296 8.01906 21.7296 7.97434ZM26.412 5.3869C26.3808 5.51468 26.1685 6.15355 25.769 7.3163H23.7587C23.7587 7.36102 25.4131 8.53015 25.4131 8.53015L24.9449 9.99956C24.8785 10.1479 24.8323 10.3048 24.8075 10.4659C24.8387 10.4659 25.3694 10.0762 26.412 9.29041C26.462 9.34152 27.9728 10.4212 28.0228 10.4212C28.0228 10.3573 27.823 9.71846 27.4234 8.49182C27.9756 8.12773 28.5111 7.73759 29.0279 7.32269H27.0551C27.0114 7.07352 26.462 5.47634 26.412 5.3869Z" fill="#F1002E"/>
<path fill-rule="evenodd" clip-rule="evenodd" d="M49.4184 19.9533C49.6686 19.9497 49.917 19.9975 50.1488 20.0939C50.3798 20.1833 50.5609 20.3238 50.6483 20.5155L50.6982 19.998H51.847V24.3679H50.7482L50.6545 23.8057C50.5172 24.0357 50.3299 24.1762 50.1051 24.2721C49.8741 24.3679 49.5994 24.4126 49.3684 24.4637C49.0744 24.4774 48.7807 24.4301 48.505 24.3247C48.2293 24.2193 47.9772 24.058 47.7639 23.8504C47.5567 23.6248 47.3966 23.3583 47.2935 23.0672C47.1905 22.7761 47.1466 22.4665 47.1646 22.1574C47.1646 21.4546 47.3956 20.8924 47.8076 20.4708C48.2745 20.1268 48.8369 19.9454 49.4121 19.9533H49.4184ZM49.5495 21.0777C49.2311 21.0777 48.9564 21.1735 48.7691 21.4099C48.5443 21.5952 48.4507 21.8763 48.4507 22.2532C48.4507 22.6302 48.5443 22.8666 48.7691 23.0966C49.0001 23.2882 49.2311 23.4288 49.5495 23.4288C49.8741 23.4288 50.1488 23.3329 50.3798 23.0966C50.6046 22.8666 50.6982 22.6302 50.6982 22.3491C50.6982 22.0169 50.6046 21.7358 50.4235 21.4994C50.1925 21.1735 49.9241 21.0777 49.5495 21.0777ZM56.8978 24.4126H55.6554V22.068C55.6554 21.4099 55.4306 21.1224 54.9249 21.1224C54.6939 21.1224 54.5128 21.2183 54.3693 21.4099C54.2319 21.5952 54.1445 21.8316 54.1445 22.068V24.4126H52.9021V20.0427H54.0071L54.0945 20.5602C54.3255 20.1833 54.6939 19.9533 55.1996 19.9533C55.7927 19.9533 56.211 20.2344 56.4358 20.7519C56.6231 20.4708 56.8541 20.2344 57.0351 20.1386C57.2224 20.0427 57.5346 19.9469 57.8155 19.9469C58.315 19.9469 58.7333 20.0939 59.0517 20.4197C59.3763 20.7519 59.5137 21.2694 59.5137 22.0169V24.4126H58.2713V22.068C58.2713 21.4546 58.0465 21.1735 57.6345 21.1735C57.4035 21.1735 57.2162 21.2694 57.0788 21.4546C56.9415 21.6463 56.8541 21.8316 56.8541 22.1127L56.8978 24.4126ZM61.8112 20.0427H60.5688V24.4126H61.8112V20.0427ZM67.1803 24.4126H65.9379V22.1127C65.9379 21.4546 65.6632 21.0777 65.0639 21.0777C64.7954 21.0777 64.5644 21.1735 64.3771 21.4099C64.2013 21.6175 64.1038 21.8827 64.1024 22.1574V24.4126H62.8663V20.0427H63.9651L64.015 20.6113C64.3334 20.1386 64.7954 19.9533 65.3885 19.9533C66.581 19.9533 67.1803 20.6561 67.1803 22.1127V24.4126ZM71.6817 19.5316L72.5995 20.2344L72.0438 20.8924C72.3685 21.2694 72.5058 21.691 72.5058 22.1574C72.5058 22.8602 72.1812 23.3777 71.5881 23.6651C72.2311 23.9463 72.5495 24.4126 72.5495 25.0707C72.5495 25.684 72.3248 26.1567 71.8628 26.4762C71.4008 26.8084 70.8514 27.0001 70.2583 27.0001C69.5216 27.0001 68.9722 26.8084 68.6038 26.4826C68.2355 26.1504 68.0544 25.6329 68.0544 25.0259H69.2032C69.2469 25.6329 69.6152 25.9204 70.2583 25.9204C70.5152 25.935 70.7704 25.8681 70.9887 25.7287C71.176 25.5882 71.3134 25.4029 71.3134 25.1218C71.3134 24.6043 70.9388 24.3679 70.252 24.3679C69.5653 24.3679 69.0159 24.1762 68.6038 23.7546C68.3915 23.5507 68.2243 23.3027 68.1134 23.0272C68.0025 22.7517 67.9504 22.4552 67.9608 22.1574C67.9608 21.4546 68.1918 20.8924 68.6475 20.5155C69.1048 20.1433 69.674 19.9446 70.2583 19.9533C70.714 19.9533 71.0387 20.0427 71.2634 20.1833L71.6817 19.5253V19.5316ZM70.2083 21.033C69.8899 21.033 69.6152 21.1224 69.4279 21.3141C69.2406 21.5058 69.1095 21.7805 69.1095 22.1127C69.1095 22.4385 69.2032 22.6749 69.4279 22.8666C69.6589 23.0518 69.8899 23.1477 70.2083 23.1477C70.533 23.1477 70.764 23.0518 70.9887 22.8666C71.2197 22.6749 71.3134 22.4385 71.3134 22.1127C71.3134 21.7805 71.2197 21.5505 70.9887 21.3141C70.7612 21.1441 70.4898 21.0463 70.2083 21.033ZM48.4944 10.038H47.2582V14.4079H48.4944V10.038ZM53.0894 9.52051L54.0071 10.2233L53.4515 10.8877C53.7761 11.2582 53.9135 11.6863 53.9135 12.1527C53.9135 12.8554 53.5888 13.3729 52.9957 13.654C53.6388 13.9351 53.9572 14.4079 53.9572 15.0595C53.9572 15.6792 53.7324 16.1456 53.2704 16.4778C52.7991 16.8117 52.2392 16.9901 51.6659 16.9889C51.0723 17.0284 50.4847 16.8468 50.0115 16.4778C49.6431 16.1456 49.4621 15.6281 49.4621 15.0212H50.6046C50.6545 15.6281 51.0229 15.9156 51.6659 15.9156C51.9229 15.9303 52.178 15.8634 52.3964 15.724C52.5837 15.5834 52.721 15.3917 52.721 15.1106C52.721 14.5995 52.3464 14.3632 51.6597 14.3632C50.9729 14.3632 50.4235 14.1715 50.0115 13.7498C49.7992 13.5459 49.632 13.2979 49.5211 13.0225C49.4102 12.747 49.3581 12.4504 49.3684 12.1527C49.3684 11.4499 49.5994 10.8877 50.0552 10.5108C50.5116 10.1362 51.0809 9.93529 51.6659 9.94216C52.1217 9.94216 52.4463 10.038 52.6711 10.1785L53.0894 9.52051ZM51.616 11.0346C51.2976 11.0346 51.0229 11.1241 50.8356 11.3157C50.6483 11.5074 50.5172 11.7821 50.5172 12.1143C50.5172 12.4402 50.6046 12.6765 50.8356 12.8618C51.0666 13.0535 51.2976 13.1429 51.616 13.1429C51.9406 13.1429 52.1654 13.0535 52.3964 12.8618C52.6274 12.6701 52.721 12.4402 52.721 12.1143C52.721 11.7821 52.6274 11.5457 52.3964 11.3157C52.1654 11.1752 51.8969 11.0346 51.616 11.0346ZM63.0973 10.038H61.8549V14.4079H63.0973V10.038ZM68.0981 14.4079H66.8619V12.0568C66.8619 11.3988 66.6309 11.1177 66.1252 11.1177C65.8942 11.1177 65.7132 11.2135 65.5758 11.3988C65.4385 11.5905 65.3448 11.8268 65.3448 12.0568V14.4079H64.1024V10.038H65.2075L65.3011 10.5555C65.5259 10.1785 65.8942 9.94216 66.3999 9.94216C66.9993 9.94216 67.4113 10.2297 67.6423 10.7408C67.8234 10.4597 68.0544 10.2297 68.2355 10.1338C68.4227 10.038 68.7412 9.94216 69.0159 9.94216C69.5216 9.94216 69.9336 10.0827 70.2583 10.4149C70.5767 10.7408 70.714 11.2582 70.714 12.0121V14.4079H69.4779V12.0568C69.4779 11.4499 69.2469 11.1624 68.8348 11.1624C68.6038 11.1624 68.4228 11.2582 68.2792 11.4499C68.1418 11.6416 68.0544 11.8268 68.0544 12.1079L68.0981 14.4079ZM73.7919 9.94855C74.1156 9.92975 74.4394 9.98282 74.7411 10.1041C75.0429 10.2254 75.3154 10.4121 75.54 10.6513C75.9458 11.1177 76.0894 11.7757 75.9458 12.6702H72.8242C72.8742 12.9065 72.9616 13.0918 73.1988 13.2324C73.3799 13.3729 73.6546 13.4687 73.973 13.4687C74.435 13.4687 74.8033 13.3729 75.078 13.1365L75.7648 13.9351C75.2621 14.3943 74.6021 14.6309 73.9293 14.5932C73.1489 14.5932 72.5995 14.4079 72.1812 13.9862C71.9684 13.763 71.8022 13.4977 71.6928 13.2067C71.5833 12.9156 71.5328 12.6049 71.5444 12.2932C71.5444 11.6352 71.7254 11.073 72.1375 10.6513C72.5495 10.1338 73.1052 9.94855 73.7919 9.94855ZM73.7919 11.0282C73.5609 11.0282 73.3299 11.073 73.1489 11.2135C72.9616 11.3541 72.8242 11.4946 72.7805 11.7246H74.8033C74.8033 11.4946 74.666 11.3541 74.4787 11.2135C74.2914 11.073 74.0666 11.0219 73.7919 11.0219V11.0282Z" fill="#7B8080"/>
<path fill-rule="evenodd" clip-rule="evenodd" d="M60.7062 19.4356C60.5661 19.3006 60.4832 19.1149 60.4752 18.9181C60.4752 18.6818 60.5688 18.4965 60.7062 18.4006C60.8435 18.2601 61.0308 18.209 61.2119 18.209C61.3992 18.209 61.5365 18.2601 61.7176 18.4006C61.8549 18.5412 61.9486 18.7265 61.9486 18.9117C61.9486 19.1545 61.8549 19.3398 61.7176 19.4356C61.5802 19.5762 61.3929 19.6273 61.2181 19.6273C61.0308 19.6273 60.8435 19.5251 60.7062 19.4356ZM46.2968 19.014L45.4665 19.8573C45.2799 19.6682 45.0571 19.5206 44.8122 19.4239C44.5672 19.3271 44.3053 19.2833 44.043 19.2951C43.7923 19.2817 43.5415 19.3201 43.3055 19.4079C43.0696 19.4957 42.8533 19.6311 42.6695 19.8062C42.4915 20.0107 42.3546 20.2491 42.2668 20.5079C42.1789 20.7666 42.1418 21.0405 42.1575 21.3139C42.1575 21.5503 42.2075 21.7803 42.2512 22.0167C42.3011 22.2531 42.4385 22.4383 42.5758 22.6747C42.7132 22.8664 42.8942 23.0516 43.1689 23.1475C43.4436 23.288 43.7246 23.3391 44.043 23.3391C44.5425 23.3391 44.9608 23.1922 45.3291 22.9111V21.8761H43.9056V20.7517H46.5278V23.4286C46.0159 24.1761 45.1917 24.553 44.0929 24.553C43.5373 24.553 43.0316 24.4635 42.6195 24.2719C42.2241 24.1179 41.8753 23.8601 41.6081 23.5244C41.3807 23.206 41.1959 22.858 41.0587 22.4894C40.926 22.1128 40.8625 21.7142 40.8714 21.3139C40.8714 20.8411 40.9214 20.4706 41.0587 20.0426C41.1887 19.6521 41.3992 19.2948 41.6761 18.9949C41.953 18.6951 42.2896 18.4597 42.6632 18.3048C43.0815 18.1132 43.581 18.0237 44.0867 18.0237C44.9608 18.0237 45.6975 18.3559 46.2906 19.014H46.2968ZM61.9923 9.43088C61.8522 9.29588 61.7693 9.11014 61.7613 8.91339C61.7613 8.67701 61.8549 8.48535 61.9923 8.3959C62.1296 8.25535 62.3169 8.20424 62.498 8.20424C62.6853 8.20424 62.8164 8.25535 62.9974 8.3959C63.141 8.53646 63.2347 8.72173 63.2347 8.907C63.2347 9.14339 63.141 9.33505 63.0037 9.43088C62.8663 9.57143 62.679 9.61615 62.498 9.61615C62.3107 9.61615 62.1296 9.57143 61.9985 9.42449L61.9923 9.43088ZM58.0465 14.4077V9.4756H56.211V8.20424H61.2119V9.4756H59.3764V14.4077H58.0465ZM47.3956 9.43088C47.2555 9.29588 47.1726 9.11014 47.1646 8.91339C47.1646 8.67701 47.2583 8.48535 47.3956 8.3959C47.533 8.25535 47.714 8.15952 47.8514 8.15952C47.9448 8.15611 48.0381 8.17158 48.1257 8.20506C48.2133 8.23854 48.2936 8.28937 48.3621 8.35463C48.4305 8.4199 48.4857 8.49833 48.5244 8.58544C48.5632 8.67255 48.5848 8.76662 48.5881 8.86228C48.5881 9.09866 48.4944 9.28394 48.3571 9.37977C48.2197 9.52032 48.0387 9.57143 47.8576 9.57143C47.7754 9.59237 47.6891 9.59037 47.6079 9.56565C47.5266 9.54094 47.4533 9.4944 47.3956 9.43088ZM44.1803 8.20424C44.7797 8.20424 45.2854 8.34479 45.6975 8.63229C46.1095 8.91339 46.2906 9.33505 46.2906 9.89725C46.2906 10.5106 46.0159 10.8875 45.5102 11.1686C45.8847 11.3092 46.1532 11.5392 46.3405 11.8714C46.5278 12.1972 46.5653 12.5741 46.4779 12.9511C46.2906 13.9349 45.5601 14.4077 44.274 14.4077H41.2398V8.21063H44.1803V8.20424ZM44.1366 11.7819H42.4822V13.1874H44.1366C44.7298 13.1874 45.0107 12.9511 45.0107 12.4847C45.0107 12.2483 44.917 12.0566 44.7797 11.9672C44.686 11.8266 44.4551 11.7755 44.1366 11.7755V11.7819ZM44.1803 9.43088H42.5259V10.6447H44.1803C44.6798 10.6447 44.9608 10.4595 44.9608 10.0825C44.9657 9.99539 44.9515 9.90822 44.9191 9.82748C44.8867 9.74674 44.8369 9.67451 44.7735 9.61615C44.5924 9.4756 44.4113 9.42449 44.1803 9.42449V9.43088Z" fill="#F1002E"/>
</svg>
