<svg width="144" height="48" viewBox="0 0 144 48" fill="none" xmlns="http://www.w3.org/2000/svg">
<path d="M26.6182 19.3429L32.8067 22.1272C32.6613 22.0343 29.7186 20.1192 28.812 18.6057C27.8776 17.0562 27.9456 15.9083 28.7347 14.7993C29.5237 13.6904 31.4731 12.9921 34.4404 13.1749C37.4078 13.3607 40.6661 14.2299 43.1167 16.3578C43.1167 16.3578 41.0312 12.7763 35.7153 11.7753C33.6419 11.3556 31.4955 11.4165 29.4511 11.953C27.4067 12.4894 25.5221 13.4863 23.951 14.8623C23.3259 15.4138 23.0041 15.9352 22.8989 16.4388C22.9453 17.9673 26.6151 19.3459 26.6151 19.3459L26.6182 19.3429Z" fill="url(#paint0_linear_2588_179263)"/>
<path d="M26.6182 19.3429L32.8067 22.1272C32.6613 22.0343 29.7186 20.1192 28.812 18.6057C27.8776 17.0562 27.9456 15.9083 28.7347 14.7993C29.5237 13.6904 31.4731 12.9921 34.4404 13.1749C37.4078 13.3607 40.6661 14.2299 43.1167 16.3578C43.1167 16.3578 41.0312 12.7763 35.7153 11.7753C33.6419 11.3556 31.4955 11.4165 29.4511 11.953C27.4067 12.4894 25.5221 13.4863 23.951 14.8623C23.3259 15.4138 23.0041 15.9352 22.8989 16.4388C22.9453 17.9673 26.6151 19.3459 26.6151 19.3459L26.6182 19.3429Z" fill="url(#paint1_linear_2588_179263)"/>
<path d="M28.7342 33.2016C27.942 32.0926 27.8771 30.9418 28.8115 29.3953C29.7429 27.8398 32.8124 25.8677 32.8124 25.8677L26.6177 28.655C26.6177 28.655 22.9449 30.0366 22.8984 31.5622C23.0036 32.0627 23.3254 32.5842 23.9505 33.1356C25.5214 34.5119 27.4059 35.5092 29.4503 36.0462C31.4947 36.5832 33.6412 36.6447 35.7148 36.2256C41.0307 35.2276 43.1162 31.6431 43.1162 31.6431C40.6718 33.771 37.4073 34.6402 34.44 34.823C31.4695 35.0028 29.5232 34.3075 28.7342 33.1986V33.2016Z" fill="url(#paint2_linear_2588_179263)"/>
<path d="M28.7342 33.2016C27.942 32.0926 27.8771 30.9418 28.8115 29.3953C29.7429 27.8398 32.8124 25.8677 32.8124 25.8677L26.6177 28.655C26.6177 28.655 22.9449 30.0366 22.8984 31.5622C23.0036 32.0627 23.3254 32.5842 23.9505 33.1356C25.5214 34.5119 27.4059 35.5092 29.4503 36.0462C31.4947 36.5832 33.6412 36.6447 35.7148 36.2256C41.0307 35.2276 43.1162 31.6431 43.1162 31.6431C40.6718 33.771 37.4073 34.6402 34.44 34.823C31.4695 35.0028 29.5232 34.3075 28.7342 33.1986V33.2016Z" fill="url(#paint3_linear_2588_179263)"/>
<path d="M26.6184 28.6549L32.8131 25.8676C32.8131 25.8676 34.5737 24.9625 34.5737 24.0604V24.0004V23.9405C34.5737 23.0414 32.8131 22.1333 32.8131 22.1333L32.8069 22.1303L26.6184 19.346C26.6184 19.346 22.9456 17.9673 22.896 16.4418C22.6021 17.8294 23.9636 19.0283 25.093 20.0503C26.5937 21.4229 27.2589 22.7806 27.2496 24.0034C27.262 25.2263 26.5937 26.5839 25.0899 27.9566C23.9667 28.9756 22.6021 30.1804 22.896 31.5651C22.9456 30.0366 26.6153 28.6549 26.6153 28.6549H26.6184Z" fill="url(#paint4_linear_2588_179263)"/>
<path d="M43.071 27.9548C43.4429 27.9518 43.8142 27.9226 44.1818 27.8674C44.5555 27.8185 44.918 27.7088 45.2541 27.5429C45.6651 27.3369 45.877 27.0248 45.877 26.6065C45.877 26.4193 45.8192 26.2382 45.71 26.0697C45.611 25.91 45.4746 25.7753 45.3119 25.6764C44.6886 26.003 43.991 26.1726 43.2829 26.1696C42.8462 26.1696 42.461 26.0884 42.1271 25.9386C41.9712 25.873 41.8312 25.7764 41.7162 25.6548C41.6011 25.5333 41.5136 25.3897 41.4593 25.2333L45.1193 24.7152C45.4532 24.6715 45.7164 24.5591 45.9026 24.3906C46.0953 24.222 46.1852 23.9786 46.1852 23.6602C46.1879 23.2568 46.1017 22.8575 45.9322 22.4892C45.7627 22.1209 45.514 21.7923 45.2028 21.5254C44.8733 21.2534 44.4943 21.0438 44.0855 20.9074C43.1798 20.6147 42.2021 20.6082 41.2923 20.8887C40.8474 21.0192 40.4366 21.2411 40.0876 21.5394C39.7386 21.8378 39.4597 22.2055 39.2697 22.6178C39.0642 23.061 38.9551 23.5916 38.9551 24.2095C38.9551 24.8338 39.0642 25.3831 39.2761 25.8512C39.488 26.3194 39.777 26.7126 40.1494 27.0185C40.5154 27.3306 40.952 27.5616 41.4529 27.7114C41.9473 27.8674 42.4931 27.9486 43.071 27.9486V27.9548ZM41.2795 23.6665C41.2923 23.5167 41.3244 23.3731 41.3758 23.2295C41.4328 23.0767 41.5214 22.9369 41.6363 22.8188C41.7512 22.7006 41.8898 22.6067 42.0436 22.5429C42.217 22.468 42.4224 22.4305 42.66 22.4305C42.9255 22.4086 43.19 22.4823 43.4031 22.6377C43.6163 22.7931 43.7632 23.0193 43.8158 23.2732L41.2795 23.6665ZM53.9289 27.8425C54.3072 27.8433 54.6843 27.8014 55.0526 27.7176V23.3169C55.0526 22.493 54.7508 21.85 54.1537 21.3819C53.5437 20.9262 52.6897 20.6952 51.5724 20.6952C50.9496 20.6952 50.3845 20.7576 49.8773 20.9012C49.4256 21.016 48.9962 21.2016 48.6059 21.4505C48.4133 21.5754 48.2527 21.7252 48.1436 21.8875C48.0217 22.0712 47.9612 22.287 47.9702 22.5054V26.7189C47.9702 26.9498 48.0023 27.1371 48.0665 27.2807C48.1307 27.4305 48.2206 27.5429 48.3426 27.6302C48.4582 27.7114 48.5995 27.7676 48.7793 27.7988C49.3491 27.8695 49.9273 27.8421 50.4873 27.7176V22.8425C50.6285 22.7489 50.7955 22.674 50.9881 22.6303C51.1807 22.5803 51.3734 22.5616 51.566 22.5616C51.8678 22.5616 52.099 22.624 52.2723 22.7614C52.4457 22.8987 52.5292 23.1109 52.5292 23.4043V26.7126C52.5292 26.9498 52.5677 27.1371 52.6319 27.2869C52.6961 27.4305 52.786 27.5429 52.9016 27.6302C53.0236 27.7114 53.1713 27.7676 53.3382 27.7988C53.5116 27.8237 53.7106 27.8425 53.9289 27.8425ZM60.9536 27.9548C61.5507 27.9548 62.0708 27.8862 62.5267 27.7488C62.9762 27.6115 63.3486 27.4555 63.6376 27.2807C64.0742 27.0185 64.2925 26.6627 64.2925 26.2195V19.5716C64.2925 19.3407 64.2604 19.1534 64.2026 19.0098C64.1384 18.86 64.0549 18.7477 63.9329 18.6603C63.8031 18.5714 63.6535 18.5137 63.4963 18.4917C62.9195 18.412 62.3321 18.446 61.769 18.5916V20.8638C61.434 20.7531 61.0827 20.6962 60.7288 20.6952C60.1895 20.6952 59.6822 20.7701 59.2135 20.9137C58.7532 21.0423 58.3291 21.271 57.9731 21.5825C57.6171 21.8939 57.3387 22.28 57.1587 22.7114C56.9661 23.1671 56.8698 23.7039 56.8698 24.3219C56.8698 24.8837 56.9597 25.3831 57.1395 25.8325C57.3178 26.2795 57.5992 26.6808 57.9621 27.0055C58.325 27.3301 58.7597 27.5695 59.2327 27.7051C59.74 27.8737 60.3115 27.9548 60.9536 27.9548ZM60.9728 26.0697C60.4656 26.0697 60.0803 25.9199 59.817 25.6328C59.5474 25.3331 59.4125 24.8962 59.4125 24.3157C59.4125 23.7227 59.5602 23.2857 59.8427 22.9923C60.1317 22.7052 60.5426 22.5554 61.0756 22.5554C61.3517 22.5554 61.5893 22.6178 61.7819 22.7302V25.82C61.7048 25.8824 61.5957 25.9449 61.4544 25.9948C61.3067 26.0447 61.1462 26.0697 60.9728 26.0697ZM70.0008 27.9548C70.5787 27.9548 71.1117 27.8737 71.5868 27.7114C72.0428 27.5681 72.4604 27.328 72.8091 27.0084C73.1578 26.6888 73.429 26.2978 73.603 25.8637C73.7892 25.4143 73.8856 24.8962 73.8856 24.3157C73.8856 23.7726 73.7892 23.2732 73.603 22.8238C73.4271 22.388 73.1556 21.9946 72.8074 21.6712C72.4592 21.3478 72.0427 21.1021 71.5868 20.9511C71.0788 20.7713 70.5414 20.6825 70.0008 20.689C69.4229 20.689 68.89 20.7764 68.4148 20.9387C67.9589 21.0896 67.5424 21.3353 67.1942 21.6587C66.846 21.9822 66.5745 22.3755 66.3986 22.8113C66.2124 23.2607 66.1225 23.7601 66.1225 24.3094C66.1225 24.8712 66.2124 25.3831 66.3986 25.8325C66.5745 26.2683 66.846 26.6617 67.1942 26.9851C67.5424 27.3085 67.9589 27.5542 68.4148 27.7051C68.89 27.8674 69.4165 27.9548 70.0008 27.9548ZM70.0137 26.0822C69.6027 26.0822 69.2752 25.9324 69.0505 25.6265C68.7924 25.2372 68.6687 24.778 68.6973 24.3157C68.6973 23.7539 68.8129 23.3169 69.0377 23.0173C69.2624 22.7114 69.5835 22.5616 70.0008 22.5616C70.4182 22.5616 70.7392 22.7114 70.964 23.0173C71.1887 23.3232 71.3043 23.7539 71.3043 24.3157C71.3043 24.8775 71.1951 25.3144 70.9704 25.6265C70.7521 25.9324 70.431 26.0822 70.0137 26.0822ZM77.0768 27.8425C77.4551 27.8433 77.8322 27.8014 78.2005 27.7176V22.9237C78.3289 22.8675 78.483 22.8175 78.6692 22.7801C79.072 22.6914 79.4792 22.6226 79.8892 22.5741C80.1075 22.5554 80.3194 22.5429 80.5313 22.5429C80.5891 22.443 80.6341 22.3307 80.6726 22.1996C80.7175 22.0747 80.7368 21.9499 80.7368 21.8126C80.7368 21.4193 80.5955 21.1384 80.3194 20.9636C79.9776 20.776 79.5877 20.6872 79.1958 20.7077C78.6238 20.7044 78.0546 20.7844 77.507 20.9449C77.2373 21.0198 76.9933 21.1072 76.7558 21.2071C76.5497 21.291 76.3555 21.4001 76.1779 21.5317C76.0229 21.6433 75.8978 21.7894 75.8129 21.9578C75.728 22.1261 75.6858 22.3118 75.6899 22.4992H75.6834V26.7189C75.6834 26.9498 75.7155 27.1371 75.7798 27.2807C75.844 27.4305 75.9339 27.5429 76.0559 27.6302C76.1714 27.7114 76.3127 27.7676 76.4925 27.7988C76.6659 27.8237 76.8585 27.8425 77.0704 27.8425H77.0768ZM83.5749 30.227C83.9583 30.2302 84.3405 30.184 84.7114 30.0896V27.7551C85.0774 27.8799 85.4755 27.9423 85.8993 27.9423C86.4644 27.9423 86.9716 27.8612 87.4339 27.7114C87.874 27.5692 88.2756 27.3327 88.609 27.0194C88.9425 26.7061 89.1992 26.3239 89.3603 25.9012C89.5487 25.3973 89.6401 24.8641 89.6299 24.3281C89.6299 23.7039 89.5272 23.1609 89.3217 22.7052C89.1286 22.2622 88.8318 21.8691 88.4551 21.557C88.0784 21.245 87.632 21.0226 87.1514 20.9074C86.6149 20.7584 86.0592 20.6848 85.5012 20.689C84.9362 20.689 84.4289 20.7514 83.973 20.8575C83.5235 20.9699 83.1383 21.1197 82.8301 21.3069C82.6374 21.438 82.4769 21.5878 82.3677 21.7439C82.2446 21.9294 82.184 22.1476 82.1944 22.3681V29.1034C82.1944 29.3406 82.2265 29.5279 82.2843 29.6714C82.3485 29.815 82.432 29.9336 82.5475 30.0147C82.6695 30.1021 82.8172 30.1583 82.9842 30.1833C83.1575 30.2145 83.3566 30.227 83.5749 30.227ZM85.5269 26.0572C85.3728 26.0572 85.2187 26.0385 85.0774 25.9948C84.945 25.9605 84.816 25.9145 84.6922 25.8575V22.7676C84.9638 22.624 85.269 22.5509 85.5783 22.5554C86.0598 22.5554 86.4258 22.7052 86.6763 22.9923C86.9331 23.2857 87.0551 23.7289 87.0551 24.3281C87.0551 25.4829 86.5414 26.0572 85.5269 26.0572ZM97.4187 27.8425C97.7969 27.8433 98.174 27.8014 98.5424 27.7176V23.4605C98.5424 22.5429 98.2663 21.85 97.7205 21.3881C97.072 20.8913 96.2588 20.6426 95.4346 20.689C95.1135 20.689 94.8246 20.7202 94.5677 20.7826C94.3045 20.845 94.1054 20.895 93.977 20.9449V19.5716C93.977 19.3344 93.9449 19.1472 93.8807 18.9973C93.8243 18.8613 93.7311 18.7427 93.611 18.654C93.4811 18.5652 93.3315 18.5075 93.1744 18.4855C92.7662 18.4181 92.349 18.4202 91.9415 18.4917L91.4599 18.5729V26.7189C91.4599 26.9498 91.492 27.1371 91.5563 27.2807C91.6205 27.4305 91.7104 27.5429 91.8324 27.6302C91.9479 27.7114 92.0956 27.7676 92.269 27.7988C92.8388 27.8695 93.417 27.8421 93.977 27.7176V22.7988C94.2842 22.6427 94.6257 22.5613 94.9723 22.5616C95.2676 22.5616 95.518 22.6365 95.7235 22.7926C95.9226 22.9486 96.0253 23.217 96.0253 23.6041V26.7189C96.0253 26.9498 96.0574 27.1371 96.1216 27.2807C96.1858 27.4305 96.2757 27.5429 96.3977 27.6302C96.5133 27.7114 96.6546 27.7676 96.8344 27.7988C97.0077 27.8237 97.2004 27.8425 97.4122 27.8425H97.4187ZM101.99 20.2707C102.401 20.2707 102.735 20.1459 102.986 19.9025C103.243 19.659 103.371 19.3594 103.371 19.0036C103.371 18.6478 103.243 18.3482 102.986 18.1047C102.735 17.8613 102.408 17.7427 101.99 17.7427C101.573 17.7427 101.239 17.8675 100.989 18.1047C100.732 18.3544 100.61 18.6478 100.61 19.0036C100.61 19.3594 100.738 19.659 100.989 19.9025C101.246 20.1521 101.573 20.2707 101.99 20.2707ZM102.119 27.8425C102.337 27.8425 102.556 27.8237 102.761 27.7925L103.249 27.7114V21.9998C103.249 21.7626 103.217 21.5754 103.153 21.4318C103.096 21.2927 103 21.1718 102.877 21.0822C102.747 20.9934 102.597 20.9357 102.44 20.9137C102.031 20.8483 101.614 20.8525 101.207 20.9262L100.726 21.0011V26.7189C100.726 26.9498 100.758 27.1371 100.822 27.2807C100.886 27.4305 100.982 27.5429 101.098 27.6302C101.22 27.7114 101.361 27.7676 101.535 27.7988C101.708 27.8237 101.907 27.8425 102.119 27.8425ZM111.372 27.8425C111.752 27.8438 112.131 27.8019 112.502 27.7176V23.3169C112.502 22.493 112.2 21.85 111.596 21.3819C110.993 20.9262 110.132 20.6952 109.015 20.6952C108.399 20.6952 107.827 20.7576 107.32 20.9012C106.871 21.0167 106.443 21.2022 106.055 21.4505C105.862 21.5754 105.702 21.7252 105.586 21.8875C105.467 22.0719 105.408 22.2877 105.419 22.5054V26.7189C105.419 26.9498 105.451 27.1371 105.516 27.2807C105.58 27.4305 105.67 27.5429 105.785 27.6302C105.907 27.7114 106.055 27.7676 106.228 27.7988C106.798 27.8695 107.376 27.8421 107.936 27.7176V22.8425C108.078 22.7489 108.238 22.674 108.431 22.6303C108.623 22.5803 108.816 22.5616 109.015 22.5616C109.317 22.5616 109.548 22.624 109.721 22.7614C109.895 22.8987 109.978 23.1109 109.978 23.4043V26.7126C109.978 26.9498 110.01 27.1371 110.075 27.2869C110.139 27.4305 110.235 27.5429 110.351 27.6302C110.473 27.7114 110.614 27.7676 110.787 27.7988C110.961 27.8237 111.153 27.8425 111.372 27.8425ZM117.709 27.9548C118.871 27.9548 119.777 27.7676 120.419 27.4055C120.611 27.2932 120.785 27.1558 120.933 27.006C121.074 26.85 121.144 26.6502 121.144 26.4068V23.2607C121.144 22.8238 121.061 22.443 120.888 22.1184C120.722 21.7983 120.477 21.5236 120.175 21.3194C119.834 21.0946 119.453 20.9337 119.051 20.845C118.571 20.7369 118.08 20.6845 117.587 20.689C117.24 20.689 116.881 20.7139 116.483 20.7639C116.097 20.8076 115.757 20.8887 115.468 20.9886C115.211 21.0885 115.019 21.2133 114.897 21.3631C114.775 21.5067 114.717 21.7002 114.717 21.9436C114.718 22.1208 114.759 22.2956 114.838 22.4553C114.917 22.6151 115.031 22.7558 115.173 22.8675C115.828 22.6191 116.524 22.486 117.228 22.4742C117.709 22.4742 118.069 22.5366 118.319 22.649C118.576 22.7676 118.704 22.9611 118.704 23.2358V23.3294L116.759 23.5291C115.911 23.6103 115.282 23.8288 114.877 24.1721C114.473 24.5217 114.267 25.0148 114.267 25.664C114.254 26.0074 114.335 26.3481 114.501 26.6517C114.666 26.9553 114.912 27.211 115.211 27.393C115.513 27.5803 115.873 27.7176 116.29 27.8113C116.714 27.9049 117.189 27.9548 117.703 27.9548H117.709ZM117.709 26.207C117.343 26.207 117.08 26.1509 116.932 26.0323C116.859 25.9796 116.8 25.9109 116.76 25.8316C116.72 25.7524 116.7 25.6649 116.701 25.5766C116.701 25.3893 116.791 25.252 116.964 25.1584C117.176 25.0559 117.408 24.9984 117.645 24.9898L118.717 24.9024V26.026C118.615 26.0884 118.46 26.1259 118.268 26.1633C118.062 26.1945 117.876 26.2133 117.709 26.2133V26.207Z" fill="white"/>
<defs>
<linearGradient id="paint0_linear_2588_179263" x1="33.0078" y1="20.6745" x2="33.0078" y2="11.6084" gradientUnits="userSpaceOnUse">
<stop stop-color="#2D2E83"/>
<stop offset="0.0304" stop-color="#203C8C"/>
<stop offset="0.0874" stop-color="#00549F"/>
<stop offset="0.1501" stop-color="#0068B0"/>
<stop offset="0.2172" stop-color="#0078BF"/>
<stop offset="0.2898" stop-color="#0085CB"/>
<stop offset="0.3698" stop-color="#008FD5"/>
<stop offset="0.4603" stop-color="#0096DB"/>
<stop offset="0.5673" stop-color="#009BE0"/>
<stop offset="0.7068" stop-color="#009EE3"/>
<stop offset="1" stop-color="#009FE3"/>
</linearGradient>
<linearGradient id="paint1_linear_2588_179263" x1="33.0078" y1="20.6745" x2="33.0078" y2="11.6084" gradientUnits="userSpaceOnUse">
<stop stop-color="#211F5D"/>
<stop offset="0.0698" stop-color="#192A67" stop-opacity="0.93"/>
<stop offset="0.2648" stop-color="#004C89" stop-opacity="0.74"/>
<stop offset="0.4505" stop-color="#0069A8" stop-opacity="0.55"/>
<stop offset="0.622" stop-color="#0080C1" stop-opacity="0.38"/>
<stop offset="0.776" stop-color="#0091D4" stop-opacity="0.22"/>
<stop offset="0.9072" stop-color="#009BE0" stop-opacity="0.09"/>
<stop offset="1" stop-color="#009FE3" stop-opacity="0"/>
</linearGradient>
<linearGradient id="paint2_linear_2588_179263" x1="33.0073" y1="26.5365" x2="33.0073" y2="36.1928" gradientUnits="userSpaceOnUse">
<stop stop-color="#935B00"/>
<stop offset="0.0557" stop-color="#A36600"/>
<stop offset="0.1685" stop-color="#BD7900"/>
<stop offset="0.2901" stop-color="#D28900"/>
<stop offset="0.4214" stop-color="#E29500"/>
<stop offset="0.5671" stop-color="#EE9E00"/>
<stop offset="0.7386" stop-color="#F5A300"/>
<stop offset="1" stop-color="#F7A400"/>
</linearGradient>
<linearGradient id="paint3_linear_2588_179263" x1="33.0073" y1="26.5365" x2="33.0073" y2="36.1928" gradientUnits="userSpaceOnUse">
<stop stop-color="#3C0E00"/>
<stop offset="0.1855" stop-color="#6E2F00" stop-opacity="0.81"/>
<stop offset="0.3977" stop-color="#9F5400" stop-opacity="0.6"/>
<stop offset="0.5929" stop-color="#C47400" stop-opacity="0.41"/>
<stop offset="0.7646" stop-color="#E08E00" stop-opacity="0.24"/>
<stop offset="0.9061" stop-color="#F19E00" stop-opacity="0.09"/>
<stop offset="1" stop-color="#F7A400" stop-opacity="0"/>
</linearGradient>
<linearGradient id="paint4_linear_2588_179263" x1="22.8566" y1="23.9989" x2="34.5725" y2="23.9989" gradientUnits="userSpaceOnUse">
<stop stop-color="#5A0F09"/>
<stop offset="0.0334" stop-color="#68110C"/>
<stop offset="0.1105" stop-color="#831411"/>
<stop offset="0.1954" stop-color="#9C1413"/>
<stop offset="0.2887" stop-color="#B11213"/>
<stop offset="0.3938" stop-color="#C21013"/>
<stop offset="0.5172" stop-color="#CE0C12"/>
<stop offset="0.6766" stop-color="#D50A12"/>
<stop offset="1" stop-color="#D70911"/>
</linearGradient>
</defs>
</svg>
