<svg width="146" height="40" viewBox="0 0 146 40" fill="none" xmlns="http://www.w3.org/2000/svg">
<path d="M40.0776 12.6988H50.9871V15.1712H42.9129V18.7773H48.2882V21.2497H42.9129V25.2874H51.2373V27.7598H40.0776V12.6988Z" fill="white"/>
<path d="M50.4514 17.0531H53.3543L55.8944 24.5154L58.253 17.0531H61.0657L57.1644 27.7586H54.5556L50.4514 17.0531Z" fill="white"/>
<path d="M60.6213 22.4282C60.6213 19.1624 62.8898 16.8489 66.133 16.8489C69.3537 16.8489 71.6221 19.1624 71.6221 22.4282C71.6221 25.6489 69.3086 27.9624 66.0654 27.9624C62.8436 27.9624 60.6213 25.6939 60.6213 22.4282ZM68.7632 22.4958V22.4056C68.7632 20.3648 67.7648 19.1399 66.1319 19.1399C64.4765 19.1399 63.4781 20.3648 63.4781 22.4056V22.4958C63.4781 24.4916 64.4529 25.6714 66.0868 25.6714C67.7423 25.6714 68.7632 24.4926 68.7632 22.4958Z" fill="white"/>
<path d="M72.8994 12.4948H75.7347V27.7587H72.8994V12.4948Z" fill="white"/>
<path d="M77.3525 23.4719V17.0531H80.1653V23.313C80.1653 24.7419 80.8459 25.5815 82.1159 25.5815C83.5899 25.5815 84.2029 24.334 84.2029 22.4971V17.0542H87.0156V27.7597H84.2029V26.2406C83.6361 27.3518 82.6602 27.9648 81.2775 27.9648C78.8491 27.9626 77.3525 26.2385 77.3525 23.4719Z" fill="white"/>
<path d="M89.5858 24.9234V19.3216H88.0657V17.0532H89.5858V15.0349L92.3298 13.4922V17.0532H94.4394V19.3216H92.3073V24.6518C92.3073 25.1735 92.5564 25.4001 93.0781 25.4226H94.3256V27.7587H92.1484C90.084 27.6449 89.6309 26.6926 89.5858 24.9234Z" fill="white"/>
<path d="M95.7168 12.7439H98.6422V15.488H95.7168V12.7439ZM95.763 17.0532H98.5982V27.7587H95.763V17.0532Z" fill="white"/>
<path d="M99.876 22.4282C99.876 19.1624 102.144 16.8489 105.388 16.8489C108.608 16.8489 110.877 19.1624 110.877 22.4282C110.877 25.6489 108.563 27.9624 105.32 27.9624C102.099 27.9624 99.876 25.6939 99.876 22.4282ZM108.019 22.4958V22.4056C108.019 20.3648 107.021 19.1399 105.388 19.1399C103.732 19.1399 102.734 20.3648 102.734 22.4056V22.4958C102.734 24.4916 103.709 25.6714 105.341 25.6714C106.998 25.6714 108.019 24.4926 108.019 22.4958Z" fill="white"/>
<path d="M112.132 17.0532H114.944V18.7999C115.511 17.5524 116.555 16.8267 118.075 16.8267C120.411 16.8267 121.795 18.3919 121.795 21.3399V27.7587H118.982V21.4988C118.982 20.0023 118.415 19.2304 117.1 19.2304C115.761 19.2304 114.945 20.319 114.945 22.3147V27.7577H112.133V17.0532H112.132Z" fill="white"/>
<path d="M35.2939 14.3529C32.7324 10.9733 28.0688 10.02 24.2051 12.0834C25.7156 15.4823 26.8471 19.4716 34.2879 19.7046C35.1618 19.7325 36.1205 19.7089 37.179 19.6251C37.0266 17.4941 36.3331 15.7238 35.2939 14.3529Z" fill="white"/>
<path d="M33.9219 20.3092C29.444 20.5304 27.3409 22.1632 26.028 24.1772C25.255 25.3625 24.7558 26.6786 24.2051 27.9164C29.6373 30.8172 36.6519 27.7586 37.179 20.3736C35.9702 20.2781 34.8913 20.2609 33.9219 20.3092Z" fill="white"/>
</svg>
