<svg width="144" height="48" viewBox="0 0 144 48" fill="none" xmlns="http://www.w3.org/2000/svg">
<path fill-rule="evenodd" clip-rule="evenodd" d="M39.538 20.5414L25.6071 23.8511V20.7731L41.1017 17L39.538 20.5414ZM25.6055 27.4255L37.0843 25.9361L38.4703 22.7588L25.6055 24.4468V27.4255ZM25.6055 31.0001H34.9164L36.2669 28.0214H25.6055V31.0001Z" fill="#00B8FF"/>
<path d="M47.8875 25.4069H50.9438L51.9744 23.1894H47.8875V21.6339H52.6496L53.7513 19.284V19.2509H44.9023V29.4448H53.7513V27.0287H47.8875V25.4069Z" fill="white"/>
<path d="M86.0561 20.2107C85.2387 19.5818 84.1371 19.2509 82.7511 19.2509H78.0601V29.4117H81.0808V26.4991H82.5734C83.9949 26.4991 85.0966 26.1682 85.985 25.5393C86.8379 24.9105 87.2644 23.9837 87.2644 22.8253C87.2999 21.7331 86.8735 20.8395 86.0561 20.2107ZM83.7817 23.9507C83.4618 24.1823 83.0354 24.3147 82.5023 24.3147H81.0808V21.6339H82.5023C83.0709 21.6339 83.4974 21.7331 83.7817 21.9648C84.1015 22.1965 84.2437 22.5275 84.2437 22.9577C84.2437 23.388 84.1015 23.719 83.7817 23.9507Z" fill="white"/>
<path d="M91.3498 19.2509H88.3291V29.4448H95.0458L96.1475 26.9625H91.3498V19.2509Z" fill="white"/>
<path d="M101.337 19.1843L97.4279 27.7896L96.6816 29.4114H97.7122H99.8801L100.662 27.591H104.855L105.637 29.4114H108.871L104.216 19.1512H101.337V19.1843ZM101.515 25.4066L102.759 22.5272L103.967 25.4066H101.515Z" fill="white"/>
<path d="M115.019 19.2509L112.744 22.9577L110.505 19.2509H107.058L111.216 25.6055V29.4448H114.237V25.5724L118.395 19.2509H115.019Z" fill="white"/>
<path d="M62.7069 19.2509L60.2192 25.7048L57.7316 19.2509H54.3555L58.7977 29.511H61.6052L66.0475 19.2509H62.7069Z" fill="white"/>
<path d="M71.1651 19.0847C68.0377 19.0847 65.479 21.4677 65.479 24.3803C65.479 27.2928 68.0377 29.6758 71.1651 29.6758C74.2924 29.6758 76.8512 27.2928 76.8512 24.3803C76.8156 21.4346 74.2924 19.0847 71.1651 19.0847ZM71.1651 27.1273C69.5303 27.1273 68.1799 25.8696 68.1799 24.3472C68.1799 22.8247 69.5303 21.567 71.1651 21.567C72.7998 21.567 74.1503 22.8247 74.1503 24.3472C74.1503 25.8696 72.7998 27.1273 71.1651 27.1273Z" fill="white"/>
</svg>
