<svg width="144" height="48" viewBox="0 0 144 48" fill="none" xmlns="http://www.w3.org/2000/svg">
<path d="M126.551 32.0225C125.726 32.2585 124.9 32.465 123.86 32.76C123.494 30.872 123.157 29.102 122.851 27.3615C121.322 27.1845 120.466 27.568 120.344 29.161C120.252 30.3705 119.855 31.521 119.549 32.878C118.723 32.642 118.081 32.4355 117.378 32.229C117.745 29.81 118.112 27.45 118.418 25.09C118.57 23.9395 118.662 22.73 118.601 21.5795C118.57 20.9895 118.02 20.4585 117.837 19.8685C117.684 19.367 117.653 18.8065 117.531 18.0395C120.099 17.656 122.637 17.2725 125.267 16.8595C125.42 17.833 126.215 18.718 124.778 19.2785C124.655 19.3375 124.594 19.721 124.625 19.957C125.145 23.6445 125.665 27.332 126.215 30.99C126.246 31.167 126.429 31.285 126.521 31.462C126.551 31.6095 126.551 31.816 126.551 32.0225ZM122.393 20.6355C122.24 20.5175 122.087 20.3995 121.934 20.2815C121.537 20.606 120.864 20.901 120.833 21.255C120.68 22.2875 120.772 23.379 120.772 24.5885C121.445 24.5 121.934 24.4115 122.393 24.3525C122.393 23.0545 122.393 21.845 122.393 20.6355Z" fill="white"/>
<path d="M110.435 31.5205C109.793 29.662 109.151 27.774 108.509 25.9155C108.387 25.9155 108.264 25.945 108.142 25.945C108.264 27.9805 108.417 30.016 108.539 32.199C107.653 32.199 106.766 32.199 105.696 32.199C105.787 26.8005 107.194 21.284 105.359 15.8264C107.592 15.7969 108.692 16.6229 109.09 18.5404C109.549 20.694 110.007 22.818 110.435 24.9715C110.558 25.001 110.711 25.001 110.833 25.0305C111.536 22.169 112.27 19.3075 113.004 16.3574C113.891 16.3279 114.777 16.2689 115.817 16.2394C114.441 21.4315 115.389 26.358 116.49 31.5205C115.297 31.4025 114.258 31.314 113.157 31.196C113.157 29.013 113.157 26.9775 113.157 24.942C113.034 24.9125 112.912 24.883 112.79 24.883C112.148 27.0955 111.506 29.308 110.863 31.5205C110.741 31.5205 110.588 31.5205 110.435 31.5205Z" fill="white"/>
<path d="M61.8802 32.6707C61.6968 31.5202 61.5439 30.6647 61.391 29.7797C61.2381 28.9537 61.0852 28.1572 60.9323 27.3607C59.4034 27.1247 58.5778 27.5967 58.3943 29.1012C58.272 30.3107 57.9051 31.4907 57.6299 32.8772C56.7737 32.5822 56.0704 32.3757 55.3977 32.1397C55.9175 27.4197 58.0274 22.8177 55.2754 18.0387C58.2109 17.5962 60.7488 17.2127 63.4703 16.7997C63.3785 17.7437 64.3876 18.6287 62.9199 19.1597C62.7058 19.2187 62.6752 19.9562 62.7364 20.3692C63.2868 23.9977 63.8678 27.6262 64.4488 31.2547C64.4793 31.4907 64.5099 31.7267 64.5711 32.1102C63.6537 32.3167 62.8281 32.4937 61.8802 32.6707ZM60.5348 20.5757C60.3513 20.4577 60.1984 20.3397 60.015 20.2217C59.648 20.5757 59.0059 20.9002 58.9753 21.2837C58.8224 22.3162 58.9142 23.3782 58.9142 24.4107C60.229 24.6762 60.6571 24.2632 60.5654 23.1717C60.4736 22.3162 60.5348 21.4607 60.5348 20.5757Z" fill="white"/>
<path d="M86.6496 18.0092C89.3405 17.5962 91.8173 17.2127 94.6916 16.7997C94.3858 18.5402 93.9272 20.0447 93.8966 21.5492C93.866 23.2897 94.1412 25.0892 94.447 26.8297C94.7222 28.5112 95.1809 30.1927 95.609 32.0807C94.8445 32.2872 94.0189 32.4937 93.0098 32.7297C92.6735 30.8417 92.3371 29.1012 92.0313 27.3902C90.3801 27.0657 89.6463 27.6852 89.4934 29.2487C89.3711 30.3992 89.0347 31.5202 88.7901 32.6412C86.3744 32.4642 86.3744 32.4347 86.8025 30.3402C87.1694 28.4522 87.5058 26.5642 87.6587 24.6467C87.781 23.0242 88.3926 21.3132 87.0777 19.8087C86.7108 19.4842 86.8025 18.8352 86.6496 18.0092ZM91.5115 24.3812C91.5115 22.9652 91.5115 21.7262 91.5115 20.4872C91.3892 20.3987 91.2363 20.3102 91.114 20.2217C90.7471 20.5757 90.0743 20.8707 90.0438 21.2837C89.8909 22.3162 89.9826 23.3782 89.9826 24.5582C90.6553 24.4992 91.0834 24.4402 91.5115 24.3812Z" fill="white"/>
<path d="M67.5668 31.1371C66.5272 30.9011 65.671 30.6651 64.876 30.4881C65.2429 26.3876 65.5793 22.405 65.9462 18.3045C66.5272 18.3045 67.2611 18.3045 67.8726 18.3045C69.0346 20.812 70.166 23.2605 71.2973 25.7386C71.4197 25.6796 71.542 25.6501 71.6337 25.5911C71.6337 23.2605 71.6643 20.93 71.6337 18.5995C71.6031 16.7705 71.6337 16.7115 73.9576 16.741C73.9576 21.6675 73.9576 26.5941 73.9576 31.5796C72.8568 31.9926 72.0924 31.6681 71.4808 30.5471C70.4717 28.7771 69.2792 27.0661 67.842 25.4141C67.7503 27.2431 67.6586 29.0721 67.5668 31.1371Z" fill="white"/>
<path d="M99.0934 30.0456C99.9496 30.6946 100.989 30.6651 101.815 29.7506C102.64 28.8361 102.549 27.0956 101.448 26.3286C100.775 25.8271 99.9496 25.5321 99.124 25.2371C96.9529 24.4701 96.2497 23.7326 96.2191 22.1101C96.1579 20.0451 97.167 18.4521 98.9711 17.7441C100.531 17.1541 102.121 17.1836 103.497 18.1276C104.047 18.5111 104.567 19.3961 104.567 20.0451C104.567 20.6941 103.986 21.4316 103.435 21.9331C103.191 22.1691 102.151 22.0511 101.968 21.7856C101.631 21.2546 101.631 20.5171 101.448 19.4846C100.867 19.0716 99.9496 19.0421 99.3686 20.0451C98.8182 21.0186 99.3075 21.8741 100.347 22.3166C100.989 22.6116 101.693 22.7886 102.365 22.9951C104.536 23.7326 105.423 25.0306 105.24 27.2726C104.995 30.5471 100.775 32.9071 97.7174 31.5501C96.2802 30.9011 95.5158 29.6916 95.6993 28.2461C95.8216 27.2136 96.3108 26.2991 97.4422 26.3581C98.2372 26.3876 99.2769 26.8596 99.6438 27.4496C99.8579 27.9806 99.3075 28.9541 99.0934 30.0456Z" fill="white"/>
<path d="M49.6774 22.9656C50.8393 22.6706 51.6038 22.4936 52.3682 22.2871C52.3682 23.4081 52.3682 24.4406 52.3682 25.4436C51.4815 25.2961 50.7476 25.1781 49.5856 24.9716C50.0443 27.5676 50.4418 29.7801 50.8393 32.1106C49.922 32.1106 48.9129 32.1106 47.9039 32.1106C47.6898 27.1546 47.4758 22.1396 47.2617 17.1246C49.708 16.7411 52.3988 16.2986 55.426 15.7971C55.0897 17.1246 54.8145 18.1866 54.6616 18.8651C52.9492 19.0126 51.298 18.8061 50.1666 19.4256C49.5856 19.7796 49.8303 21.5791 49.6774 22.9656Z" fill="white"/>
<path d="M75.4249 20.7533C75.3026 19.6323 75.2109 18.5998 75.1191 17.5673C78.7273 17.2723 82.1215 16.9773 85.7603 16.6823C85.8214 17.3313 85.852 18.0393 85.9132 18.8948C84.8124 19.1013 83.8033 19.3373 82.7636 19.4553C81.8157 19.5733 81.4488 19.9863 81.5405 20.9008C81.8769 24.5588 82.1521 28.2168 82.4578 31.9633C81.8157 31.9633 80.8984 31.9633 79.7058 31.9633C79.7058 30.5178 79.767 29.0723 79.6753 27.5973C79.5835 25.6798 79.3083 23.7918 79.2166 21.8743C79.1249 20.5763 78.5439 20.1338 77.2596 20.4583C76.7703 20.6648 76.1894 20.6648 75.4249 20.7533Z" fill="white"/>
<path d="M18.1889 28.977C19.4283 31.1636 21.1282 31.2661 22.3676 29.2162C22.8988 28.362 23.0405 27.5421 21.9427 26.8929C20.8449 26.2438 19.8179 25.4922 18.7201 24.7747C17.0911 23.7156 16.9848 22.4857 18.6492 21.6315C20.4199 20.7432 21.0928 19.4791 21.5886 17.7026C22.5447 14.2519 26.9005 12.8511 30.2294 15.0719C32.0355 16.2676 33.6999 16.7801 35.7539 16.336C37.1704 16.0285 37.9141 16.6093 37.7724 18.0442C37.6662 19.5133 37.4537 20.9482 37.3475 22.4173C37.3121 24.2622 37.2766 26.1071 37.2412 27.9862C37.1704 30.6169 35.6476 32.2568 33.2395 33.0768C29.2378 34.4092 25.1299 34.1701 21.0928 33.1793C20.0658 32.9401 19.0742 32.1885 18.3659 31.4027C17.8702 30.8561 17.8347 29.8995 17.5868 29.1478C17.7639 29.0795 17.9764 29.0112 18.1889 28.977ZM22.7572 19.1375C23.5363 21.4949 25.6611 22.9298 27.2193 22.554C28.5296 22.2465 30.4773 18.3859 30.0169 16.7801C27.8921 18.2492 26.0152 20.3333 22.7572 19.1375ZM22.4031 17.1901C23.1821 17.8734 23.6779 18.3175 24.1737 18.7617C24.5633 18.2834 25.3069 17.7709 25.2715 17.3267C25.2361 16.7459 24.5987 16.1993 24.2091 15.6527C23.6779 16.0968 23.1821 16.5068 22.4031 17.1901ZM26.7589 16.7118C27.8921 16.4043 29.0253 16.0968 30.0877 15.8235C28.8837 14.5252 27.4672 14.9352 26.7589 16.7118Z" fill="white"/>
</svg>
