<svg width="144" height="48" viewBox="0 0 144 48" fill="none" xmlns="http://www.w3.org/2000/svg">
<path d="M35.215 28.5189C34.4518 27.2166 33.6848 25.9181 32.9292 24.6119C32.0615 23.1123 31.2015 21.6108 30.3092 20.1265C29.4055 18.6231 28.5455 17.0947 27.6607 15.5798C27.1633 14.7256 26.6564 13.8772 26.1362 13C32.1925 13 38.2261 13 44.3051 13C44.0735 13.406 43.8571 13.7872 43.6388 14.1683C43.2894 14.7773 42.9268 15.3806 42.5946 15.9992C42.4826 16.2061 42.3535 16.2578 42.1332 16.2578C38.8146 16.2463 35.4979 16.2444 32.1792 16.2405C32.0748 16.2405 31.9685 16.2405 31.8641 16.2405C31.8394 16.3286 31.9021 16.3765 31.9343 16.4321C32.3425 17.1292 32.7583 17.8225 33.157 18.5254C33.2595 18.7054 33.3658 18.7744 33.5785 18.7744C35.9402 18.7648 38.3001 18.7686 40.6619 18.7686C40.7435 18.7686 40.8251 18.7686 40.9428 18.7686C40.7188 19.1574 40.5138 19.5194 40.3049 19.8794C39.929 20.5325 39.5474 21.1837 39.1772 21.8425C39.0975 21.9842 39.012 22.0417 38.8431 22.0398C37.6679 22.0302 36.4946 22.036 35.3175 22.036C35.2966 22.147 35.3688 22.2064 35.4067 22.2754C35.9478 23.2215 36.4927 24.1657 37.0338 25.1118C37.0718 25.1769 37.0983 25.2478 37.1306 25.3148C36.8572 25.7802 36.5876 26.2475 36.3085 26.7091C35.9421 27.3085 35.6232 27.9425 35.215 28.5189Z" fill="#D61A1F"/>
<path d="M35.2149 28.5188C35.6231 27.9423 35.9402 27.3103 36.3066 26.707C36.5857 26.2454 36.8553 25.7781 37.1286 25.3127C37.7058 26.3048 38.2811 27.2969 38.8582 28.289C38.9076 28.3752 38.9588 28.4594 39.0177 28.559C40.2916 26.3872 42.8451 22.0377 42.8451 22.0377H40.9561L42.828 18.7723L48.4306 18.7704C48.4306 18.7704 42.154 29.5645 38.993 34.9999C38.7937 34.6705 38.6114 34.3717 38.4348 34.0691C37.3963 32.2898 36.3578 30.5125 35.325 28.7295C35.289 28.6605 35.1959 28.6184 35.2149 28.5188Z" fill="white"/>
<path d="M111.94 29.8191C108.676 29.8062 106.236 27.0562 106.402 23.94C106.571 20.7819 109.093 18.4207 112.281 18.5524C115.593 18.6905 118.039 21.2446 117.854 24.5279C117.672 27.7277 115.004 29.8994 111.94 29.8191ZM115.59 24.1938C115.59 22.1216 114.15 20.6213 112.16 20.6181C110.128 20.6149 108.692 22.0959 108.695 24.1905C108.695 26.2884 110.141 27.7823 112.157 27.7726C114.15 27.763 115.587 26.2627 115.59 24.1938Z" fill="white"/>
<path d="M83.1702 25.5911C82.1893 25.5911 81.2403 25.5911 80.2754 25.5911C80.2754 24.9389 80.2754 24.3156 80.2754 23.6635C81.9314 23.6635 83.5715 23.6667 85.2084 23.6603C85.3804 23.6603 85.4218 23.7342 85.4218 23.8916C85.4186 24.8425 85.5014 25.8031 85.3931 26.7412C85.3071 27.4576 84.7052 27.9459 84.1797 28.4021C82.7466 29.6422 81.0365 30.047 79.2244 29.7643C77.3837 29.4783 75.9347 28.4824 75.1003 26.7508C74.0748 24.6208 74.2914 22.5423 75.6958 20.6757C76.6608 19.3939 78.027 18.7417 79.648 18.5971C81.46 18.4333 83.0014 18.9441 84.2817 20.2452C84.8963 20.8685 84.8867 20.8749 84.1988 21.3986C84.0364 21.5206 83.8485 21.6299 83.7403 21.7937C83.3167 22.417 83.0173 21.9672 82.7403 21.6716C81.2307 20.0589 78.2276 20.2902 77.183 22.4298C75.957 24.9485 77.5047 27.7307 80.269 27.8463C81.3709 27.8913 82.4091 27.554 83.097 26.5741C83.2912 26.2946 83.132 25.938 83.1702 25.5911Z" fill="white"/>
<path d="M63.6166 18.7581C64.3619 18.7581 65.0625 18.7581 65.7663 18.7581C65.8682 18.8833 65.8172 19.0311 65.8172 19.1661C65.8204 21.2479 65.8204 23.3296 65.8204 25.4114C65.8204 26.5391 66.5083 27.4804 67.486 27.7053C68.6803 27.9783 69.8108 27.4932 70.3012 26.4652C70.4987 26.054 70.556 25.5945 70.5528 25.1319C70.5496 23.0244 70.5496 20.9169 70.5496 18.7838C71.2757 18.7838 71.9955 18.7838 72.7375 18.7838C72.7439 18.8769 72.7566 18.9765 72.7566 19.0761C72.7566 21.0422 72.7725 23.0084 72.7534 24.9745C72.7407 26.3463 72.4318 27.6185 71.3904 28.608C70.5146 29.4433 69.4605 29.7967 68.2726 29.8288C65.8809 29.8931 64.3332 28.6337 63.6931 26.4234C63.6166 26.1535 63.6166 25.8548 63.6166 25.5688C63.6135 23.3039 63.6166 21.0455 63.6166 18.7581Z" fill="white"/>
<path d="M96.4822 29.6361C95.7211 29.6361 95.0014 29.6329 94.2784 29.6361C94.0428 29.6361 94.0046 29.4434 93.9504 29.2924C93.5619 28.2193 93.5651 28.2161 92.4441 28.2161C91.4505 28.2161 90.4569 28.2258 89.4664 28.2097C89.2117 28.2065 89.0269 28.2675 88.9855 28.5181C88.8136 29.5269 88.1957 29.7935 87.269 29.6425C86.9219 29.5847 86.5588 29.6329 86.1289 29.6329C86.3805 29.0578 86.613 28.5213 86.8455 27.9848C87.4537 26.5777 88.062 25.1705 88.6734 23.7666C89.2403 22.4591 89.8104 21.1547 90.3772 19.8504C90.5014 19.5645 90.6511 19.2882 90.7403 18.9926C90.839 18.6617 90.9951 18.5268 91.3613 18.5204C91.7562 18.514 91.7817 18.7645 91.8899 19.0183C93.3199 22.3306 94.7593 25.6364 96.1956 28.9454C96.288 29.1639 96.3771 29.3823 96.4822 29.6361ZM92.7562 26.3785C92.2753 25.1513 91.8135 23.969 91.3231 22.7129C90.8295 23.9787 90.3677 25.1673 89.8932 26.3785C90.8581 26.3785 91.7721 26.3785 92.7562 26.3785Z" fill="white"/>
<path d="M101.202 29.8162C99.8672 29.858 98.7621 29.3375 97.8195 28.4155C97.7558 28.3545 97.6889 28.2902 97.6411 28.2163C97.0456 27.3264 97.0615 27.3457 98.1507 26.5682C98.5424 26.2887 98.7398 26.3562 99.0233 26.7032C99.7366 27.5674 100.635 28.0332 101.784 27.789C102.332 27.6734 102.737 27.3618 102.816 26.7706C102.893 26.1892 102.498 25.8647 102.065 25.6237C101.122 25.1001 100.103 24.7435 99.1761 24.1748C97.5201 23.1564 97.208 21.1325 98.3704 19.6804C98.8417 19.0924 99.5137 18.7872 100.249 18.6523C101.778 18.3728 103.151 18.6491 104.268 19.8121C104.912 20.4835 104.909 20.5221 104.195 21.1003C104.176 21.1164 104.16 21.1357 104.138 21.1517C103.889 21.3445 103.657 21.6593 103.383 21.7011C103.071 21.7493 102.995 21.2802 102.749 21.0939C102.135 20.6281 101.154 20.3486 100.491 20.6795C100.122 20.8658 99.9277 21.171 99.9181 21.5469C99.9086 21.8874 100.061 22.1926 100.386 22.3982C101.138 22.8834 101.991 23.1436 102.778 23.5452C103.721 24.0303 104.622 24.5764 104.944 25.6816C105.453 27.4324 104.494 29.0805 102.692 29.6299C102.202 29.7873 101.705 29.8162 101.202 29.8162Z" fill="white"/>
<path d="M57.1864 20.7693C57.1864 21.6785 57.1864 22.5491 57.1864 23.4711C57.8393 23.4711 58.4953 23.4711 59.1514 23.4711C59.8106 23.4711 60.4698 23.4711 61.1418 23.4711C61.1418 24.1522 61.1418 24.8012 61.1418 25.479C59.8233 25.479 58.5208 25.479 57.1896 25.479C57.1896 26.8669 57.1896 28.2226 57.1896 29.604C56.4444 29.604 55.7279 29.604 54.9858 29.604C54.9858 26.0027 54.9858 22.3917 54.9858 18.7678C57.3329 18.7678 59.6705 18.7678 62.0494 18.7678C62.0494 19.3782 62.0462 19.979 62.0526 20.5797C62.0558 20.8528 61.8583 20.7661 61.7278 20.7661C60.2278 20.7693 58.7246 20.7693 57.1864 20.7693Z" fill="white"/>
</svg>
