<svg width="220" height="80" viewBox="0 0 220 80" fill="none" xmlns="http://www.w3.org/2000/svg">
<path d="M17.9536 24.4971C9.70958 24.4971 0 28.1978 0 40.2392C0 52.2805 9.70958 55.9813 17.9536 55.9813H27.0311V40.1931H20.9489V49.9146H17.9536C10.1035 49.9146 6.4761 46.4623 6.4761 40.1931C6.4761 35.0102 10.0577 30.573 19.0345 30.573H27.0311V24.4971H17.9536Z" fill="#0068FF"/>
<path d="M57.5048 35.5718C57.4589 34.6881 57.3215 33.8319 57.1109 33.0218C56.5705 30.9873 55.5263 29.1829 53.9507 27.5995C51.5416 25.1876 48.4089 24 44.5343 24C40.7511 24 37.6184 25.1876 35.2094 27.5995C32.8095 30.0207 31.582 32.9389 31.582 36.4372V55.9814H37.6642V47.3462H51.4501V55.9814H57.5323V36.4372C57.5323 36.1426 57.5231 35.8572 57.5048 35.5718ZM37.6642 41.2243V36.2899C37.6642 32.7364 40.2107 30.0759 44.5343 30.0759C48.7936 30.0759 51.3767 32.8101 51.4409 36.7226V36.7318C51.4501 36.7778 51.4501 36.8238 51.4501 36.8791V41.2243H37.6642Z" fill="#0068FF"/>
<path d="M81.8087 55.9823V49.9156H68.1603V24.498H62.0781V55.9915H81.8087V55.9823Z" fill="#0068FF"/>
<path d="M107.318 27.6093C104.909 25.1973 101.767 24.0098 97.8923 24.0098C94.1184 24.0098 90.9765 25.1973 88.5765 27.6093C86.1767 30.0304 84.9492 32.9395 84.9492 36.447V55.9911H91.0314V47.356H104.818V55.9911H110.89V36.447C110.89 32.9395 109.718 30.0304 107.318 27.6093ZM104.818 41.2341H91.0314V36.2997C91.0314 32.7462 93.578 30.0765 97.8923 30.0765C102.216 30.0765 104.818 32.8935 104.818 36.8889V41.2341Z" fill="#0068FF"/>
<path d="M142.018 24.498H134.764L127.976 35.315L121.189 24.498H113.934L123.817 40.2401L113.934 55.9915H121.189L127.976 45.1653L134.764 55.9915H142.018L132.135 40.2401L142.018 24.498Z" fill="#0068FF"/>
<path d="M153.689 24.5156C146.186 24.5156 143.539 28.8056 143.539 33.6479C143.539 38.1404 145.555 42.9735 152.663 42.9735H157.032C160.174 42.9735 161.887 43.5166 161.887 46.4257C161.887 49.0401 160.174 49.9332 157.032 49.9332H144.913V55.9998H157.032C165.276 55.9998 167.722 52.7409 167.722 46.619C167.722 42.0805 165.807 37.1921 157.417 37.1921H153.35C150.748 37.1921 149.374 36.5017 149.374 33.9885C149.374 31.6686 150.748 30.5823 153.395 30.5823H165.267V24.5156H153.689Z" fill="#0068FF"/>
<path d="M195.673 24.46H189.197L181.695 39.8063L174.184 24.46H167.707L178.745 45.6796V55.9441H184.828V45.6796L195.673 24.46Z" fill="#0068FF"/>
<path d="M205.965 24.498C198.464 24.498 195.816 28.788 195.816 33.6303C195.816 38.1228 197.831 42.9559 204.939 42.9559H209.309C212.451 42.9559 214.163 43.499 214.163 46.4081C214.163 49.0226 212.451 49.9156 209.309 49.9156H197.19V55.9823H209.309C217.553 55.9823 219.999 52.7234 219.999 46.6014C219.999 42.063 218.084 37.1746 209.694 37.1746H205.627C203.026 37.1746 201.652 36.4842 201.652 33.9709C201.652 31.651 203.025 30.5647 205.673 30.5647H217.544V24.498H205.965Z" fill="#0068FF"/>
</svg>
