<svg width="144" height="48" viewBox="0 0 144 48" fill="none" xmlns="http://www.w3.org/2000/svg">
<path d="M37.6478 21.8746H39.9108V23.7005L43.4938 23.7919V13.5368C43.4938 13.4173 43.4316 13.3389 43.3354 13.3389H40.0654C39.9711 13.3389 39.907 13.4173 39.907 13.5368V18.3908H37.644V13.5368C37.644 13.4173 37.5799 13.3389 37.4856 13.3389H34.2609C34.1647 13.3389 34.1006 13.4173 34.1006 13.5368V23.553L37.6478 23.6426V21.8746Z" fill="#4AAF6C"/>
<path d="M51.794 13.4976C51.7638 13.3781 51.7053 13.3389 51.6299 13.3389H48.0883C48.0148 13.3389 47.9545 13.3781 47.9243 13.4976L44.9277 23.8293L54.7943 24.0888L51.794 13.4976ZM48.9106 22.1901L49.844 16.3521L50.7492 22.1901H48.9106Z" fill="#4AAF6C"/>
<path d="M68.6551 23.9413L70.2165 21.6785L71.3989 24.507L75.0838 24.6003L72.3607 18.6111L75.8419 13.5704C75.9324 13.4322 75.8721 13.3333 75.7533 13.3333H72.0627C72.0247 13.3341 71.9877 13.3457 71.956 13.3665C71.9243 13.3873 71.8992 13.4165 71.8836 13.4509L68.6551 18.585V13.5367C68.6551 13.4173 68.5947 13.3389 68.5061 13.3389H65.4888C65.3983 13.3389 65.3398 13.4173 65.3398 13.5367V24.352L68.6589 24.436L68.6551 23.9413Z" fill="#4AAF6C"/>
<path d="M86.0697 22.68C86.0697 17.3107 79.9522 19.2187 79.9522 17.0941C79.9522 16.4855 80.4727 16.2092 81.1874 16.2092C82.0209 16.2092 82.8393 16.5826 83.6578 17.4302C83.6706 17.4491 83.6884 17.4643 83.7092 17.4742C83.7301 17.484 83.7532 17.4881 83.7762 17.486C83.7991 17.4839 83.8211 17.4757 83.8398 17.4622C83.8585 17.4488 83.8731 17.4306 83.8822 17.4096L85.5474 15.1263C85.5777 15.0858 85.593 15.0362 85.5906 14.9858C85.5882 14.9355 85.5682 14.8875 85.5342 14.85C84.3574 13.4965 82.9883 12.886 81.3213 12.886C79.0583 12.886 76.6332 13.9875 76.6332 17.5086C76.6332 23.1524 82.8243 20.9102 82.8243 23.2308C82.8243 23.9402 82.2453 24.2931 81.4118 24.2931C80.3689 24.2931 79.3374 23.7629 78.3002 22.3664C78.2417 22.288 78.1512 22.2674 78.0928 22.3664L76.4785 24.6347L85.6568 24.87C85.9401 24.1744 86.0805 23.4299 86.0697 22.68Z" fill="#4AAF6C"/>
<path d="M93.6106 13.4976C93.5804 13.3781 93.52 13.3389 93.4465 13.3389H89.9049C89.8295 13.3389 89.7711 13.3781 89.7409 13.4976L86.4351 24.886L96.9164 25.1548L93.6106 13.4976ZM90.7253 22.1901L91.6682 16.3521L92.5639 22.1901H90.7253Z" fill="#4AAF6C"/>
<path d="M103.468 19.5111L104.4 25.3509L108.224 25.4499L111.584 13.5555C111.615 13.4173 111.569 13.3389 111.466 13.3389H108.307C108.218 13.3389 108.158 13.3987 108.143 13.5256L106.474 20.4334L105.109 13.5256C105.094 13.4267 105.033 13.3389 104.945 13.3389H101.993C101.905 13.3389 101.844 13.4173 101.829 13.5256L100.464 20.4334L98.7874 13.5163C98.7723 13.3987 98.712 13.3296 98.6234 13.3296H95.4703C95.3666 13.3296 95.3213 13.408 95.3515 13.5462L98.6422 25.209L102.544 25.3098L103.468 19.5111Z" fill="#4AAF6C"/>
<path d="M63.7985 23.2141C63.7994 23.2028 63.7964 23.1916 63.79 23.1822C63.7836 23.1728 63.7742 23.1659 63.7633 23.1624C63.7524 23.159 63.7407 23.1592 63.7299 23.1632C63.7192 23.1672 63.7102 23.1746 63.7043 23.1842C63.4854 23.508 63.1882 23.7724 62.8397 23.9533C62.4912 24.1343 62.1025 24.2261 61.7091 24.2204C59.9685 24.2204 59.1481 22.5103 59.1481 20.2288C59.1481 18.164 59.8308 16.3344 61.743 16.3344C62.1293 16.3199 62.5128 16.4035 62.8571 16.5774C63.2014 16.7512 63.495 17.0095 63.7099 17.3276C63.7162 17.3366 63.7253 17.3435 63.7357 17.3471C63.7462 17.3508 63.7576 17.3511 63.7682 17.348C63.7789 17.3449 63.7883 17.3385 63.795 17.3298C63.8018 17.3212 63.8057 17.3106 63.8061 17.2996V13.4705C63.8069 13.4271 63.7938 13.3846 63.7688 13.3491C63.7437 13.3135 63.7079 13.2868 63.6665 13.2726C62.9991 13.0452 62.298 12.9297 61.5921 12.9309C57.7508 12.9309 55.2747 16.2746 55.2747 20.4846C55.2583 21.7307 55.5056 22.9664 56.0007 24.1121L63.8004 24.3119L63.7985 23.2141Z" fill="#4AAF6C"/>
<path d="M38.2132 27.5771C38.2132 27.6947 38.2754 27.7638 38.3716 27.7638H41.6321C41.7264 27.7638 41.7906 27.6854 41.7906 27.5771V24.3416L38.2075 24.2483L38.2132 27.5771Z" fill="#4AAF6C"/>
<path d="M32.5647 27.7731H35.8007C35.8969 27.7731 35.961 27.6947 35.961 27.5864V24.1904L32.4062 24.1008V27.5771C32.4062 27.6947 32.4704 27.7731 32.5647 27.7731Z" fill="#4AAF6C"/>
<path d="M42.4311 27.7732H45.6917C45.7344 27.7696 45.7748 27.7523 45.8067 27.724C45.8387 27.6958 45.8605 27.658 45.8689 27.6164L46.2857 25.826H49.9442L50.3609 27.6164C50.3694 27.658 50.3912 27.6958 50.4232 27.724C50.4551 27.7523 50.4955 27.7696 50.5382 27.7732H53.7988C53.9025 27.7732 53.9477 27.6761 53.9176 27.538L53.0935 24.6311L43.2288 24.3772L42.3123 27.538C42.2689 27.6761 42.3274 27.7732 42.4311 27.7732Z" fill="#4AAF6C"/>
<path d="M70.7833 27.635C70.7943 27.6738 70.8177 27.7081 70.8499 27.7326C70.8822 27.7572 70.9217 27.7707 70.9624 27.7713H74.3701C74.4889 27.7713 74.5341 27.6742 74.4738 27.536L73.3895 25.1482L69.7046 25.053L70.7833 27.635Z" fill="#4AAF6C"/>
<path d="M63.789 27.7731H66.8063C66.8968 27.7731 66.9553 27.6947 66.9553 27.5865V24.9858L63.6362 24.8999V27.5771C63.64 27.6947 63.7003 27.7731 63.789 27.7731Z" fill="#4AAF6C"/>
<path d="M74.5187 25.8259C75.0946 26.5722 75.8365 27.1771 76.6869 27.5935C77.5372 28.0098 78.4731 28.2266 79.4218 28.2268C81.3623 28.2268 83.1764 27.2933 83.9647 25.4264L74.7789 25.1855L74.5187 25.5589C74.4885 25.597 74.4722 25.644 74.4722 25.6924C74.4722 25.7408 74.4885 25.7878 74.5187 25.8259Z" fill="#4AAF6C"/>
<path d="M84.2485 27.7731H87.5071C87.5501 27.7696 87.5907 27.7524 87.623 27.7242C87.6553 27.6959 87.6775 27.6581 87.6863 27.6163L88.1031 25.8259H91.7634L92.1858 27.6163C92.1949 27.658 92.2172 27.6956 92.2494 27.7238C92.2816 27.7521 92.3221 27.7693 92.365 27.7731H95.618C95.7236 27.7731 95.767 27.6761 95.7387 27.5379L95.2201 25.7083L84.7388 25.4395L84.1297 27.5379C84.0769 27.6761 84.1448 27.7731 84.2485 27.7731Z" fill="#4AAF6C"/>
<path d="M102.974 27.5956C102.989 27.6945 103.047 27.7729 103.136 27.7729H105.914C106.002 27.7729 106.061 27.7151 106.076 27.5956L106.528 25.9975L102.702 25.9004L102.974 27.5956Z" fill="#4AAF6C"/>
<path d="M97.6303 27.7732H100.406C100.495 27.7732 100.555 27.6948 100.57 27.5959L100.848 25.8521L96.9458 25.7532L97.4663 27.5959C97.4814 27.7153 97.5398 27.7732 97.6303 27.7732Z" fill="#4AAF6C"/>
<path d="M59.9644 28.3108C60.6419 28.3135 61.3158 28.2115 61.9615 28.0083C62.0034 27.994 62.0397 27.967 62.0654 27.9312C62.0911 27.8954 62.1049 27.8525 62.1048 27.8086V24.8607L54.3032 24.6609C55.3008 26.8882 57.279 28.3108 59.9644 28.3108Z" fill="#4AAF6C"/>
<path d="M37.3074 32.2577H36.0741V31.6977C36.0741 31.5987 36.0156 31.5483 35.8968 31.5483H35.6422C35.5234 31.5483 35.465 31.5987 35.465 31.6977V34.1863C35.465 34.2852 35.5234 34.3357 35.6422 34.3357H35.8968C36.0156 34.3357 36.0741 34.2852 36.0741 34.1863V33.4601H35.7196V32.7133H37.3074V34.2759C37.3074 34.836 36.9604 35.1142 36.2646 35.1142H35.267C34.5711 35.1142 34.2241 34.836 34.2241 34.2759V31.608C34.2241 31.0504 34.5717 30.771 35.267 30.7698H36.2721C36.9673 30.7698 37.315 31.0492 37.315 31.608L37.3074 32.2577Z" fill="#4AAF6C"/>
<path d="M50.4818 35.1029L50.3404 34.455H49.2485L49.0995 35.1029H47.8794L49.0505 30.7622H50.5591L51.7302 35.1029H50.4818ZM49.4408 33.6093H50.1499L49.801 32.0485L49.4408 33.6093Z" fill="#4AAF6C"/>
<path d="M63.4684 35.103H62.3633V30.7698H63.7097L64.4641 33.0885L65.2014 30.7698H66.5385V35.103H65.439V32.3511L64.8733 34.1714H64.0228L63.457 32.366L63.4684 35.103Z" fill="#4AAF6C"/>
<path d="M77.4648 30.7698H78.7057V35.103H77.4648V30.7698Z" fill="#4AAF6C"/>
<path d="M91.7009 30.7698H92.8323V35.103H91.7725L90.7579 32.8253V35.103H89.6265V30.7698H90.6787L91.6933 33.0885L91.7009 30.7698Z" fill="#4AAF6C"/>
<path d="M106.807 32.2577H105.576V31.6977C105.576 31.5987 105.517 31.5483 105.398 31.5483H105.144C105.025 31.5483 104.967 31.5987 104.967 31.6977V34.1863C104.967 34.2852 105.025 34.3357 105.144 34.3357H105.387C105.506 34.3357 105.564 34.2852 105.564 34.1863V33.4601H105.21V32.7133H106.805V34.2759C106.805 34.836 106.458 35.1142 105.764 35.1142H104.757C104.061 35.1142 103.714 34.836 103.714 34.2759V31.608C103.714 31.0504 104.062 30.771 104.757 30.7698H105.764C106.458 30.7698 106.805 31.0492 106.805 31.608L106.807 32.2577Z" fill="#4AAF6C"/>
</svg>
