<svg width="144" height="48" viewBox="0 0 144 48" fill="none" xmlns="http://www.w3.org/2000/svg">
<path d="M76.3545 9.65304C75.8792 9.60323 75.4034 9.55337 74.9275 9.5H68.5452C68.3538 9.54885 68.1463 9.5977 67.9389 9.63027C67.1347 9.73867 66.3304 9.83398 65.5272 9.92917C63.7968 10.1342 62.0707 10.3388 60.3599 10.6724C55.8444 11.5517 51.5364 13.0661 47.707 15.7692C45.872 17.0719 44.2765 18.6188 43.2872 20.7031C43.2127 20.8659 43.1525 21.0288 43.0922 21.1916C43.0621 21.273 43.0319 21.3544 43 21.4359C44.787 18.8956 47.0847 17.023 49.7333 15.6226C51.0417 14.9224 52.398 14.2874 53.8021 13.7826C63.1362 10.4607 72.6778 10.0862 82.347 11.9263C86.9423 12.8056 91.378 14.2548 95.2712 16.9904C98.3507 19.1562 100.744 21.8104 100.6 26.0115C100.76 25.523 100.92 25.0345 100.967 24.5297C101.127 22.7548 100.632 21.1428 99.675 19.6772C98.3507 17.6418 96.5317 16.1437 94.5053 14.9224C89.7983 12.0728 84.6287 10.7213 79.2675 9.98851C78.3021 9.85714 77.3295 9.75521 76.3545 9.65304Z" fill="#FDFDFD"/>
<path d="M98.6864 30.1964C99.7874 29.0729 100.697 27.819 101 26.2069C99.7076 28.6006 97.7769 30.3267 95.4953 31.6294C93.772 32.6227 91.969 33.5671 90.1022 34.2347C80.066 37.7846 69.8543 38.0125 59.5468 35.6026C55.2707 34.6093 51.202 33.0135 47.7076 30.2127C45.6653 28.5681 44.0697 26.5652 43.607 23.8295C43.5359 23.4147 43.51 22.9867 43.4842 22.5581C43.4694 22.3137 43.4547 22.069 43.4315 21.8267H43.2241C43.2135 22.1457 43.1905 22.4666 43.1676 22.7881C43.1214 23.4344 43.075 24.0836 43.1283 24.7251C43.3357 27.1514 44.6601 29.0077 46.3514 30.6198C48.314 32.4924 50.6275 33.8277 53.0847 34.8861C58.3821 37.1821 63.9666 38.1917 69.6947 38.4359C76.6834 38.7453 83.5444 37.9637 90.1501 35.456C93.3253 34.251 96.2771 32.6715 98.6864 30.1964Z" fill="#FDFDFD"/>
<path fill-rule="evenodd" clip-rule="evenodd" d="M56.7698 27.07C56.4826 27.8027 56.0837 28.4378 55.1901 28.4052C54.536 28.3889 53.9615 27.7539 53.7541 26.8583C53.3233 25.1159 54.0573 22.82 55.3976 21.7778C56.4826 20.9311 57.2804 21.0288 58.1101 22.136C58.1473 22.0492 58.1827 21.9642 58.2182 21.8791C58.2891 21.7091 58.36 21.539 58.4451 21.3544H60.0248C60.1237 21.3544 60.2226 21.374 60.3438 21.3979C60.3789 21.4049 60.4161 21.4122 60.4556 21.4196C60.4495 21.5116 60.4503 21.599 60.4511 21.6827C60.4523 21.8211 60.4535 21.9492 60.4236 22.0709C59.8652 24.4157 59.3067 26.7606 58.7323 29.0891C58.3813 30.5221 57.5676 31.5154 56.0837 31.7922C54.7753 32.0365 53.6424 31.32 53.5627 30.2127C53.5148 29.6265 53.6265 29.0403 54.2647 28.9426C54.5679 28.8937 55.0465 29.1705 55.2221 29.4474C55.5412 29.9684 55.4135 30.5546 54.9029 30.9617C54.8276 31.0258 54.7325 31.0596 54.6331 31.095C54.6063 31.1045 54.5791 31.1142 54.5519 31.1246C55.1423 31.6131 55.621 31.5805 55.9082 30.8315C56.2387 29.9824 56.4878 29.0918 56.7369 28.2012C56.8365 27.8449 56.9362 27.4887 57.041 27.1351C56.9932 27.127 56.9493 27.1147 56.9054 27.1025C56.8615 27.0903 56.8176 27.0781 56.7698 27.07ZM56.7698 27.07C56.7964 26.9885 56.8265 26.9071 56.8566 26.8257C56.9169 26.6629 56.9772 26.5 57.0091 26.3372C57.0501 26.1697 57.0915 26.0022 57.1329 25.8346C57.381 24.8298 57.6291 23.8248 57.8069 22.82C57.8399 22.6289 57.7057 22.4068 57.5722 22.1858C57.5123 22.0866 57.4525 21.9876 57.408 21.8918C57.3468 21.9751 57.2758 22.055 57.2049 22.1349C57.0541 22.3047 56.9038 22.474 56.8495 22.6734C56.4826 24.0575 56.1635 25.4579 55.8603 26.842C55.8175 27.0167 55.8249 27.1988 55.8345 27.4324C55.8391 27.5471 55.8443 27.6742 55.8443 27.819L55.9331 27.7458C56.2966 27.4461 56.5332 27.251 56.7698 27.07Z" fill="#FDFDFD"/>
<path d="M48.4471 26.4118C48.2674 27.2818 48.0939 28.121 46.8293 27.9656C47.7229 28.3889 51.6639 28.3401 52.1745 27.933C51.0895 28.0144 51.1374 27.4119 51.297 26.6792C51.7916 24.4321 52.2862 22.1848 52.733 19.9378C52.9085 19.0422 53.084 18.2443 54.185 18.1954C54.1942 18.1954 54.1981 18.1624 54.2029 18.122C54.2063 18.0929 54.2102 18.0599 54.2169 18.0326H48.9355C50.1322 18.6351 50.1322 18.6351 49.845 19.954C49.7176 20.5369 49.589 21.1185 49.4605 21.6996C49.1224 23.2285 48.7849 24.7547 48.4728 26.2884L48.4471 26.4118Z" fill="#FDFDFD"/>
<path d="M90.8993 18.1954C90.1911 18.8352 90.0658 19.6129 89.9394 20.3967C89.8921 20.6903 89.8447 20.9847 89.7664 21.273C90.1972 21.3382 90.5483 21.387 90.8993 21.4359C90.9152 21.501 90.9312 21.5661 90.9631 21.615C90.903 21.6405 90.8413 21.6758 90.7794 21.711C90.6445 21.788 90.5091 21.8653 90.3887 21.8429C89.7255 21.7507 89.6461 22.1669 89.5586 22.625L89.543 22.706C89.4226 23.3167 89.3015 23.9283 89.1802 24.5403C88.755 26.6858 88.3288 28.8369 87.9315 30.978C87.8039 31.6294 87.5486 31.9062 86.8784 31.841C86.4513 31.7952 86.0164 31.8058 85.5958 31.8162C85.4193 31.8205 85.2452 31.8248 85.0754 31.8248C85.1797 31.5706 85.286 31.3379 85.3868 31.1173C85.5637 30.7304 85.7237 30.3802 85.8253 30.0173C86.4137 27.793 86.9796 25.5459 87.5512 23.2759C87.6618 22.8371 87.7725 22.3975 87.8836 21.9569C87.5007 21.8592 87.1337 21.7615 86.7827 21.6638C86.7827 21.6231 86.7867 21.5824 86.7907 21.5417C86.7947 21.501 86.7986 21.4603 86.7986 21.4196C87.1975 21.3707 87.5964 21.3219 87.8996 21.2893C88.0147 21.0674 88.1253 20.8466 88.2346 20.6283C88.5344 20.0297 88.8254 19.4487 89.1761 18.9119C89.5749 18.2768 90.1813 17.8698 90.9791 17.9186C91.8885 17.9837 92.5587 18.9119 92.2236 19.7586C92.1119 20.0517 91.6652 20.4426 91.4896 20.3937C91.1865 20.3123 90.8195 19.9378 90.7557 19.6284C90.6636 19.3583 90.7292 19.0458 90.8089 18.6665C90.8397 18.5199 90.8726 18.3634 90.8993 18.1954Z" fill="#FDFDFD"/>
<path fill-rule="evenodd" clip-rule="evenodd" d="M84.166 27.8841C85.3308 27.07 85.9052 25.8975 85.969 24.546C85.953 23.1619 85.4584 22.1198 84.3096 21.5336C83.2565 20.9799 82.1715 21.1102 81.2301 21.8104C79.8579 22.8362 79.3952 24.2692 79.6984 25.9627C80.0973 28.1447 82.363 29.1217 84.166 27.8841ZM83.85 22.0364C83.8941 22.1125 83.9358 22.1844 83.9745 22.2337C83.8724 22.6698 83.7739 23.0967 83.6771 23.5164L83.6748 23.5265L83.6744 23.5278C83.3636 24.875 83.0699 26.1482 82.73 27.4119C82.6761 27.5877 82.4843 27.719 82.2917 27.8509C82.1988 27.9144 82.1058 27.9781 82.0279 28.047C81.9887 27.9569 81.9359 27.8638 81.883 27.7704C81.7637 27.5599 81.6437 27.3482 81.6769 27.1677C82.012 25.4905 82.3949 23.797 82.8257 22.136C82.8895 21.9244 83.2725 21.6638 83.5118 21.6638C83.6341 21.6638 83.7486 21.8614 83.85 22.0364Z" fill="#FDFDFD"/>
<path fill-rule="evenodd" clip-rule="evenodd" d="M70.2366 21.2242C72.247 21.2404 73.5554 23.2596 72.9969 25.4905C72.4863 27.5096 70.5238 28.8449 68.8325 28.3075C67.0773 27.7539 66.2795 25.637 67.0454 23.5853C67.6039 22.1198 68.8165 21.2079 70.2366 21.2242ZM68.7527 27.4608C68.7829 27.5048 68.8143 27.5608 68.8475 27.62C68.937 27.7796 69.0395 27.9625 69.1675 27.9981C69.343 28.047 69.6143 27.8353 69.7898 27.6725C69.894 27.5794 69.9344 27.4103 69.9718 27.2539L69.9821 27.2112C69.987 27.1908 69.992 27.1708 69.9972 27.1514C70.0899 26.7472 70.1849 26.3441 70.2797 25.9415C70.5438 24.8199 70.8071 23.702 71.0184 22.5757C71.0513 22.3854 70.941 22.1567 70.8325 21.9318C70.7832 21.8295 70.7342 21.728 70.6993 21.6313C70.6161 21.7012 70.5193 21.7665 70.4224 21.832C70.2035 21.9799 69.9838 22.1283 69.9175 22.3314C69.7176 22.932 69.5873 23.5562 69.4566 24.1821C69.3995 24.4556 69.3423 24.7296 69.2792 25.002C69.1398 25.6849 68.9882 26.3802 68.8244 27.1315L68.7527 27.4608Z" fill="#FDFDFD"/>
<path d="M91.5641 21.8048C91.7528 21.8573 91.9501 21.912 92.1599 21.9732C92.1082 22.1885 92.0554 22.4028 92.0029 22.616L92.0026 22.6172C91.8449 23.2581 91.6891 23.8908 91.5695 24.5135C91.5509 24.6035 91.5318 24.6937 91.5128 24.7841L91.512 24.7876C91.3521 25.5459 91.19 26.3144 91.2185 27.07C91.2345 27.4934 91.6653 28.0796 92.0642 28.2587C92.4311 28.4378 93.1332 28.3075 93.4364 28.0307C94.1703 27.3631 94.5533 26.4349 94.7447 25.1974C94.5711 25.4996 94.4482 25.8051 94.3288 26.1017C94.0752 26.7321 93.8378 27.322 93.1651 27.7539C93.1758 27.5796 93.1811 27.429 93.1858 27.2947C93.1953 27.0277 93.2024 26.8254 93.2449 26.6303C93.3805 26.0115 93.5241 25.3928 93.6677 24.774C93.8112 24.1555 93.955 23.5361 94.0905 22.9177C94.0991 22.8773 94.1074 22.8368 94.1156 22.7965C94.2303 22.2356 94.3387 21.7051 95.1277 21.8267C95.1815 21.8267 95.2499 21.7377 95.3328 21.6297C95.3727 21.5777 95.4161 21.5214 95.4627 21.4684C95.2952 21.4277 95.1476 21.3952 95.0001 21.3626C94.8525 21.33 94.7048 21.2974 94.5373 21.2567C94.6146 20.8563 94.6897 20.4603 94.765 20.063C94.8919 19.394 95.0194 18.7212 95.1596 18.0163C94.9703 18.0163 94.8017 18.0226 94.6462 18.0284C94.3692 18.0388 94.1341 18.0476 93.8991 18.0163C93.2928 17.9349 92.9736 18.1466 92.8779 18.7979C92.7768 19.3943 92.6281 19.9745 92.4822 20.5443C92.4209 20.7835 92.3601 21.0208 92.3035 21.2567C92.0999 21.3047 91.9117 21.3448 91.7332 21.3828C91.5479 21.4223 91.3732 21.4595 91.2025 21.501C91.21 21.5392 91.214 21.5738 91.2178 21.6065C91.222 21.6435 91.226 21.6781 91.2345 21.7127C91.3418 21.7431 91.4515 21.7736 91.5641 21.8048Z" fill="#FDFDFD"/>
<path d="M78.2144 21.9569C78.1954 21.9336 78.1791 21.9131 78.1646 21.8949C78.1185 21.8368 78.0913 21.8026 78.0548 21.7778C77.1773 21.4196 76.4593 21.5173 76.1721 22.0383C75.8529 22.6083 76.1561 23.2596 77.0018 23.8295C77.0859 23.8883 77.1713 23.9458 77.2569 24.0034C77.4796 24.1535 77.7038 24.3044 77.9112 24.4809C79.0601 25.4579 78.9803 27.0374 77.7357 27.9167C76.6986 28.6495 75.103 28.5843 74.1935 27.6887C73.9063 27.4119 73.7149 26.9723 73.6191 26.5815C73.5074 26.0767 73.651 25.4905 74.2574 25.5067C74.6403 25.523 75.1668 25.8487 75.3424 26.1907C75.5817 26.6629 75.4221 27.2002 74.8158 27.4282C74.7376 27.4548 74.6701 27.4705 74.535 27.502L74.4329 27.5259C75.0073 28.047 75.5976 28.1447 76.204 27.9981C76.9858 27.819 77.2251 26.8908 76.6029 26.2721C76.2966 25.972 75.9339 25.7391 75.5725 25.5071C75.4633 25.437 75.354 25.3668 75.2466 25.2951C74.4648 24.7903 73.9702 24.1389 74.1457 23.1456C74.3212 22.1198 74.9754 21.5498 75.9327 21.2893C77.1134 20.9636 78.4059 21.3544 78.9643 22.1849C79.3313 22.7548 79.2834 23.5527 78.8048 23.7807C78.2942 24.0249 77.8634 23.8133 77.5762 23.3573C77.2251 22.82 77.4804 22.2826 78.2144 21.9569Z" fill="#FDFDFD"/>
<path d="M64.1982 23.7607C64.3347 23.2795 64.4712 22.7982 64.6041 22.3152C64.6839 22.3314 64.7637 22.3477 64.8435 22.3477C64.8594 23.4876 65.2105 24.1389 65.8168 24.1226C66.4071 24.1064 66.8539 23.3085 66.6624 22.364C66.5667 21.9569 66.2157 21.387 65.8806 21.3056C65.5615 21.2242 65.035 21.5987 64.7477 21.9081C64.5365 22.1452 64.4022 22.4536 64.243 22.8193C64.1616 23.006 64.0738 23.2077 63.9659 23.4224V22.6571C63.934 22.0058 63.7106 21.4684 63.0564 21.273C62.4022 21.0776 61.8917 21.4196 61.5885 21.9732C61.3545 22.4074 61.163 22.8706 60.9715 23.3338C60.8758 23.5654 60.7801 23.797 60.679 24.0249C60.7029 24.0331 60.7309 24.0453 60.7588 24.0575C60.7867 24.0697 60.8146 24.0819 60.8386 24.0901C60.9982 23.7399 61.1617 23.3857 61.3253 23.0315C61.4888 22.6774 61.6523 22.3233 61.8119 21.9732C61.9076 22.0221 62.0193 22.0546 62.131 22.0872C62.0281 23.1903 61.7591 24.2651 61.4902 25.3396C61.259 26.2636 61.0278 27.1873 60.9024 28.1284C62.7852 28.5518 62.9447 28.4378 63.4075 26.6629C63.6521 25.6858 63.9251 24.7233 64.1982 23.7607Z" fill="#FDFDFD"/>
</svg>
