<svg width="147" height="40" viewBox="0 0 147 40" fill="none" xmlns="http://www.w3.org/2000/svg">
<g clip-path="url(#clip0_24960_190705)">
<path d="M37.9737 11.9351H62.7705L59.0268 28.5871H33.586L37.9737 11.9351Z" fill="black"/>
<path d="M54.1391 7.19983H55.2461L59.4325 9.80799H58.2652L54.1391 7.19983Z" fill="#FFA200"/>
<path d="M49.8142 32.7997H50.9212L55.1076 30.1915H53.9402L49.8142 32.7997Z" fill="#FDE43B"/>
<path d="M46.8351 27.8648L49.4887 19.8799L51.8793 27.8648H57.7058C57.7058 27.8648 57.254 29.1121 56.9646 29.9112C56.3924 30.0441 56.066 30.1016 55.4823 30.172C54.8745 30.2454 53.9175 30.2724 53.9175 30.2724H37.488C36.2528 30.2724 35.491 30.2724 34.2763 29.8912C33.5727 29.6704 33.1233 29.3696 32.7733 28.9482C32.3381 28.4243 32.3 27.8648 32.3 27.8648H46.8351Z" fill="url(#paint0_linear_24960_190705)"/>
<path d="M37.3439 11.3932C37.7858 11.0239 38.0742 10.8546 38.5998 10.6108C39.1347 10.3627 40.041 10.1493 40.041 10.1493L39.341 12.2158L37.5292 18.9368L35.0586 27.8647H32.3C32.3 27.8647 32.3001 26.1451 32.4439 25.5375C33.2211 22.2543 33.4116 21.9663 34.2763 18.7964C34.7809 16.9465 35.0998 15.9073 35.6351 14.1017C36.1209 12.463 36.3768 12.2016 37.3439 11.3932Z" fill="url(#paint1_linear_24960_190705)"/>
<path d="M57.0862 12.2154L54.8812 20.1603L52.0421 12.2154H39.3188L40.0394 10.149C40.0394 10.149 40.6763 10.0194 41.0893 9.96841C41.4974 9.91797 42.1393 9.88249 42.1393 9.88249L59.5159 9.80225C60.7512 9.80225 61.5129 9.80789 62.7277 10.1891C63.4313 10.4099 63.8806 10.7107 64.2306 11.132C64.6659 11.656 64.663 12.2154 64.663 12.2154H57.0862Z" fill="url(#paint2_linear_24960_190705)"/>
<path d="M59.6596 28.6474C59.2177 29.0167 58.9293 29.186 58.4037 29.4299C57.8688 29.678 57.5411 29.7875 56.9625 29.9113C57.2359 29.0965 57.6625 27.8248 57.6625 27.8248L59.4743 21.1038L61.9449 12.1759H64.6626C64.6626 12.1759 64.658 13.3913 64.5596 14.1621C64.3778 15.586 61.9101 24.8151 61.3684 25.9389C60.8267 27.0627 60.6268 27.839 59.6596 28.6474Z" fill="url(#paint3_linear_24960_190705)"/>
<path d="M54.1386 7.19983L58.276 9.81371L49.9188 9.87819L54.1386 7.19983Z" fill="url(#paint4_linear_24960_190705)"/>
<path d="M49.8145 32.7996L45.5985 30.1212H54.0499L49.8145 32.7996Z" fill="url(#paint5_linear_24960_190705)"/>
<path d="M44.3848 12.215H46.3438L42.1261 27.8639H40.1672L44.3848 12.215Z" fill="url(#paint6_linear_24960_190705)"/>
<path d="M36.8297 16.2678H43.9121V18.234H36.8297V16.2678Z" fill="url(#paint7_linear_24960_190705)"/>
<path d="M52.1072 27.8648L49.4907 19.8799L51.1008 27.8648H52.1072Z" fill="url(#paint8_linear_24960_190705)"/>
<path d="M57.6202 12.215L54.8829 20.1598L56.5937 12.215H57.6202Z" fill="url(#paint9_linear_24960_190705)"/>
<path d="M64.05 13.4195L64.1282 12.8563C64.202 12.3248 64.0923 11.784 63.817 11.3227C63.4844 10.7657 62.9372 10.369 62.303 10.2255L60.4584 9.80823H61.0996C61.262 9.80823 61.424 9.82555 61.5827 9.85991L62.8969 10.1442C63.5672 10.2893 64.1568 10.6835 64.5457 11.2467C64.8552 11.6949 65.0209 12.2262 65.0209 12.7704V13.16C65.0209 13.5044 64.9757 13.8473 64.8863 14.1799L61.5736 26.5032C61.3039 27.5065 60.6918 28.3849 59.8428 28.987C59.4112 29.2931 58.9288 29.5204 58.4176 29.6586L58.0593 29.7554C57.2319 29.9791 56.3846 30.1213 55.5294 30.1801L55.0642 30.212L57.8977 29.1973C58.2481 29.0719 58.5807 28.9015 58.887 28.6905C59.7252 28.1131 60.3302 27.2575 60.5938 26.2765L64.05 13.4195Z" fill="#FFF348"/>
<path d="M35.5019 27.8653H34.5157L37.1575 18.2352H38.0581L35.5019 27.8653Z" fill="url(#paint10_linear_24960_190705)"/>
<path d="M42.705 27.8639H41.7188L45.9053 12.215H46.8311L42.705 27.8639Z" fill="#9A9A9A"/>
<path d="M42.705 27.8639H41.7188L45.9053 12.215H46.8311L42.705 27.8639Z" fill="url(#paint11_linear_24960_190705)"/>
<path d="M38.62 16.2676H37.6251L38.7257 12.215H39.6264L38.62 16.2676Z" fill="url(#paint12_linear_24960_190705)"/>
<path d="M70.534 12.2884C70.534 12.2884 68.9818 12.5281 68.5372 12.7025C67.3711 13.1674 66.4965 14.1845 66.0082 15.6447C65.8625 16.0806 63.9821 23.0622 63.7343 24.1011C63.472 25.1908 63.472 26.019 63.7343 26.5638C64.0404 27.1814 64.5433 27.5301 65.447 27.7408C65.8406 27.8352 66.5913 27.8643 69.7544 27.8861C74.6668 27.9296 75.4608 27.8498 76.7 27.2032C77.5676 26.7455 78.3472 25.7212 78.7772 24.4498C78.996 23.8178 80.9708 16.4366 81.1308 15.6665C81.5248 13.7777 81.0076 12.8187 79.3604 12.3828C78.9596 12.2811 78.3616 12.2593 74.8564 12.252C72.6332 12.2448 70.534 12.2884 70.534 12.2884ZM76.0588 16.4802C75.9568 16.9088 74.2656 23.1639 74.1928 23.3818L74.1128 23.6216H71.4233C69.9439 23.6216 68.734 23.6216 68.734 23.6216C68.734 23.578 70.4104 17.3302 70.5997 16.6618L70.7092 16.284H73.4132H76.11L76.0588 16.4802Z" fill="white"/>
<path d="M83.672 12.215C83.4968 12.738 80.4648 24.2747 80.392 24.6888C80.1224 26.1708 80.4432 27.0644 81.3832 27.4712C82.2944 27.8562 82.462 27.8708 87.0612 27.8708C90.9016 27.8708 91.39 27.8562 91.9804 27.74C93.7368 27.384 94.6772 26.5922 95.3768 24.8922C95.5372 24.5072 96.3024 21.8192 97.2572 18.2666C98.1464 14.9829 98.8676 12.2368 98.8676 12.215C98.8676 12.215 97.76 12.215 96.4044 12.215H93.9408L92.4176 17.8452C91.5796 20.9401 90.8432 23.5772 90.8144 23.6208H88.1908H86.8604H85.5304L87.0684 17.9905C87.9064 14.9102 88.5916 12.2658 88.5916 12.215C88.5916 12.215 88.0524 12.215 86.15 12.215C84.2548 12.215 83.672 12.215 83.672 12.215Z" fill="white"/>
<path d="M100.123 12.215C100.109 12.2658 99.8757 13.2102 99.6129 14.2128C99.3505 15.208 99.0521 16.2179 99.0297 16.2833C99.0297 16.2833 99.2049 16.2833 101.472 16.2833H103.884L103.833 16.4431C103.804 16.5375 103.111 19.0948 102.295 22.1315C101.479 25.1682 100.692 27.8417 100.67 27.9071H103.214H105.699C105.721 27.8199 106.464 25.0448 107.295 21.9499L108.822 16.2978H111.223H113.643C113.665 16.2324 114.437 13.2102 114.7 12.215C114.7 12.215 113.242 12.215 107.441 12.215C101.676 12.215 100.123 12.215 100.123 12.215Z" fill="white"/>
</g>
<defs>
<linearGradient id="paint0_linear_24960_190705" x1="46.2482" y1="37.0335" x2="51.1712" y2="8.93608" gradientUnits="userSpaceOnUse">
<stop offset="0.380208" stop-color="#FFA200"/>
<stop offset="1" stop-color="#FDE43B"/>
</linearGradient>
<linearGradient id="paint1_linear_24960_190705" x1="46.2482" y1="37.0334" x2="51.1712" y2="8.93593" gradientUnits="userSpaceOnUse">
<stop offset="0.380208" stop-color="#FFA200"/>
<stop offset="1" stop-color="#FDE43B"/>
</linearGradient>
<linearGradient id="paint2_linear_24960_190705" x1="46.2466" y1="37.033" x2="51.1695" y2="8.93561" gradientUnits="userSpaceOnUse">
<stop offset="0.380208" stop-color="#FFA200"/>
<stop offset="1" stop-color="#FDE43B"/>
</linearGradient>
<linearGradient id="paint3_linear_24960_190705" x1="46.2462" y1="37.0336" x2="51.1691" y2="8.93618" gradientUnits="userSpaceOnUse">
<stop offset="0.380208" stop-color="#FFA200"/>
<stop offset="1" stop-color="#FDE43B"/>
</linearGradient>
<linearGradient id="paint4_linear_24960_190705" x1="46.2488" y1="37.0331" x2="51.1717" y2="8.93571" gradientUnits="userSpaceOnUse">
<stop offset="0.380208" stop-color="#FFA200"/>
<stop offset="1" stop-color="#FDE43B"/>
</linearGradient>
<linearGradient id="paint5_linear_24960_190705" x1="46.252" y1="37.0329" x2="51.1749" y2="8.93542" gradientUnits="userSpaceOnUse">
<stop offset="0.380208" stop-color="#FFA200"/>
<stop offset="1" stop-color="#FDE43B"/>
</linearGradient>
<linearGradient id="paint6_linear_24960_190705" x1="46.2509" y1="37.0326" x2="51.1738" y2="8.93513" gradientUnits="userSpaceOnUse">
<stop offset="0.380208" stop-color="#FFA200"/>
<stop offset="1" stop-color="#FDE43B"/>
</linearGradient>
<linearGradient id="paint7_linear_24960_190705" x1="46.2487" y1="37.0328" x2="51.1716" y2="8.93534" gradientUnits="userSpaceOnUse">
<stop offset="0.380208" stop-color="#FFA200"/>
<stop offset="1" stop-color="#FDE43B"/>
</linearGradient>
<linearGradient id="paint8_linear_24960_190705" x1="50.7989" y1="19.8799" x2="49.1741" y2="27.7999" gradientUnits="userSpaceOnUse">
<stop stop-color="#FFAA06"/>
<stop offset="1" stop-color="#FFF348"/>
</linearGradient>
<linearGradient id="paint9_linear_24960_190705" x1="56.2516" y1="12.215" x2="54.7081" y2="20.1257" gradientUnits="userSpaceOnUse">
<stop stop-color="#FFAA06"/>
<stop offset="1" stop-color="#FFF348"/>
</linearGradient>
<linearGradient id="paint10_linear_24960_190705" x1="36.2869" y1="18.2352" x2="34.5266" y2="27.8673" gradientUnits="userSpaceOnUse">
<stop stop-color="#FFAA06"/>
<stop offset="1" stop-color="#FFF348"/>
</linearGradient>
<linearGradient id="paint11_linear_24960_190705" x1="44.2749" y1="12.215" x2="41.0818" y2="27.7328" gradientUnits="userSpaceOnUse">
<stop stop-color="#FFAA06"/>
<stop offset="1" stop-color="#FFF348"/>
</linearGradient>
<linearGradient id="paint12_linear_24960_190705" x1="38.6257" y1="12.215" x2="38.0659" y2="16.3276" gradientUnits="userSpaceOnUse">
<stop stop-color="#FFAA06"/>
<stop offset="1" stop-color="#FFF348"/>
</linearGradient>
<clipPath id="clip0_24960_190705">
<rect width="82.4" height="32" fill="white" transform="translate(32.3001 4)"/>
</clipPath>
</defs>
</svg>
