<svg width="144" height="48" viewBox="0 0 144 48" fill="none" xmlns="http://www.w3.org/2000/svg">
<path d="M105.038 29.283C104.969 29.317 104.907 29.3652 104.858 29.4245C104.799 29.5002 104.769 29.5947 104.774 29.6907C104.774 29.9228 104.925 30.087 105.145 30.087C105.235 30.087 105.291 30.0587 105.353 29.9964C105.42 29.9228 105.459 29.8379 105.499 29.7473L105.6 29.5208C105.656 29.3792 105.724 29.2547 105.825 29.1584C105.949 29.0395 106.089 28.9885 106.258 28.9885C106.696 28.9885 106.994 29.3113 106.994 29.7246C106.994 29.8775 106.961 30.0757 106.803 30.2342C106.685 30.3475 106.522 30.4211 106.376 30.4494L106.303 30.1946C106.427 30.1776 106.539 30.121 106.606 30.0587C106.652 30.0151 106.687 29.9622 106.711 29.9036C106.734 29.845 106.744 29.782 106.741 29.719C106.741 29.3962 106.511 29.2547 106.275 29.2547C106.162 29.2547 106.072 29.283 105.994 29.3679C105.932 29.4359 105.881 29.5265 105.825 29.651L105.724 29.8549C105.679 29.9455 105.634 30.0644 105.521 30.1663C105.473 30.2194 105.414 30.2614 105.348 30.2898C105.282 30.3181 105.211 30.332 105.139 30.3305C104.768 30.3305 104.521 30.0474 104.521 29.6737C104.521 29.5265 104.549 29.4132 104.633 29.3C104.7 29.2037 104.796 29.1188 104.897 29.0735L105.038 29.283ZM104.819 27.6975H106.955V27.958H104.819V28.5242H104.571V27.1257H104.819V27.6919V27.6975ZM106.033 26.1291C106.235 26.1291 106.455 26.1291 106.612 25.9479C106.7 25.839 106.748 25.7031 106.748 25.5629C106.748 25.4227 106.7 25.2867 106.612 25.1778C106.455 24.991 106.235 24.991 106.033 24.991H104.571V24.7305H106.106C106.303 24.7305 106.5 24.7532 106.68 24.8777C106.876 25.0193 107 25.2628 107 25.5572C107 25.8573 106.876 26.1064 106.68 26.248C106.508 26.355 106.307 26.4045 106.106 26.3896H104.571V26.1291H106.033ZM104.571 23.7339V23.2583C104.571 23.0205 104.594 22.6864 104.852 22.3863C105.027 22.1712 105.33 21.99 105.763 21.99C105.937 21.9826 106.111 22.0162 106.27 22.0879C106.429 22.1596 106.569 22.2676 106.68 22.4033C106.865 22.6185 106.961 22.8393 106.961 23.2527V23.7339H104.571ZM106.708 23.4735V23.247C106.708 23.0601 106.685 22.7997 106.494 22.5675C106.403 22.4638 106.29 22.3819 106.164 22.328C106.037 22.2741 105.9 22.2495 105.763 22.2561C105.19 22.2561 104.813 22.6524 104.813 23.2413V23.4678H106.702L106.708 23.4735ZM104.571 20.8632H106.955V21.1236H104.571V20.8632ZM105.769 20.0025C105.607 20.0063 105.447 19.9774 105.297 19.9175C105.147 19.8576 105.01 19.7679 104.896 19.6538C104.781 19.5397 104.69 19.4035 104.628 19.2533C104.567 19.1031 104.536 18.9419 104.537 18.7794C104.537 18.1 105.06 17.5564 105.774 17.5564C106.477 17.5564 107 18.0943 107 18.7794C107 19.4589 106.472 20.0025 105.769 20.0025ZM105.769 19.7364C106.32 19.7364 106.758 19.3117 106.758 18.7851C106.758 18.2585 106.32 17.8338 105.769 17.8338C105.223 17.8338 104.785 18.2585 104.785 18.7851C104.785 19.3117 105.223 19.7364 105.769 19.7364Z" fill="#9C9C9C"/>
<path d="M43.5727 17.9357V30.0813H40.7108V17.9357H43.5671H43.5727ZM39.8618 17.9187V30.0813H37V17.9187H39.8562H39.8618ZM66.8104 17.913V25.2513C66.8104 25.2513 62.0763 20.025 61.4297 19.4362C60.1151 18.2535 58.4014 17.6215 56.6393 17.6695C54.1767 17.6695 52.6305 18.6321 51.7928 19.4588C50.5901 20.6878 49.9053 22.337 49.8811 24.0623C49.8811 25.8459 50.6289 27.4823 51.8153 28.5751C53.1338 29.7717 54.8595 30.4105 56.6337 30.3587C58.7084 30.3587 60.2602 29.6736 61.4128 28.5751C62.2703 27.7637 62.8758 26.7193 63.1558 25.5684L67.1703 30.0813H69.5936V17.9074H66.816L66.8104 17.913ZM59.3325 26.7348C58.9669 27.0814 58.5366 27.3514 58.0665 27.5293C57.5965 27.7072 57.0961 27.7893 56.5944 27.771C55.6329 27.771 54.7389 27.5162 53.9405 26.7688C53.5707 26.421 53.279 25.9975 53.085 25.5268C52.8911 25.056 52.7994 24.549 52.8161 24.0396C52.8161 22.692 53.3671 21.8087 53.9124 21.2934C54.6462 20.6076 55.616 20.2361 56.6169 20.2572C57.747 20.2572 58.7365 20.7102 59.3438 21.2934C59.6938 21.6537 59.9691 22.0806 60.1535 22.5492C60.3379 23.0178 60.4277 23.5187 60.4177 24.0226C60.4345 24.5259 60.3466 25.0272 60.1598 25.4942C59.9729 25.9613 59.6911 26.3839 59.3325 26.7348Z" fill="#C0C0C0"/>
<path d="M40.7163 20.0706H43.5669V22.2505H40.7163V20.0706Z" fill="url(#paint0_linear_2588_182079)"/>
<path d="M47.0081 25.1042C47.6494 24.9467 48.2411 24.6294 48.7286 24.1813C49.0519 23.8607 49.3046 23.4753 49.4702 23.0499C49.6359 22.6246 49.7108 22.1689 49.6901 21.7125C49.6901 20.3649 49.1391 19.4759 48.6162 18.9833C48.0202 18.4397 47.0419 17.9075 45.462 17.9075H40.6885V20.0591H44.658C45.029 20.0591 45.7656 20.0648 46.2322 20.4159C46.4201 20.5708 46.5697 20.7675 46.6692 20.9906C46.7687 21.2136 46.8154 21.4569 46.8057 21.7012C46.8057 22.3014 46.5471 22.6525 46.3391 22.8506C45.8555 23.3263 45.1527 23.3489 44.6355 23.3489H43.9776V25.3137L47.323 30.0644H50.8089L47.0081 25.1042Z" fill="#C0C0C0"/>
<path d="M44.062 25.3931C44.062 25.3931 45.3664 25.6196 47.0532 25.1553L50.8427 30.1381H47.3624C47.3624 30.1268 44.062 25.3931 44.062 25.3931Z" fill="url(#paint1_linear_2588_182079)"/>
<path d="M96.7333 23.3999V25.6931H99.8032C99.6588 26.2581 99.3446 26.7644 98.9036 27.1427C98.6225 27.3862 97.9703 27.8052 96.7333 27.8052C96.2688 27.8258 95.805 27.7511 95.3701 27.5856C94.9351 27.4202 94.5381 27.1674 94.2032 26.8426C93.4339 26.0651 92.9399 25.0543 92.7976 23.9661C92.9438 23.0942 93.2699 21.9843 94.2032 21.084C94.5386 20.7603 94.9358 20.5085 95.3707 20.344C95.8057 20.1795 96.2692 20.1057 96.7333 20.1271C97.9703 20.1271 98.6225 20.5518 98.9092 20.7953C98.9936 20.8519 99.4546 21.2539 99.7189 21.99L102.153 20.8292C101.877 20.2371 101.506 19.694 101.057 19.2212C99.6626 17.8056 98.0771 17.5508 96.5984 17.5508C95.1028 17.5508 93.4892 17.7886 92.0273 19.2608C91.8305 19.459 91.6113 19.7024 91.3864 20.0139L91.3807 20.0082V20.0195L91.3695 20.0422C91.1985 19.7856 91.0006 19.5483 90.7791 19.3344C89.5309 18.1397 87.906 17.5508 85.9494 17.5508C83.4586 17.5508 81.9068 18.5247 81.0578 19.357C80.8554 19.5609 80.6643 19.8157 80.49 20.1271L80.4619 20.0818C80.2988 19.8893 80.1245 19.7081 79.939 19.5326C78.404 18.0774 76.6611 17.8509 75.0137 17.8509H71.0386V30.1041H75.1093C76.1607 30.1041 78.3141 29.9738 80.0346 28.2582C80.1695 28.1279 80.2988 27.9864 80.4281 27.8391C80.6249 28.0996 80.8386 28.3487 81.0635 28.5752C81.9068 29.4076 83.4586 30.3815 85.955 30.3815C87.9004 30.3815 89.5309 29.7926 90.7904 28.5922C90.9984 28.394 91.1952 28.1562 91.3751 27.8901L91.3864 27.9128V27.9241L91.392 27.9184C91.6169 28.2185 91.8305 28.4733 92.0329 28.6715C93.4948 30.1437 95.1028 30.3815 96.604 30.3815C98.0884 30.3815 99.657 30.121 101.046 28.7111C102.429 27.2956 102.952 25.0307 102.952 23.5415V23.4112L96.7333 23.3999ZM78.7639 24.7872C78.6514 25.1099 78.3084 26.2537 77.5607 26.8652C76.6273 27.641 75.3117 27.6806 74.7101 27.6806H73.9229V20.2121H74.7101C75.5928 20.2121 76.8072 20.3479 77.7462 21.2652C78.2354 21.7465 78.6739 22.6242 78.8707 23.9095L78.9269 24.2889C78.8707 24.4984 78.8145 24.6683 78.7639 24.7985V24.7872ZM89.2835 25.9196C89.1261 26.2129 88.9251 26.4802 88.6876 26.7124C87.932 27.3976 86.9493 27.7733 85.9325 27.7655C85.3305 27.7786 84.7338 27.6497 84.1901 27.3891C83.6463 27.1286 83.1706 26.7437 82.8008 26.265H82.8121C82.8121 26.265 82.2273 25.4497 81.8562 23.9661C82.2273 22.4826 82.8121 21.6673 82.8121 21.6673H82.8008C82.9301 21.4917 83.0651 21.3445 83.1944 21.2143C83.9364 20.5187 84.9191 20.1428 85.9325 20.1668C87.0739 20.1668 88.0691 20.6311 88.6876 21.2199C89.389 21.988 89.8556 22.9434 90.0313 23.9718L89.9357 24.3682C89.802 24.9197 89.5838 25.4469 89.2892 25.931L89.2835 25.9196Z" fill="#C0C0C0"/>
<path d="M63.156 25.6083L59.6025 21.571C59.6025 21.571 61.3062 23.7907 59.7543 26.2424L61.1319 28.8018C61.1319 28.8018 62.6949 27.6523 63.156 25.6026V25.6083Z" fill="url(#paint2_linear_2588_182079)"/>
<path d="M92.719 23.5358L92.7865 23.9605C92.9308 22.8684 93.4265 21.8541 94.1977 21.0727C94.5336 20.75 94.931 20.4992 95.3659 20.3357C95.8008 20.1722 96.2642 20.0993 96.7279 20.1215C97.9648 20.1215 98.617 20.5461 98.8981 20.7839C98.9825 20.8519 99.4491 21.2483 99.7134 21.9843L102.142 20.8236C101.865 20.2314 101.495 19.6884 101.046 19.2155C99.6628 17.8112 98.0773 17.5508 96.5985 17.5508C95.103 17.5508 93.4893 17.7886 92.0275 19.2608C91.8307 19.459 91.6114 19.7024 91.3865 20.0139L91.3809 20.0082V20.0195L91.3696 20.0422C92.0502 21.1025 92.5093 22.2911 92.719 23.5358Z" fill="url(#paint3_linear_2588_182079)"/>
<path d="M90.2899 25.2232L90.0312 23.9605C89.8555 24.9889 89.3889 25.9444 88.6875 26.7124C87.9319 27.3976 86.9492 27.7733 85.9324 27.7656C85.3323 27.7768 84.7378 27.6471 84.1962 27.3866C83.6545 27.1262 83.1806 26.7422 82.812 26.2651C82.812 26.2651 82.2328 25.4497 81.8561 23.9662C81.7437 23.4792 81.6875 22.6639 81.5075 22.0127L79.0674 24.8042C79.5003 26.2481 80.2087 27.7316 81.069 28.5753C81.9124 29.4076 83.4698 30.3815 85.9606 30.3815C87.9059 30.3815 89.5365 29.7927 90.7959 28.5923C91.0039 28.3941 91.2007 28.1563 91.3806 27.8901C90.844 27.0854 90.4731 26.1805 90.2899 25.2289V25.2232Z" fill="url(#paint4_linear_2588_182079)"/>
<path d="M96.7331 23.3999V25.6931H99.803C99.6586 26.2581 99.3444 26.7644 98.9034 27.1427C98.6223 27.3862 97.9701 27.8052 96.7331 27.8052C96.2686 27.8258 95.8048 27.7511 95.3699 27.5856C94.9349 27.4202 94.5379 27.1674 94.203 26.8426C93.1066 25.7951 92.8424 24.4531 92.7299 23.5415C92.5725 22.4713 91.8865 20.3706 90.7958 19.3344C89.5307 18.1397 87.9058 17.5508 85.9492 17.5508C83.4584 17.5508 81.9066 18.5247 81.0576 19.357C80.8496 19.5666 80.6641 19.8383 80.4785 20.1158C80.4785 20.1158 80.8271 20.6254 81.1307 21.4181C81.4849 22.3241 81.7829 23.683 81.856 23.9661C82.2271 22.4826 82.8118 21.6673 82.8118 21.6673H82.8006C82.9299 21.4917 83.0649 21.3445 83.1942 21.2143C83.9362 20.5187 84.9189 20.1428 85.9323 20.1668C87.0737 20.1668 88.0689 20.6311 88.6873 21.2199C89.2938 21.8875 89.7248 22.6973 89.9412 23.5754C90.0705 24.1304 90.1661 24.6796 90.2841 25.2345C90.4405 26.2002 90.8157 27.1166 91.3805 27.9128V27.9241L91.3861 27.9184C91.611 28.2185 91.8247 28.4733 92.0271 28.6715C93.4889 30.1437 95.097 30.3815 96.5982 30.3815C98.0825 30.3815 99.6512 30.121 101.04 28.7111C102.423 27.2956 102.946 25.0307 102.946 23.5415V23.4112L96.7331 23.3999Z" fill="url(#paint5_linear_2588_182079)"/>
<path d="M78.7639 24.7927C78.6515 25.1098 78.3085 26.2536 77.5607 26.8651C76.6218 27.6408 75.3117 27.6805 74.7101 27.6805H74.637C74.3767 28.4609 74.2308 29.2754 74.2041 30.0983H75.1149C76.1664 30.0983 78.3198 29.968 80.0402 28.2524C80.1752 28.1221 80.3045 27.9806 80.4338 27.8334C79.663 26.7796 79.1506 25.5573 78.9382 24.2661C78.8764 24.4926 78.8145 24.6625 78.7696 24.787L78.7639 24.7927Z" fill="url(#paint6_linear_2588_182079)"/>
<path d="M96.7335 23.3999V25.6931H99.8033C99.6589 26.2581 99.3447 26.7644 98.9037 27.1427C98.6226 27.3861 97.9704 27.8052 96.7335 27.8052C96.269 27.8258 95.8052 27.7511 95.3702 27.5856C94.9353 27.4202 94.5383 27.1674 94.2033 26.8426C93.434 26.0651 92.9401 25.0543 92.7977 23.9661L92.7303 24.3908C92.5193 25.6352 92.0603 26.8236 91.3809 27.8844L91.3921 27.9071V27.9184L91.3977 27.9127C91.6226 28.2128 91.8363 28.4676 92.0387 28.6658C93.5005 30.138 95.1086 30.3758 96.6098 30.3758C98.0941 30.3758 99.6628 30.1154 101.052 28.6998C102.435 27.2899 102.958 25.0193 102.958 23.5358V23.3999H96.7335Z" fill="#C0C0C0"/>
<defs>
<linearGradient id="paint0_linear_2588_182079" x1="42.1447" y1="22.1511" x2="42.1447" y2="19.1094" gradientUnits="userSpaceOnUse">
<stop stop-opacity="0"/>
<stop offset="1" stop-opacity="0.5"/>
</linearGradient>
<linearGradient id="paint1_linear_2588_182079" x1="47.3968" y1="27.7015" x2="45.3921" y2="24.94" gradientUnits="userSpaceOnUse">
<stop stop-opacity="0"/>
<stop offset="1" stop-opacity="0.5"/>
</linearGradient>
<linearGradient id="paint2_linear_2588_182079" x1="60.998" y1="25.7359" x2="63.0894" y2="23.7112" gradientUnits="userSpaceOnUse">
<stop stop-opacity="0"/>
<stop offset="1" stop-opacity="0.5"/>
</linearGradient>
<linearGradient id="paint3_linear_2588_182079" x1="96.7678" y1="20.5967" x2="91.0633" y2="25.327" gradientUnits="userSpaceOnUse">
<stop stop-opacity="0"/>
<stop offset="1" stop-opacity="0.5"/>
</linearGradient>
<linearGradient id="paint4_linear_2588_182079" x1="85.5959" y1="26.0323" x2="89.0754" y2="22.6644" gradientUnits="userSpaceOnUse">
<stop stop-opacity="0"/>
<stop offset="1" stop-opacity="0.5"/>
</linearGradient>
<linearGradient id="paint5_linear_2588_182079" x1="86.01" y1="23.9636" x2="75.7648" y2="23.9636" gradientUnits="userSpaceOnUse">
<stop stop-opacity="0"/>
<stop offset="1" stop-opacity="0.5"/>
</linearGradient>
<linearGradient id="paint6_linear_2588_182079" x1="76.4885" y1="28.3918" x2="81.1723" y2="24.8818" gradientUnits="userSpaceOnUse">
<stop stop-opacity="0"/>
<stop offset="1" stop-opacity="0.5"/>
</linearGradient>
</defs>
</svg>
