<svg width="86" height="32" viewBox="0 0 86 32" fill="none" xmlns="http://www.w3.org/2000/svg">
<g clip-path="url(#clip0_17706_134949)">
<path d="M17.3151 19.9815C17.8836 19.972 18.4524 19.977 19.0209 19.9785C19.1328 19.9795 19.2514 19.9675 19.3543 20.0221C19.5207 20.1002 19.6416 20.2932 19.5997 20.4826C19.3906 21.4543 19.1766 22.4253 18.9644 23.3965C18.8925 23.7266 18.5667 23.9609 18.2416 23.9554C17.6407 23.9539 17.0395 23.9562 16.4386 23.9542C16.2203 23.9547 15.9844 23.7841 15.9997 23.5421V23.4896C16.0102 23.3248 16.0531 23.1655 16.0877 23.0049C16.2656 22.1985 16.4427 21.3921 16.6189 20.5855C16.6694 20.2479 16.984 19.9832 17.3151 19.9815ZM65.3352 12.0689C65.572 12.0284 65.8131 12.0431 66.0521 12.0413C67.2705 12.0411 68.4889 12.0423 69.7073 12.0403C69.825 12.0388 69.9415 12.1143 69.9866 12.226C70.0044 12.2977 69.9949 12.3732 69.9844 12.4454C69.4629 14.826 68.9302 17.2045 68.4014 19.5834C68.3527 19.7858 68.1631 19.9578 67.9533 19.9449C67.7174 19.9451 67.4815 19.9469 67.2459 19.9441C67.0895 19.9444 66.9684 19.7726 66.9971 19.6205C67.1657 18.8661 67.3249 18.1093 67.5018 17.3567C67.5276 17.2327 67.5481 17.0863 67.4691 16.9775C67.4089 16.8884 67.2976 16.8585 67.1972 16.8597C66.6852 16.8572 66.1732 16.8667 65.6612 16.8567C65.4624 16.8535 65.3442 16.6078 65.4193 16.432C65.6049 15.9792 65.9483 15.5933 66.3779 15.3714C66.7797 15.1573 67.2413 15.127 67.6858 15.1227C67.8629 15.127 68.0286 14.9875 68.0657 14.8115C68.1653 14.3392 68.2879 13.8714 68.3666 13.3944C68.4046 13.2202 68.2384 13.0601 68.0734 13.0665C67.4158 13.0633 66.7578 13.0663 66.1001 13.0653C65.9286 13.0588 65.7602 13.1569 65.6754 13.3085C65.6325 13.3807 65.621 13.4659 65.6032 13.5468C65.1717 15.5233 64.725 17.4966 64.2891 19.4721C64.2683 19.6304 64.1955 19.7868 64.06 19.8744C63.9664 19.9436 63.848 19.9511 63.7371 19.9456C63.3392 19.9441 62.9415 19.9454 62.5438 19.9446C62.3986 19.9528 62.2711 19.8129 62.2733 19.668C62.2772 19.6103 62.2931 19.5545 62.3055 19.4985C62.6688 17.8339 63.0475 16.1728 63.4142 14.509C63.5276 14.0395 63.5838 13.5423 63.8304 13.1193C64.1312 12.5512 64.7099 12.1541 65.3352 12.0689ZM58.7053 13.0865C58.5413 13.1248 58.3995 13.2572 58.3551 13.4241C58.024 14.9544 57.6804 16.4821 57.3424 18.0109C57.2898 18.2367 57.2213 18.4626 57.2215 18.6966C57.2323 18.8365 57.3704 18.9338 57.5003 18.9383C58.1332 18.9418 58.766 18.9373 59.3988 18.9406C59.4795 18.9401 59.5633 18.9488 59.6416 18.9211C59.7948 18.8721 59.9218 18.7369 59.9525 18.5743C60.0468 18.126 60.154 17.6806 60.2434 17.2312C60.2715 17.0781 60.1774 16.8811 60.0098 16.8754C59.4649 16.8625 58.9198 16.8752 58.3751 16.8714C58.2143 16.8754 58.0525 16.7283 58.0725 16.5577C58.1117 16.2931 58.2699 16.0685 58.4351 15.8689C58.8101 15.4041 59.4027 15.1643 59.9832 15.1461C60.1891 15.1414 60.4101 15.1685 60.5995 15.0665C60.6891 15.0184 60.7564 14.9295 60.7754 14.8272C60.8704 14.4172 60.963 14.0061 61.0534 13.5948C61.0751 13.4694 61.1229 13.323 61.0432 13.2084C60.9616 13.0837 60.8005 13.0655 60.666 13.07C60.0127 13.084 59.3577 13.0511 58.7053 13.0865ZM58.0583 12.0874C58.382 12.0406 58.7097 12.057 59.0355 12.0453C60.1718 12.0441 61.3078 12.0463 62.4439 12.0441C62.5855 12.0485 62.72 12.176 62.719 12.3241C62.7134 12.3916 62.6917 12.4561 62.6776 12.5218C62.5428 13.0927 62.4283 13.668 62.2991 14.2402C62.2314 14.5337 62.1495 14.8262 62.0182 15.0971C61.8403 15.4922 61.4877 15.7795 61.1041 15.9508C61.4129 16.1738 61.5891 16.5505 61.6188 16.9302C61.6444 17.1739 61.5913 17.4157 61.5476 17.6539C61.4555 18.124 61.3339 18.5955 61.101 19.015C60.7795 19.5909 60.1384 19.9409 59.4973 19.9608C58.092 19.9611 56.6867 19.9608 55.2813 19.9611C55.148 19.9603 55.0247 19.851 55.0052 19.7168C54.9967 19.6227 55.0325 19.5331 55.0511 19.4427C55.4178 17.758 55.8031 16.0777 56.1698 14.393C56.2461 14.0885 56.2868 13.7743 56.3908 13.4773C56.5322 13.0969 56.7683 12.7489 57.0856 12.4997C57.3653 12.2751 57.707 12.1379 58.0583 12.0874ZM50.7842 12.0677C51.0225 12.0306 51.264 12.0411 51.5045 12.0388C52.7141 12.0363 53.9238 12.0383 55.1334 12.0388C55.2545 12.0376 55.382 12.1048 55.4327 12.2211C55.4619 12.285 55.4487 12.3577 55.44 12.425C54.936 14.7338 54.4221 17.0407 53.9099 19.3479C53.8738 19.5343 53.8414 19.7522 53.6721 19.8645C53.5568 19.9638 53.3982 19.9494 53.2578 19.9481C53.0553 19.9404 52.8521 19.9606 52.6503 19.9384C52.516 19.9078 52.4337 19.7509 52.4588 19.6175C52.8891 17.634 53.3441 15.656 53.7747 13.6725C53.8007 13.5488 53.8361 13.4236 53.8263 13.2958C53.8197 13.2256 53.7898 13.1507 53.7271 13.1151C53.5249 12.9926 53.2181 13.1109 53.1654 13.3506C52.9259 14.4005 52.7017 15.4538 52.4636 16.504C52.4076 16.7343 52.1634 16.8675 51.9429 16.8585C51.7314 16.8448 51.5191 16.865 51.3081 16.8445C51.1538 16.8289 51.0337 16.6568 51.0764 16.5025C51.2979 15.472 51.523 14.4423 51.7577 13.4148C51.7847 13.3065 51.7535 13.1736 51.6561 13.1126C51.4738 13.0148 51.2145 13.077 51.1114 13.2645C51.0481 13.374 51.0264 13.501 50.9994 13.6232C50.5663 15.6087 50.1192 17.5909 49.6832 19.5757C49.6408 19.7836 49.4468 19.9516 49.2373 19.9491C48.8065 19.9439 48.3754 19.9494 47.9445 19.9471C47.7913 19.9406 47.6626 19.7731 47.7011 19.6195C48.1293 17.646 48.5811 15.6777 49.0109 13.7046C49.1318 13.2085 49.4152 12.7484 49.8233 12.4479C50.1038 12.2372 50.4411 12.1163 50.7842 12.0677ZM43.4915 12.055C43.79 12.0286 44.0905 12.0478 44.3897 12.0423C45.5177 12.0428 46.6457 12.0426 47.7735 12.0418C47.887 12.0458 47.9974 12.1215 48.0389 12.2303C48.0669 12.3717 48.0191 12.5128 47.9896 12.6495C47.4903 14.9372 46.9762 17.2215 46.4705 19.5077C46.4459 19.7168 46.2848 19.9182 46.0733 19.9397C45.8206 19.9526 45.5674 19.9426 45.3147 19.9444C45.1427 19.9568 45.0077 19.7621 45.053 19.5983C45.2 18.9411 45.3423 18.2831 45.489 17.6258C45.5297 17.4555 45.5877 17.2842 45.5723 17.1065C45.5594 16.9673 45.4268 16.86 45.293 16.8605C44.764 16.8545 44.2347 16.868 43.7057 16.8553C43.5222 16.846 43.4011 16.625 43.4662 16.4554C43.685 15.8796 44.1726 15.4155 44.7535 15.2407C45.0764 15.1357 45.4188 15.1319 45.7546 15.123C45.9252 15.119 46.0814 14.9831 46.1172 14.8135C46.2181 14.3395 46.3401 13.8699 46.4198 13.3917C46.4539 13.2251 46.3016 13.069 46.1435 13.0668C45.4775 13.0613 44.8118 13.0653 44.146 13.0648C43.9369 13.0576 43.7323 13.2107 43.6825 13.4191C43.2334 15.4703 42.7714 17.5185 42.3191 19.5689C42.2758 19.7736 42.0889 19.9504 41.8783 19.9451C41.4555 19.9444 41.033 19.9459 40.6104 19.9446C40.4345 19.9638 40.2815 19.7684 40.3346 19.5973C40.7391 17.7528 41.1582 15.9114 41.5645 14.0674C41.6198 13.801 41.6797 13.5331 41.7974 13.2871C41.9534 12.9478 42.1878 12.6418 42.4904 12.4272C42.7841 12.2146 43.1357 12.0971 43.4915 12.055ZM37.4745 12.0575C37.5522 12.0396 37.6331 12.0453 37.7123 12.0408C38.0934 12.0373 38.4748 12.0428 38.8559 12.0393C39.0221 12.0321 39.1842 12.2056 39.1359 12.3772C38.7563 14.1448 38.3544 15.9075 37.9679 17.6736C37.9358 17.7953 37.908 17.9278 37.9567 18.0495C37.987 18.1429 38.0752 18.2153 38.1739 18.2106C38.7017 18.2171 39.23 18.2081 39.7578 18.2148C39.9457 18.2101 40.1177 18.4125 40.0558 18.6017C39.9133 18.9824 39.6559 19.317 39.3316 19.554C38.9761 19.8142 38.536 19.9339 38.1025 19.9466C37.347 19.9526 36.5916 19.9531 35.8362 19.9511C35.6676 19.9618 35.5131 19.7846 35.5533 19.6145C36.0845 17.2098 36.6313 14.8083 37.1526 12.4011C37.1935 12.2405 37.3229 12.1113 37.4745 12.0575ZM31.2669 12.068C31.4641 12.0333 31.6649 12.0433 31.8639 12.0421C33.1231 12.0431 34.3822 12.0423 35.641 12.0421C35.7668 12.0455 35.8998 12.1397 35.9144 12.2736C35.9274 12.3787 35.8964 12.4817 35.8737 12.5828C35.3786 14.8449 34.8729 17.1042 34.3712 19.3646C34.3393 19.5152 34.3181 19.682 34.2094 19.7985C34.1204 19.8961 33.9915 19.9506 33.8612 19.9471C33.6258 19.9441 33.3899 19.9519 33.1547 19.9434C32.9907 19.9312 32.8801 19.7489 32.9232 19.5909C33.0972 18.8213 33.2598 18.0488 33.4389 17.2805C33.4861 17.1082 33.3896 16.8742 33.1959 16.8647C32.6542 16.849 32.1123 16.8712 31.5706 16.855C31.39 16.8428 31.2723 16.6252 31.3347 16.4574C31.4731 16.0899 31.7224 15.7685 32.034 15.538C32.3062 15.3348 32.6311 15.2111 32.9642 15.1638C33.181 15.1327 33.4004 15.1297 33.6189 15.1232C33.7924 15.1215 33.9521 14.9833 33.9874 14.8108C34.0827 14.3816 34.1809 13.9531 34.2696 13.5224C34.2866 13.4208 34.3122 13.306 34.2576 13.2114C34.1931 13.0982 34.0564 13.0571 33.935 13.0638C33.2771 13.0665 32.6194 13.0603 31.9617 13.0673C31.7633 13.0832 31.5835 13.2431 31.5462 13.4437C31.1002 15.4855 30.6394 17.524 30.1896 19.565C30.1474 19.7731 29.9569 19.9524 29.7434 19.9451C29.3123 19.9441 28.881 19.9466 28.4497 19.9441C28.295 19.9444 28.1658 19.7753 28.1995 19.622C28.6042 17.761 29.0319 15.9055 29.4374 14.0447C29.4936 13.7873 29.5551 13.5284 29.6645 13.2881C29.7936 13.0143 29.9664 12.7581 30.1947 12.5604C30.4952 12.294 30.8729 12.1222 31.2669 12.068ZM26.0965 12.062C26.1574 12.046 26.2203 12.0403 26.2829 12.0411C26.9001 12.0458 27.5171 12.0381 28.1341 12.045C28.3637 12.0426 28.5681 12.2631 28.5528 12.4972C28.545 12.5696 28.5253 12.6401 28.5106 12.7113C28.3347 13.5271 28.1532 14.342 27.9748 15.1573C27.871 15.6356 27.601 16.0688 27.2393 16.3877C26.7118 16.8383 26.0799 17.1448 25.4254 17.3494C24.8956 17.518 24.3512 17.6315 23.8076 17.7411C23.7559 17.7538 23.7001 17.7687 23.6631 17.8103C23.6382 17.8591 23.6774 17.9158 23.7271 17.9238C23.8773 17.9636 24.0332 17.9704 24.1858 17.9948C24.6717 18.0739 25.1505 18.2228 25.5818 18.4678C25.8238 18.608 26.0587 18.7698 26.242 18.9861C26.5887 19.3875 26.781 19.9404 26.7045 20.4757C26.5563 21.4546 26.3012 22.4121 26.1045 23.3813C26.0555 23.6216 25.8745 23.8232 25.6522 23.9104C25.5126 23.9704 25.3588 23.9532 25.2114 23.9549C24.6509 23.9542 24.0902 23.9567 23.5295 23.9534C23.2815 23.9616 23.0604 23.7017 23.1157 23.4515C23.2471 22.8187 23.395 22.1893 23.5281 21.5569C23.5987 21.2056 23.6567 20.8449 23.6202 20.4856C23.5644 20.1665 23.473 19.8269 23.2295 19.6018C22.9342 19.3491 22.5935 19.143 22.219 19.0411C21.8747 18.9398 21.5089 18.9127 21.1802 18.7591C21.0435 18.6921 20.9053 18.6122 20.8142 18.4845C20.6163 18.2116 20.6039 17.8165 20.7732 17.526C20.8592 17.3721 21.0106 17.2728 21.1634 17.1988C21.4465 17.0656 21.7597 17.0283 22.0643 16.9763C22.6642 16.8809 23.2819 16.8002 23.8314 16.5187C24.2009 16.3416 24.562 16.1054 24.7889 15.7501C24.8647 15.6301 24.9229 15.4979 24.956 15.359C25.1644 14.4388 25.3601 13.5159 25.566 12.5953C25.6242 12.3328 25.8445 12.1262 26.0965 12.062ZM18.9578 12.0637C19.0665 12.0358 19.1793 12.0426 19.2902 12.0418C19.866 12.046 20.4418 12.0376 21.0179 12.0458C21.2611 12.0445 21.4675 12.3035 21.4146 12.5467C21.2043 13.5192 20.9884 14.4904 20.7776 15.4626C20.7013 15.7837 20.3858 16.0128 20.0673 16.0135C19.4751 16.0153 18.8832 16.0128 18.2911 16.0148C18.1273 16.0158 17.9507 15.9473 17.8634 15.7984C17.7942 15.6906 17.7966 15.5537 17.8232 15.4322C18.0228 14.5252 18.2209 13.618 18.4193 12.7108C18.4385 12.6241 18.4529 12.5353 18.4919 12.4548C18.5828 12.2641 18.7594 12.1217 18.9578 12.0637Z" fill="#661054"/>
<path d="M57.1084 21.1845C57.7315 21.1785 58.3548 21.1837 58.9779 21.1813C58.9523 21.3306 58.9189 21.4785 58.8912 21.6274C58.4362 21.6247 57.9813 21.6276 57.5263 21.6257C57.4798 21.8597 57.4342 22.094 57.3881 22.328C57.8216 22.3277 58.2552 22.328 58.6887 22.328C58.6582 22.4803 58.6295 22.6332 58.6014 22.7861C58.1652 22.7853 57.7288 22.7836 57.2926 22.7873C57.2466 23.0325 57.1968 23.277 57.1501 23.522C57.6157 23.5223 58.0817 23.5215 58.5473 23.5225C58.5174 23.6706 58.4888 23.819 58.4608 23.9674C57.8297 23.9726 57.1986 23.9696 56.5677 23.9689C56.746 23.0403 56.9339 22.1139 57.1084 21.1845ZM46.5138 23.9691C46.6941 23.0395 46.8764 22.1101 47.0582 21.1808C47.2332 21.1837 47.4081 21.1805 47.5831 21.182C47.7532 21.8876 47.9255 22.5929 48.0936 23.2989C48.5305 22.5921 48.9745 21.8901 49.4102 21.1825C49.5803 21.182 49.7504 21.1813 49.9205 21.1823C49.7351 22.1106 49.5562 23.0405 49.3742 23.9696C49.218 23.9699 49.062 23.9699 48.9063 23.9696C49.0328 23.3223 49.1605 22.675 49.2855 22.0272C48.9107 22.6748 48.542 23.3258 48.1635 23.9709C48.0207 23.9699 47.8782 23.9699 47.7356 23.9694C47.6104 23.3226 47.4842 22.676 47.3601 22.029C47.2327 22.6753 47.1069 23.3223 46.9805 23.9689C46.825 23.9709 46.6693 23.9691 46.5138 23.9691ZM36.6459 23.9714C37.211 23.0405 37.7805 22.1124 38.3466 21.182C38.5286 21.182 38.7106 21.1825 38.8929 21.1808C39.1047 22.1106 39.3174 23.04 39.5292 23.9699C39.3542 23.9696 39.1795 23.9699 39.0047 23.9696C38.9514 23.7167 38.8963 23.464 38.8437 23.211C38.5418 23.2081 38.2396 23.2113 37.9377 23.2093C38.022 23.0609 38.1109 22.9153 38.1918 22.7649C38.377 22.7584 38.5625 22.7649 38.7479 22.7604C38.6716 22.4174 38.6051 22.0718 38.5215 21.7305C38.3819 21.9351 38.2642 22.1554 38.1341 22.3668C37.8178 22.9003 37.501 23.4336 37.1864 23.9681C37.0063 23.9729 36.826 23.9676 36.6459 23.9714ZM66.3162 21.3316C66.8508 21.0864 67.4688 21.1232 68.02 21.2906C67.9922 21.4476 67.9615 21.6042 67.9313 21.7608C67.5241 21.6135 67.0716 21.552 66.6498 21.6685C66.4758 21.7275 66.3206 21.8861 66.3193 22.0825C66.3018 22.1811 66.3588 22.2966 66.4619 22.3128C66.7519 22.3549 67.0494 22.2949 67.3372 22.3621C67.4783 22.3945 67.6243 22.4587 67.7035 22.5894C67.7856 22.7104 67.7956 22.8642 67.7775 23.0062C67.7534 23.2449 67.6611 23.4829 67.4907 23.652C67.3033 23.8414 67.0428 23.9355 66.7855 23.9681C66.3759 24.0301 65.9563 23.9746 65.5605 23.8591C65.5873 23.702 65.6161 23.5454 65.649 23.3896C65.9487 23.4991 66.2691 23.5489 66.5874 23.5362C66.7336 23.5287 66.8888 23.5235 67.018 23.4433C67.1649 23.3614 67.268 23.1993 67.2678 23.0266C67.2646 22.9349 67.2044 22.8413 67.1128 22.8237C66.8123 22.7552 66.4997 22.8423 66.2002 22.7654C66.0298 22.7288 65.8675 22.6083 65.8215 22.4306C65.7272 22.0086 65.9302 21.5241 66.3162 21.3316ZM29.0737 21.1947C29.4765 21.1252 29.8986 21.1499 30.2838 21.2938C30.2507 21.4484 30.221 21.604 30.1917 21.7598C29.8455 21.6154 29.4558 21.5592 29.0891 21.6498C28.8929 21.6986 28.6982 21.7877 28.5634 21.9466C28.3388 22.2065 28.2584 22.5655 28.2625 22.9051C28.2664 23.1055 28.3463 23.3221 28.5249 23.4244C28.7718 23.5713 29.0732 23.5486 29.3442 23.5021C29.3995 23.2277 29.4519 22.9529 29.5067 22.6785C29.6749 22.678 29.843 22.6785 30.0112 22.679C29.9337 23.0689 29.862 23.4598 29.7792 23.8481C29.3045 24.011 28.7772 24.0563 28.2969 23.891C27.9318 23.7794 27.7037 23.3833 27.7266 23.0042C27.7245 22.5498 27.8426 22.0815 28.1217 21.7208C28.3539 21.4237 28.7119 21.2545 29.0737 21.1947ZM18.5008 16.8749C18.85 16.8102 19.2195 16.9412 19.4731 17.1901C19.6783 17.3858 19.7962 17.6659 19.8143 17.9502C19.8328 18.3008 19.6829 18.6535 19.4273 18.8868C19.2626 19.0394 19.0491 19.1308 18.8303 19.1639C18.396 19.2224 17.9379 18.9944 17.7196 18.6057C17.5695 18.3613 17.5402 18.0573 17.5865 17.7772C17.6721 17.3223 18.0554 16.9516 18.5008 16.8749Z" fill="#FE7A1C"/>
</g>
<defs>
<clipPath id="clip0_17706_134949">
<rect width="54" height="12" fill="white" transform="translate(16 12)"/>
</clipPath>
</defs>
</svg>
