<svg width="144" height="48" viewBox="0 0 144 48" fill="none" xmlns="http://www.w3.org/2000/svg">
<path d="M76.0985 14.5966V22.3587H74.682V17.345C74.682 17.1446 74.694 16.9281 74.7179 16.6955L72.1062 21.1026C71.9827 21.3138 71.7934 21.4193 71.5384 21.4193H71.3113C71.0563 21.4193 70.8671 21.3138 70.7435 21.1026L68.1019 16.6794C68.1139 16.7975 68.1239 16.9138 68.1318 17.0283C68.1398 17.1428 68.1438 17.2484 68.1438 17.345V22.3587H66.7274V14.5966H67.9406C68.0123 14.5966 68.0741 14.5984 68.1258 14.602C68.1776 14.6056 68.2235 14.6145 68.2633 14.6288C68.3071 14.6432 68.345 14.6664 68.3769 14.6986C68.4127 14.7308 68.4466 14.7738 68.4785 14.8275L71.0663 19.1379C71.134 19.2525 71.1958 19.3706 71.2515 19.4922C71.3113 19.6139 71.3691 19.7392 71.4249 19.868C71.4806 19.7356 71.5384 19.6085 71.5982 19.4869C71.6579 19.3616 71.7217 19.2417 71.7894 19.1272L74.3414 14.8275C74.3733 14.7738 74.4071 14.7308 74.443 14.6986C74.4788 14.6664 74.5167 14.6432 74.5565 14.6288C74.6004 14.6145 74.6482 14.6056 74.7 14.602C74.7518 14.5984 74.8135 14.5966 74.8852 14.5966H76.0985Z" fill="#E90013"/>
<path d="M82.5926 19.4278L81.5408 16.8458C81.489 16.7313 81.4352 16.5953 81.3794 16.4378C81.3236 16.2804 81.2679 16.1104 81.2121 15.9279C81.1603 16.1104 81.1065 16.2822 81.0507 16.4432C80.9949 16.6007 80.9411 16.7385 80.8893 16.8565L79.8435 19.4278H82.5926ZM85.4315 22.3587H84.1883C84.0489 22.3587 83.9353 22.3283 83.8477 22.2675C83.76 22.2031 83.6943 22.1243 83.6505 22.0313L83.005 20.4477H79.4251L78.7796 22.0313C78.7478 22.1136 78.686 22.1887 78.5944 22.2567C78.5027 22.3247 78.3892 22.3587 78.2537 22.3587H76.9987L80.3993 14.5966H82.0368L85.4315 22.3587Z" fill="#E90013"/>
<path d="M90.9279 16.0084C90.88 16.0836 90.8282 16.139 90.7725 16.1748C90.7207 16.207 90.6549 16.2231 90.5752 16.2231C90.4916 16.2231 90.3999 16.1963 90.3003 16.1426C90.2047 16.0853 90.0892 16.0227 89.9537 15.9547C89.8182 15.8867 89.6588 15.8259 89.4756 15.7722C89.2963 15.715 89.0831 15.6863 88.8361 15.6863C88.613 15.6863 88.4177 15.7114 88.2504 15.7615C88.0831 15.808 87.9416 15.8742 87.8261 15.9601C87.7145 16.046 87.6308 16.1498 87.575 16.2714C87.5193 16.3895 87.4914 16.5202 87.4914 16.6633C87.4914 16.8458 87.5472 16.9979 87.6587 17.1196C87.7743 17.2413 87.9257 17.345 88.1129 17.4309C88.3002 17.5168 88.5134 17.5938 88.7524 17.6617C88.9915 17.7297 89.2365 17.8031 89.4875 17.8818C89.7385 17.957 89.9836 18.0465 90.2226 18.1502C90.4617 18.2504 90.6748 18.3793 90.8621 18.5367C91.0494 18.6906 91.1988 18.8803 91.3103 19.1057C91.4259 19.3312 91.4837 19.605 91.4837 19.927C91.4837 20.2777 91.4159 20.607 91.2805 20.9147C91.149 21.2189 90.9537 21.4855 90.6948 21.7146C90.4398 21.94 90.127 22.119 89.7565 22.2514C89.3859 22.3802 88.9616 22.4446 88.4835 22.4446C88.2086 22.4446 87.9376 22.4196 87.6707 22.3695C87.4037 22.3229 87.1467 22.2549 86.8997 22.1655C86.6567 22.076 86.4276 21.9687 86.2124 21.8434C85.9973 21.7181 85.806 21.5786 85.6387 21.4247L86.1108 20.7322C86.1507 20.6821 86.2025 20.641 86.2662 20.6088C86.33 20.573 86.3977 20.5551 86.4694 20.5551C86.569 20.5551 86.6766 20.5927 86.7921 20.6678C86.9077 20.7394 87.0451 20.8199 87.2045 20.9094C87.3639 20.9988 87.5492 21.0811 87.7603 21.1563C87.9755 21.2279 88.2325 21.2637 88.5313 21.2637C88.9895 21.2637 89.3441 21.167 89.5951 20.9738C89.8461 20.777 89.9716 20.496 89.9716 20.131C89.9716 19.927 89.9138 19.7606 89.7983 19.6318C89.6867 19.503 89.5373 19.3956 89.3501 19.3097C89.1628 19.2202 88.9496 19.1451 88.7106 19.0843C88.4715 19.0234 88.2285 18.9572 87.9814 18.8856C87.7344 18.8141 87.4914 18.7282 87.2523 18.628C87.0133 18.5278 86.8001 18.3972 86.6128 18.2361C86.4256 18.0751 86.2742 17.8747 86.1586 17.6349C86.0471 17.3916 85.9913 17.0927 85.9913 16.7385C85.9913 16.4557 86.053 16.1802 86.1765 15.9118C86.304 15.6434 86.4873 15.4054 86.7264 15.1978C86.9654 14.9903 87.2603 14.8239 87.6109 14.6986C87.9615 14.5734 88.3639 14.5107 88.8182 14.5107C89.3281 14.5107 89.7983 14.5823 90.2286 14.7255C90.6589 14.8686 91.0255 15.069 91.3283 15.3267L90.9279 16.0084Z" fill="#E90013"/>
<path d="M98.8207 20.5282C98.9084 20.5282 98.9861 20.5587 99.0538 20.6195L99.6873 21.2368C99.3367 21.6269 98.9044 21.9257 98.3904 22.1333C97.8804 22.3408 97.2668 22.4446 96.5496 22.4446C95.9082 22.4446 95.3305 22.3462 94.8165 22.1494C94.3065 21.9526 93.8702 21.6788 93.5076 21.3281C93.1451 20.9774 92.8662 20.5587 92.6709 20.072C92.4797 19.5853 92.3841 19.0538 92.3841 18.4777C92.3841 17.8944 92.4876 17.3611 92.6948 16.878C92.902 16.3913 93.1929 15.9726 93.5674 15.6219C93.9459 15.2712 94.3961 14.9992 94.9181 14.806C95.44 14.6092 96.0178 14.5107 96.6513 14.5107C97.2808 14.5107 97.8386 14.6038 98.3247 14.7899C98.8147 14.976 99.2311 15.2193 99.5737 15.5199L99.0359 16.1909C99.004 16.2339 98.9622 16.2714 98.9104 16.3036C98.8625 16.3359 98.7948 16.352 98.7072 16.352C98.6474 16.352 98.5856 16.3376 98.5219 16.309C98.4581 16.2768 98.3884 16.2392 98.3127 16.1963C98.237 16.1498 98.1494 16.0997 98.0497 16.046C97.9501 15.9923 97.8346 15.944 97.7031 15.901C97.5716 15.8545 97.4182 15.8169 97.2429 15.7883C97.0716 15.7561 96.8724 15.74 96.6453 15.74C96.2588 15.74 95.9042 15.8026 95.5815 15.9279C95.2627 16.0496 94.9878 16.2285 94.7567 16.4647C94.5256 16.6973 94.3463 16.9836 94.2188 17.3236C94.0913 17.66 94.0276 18.0447 94.0276 18.4777C94.0276 18.9143 94.0953 19.3026 94.2308 19.6425C94.3702 19.9825 94.5575 20.2688 94.7926 20.5014C95.0276 20.734 95.3046 20.913 95.6233 21.0382C95.942 21.1599 96.2847 21.2207 96.6513 21.2207C96.8704 21.2207 97.0676 21.21 97.2429 21.1885C97.4222 21.167 97.5856 21.133 97.733 21.0865C97.8844 21.04 98.0258 20.9809 98.1573 20.9094C98.2928 20.8342 98.4263 20.743 98.5577 20.6356C98.5976 20.6034 98.6394 20.5783 98.6833 20.5605C98.7271 20.539 98.7729 20.5282 98.8207 20.5282Z" fill="#E90013"/>
<path d="M108.843 18.4777C108.843 19.0467 108.738 19.5745 108.527 20.0612C108.319 20.5444 108.025 20.9631 107.642 21.3173C107.26 21.6716 106.799 21.949 106.262 22.1494C105.724 22.3462 105.126 22.4446 104.469 22.4446C103.815 22.4446 103.219 22.3462 102.682 22.1494C102.144 21.949 101.682 21.6716 101.295 21.3173C100.913 20.9631 100.616 20.5444 100.405 20.0612C100.193 19.5745 100.088 19.0467 100.088 18.4777C100.088 17.9087 100.193 17.3826 100.405 16.8995C100.616 16.4128 100.913 15.9923 101.295 15.638C101.682 15.2837 102.144 15.0082 102.682 14.8113C103.219 14.6109 103.815 14.5107 104.469 14.5107C104.907 14.5107 105.319 14.5573 105.706 14.6503C106.092 14.7398 106.447 14.8686 106.77 15.0368C107.092 15.2014 107.381 15.4036 107.636 15.6434C107.895 15.8796 108.114 16.1444 108.294 16.4378C108.473 16.7313 108.608 17.0498 108.7 17.3933C108.796 17.7369 108.843 18.0983 108.843 18.4777ZM107.2 18.4777C107.2 18.0518 107.136 17.6707 107.009 17.3343C106.881 16.9943 106.7 16.7062 106.465 16.4701C106.23 16.2339 105.943 16.0531 105.604 15.9279C105.269 15.8026 104.891 15.74 104.469 15.74C104.046 15.74 103.666 15.8026 103.327 15.9279C102.992 16.0531 102.706 16.2339 102.466 16.4701C102.231 16.7062 102.05 16.9943 101.923 17.3343C101.795 17.6707 101.731 18.0518 101.731 18.4777C101.731 18.9035 101.795 19.2865 101.923 19.6264C102.05 19.9628 102.231 20.2491 102.466 20.4853C102.706 20.7179 102.992 20.8968 103.327 21.0221C103.666 21.1474 104.046 21.21 104.469 21.21C104.891 21.21 105.269 21.1474 105.604 21.0221C105.943 20.8968 106.23 20.7179 106.465 20.4853C106.7 20.2491 106.881 19.9628 107.009 19.6264C107.136 19.2865 107.2 18.9035 107.2 18.4777Z" fill="#E90013"/>
<path d="M116 15.783H113.394V22.3587H111.786V15.783H109.18V14.5966H116V15.783Z" fill="#E90013"/>
<path d="M73.8513 29.2029V32.3432C73.413 32.633 72.9449 32.846 72.4468 32.982C71.9528 33.1144 71.4229 33.1806 70.8571 33.1806C70.1519 33.1806 69.5124 33.0822 68.9386 32.8853C68.3689 32.6885 67.8808 32.4147 67.4744 32.064C67.072 31.7133 66.7612 31.2946 66.5421 30.8079C66.3229 30.3212 66.2134 29.7898 66.2134 29.2136C66.2134 28.6303 66.319 28.0953 66.5301 27.6086C66.7413 27.1219 67.0401 26.7032 67.4266 26.3525C67.8171 26.0018 68.2892 25.7298 68.843 25.5366C69.3968 25.3433 70.0184 25.2467 70.7077 25.2467C71.0583 25.2467 71.385 25.2718 71.6878 25.3219C71.9946 25.372 72.2775 25.4417 72.5365 25.5312C72.7994 25.6171 73.0385 25.7227 73.2537 25.8479C73.4688 25.9732 73.666 26.1109 73.8453 26.2612L73.3851 26.9161C73.3134 27.0199 73.2198 27.0843 73.1042 27.1094C72.9887 27.1309 72.8632 27.104 72.7277 27.0289C72.5962 26.9609 72.4648 26.8929 72.3333 26.8249C72.2018 26.7569 72.0544 26.6978 71.891 26.6477C71.7316 26.5976 71.5504 26.5565 71.3472 26.5243C71.1479 26.4921 70.9169 26.476 70.6539 26.476C70.2276 26.476 69.8411 26.5404 69.4945 26.6692C69.1518 26.798 68.859 26.9823 68.6159 27.2221C68.3729 27.4619 68.1856 27.75 68.0541 28.0864C67.9226 28.4228 67.8569 28.7985 67.8569 29.2136C67.8569 29.6574 67.9266 30.0546 68.0661 30.4053C68.2095 30.7525 68.4087 31.0477 68.6637 31.291C68.9227 31.5308 69.2335 31.7151 69.5961 31.8439C69.9586 31.9692 70.363 32.0318 70.8093 32.0318C71.128 32.0318 71.4129 32.0014 71.6639 31.9406C71.9149 31.8797 72.16 31.7974 72.399 31.6936V30.2872H71.3113C71.2077 30.2872 71.126 30.2622 71.0663 30.2121C71.0105 30.1584 70.9826 30.094 70.9826 30.0188V29.2029H73.8513Z" fill="#E90013"/>
<path d="M79.8612 30.1638L78.8093 27.5818C78.7575 27.4673 78.7038 27.3313 78.648 27.1738C78.5922 27.0163 78.5364 26.8464 78.4806 26.6638C78.4288 26.8464 78.3751 27.0181 78.3193 27.1792C78.2635 27.3366 78.2097 27.4744 78.1579 27.5925L77.112 30.1638H79.8612ZM82.7 33.0947H81.4569C81.3175 33.0947 81.2039 33.0643 81.1163 33.0034C81.0286 32.939 80.9629 32.8603 80.919 32.7672L80.2736 31.1837H76.6937L76.0482 32.7672C76.0163 32.8495 75.9546 32.9247 75.8629 32.9927C75.7713 33.0607 75.6578 33.0947 75.5223 33.0947H74.2672L77.6678 25.3326H79.3054L82.7 33.0947Z" fill="#E90013"/>
<path d="M92.9656 25.3326V33.0947H91.5492V28.081C91.5492 27.8806 91.5612 27.6641 91.5851 27.4315L88.9734 31.8386C88.8498 32.0497 88.6606 32.1553 88.4056 32.1553H88.1785C87.9235 32.1553 87.7342 32.0497 87.6107 31.8386L84.9691 27.4154C84.9811 27.5335 84.991 27.6498 84.999 27.7643C85.007 27.8788 85.011 27.9844 85.011 28.081V33.0947H83.5945V25.3326H84.8078C84.8795 25.3326 84.9412 25.3344 84.993 25.338C85.0448 25.3415 85.0906 25.3505 85.1305 25.3648C85.1743 25.3791 85.2122 25.4024 85.244 25.4346C85.2799 25.4668 85.3138 25.5097 85.3456 25.5634L87.9334 29.8739C88.0012 29.9884 88.0629 30.1065 88.1187 30.2282C88.1785 30.3499 88.2363 30.4751 88.292 30.6039C88.3478 30.4715 88.4056 30.3445 88.4654 30.2228C88.5251 30.0976 88.5889 29.9777 88.6566 29.8632L91.2086 25.5634C91.2404 25.5097 91.2743 25.4668 91.3102 25.4346C91.346 25.4024 91.3839 25.3791 91.4237 25.3648C91.4675 25.3505 91.5153 25.3415 91.5671 25.338C91.6189 25.3344 91.6807 25.3326 91.7524 25.3326H92.9656Z" fill="#E90013"/>
<path d="M96.5074 33.0947H94.8938V25.3326H96.5074V33.0947Z" fill="#E90013"/>
<path d="M105.728 25.3326V33.0947H104.903C104.775 33.0947 104.668 33.0768 104.58 33.041C104.496 33.0016 104.415 32.9372 104.335 32.8478L99.8229 27.673C99.8468 27.9092 99.8587 28.1275 99.8587 28.3279V33.0947H98.4423V25.3326H99.285C99.3527 25.3326 99.4105 25.3362 99.4583 25.3433C99.5101 25.3469 99.5539 25.3576 99.5898 25.3755C99.6296 25.3898 99.6675 25.4131 99.7034 25.4453C99.7392 25.4739 99.7791 25.5133 99.8229 25.5634L104.353 30.7596C104.341 30.6344 104.331 30.5109 104.323 30.3892C104.315 30.2675 104.311 30.1548 104.311 30.051V25.3326H105.728Z" fill="#E90013"/>
<path d="M114.776 29.2029V32.3432C114.338 32.633 113.87 32.846 113.372 32.982C112.878 33.1144 112.348 33.1806 111.782 33.1806C111.077 33.1806 110.437 33.0822 109.863 32.8853C109.294 32.6885 108.806 32.4147 108.399 32.064C107.997 31.7133 107.686 31.2946 107.467 30.8079C107.248 30.3212 107.138 29.7898 107.138 29.2136C107.138 28.6303 107.244 28.0953 107.455 27.6086C107.666 27.1219 107.965 26.7032 108.351 26.3525C108.742 26.0018 109.214 25.7298 109.768 25.5366C110.322 25.3433 110.943 25.2467 111.632 25.2467C111.983 25.2467 112.31 25.2718 112.613 25.3219C112.919 25.372 113.202 25.4417 113.461 25.5312C113.724 25.6171 113.963 25.7227 114.178 25.8479C114.394 25.9732 114.591 26.1109 114.77 26.2612L114.31 26.9161C114.238 27.0199 114.145 27.0843 114.029 27.1094C113.914 27.1309 113.788 27.104 113.653 27.0289C113.521 26.9609 113.39 26.8929 113.258 26.8249C113.127 26.7569 112.979 26.6978 112.816 26.6477C112.656 26.5976 112.475 26.5565 112.272 26.5243C112.073 26.4921 111.842 26.476 111.579 26.476C111.152 26.476 110.766 26.5404 110.419 26.6692C110.077 26.798 109.784 26.9823 109.541 27.2221C109.298 27.4619 109.11 27.75 108.979 28.0864C108.847 28.4228 108.782 28.7985 108.782 29.2136C108.782 29.6574 108.851 30.0546 108.991 30.4053C109.134 30.7525 109.334 31.0477 109.589 31.291C109.848 31.5308 110.158 31.7151 110.521 31.8439C110.883 31.9692 111.288 32.0318 111.734 32.0318C112.053 32.0318 112.338 32.0014 112.589 31.9406C112.84 31.8797 113.085 31.7974 113.324 31.6936V30.2872H112.236C112.133 30.2872 112.051 30.2622 111.991 30.2121C111.935 30.1584 111.907 30.094 111.907 30.0188V29.2029H114.776Z" fill="#E90013"/>
<path d="M42.0764 20.758C42.0796 21.4233 42.1818 22.0843 42.3798 22.7189C42.8336 21.9675 43.4166 21.3035 44.1014 20.758C44.1011 19.8335 44.3816 18.931 44.9051 18.1718C45.4286 17.4125 46.1702 16.8329 47.0302 16.5107C47.1722 16.811 47.4035 17.0593 47.6919 17.2211C47.9804 17.3829 48.3117 17.4502 48.6398 17.4137C48.968 17.3772 49.2767 17.2386 49.5231 17.0172C49.7695 16.7958 49.9414 16.5026 50.015 16.1783C50.4 16.0384 50.7165 15.754 50.8983 15.3845C51.08 15.015 51.1131 14.589 50.9904 14.1955C50.8678 13.802 50.599 13.4715 50.2402 13.2731C49.8814 13.0747 49.4604 13.0237 49.0651 13.1307C48.8615 12.938 48.6093 12.8052 48.3361 12.7466C48.0628 12.688 47.7789 12.7059 47.515 12.7984C47.1507 12.916 46.8404 13.1615 46.6406 13.4903C46.4408 13.8191 46.3649 14.2092 46.4266 14.5897C45.1581 15.0393 44.0589 15.8737 43.28 16.9781C42.501 18.0826 42.0806 19.4031 42.0764 20.758Z" fill="#E90013"/>
<path d="M30.0218 20.758V12.0207H53.0757V20.758C53.0735 21.6268 52.8238 22.4766 52.3563 23.2065C51.8888 23.9364 51.2232 24.5157 50.4385 24.8755C49.6538 25.2353 48.7831 25.3605 47.9299 25.2363C47.0766 25.112 46.2767 24.7435 45.6252 24.1745C45.1942 24.7447 44.9262 25.4228 44.8502 26.1354C45.825 26.819 46.9668 27.2207 48.152 27.2971C49.3372 27.3734 50.5205 27.1215 51.5737 26.5686C52.627 26.0157 53.51 25.1828 54.127 24.1604C54.7441 23.1379 55.0717 21.9647 55.0744 20.768V10H28V20.758C28.0032 21.4233 28.1055 22.0842 28.3034 22.7189C28.7561 21.9676 29.3379 21.3036 30.0218 20.758Z" fill="#E90013"/>
<path d="M47.5018 34.5078C47.7658 34.5992 48.0495 34.6165 48.3225 34.558C48.5956 34.4994 48.8477 34.3672 49.0519 34.1755C49.2505 34.2381 49.4594 34.2607 49.6666 34.242C49.8739 34.2233 50.0755 34.1636 50.2598 34.0664C50.4442 33.9692 50.6078 33.8363 50.7412 33.6754C50.8746 33.5145 50.9753 33.3287 51.0374 33.1286C51.0996 32.9285 51.122 32.718 51.1034 32.5092C51.0848 32.3003 51.0256 32.0972 50.9292 31.9114C50.8327 31.7256 50.7008 31.5608 50.5412 31.4264C50.3815 31.2919 50.1971 31.1905 49.9985 31.1279C49.9388 30.8514 49.8067 30.5961 49.6159 30.3886C49.425 30.1811 49.1824 30.029 48.9134 29.9481C48.5488 29.8344 48.1558 29.8564 47.8059 30.0101C47.456 30.1638 47.1726 30.439 47.0071 30.7856C46.441 30.5872 45.9199 30.2769 45.4744 29.8727C45.029 29.4686 44.6682 28.9788 44.4132 28.4322C44.1582 27.8856 44.0142 27.2932 43.9896 26.6897C43.9651 26.0863 44.0604 25.4839 44.2701 24.9181C44.4797 24.3523 44.7995 23.8344 45.2105 23.3948C45.6216 22.9553 46.1157 22.6029 46.6638 22.3585C47.2119 22.114 47.8029 21.9824 48.4022 21.9714C49.0015 21.9603 49.5969 22.0701 50.1535 22.2941C50.6568 22.4806 51.1235 22.7551 51.5321 23.1051C51.9655 22.5363 52.2339 21.8575 52.3072 21.1442C51.3333 20.4581 50.1915 20.0539 49.0058 19.9755C47.82 19.8972 46.6356 20.1477 45.5812 20.6999C44.5268 21.252 43.6426 22.0847 43.0247 23.1075C42.4068 24.1304 42.0789 25.3042 42.0764 26.5016C42.0831 27.8577 42.5012 29.1792 43.2747 30.2889C44.0481 31.3986 45.1399 32.2434 46.4035 32.7098C46.3399 33.0927 46.4161 33.4858 46.618 33.8164C46.82 34.147 47.1339 34.3926 47.5018 34.5078Z" fill="#E90013"/>
<path d="M41.0178 26.5014C41.0173 25.8362 40.916 25.175 40.7177 24.5405C40.2648 25.2916 39.683 25.9556 38.9994 26.5014C38.999 27.4253 38.7182 28.3271 38.1947 29.0857C37.6712 29.8443 36.9301 30.4234 36.0706 30.7454C35.9284 30.4443 35.6967 30.1953 35.4076 30.033C35.1186 29.8707 34.7865 29.8031 34.4576 29.8397C34.1287 29.8762 33.8193 30.0151 33.5722 30.2369C33.3252 30.4588 33.1529 30.7527 33.0792 31.0778C32.6755 31.2042 32.3382 31.4871 32.1415 31.8642C31.9449 32.2413 31.9049 32.6817 32.0304 33.0884C32.1559 33.4952 32.4367 33.8351 32.8109 34.0333C33.1851 34.2315 33.6221 34.2718 34.0258 34.1453C34.2294 34.338 34.4816 34.4708 34.7548 34.5294C35.0281 34.588 35.312 34.5701 35.5759 34.4777C35.9412 34.362 36.2529 34.1176 36.454 33.7892C36.6551 33.4609 36.7321 33.0705 36.6709 32.6896C37.9408 32.2367 39.0405 31.3986 39.8189 30.2906C40.5972 29.1826 41.016 27.8589 41.0178 26.5014Z" fill="#E90013"/>
<path d="M36.6709 14.5701C36.738 14.1881 36.6636 13.7947 36.4617 13.4644C36.2599 13.1341 35.9446 12.8901 35.5759 12.7787C35.3106 12.6985 35.0295 12.6869 34.7586 12.745C34.4877 12.803 34.2357 12.929 34.0258 13.1111C33.6234 12.9824 33.1868 13.02 32.8119 13.2157C32.4371 13.4115 32.1548 13.7492 32.0271 14.1546C31.8994 14.5601 31.9367 15.0001 32.131 15.3778C32.3252 15.7555 32.6603 16.04 33.0627 16.1687C33.14 16.4878 33.3128 16.7752 33.5576 16.9921C33.8025 17.2089 34.1075 17.3447 34.4315 17.3809C34.7555 17.4172 35.0827 17.3522 35.3688 17.1948C35.6549 17.0375 35.8861 16.7952 36.031 16.501C37.1411 16.9243 38.0402 17.7725 38.5324 18.8608C39.0246 19.949 39.0701 21.1892 38.6589 22.3112C38.2478 23.4331 37.4133 24.3458 36.3373 24.8505C35.2613 25.3553 34.0309 25.411 32.9143 25.0057C32.4109 24.8146 31.946 24.5331 31.5423 24.1749C31.0872 24.736 30.8123 25.4234 30.754 26.1457C31.5162 26.6792 32.3826 27.0425 33.2954 27.2114C34.2081 27.3803 35.1462 27.3507 36.0467 27.1248C36.9472 26.8989 37.7895 26.4818 38.5171 25.9014C39.2448 25.321 39.841 24.5907 40.2659 23.7593C40.6909 22.928 40.9347 22.0148 40.9812 21.0808C41.0276 20.1468 40.8755 19.2136 40.5352 18.3437C40.1948 17.4737 39.674 16.687 39.0076 16.0362C38.3412 15.3854 37.5445 14.8856 36.6709 14.5701Z" fill="#E90013"/>
<path d="M54.7941 24.5666C54.3414 25.3179 53.7596 25.9819 53.0758 26.5274V35.8H30.0218V26.5274C30.0221 25.6579 30.2704 24.8067 30.7372 24.0753C31.2039 23.3439 31.8695 22.7631 32.6545 22.4021C33.4396 22.041 34.3111 21.915 35.1652 22.0389C36.0194 22.1628 36.8202 22.5314 37.4723 23.1009C37.9052 22.5306 38.1734 21.8509 38.2473 21.1368C37.2733 20.45 36.131 20.0455 34.9448 19.9673C33.7585 19.8891 32.5737 20.1402 31.5192 20.6933C30.4647 21.2463 29.5809 22.0802 28.9639 23.1041C28.3469 24.1281 28.0204 25.3029 28.0198 26.5008V38H55.0975V26.5274C55.0943 25.8622 54.992 25.2012 54.7941 24.5666Z" fill="#E90013"/>
</svg>
