<svg width="144" height="48" viewBox="0 0 144 48" fill="none" xmlns="http://www.w3.org/2000/svg">
<g clip-path="url(#clip0_2588_183324)">
<path d="M53.1737 29.8688C52.864 29.8688 52.6142 29.9813 52.4444 30.1969C52.2745 30.4219 52.1846 30.7219 52.1846 31.1156C52.1846 31.9406 52.5143 32.3438 53.1737 32.3438C53.4534 32.3438 53.7831 32.2781 54.1727 32.1469V32.8031C53.853 32.925 53.4934 32.9906 53.0937 32.9906C52.5243 32.9906 52.0847 32.8312 51.785 32.5031C51.4853 32.175 51.3354 31.7156 51.3354 31.1063C51.3354 30.7219 51.4054 30.3844 51.5552 30.1031C51.7051 29.8125 51.9149 29.5969 52.1946 29.4375C52.4743 29.2875 52.794 29.2031 53.1737 29.2031C53.5533 29.2031 53.9329 29.2875 54.3225 29.4656L54.0528 30.1031C53.903 30.0375 53.7631 29.9813 53.6132 29.9344C53.4634 29.8875 53.3235 29.8688 53.1737 29.8688Z" fill="white"/>
<path d="M64.6318 32.9532V29.2688H65.461V32.9532H64.6318Z" fill="white"/>
<path d="M77.5793 32.9531H76.7501V29.925H75.6812V29.2781H78.6383V29.925H77.5693V32.9531H77.5793Z" fill="white"/>
<path d="M90.078 30.7875L90.8972 29.2688H91.7963L90.4976 31.5188V32.9532H89.6684V31.5469L88.3696 29.2688H89.2688L90.078 30.7875Z" fill="white"/>
<path d="M91.9859 19.4906C91.6762 19.4906 91.3765 19.4906 91.0668 19.4906C90.8969 19.4906 90.8769 19.4906 90.857 19.3312C90.817 18.9937 90.7371 18.6562 90.5772 18.3469C90.2176 17.6062 89.5882 17.2125 88.749 17.1187C88.2795 17.0719 87.7999 17.1 87.3404 17.2406C86.681 17.4469 86.2215 17.85 85.9417 18.4406C85.8119 18.7219 85.7319 19.0125 85.692 19.3125C85.692 19.3406 85.682 19.3781 85.682 19.4062C85.682 19.4625 85.652 19.4906 85.5821 19.5C85.5421 19.5 85.5022 19.5 85.4522 19.5C84.8628 19.5 84.2634 19.5 83.6739 19.5C83.634 19.5 83.594 19.5 83.5441 19.5C83.4841 19.5 83.4542 19.4719 83.4442 19.4156C83.4242 19.3031 83.4042 19.1906 83.3842 19.0875C83.2943 18.7125 83.1445 18.3562 82.9147 18.0375C82.4851 17.4562 81.8857 17.1469 81.1364 17.1094C80.8167 17.0906 80.487 17.1094 80.1774 17.175C79.3681 17.3625 78.8187 17.8219 78.499 18.5437C78.3891 18.7969 78.3092 19.0594 78.2792 19.3219C78.2592 19.4906 78.2592 19.5 78.0594 19.5C77.5 19.5 76.9405 19.5 76.381 19.5C76.3111 19.5 76.2412 19.5 76.1812 19.5C76.0713 19.5 76.0514 19.4812 76.0614 19.3687C76.0713 19.2469 76.0913 19.1344 76.1113 19.0125C76.2512 18.2437 76.5309 17.5219 76.9904 16.8656C77.6798 15.8906 78.6289 15.3094 79.8477 15.0937C80.2273 15.0281 80.6069 15 80.9866 15C81.9256 15.0094 82.7648 15.2906 83.4941 15.8437C83.8338 16.0969 84.1235 16.3969 84.3932 16.7156C84.4432 16.7719 84.4832 16.8281 84.5331 16.8844C84.5631 16.9219 84.603 16.9219 84.643 16.8844C84.7029 16.8281 84.7529 16.7625 84.8028 16.6969C85.0826 16.3781 85.3923 16.0781 85.7419 15.825C86.4812 15.2906 87.3304 15.0094 88.2595 14.9906C88.8489 14.9812 89.4283 15.0469 89.9878 15.225C90.9269 15.5156 91.6462 16.0687 92.1757 16.8469C92.6053 17.475 92.865 18.1594 93.0049 18.8812C93.0348 19.0219 93.0548 19.1625 93.0648 19.3031C93.0848 19.4719 93.0848 19.4719 92.895 19.4719C92.7151 19.4719 92.5353 19.4719 92.3655 19.4719C92.2456 19.4906 92.1157 19.4906 91.9859 19.4906Z" fill="white"/>
<path d="M48.4179 20.0531C48.7376 20.0531 49.0673 20.0531 49.387 20.0531C49.5069 20.0531 49.5268 20.0718 49.5268 20.175C49.5268 20.3437 49.5168 20.5125 49.5268 20.6718C49.5468 21.0468 49.5968 21.4031 49.7466 21.7406C50.0164 22.3593 50.436 22.8562 51.0653 23.1843C51.445 23.3812 51.8646 23.5031 52.2941 23.5406C52.8136 23.5875 53.3231 23.5781 53.8327 23.4562C55.0215 23.1843 55.7808 22.4812 56.1504 21.3843C56.2203 21.1593 56.2403 20.9718 56.2503 20.7C56.2403 20.5218 56.2503 20.3343 56.2503 20.1468C56.2503 20.0625 56.2703 20.0437 56.3502 20.0437C57.0196 20.0437 57.6889 20.0437 58.3583 20.0437C58.4382 20.0437 58.4582 20.0625 58.4582 20.1468C58.4781 20.7656 58.4582 21.375 58.2883 21.975C58.0885 22.65 57.7888 23.2781 57.3392 23.8312C56.7398 24.5625 55.9506 25.0593 55.0115 25.35C54.4021 25.5375 53.7727 25.6218 53.1333 25.6406C52.474 25.6593 51.8146 25.6125 51.1652 25.4531C49.5468 25.0687 48.4279 24.1406 47.7685 22.7156C47.5288 22.1906 47.3689 21.6468 47.309 21.0843C47.279 20.7656 47.299 20.4468 47.299 20.1281C47.299 20.0718 47.339 20.0437 47.3989 20.0437C47.5488 20.0437 47.7086 20.0437 47.8585 20.0437C48.0383 20.0531 48.2281 20.0531 48.4179 20.0531Z" fill="white"/>
<path d="M56.281 19.4813C56.2411 19.4156 56.2311 19.3594 56.2211 19.2938C56.0113 18.3375 55.4219 17.6813 54.4528 17.3344C54.0632 17.1938 53.6536 17.1188 53.234 17.1094C52.6845 17.0906 52.1351 17.1094 51.5956 17.2594C50.8963 17.4469 50.3168 17.8125 49.9272 18.4031C49.7274 18.7031 49.6075 19.0313 49.5376 19.3781C49.5176 19.5 49.5076 19.5 49.3977 19.5C48.7483 19.5 48.089 19.5 47.4396 19.5C47.3197 19.5 47.2998 19.4719 47.3197 19.3781C47.3497 19.2281 47.3697 19.0781 47.4097 18.9281C47.5795 18.2063 47.8792 17.5313 48.3487 16.9406C49.0081 16.1063 49.8773 15.5531 50.9362 15.2625C51.4557 15.1219 51.9752 15.0469 52.5147 15.0281C53.234 15 53.9533 15.0469 54.6626 15.2156C55.5917 15.4406 56.4109 15.8625 57.0703 16.5281C57.6197 17.0813 57.9994 17.7375 58.2391 18.4594C58.319 18.6938 58.379 18.9375 58.4289 19.1813C58.4389 19.2563 58.4489 19.3219 58.4589 19.3969C58.4689 19.4906 58.4389 19.5094 58.339 19.5094C58.0693 19.5094 57.7995 19.5094 57.5198 19.5094C57.1602 19.5094 56.8105 19.5094 56.4509 19.5094C56.3909 19.4906 56.331 19.4813 56.281 19.4813Z" fill="white"/>
<path d="M38.3777 15.0469C38.9871 15.0469 39.5965 15.0563 40.206 15.0469C40.6156 15.0375 41.0152 15.0938 41.4148 15.1969C42.1341 15.3844 42.8034 15.6657 43.3929 16.0969C44.242 16.7157 44.7415 17.5313 44.9414 18.5157C44.9813 18.7313 45.0013 18.9563 45.0313 19.1813C45.0413 19.2375 45.0413 19.2938 45.0413 19.35C45.0413 19.4813 45.0313 19.4907 44.9014 19.4907C44.8714 19.4907 44.8514 19.4907 44.8215 19.4907C44.232 19.4907 43.6326 19.4907 43.0432 19.4907C43.0032 19.4907 42.9633 19.4907 42.9133 19.4907C42.8534 19.4907 42.8134 19.4625 42.8134 19.4063C42.8134 19.2469 42.7934 19.0875 42.7635 18.9282C42.6935 18.5719 42.5537 18.2438 42.3239 17.9438C41.9642 17.4938 41.4647 17.2594 40.8953 17.1469C40.6955 17.1094 40.4957 17.0907 40.2859 17.0907C39.6665 17.0907 39.0471 17.0907 38.4277 17.0907C38.3877 17.0907 38.3478 17.0907 38.2978 17.1C38.2479 17.1 38.2279 17.1375 38.2179 17.175C38.2179 17.2407 38.2179 17.3063 38.2179 17.3625C38.2179 18 38.2179 18.6375 38.2179 19.275C38.2179 19.4907 38.2179 19.4907 37.9981 19.4907C37.4087 19.4907 36.8093 19.4907 36.2198 19.4907C36.1699 19.4907 36.1199 19.4907 36.07 19.4813C36.03 19.4813 36.01 19.4532 36.01 19.4157C36 19.3688 36 19.3125 36 19.2563C36 17.9344 36 16.6125 36 15.2907C36 15.0282 35.9901 15.0469 36.2698 15.0469C36.9691 15.0469 37.6784 15.0469 38.3777 15.0469Z" fill="white"/>
<path d="M64.403 25.6592C63.364 25.6592 62.335 25.6592 61.296 25.6592C61.2161 25.6592 61.1462 25.6592 61.0662 25.6592C61.0163 25.6592 60.9863 25.6311 60.9863 25.5842C60.9863 25.528 60.9763 25.4717 60.9763 25.4155C60.9763 23.7186 60.9763 22.0217 60.9763 20.3249C60.9763 20.0342 60.9464 20.053 61.2661 20.053C61.8155 20.053 62.365 20.053 62.9244 20.053C62.9844 20.053 63.0443 20.053 63.1043 20.053C63.1542 20.053 63.1842 20.0811 63.1842 20.128C63.1842 20.203 63.1942 20.2874 63.1942 20.3624C63.1942 21.3374 63.1942 22.303 63.1942 23.278C63.1942 23.578 63.1642 23.5592 63.4939 23.5592C64.8626 23.5592 66.2212 23.5592 67.5899 23.5592C67.8996 23.5592 67.8796 23.5405 67.8796 23.8311C67.8796 24.3467 67.8796 24.8624 67.8796 25.3874C67.8796 25.453 67.8796 25.5186 67.8796 25.5749C67.8796 25.6217 67.8496 25.6405 67.7997 25.6499C67.7198 25.6499 67.6498 25.6499 67.5699 25.6499C66.501 25.6592 65.452 25.6592 64.403 25.6592Z" fill="white"/>
<path d="M104.293 15.0001C105.422 15.0001 106.551 15.0001 107.68 15.0001C107.76 15.0001 107.83 15.0001 107.91 15.0001C107.96 15.0001 107.989 15.0282 107.989 15.0751C107.989 15.122 107.999 15.1688 107.999 15.2157C107.999 15.7688 107.999 16.3126 107.999 16.8657C107.999 16.9126 107.999 16.9595 107.999 17.0063C107.999 17.0532 107.97 17.0813 107.92 17.0813C107.85 17.0813 107.78 17.0813 107.72 17.0813C107.04 17.0813 106.361 17.0813 105.682 17.0813C105.462 17.0813 105.452 17.0813 105.452 17.2876C105.452 17.9157 105.452 18.5438 105.452 19.172C105.452 19.2376 105.452 19.3032 105.452 19.3595C105.452 19.4532 105.432 19.472 105.322 19.472C104.902 19.472 104.473 19.472 104.053 19.472C103.814 19.472 103.574 19.472 103.344 19.472C103.284 19.472 103.244 19.4438 103.244 19.3876C103.244 19.3126 103.234 19.247 103.234 19.172C103.234 18.5813 103.234 17.9907 103.234 17.4001C103.234 17.3438 103.234 17.2876 103.234 17.2313C103.234 17.0813 103.224 17.072 103.054 17.072C102.355 17.072 101.666 17.072 100.966 17.072C100.547 17.072 100.607 17.1188 100.597 16.7345C100.597 16.2376 100.597 15.7501 100.597 15.2532C100.597 15.1876 100.597 15.122 100.597 15.0657C100.597 15.0188 100.627 14.9907 100.677 14.9907C100.757 14.9907 100.826 14.9907 100.906 14.9907C102.035 15.0001 103.164 15.0001 104.293 15.0001Z" fill="white"/>
<path d="M95.8114 22.8562C95.8114 21.9843 95.8114 21.1218 95.8114 20.25C95.8114 20.0437 95.7915 20.0437 96.0312 20.0437C96.6206 20.0437 97.2201 20.0437 97.8095 20.0437C97.8494 20.0437 97.8894 20.0437 97.9393 20.0437C97.9993 20.0437 98.0293 20.0812 98.0293 20.1375C98.0293 20.1843 98.0293 20.2312 98.0293 20.2781C98.0293 21.9937 98.0293 23.7187 98.0293 25.4343C98.0293 25.4437 98.0293 25.4531 98.0293 25.4625C98.0293 25.6406 98.0293 25.6499 97.8295 25.6499C97.2201 25.6499 96.6107 25.6499 96.0013 25.6499C95.9713 25.6499 95.9513 25.6499 95.9213 25.6499C95.8314 25.6406 95.8114 25.6312 95.8114 25.5281C95.8114 25.4625 95.8114 25.3968 95.8114 25.3406C95.8114 24.5156 95.8114 23.6906 95.8114 22.8562Z" fill="white"/>
<path d="M90.8763 22.8468C90.8763 21.9843 90.8763 21.1312 90.8763 20.2687C90.8763 20.0437 90.8564 20.053 91.1161 20.053C91.6955 20.053 92.265 20.053 92.8444 20.053C92.9044 20.053 92.9643 20.053 93.0243 20.0624C93.0642 20.0624 93.0842 20.0905 93.0942 20.128C93.1042 20.203 93.1042 20.2687 93.1042 20.3437C93.1042 21.703 93.1042 23.0624 93.1042 24.4218C93.1042 24.7593 93.1042 25.1062 93.1042 25.4437C93.1042 25.4812 93.1042 25.528 93.1042 25.5655C93.0942 25.6405 93.0742 25.6593 92.9943 25.6593C92.9643 25.6593 92.9244 25.6593 92.8944 25.6593C92.305 25.6593 91.7055 25.6593 91.1161 25.6593C91.0662 25.6593 91.0162 25.6593 90.9662 25.6499C90.9263 25.6499 90.9063 25.6218 90.9063 25.5937C90.9063 25.5187 90.8963 25.453 90.8963 25.378C90.8763 24.5343 90.8763 23.6905 90.8763 22.8468Z" fill="white"/>
<path d="M85.6818 22.8563C85.6818 23.7094 85.6818 24.5625 85.6818 25.4063C85.6818 25.6594 85.6918 25.65 85.442 25.65C84.8526 25.65 84.2732 25.65 83.6837 25.65C83.6338 25.65 83.5838 25.65 83.5339 25.6407C83.4939 25.6407 83.4739 25.6125 83.464 25.575C83.454 25.5282 83.454 25.4813 83.454 25.4344C83.454 23.7188 83.454 21.9938 83.454 20.2782C83.454 20.0438 83.434 20.0344 83.6937 20.0344C84.2832 20.0344 84.8626 20.0344 85.452 20.0344C85.502 20.0344 85.5519 20.0344 85.6019 20.0438C85.6418 20.0438 85.6618 20.0719 85.6618 20.1094C85.6618 20.1844 85.6618 20.25 85.6618 20.325C85.6818 21.1782 85.6818 22.0219 85.6818 22.8563Z" fill="white"/>
<path d="M70.7663 22.8562C70.7663 22.0218 70.7663 21.1875 70.7663 20.3531C70.7663 20.3156 70.7663 20.2781 70.7663 20.2312C70.7663 20.0531 70.7663 20.0437 70.9661 20.0437C71.5756 20.0437 72.185 20.0437 72.7944 20.0437C72.8243 20.0437 72.8643 20.0437 72.8943 20.0437C72.9542 20.0531 72.9842 20.0812 72.9842 20.1375C72.9842 20.175 72.9842 20.2125 72.9842 20.2593C72.9842 21.9843 72.9842 23.7093 72.9842 25.4437C72.9842 25.4718 72.9842 25.4906 72.9842 25.5187C72.9742 25.6406 72.9642 25.6499 72.8343 25.6499C72.185 25.6499 71.5456 25.6499 70.8962 25.6499C70.8862 25.6499 70.8762 25.6499 70.8662 25.6499C70.7763 25.6406 70.7563 25.6312 70.7563 25.5281C70.7563 25.4625 70.7563 25.3968 70.7563 25.3406C70.7663 24.5156 70.7663 23.6906 70.7663 22.8562Z" fill="white"/>
<path d="M38.2081 25.547C38.1582 25.5845 38.0982 25.5751 38.0383 25.5751C37.4289 25.5751 36.8195 25.5751 36.2101 25.5751C36.1801 25.5751 36.1401 25.5751 36.1102 25.5751C36.0502 25.5751 36.0103 25.547 36.0103 25.4907C36.0103 25.4345 36.0103 25.3782 36.0103 25.322C36.0103 23.672 36.0103 22.022 36.0103 20.3813C36.0103 20.3063 36.0103 20.2407 36.0103 20.1657C36.0103 20.0813 36.0302 20.0626 36.1401 20.0532C36.1801 20.0532 36.22 20.0532 36.27 20.0532C36.8394 20.0532 37.4089 20.0532 37.9783 20.0532C38.0383 20.0532 38.0982 20.0532 38.1582 20.0626C38.2081 20.0626 38.2381 20.0907 38.2381 20.1376C38.2381 20.2032 38.2381 20.2688 38.2381 20.3251C38.2381 21.9938 38.2381 23.672 38.2381 25.3407C38.2281 25.4064 38.2381 25.4813 38.2081 25.547Z" fill="white"/>
<path d="M45.0408 22.8937C45.0408 23.7093 45.0408 24.5343 45.0408 25.3499C45.0408 25.4062 45.0408 25.4624 45.0408 25.5187C45.0408 25.6405 45.0208 25.6499 44.891 25.6499C44.2516 25.6499 43.6022 25.6499 42.9628 25.6499C42.9329 25.6499 42.9129 25.6499 42.8829 25.6405C42.843 25.6312 42.823 25.6124 42.823 25.5749C42.823 25.5187 42.813 25.4624 42.813 25.4062C42.813 23.728 42.813 22.0499 42.813 20.3718C42.813 20.353 42.813 20.3437 42.813 20.3249C42.813 20.1187 42.813 20.1187 43.0428 20.1187C43.6322 20.1187 44.2316 20.1187 44.821 20.1187C44.851 20.1187 44.891 20.1187 44.9209 20.1187C45.0109 20.128 45.0308 20.1468 45.0408 20.2405C45.0408 20.3155 45.0408 20.3812 45.0408 20.4562C45.0408 21.2718 45.0408 22.0874 45.0408 22.8937Z" fill="white"/>
<path d="M76.0518 22.8563C76.0518 22.022 76.0518 21.1876 76.0518 20.3438C76.0518 20.2688 76.0518 20.2032 76.0518 20.1282C76.0518 20.0813 76.0817 20.0532 76.1317 20.0532C76.1716 20.0532 76.2116 20.0532 76.2616 20.0532C76.851 20.0532 77.4504 20.0532 78.0398 20.0532C78.0698 20.0532 78.1098 20.0532 78.1397 20.0532C78.2296 20.0626 78.2496 20.072 78.2496 20.147C78.2496 20.2032 78.2496 20.2595 78.2496 20.3157C78.2496 22.022 78.2496 23.7188 78.2496 25.4251C78.2496 25.472 78.2496 25.5189 78.2496 25.5657C78.2496 25.6126 78.2196 25.6407 78.1697 25.6407C78.1397 25.6407 78.0998 25.6407 78.0698 25.6407C77.4604 25.6407 76.851 25.6407 76.2416 25.6407C76.2216 25.6407 76.2116 25.6407 76.1916 25.6407C76.0717 25.6314 76.0518 25.622 76.0518 25.5189C76.0518 25.4532 76.0518 25.3876 76.0518 25.3314C76.0518 24.5157 76.0518 23.6907 76.0518 22.8563Z" fill="white"/>
<path d="M105.442 22.8845C105.442 23.7282 105.442 24.572 105.442 25.4157C105.442 25.6688 105.452 25.6595 105.202 25.6595C104.623 25.6595 104.054 25.6595 103.474 25.6595C103.424 25.6595 103.374 25.6595 103.324 25.6595C103.274 25.6595 103.244 25.6313 103.244 25.5845C103.244 25.5282 103.244 25.472 103.244 25.4157C103.244 23.7282 103.244 22.0407 103.244 20.3532C103.244 20.0251 103.214 20.0626 103.564 20.0626C104.103 20.0626 104.633 20.0626 105.172 20.0626C105.242 20.0626 105.312 20.0626 105.372 20.0626C105.422 20.0626 105.452 20.0907 105.452 20.1376C105.452 20.2126 105.452 20.2782 105.452 20.3532C105.442 21.197 105.442 22.0407 105.442 22.8845Z" fill="white"/>
<path d="M98.0403 17.25C98.0403 17.8969 98.0403 18.5437 98.0403 19.1812C98.0403 19.2375 98.0403 19.2938 98.0403 19.35C98.0403 19.4719 98.0203 19.4812 97.8905 19.4812C97.2411 19.4812 96.6017 19.4812 95.9524 19.4812C95.8325 19.4812 95.8225 19.4625 95.8125 19.3594C95.8125 19.3125 95.8125 19.2656 95.8125 19.2188C95.8125 17.9062 95.8125 16.5938 95.8125 15.2812C95.8125 15.225 95.8125 15.1688 95.8125 15.1125C95.8125 15.0188 95.8325 15.0094 95.9324 15C95.9424 15 95.9524 15 95.9624 15C96.6117 15 97.2511 15 97.9005 15C98.0203 15 98.0303 15.0187 98.0403 15.1219C98.0403 15.1781 98.0403 15.2344 98.0403 15.2906C98.0403 15.9469 98.0403 16.6031 98.0403 17.25Z" fill="white"/>
<path d="M70.7663 17.25C70.7663 16.575 70.7663 15.9 70.7663 15.2156C70.7663 15 70.7663 15 70.9861 15C71.5756 15 72.175 15 72.7644 15C72.8143 15 72.8643 15 72.9143 15.0094C72.9542 15.0094 72.9742 15.0375 72.9742 15.075C72.9742 15.1313 72.9842 15.1875 72.9842 15.2438C72.9842 16.5844 72.9842 17.9156 72.9842 19.2563C72.9842 19.5 72.9942 19.4906 72.7344 19.4906C72.155 19.4906 71.5756 19.4906 71.0061 19.4906C70.9462 19.4906 70.8862 19.4906 70.8263 19.4813C70.7863 19.4813 70.7663 19.4531 70.7663 19.4156C70.7663 19.35 70.7563 19.2844 70.7563 19.2281C70.7663 18.5719 70.7663 17.9063 70.7663 17.25Z" fill="white"/>
<path d="M63.1842 17.25C63.1842 17.925 63.1842 18.6 63.1842 19.275C63.1842 19.4906 63.1842 19.4906 62.9644 19.4906C62.375 19.4906 61.7756 19.4906 61.1862 19.4906C61.1462 19.4906 61.1062 19.4906 61.0563 19.4906C61.0063 19.4906 60.9864 19.4531 60.9764 19.4156C60.9764 19.35 60.9764 19.2844 60.9764 19.2281C60.9764 17.9156 60.9764 16.6031 60.9764 15.2906C60.9764 14.9906 60.9464 15.0188 61.2561 15.0188C61.8156 15.0188 62.375 15.0188 62.9345 15.0188C62.9844 15.0188 63.0344 15.0188 63.0843 15.0188C63.1443 15.0188 63.1742 15.0563 63.1742 15.1125C63.1742 15.1781 63.1742 15.2438 63.1742 15.3C63.1842 15.9375 63.1842 16.5938 63.1842 17.25Z" fill="white"/>
</g>
<defs>
<clipPath id="clip0_2588_183324">
<rect width="72" height="18" fill="white" transform="translate(36 15)"/>
</clipPath>
</defs>
</svg>
