<svg width="144" height="48" viewBox="0 0 144 48" fill="none" xmlns="http://www.w3.org/2000/svg">
<path d="M39.9531 14.9601C39.2766 13.9134 37.9235 13.1793 35.8 12.7241C34.1692 12.3677 32.1246 12.1826 29.8748 12.1826C27.6312 12.1826 25.579 12.3677 23.9558 12.7241C21.8398 13.1868 20.4792 13.9134 19.8101 14.9601C18.6984 16.6772 18.9623 19.1771 19.2549 22.0759C19.3124 22.6099 19.3687 23.1589 19.4112 23.6929C19.5038 24.7609 19.7176 26.8694 20.109 28.9003C20.6793 31.8567 21.2908 32.8959 21.7048 33.4236C23.4643 35.6459 28.4078 35.8172 29.8823 35.8172C31.3567 35.8172 36.3002 35.6459 38.0598 33.4236C38.4725 32.8971 39.0928 31.8642 39.6555 28.9003C40.0469 26.8631 40.2608 24.7621 40.3533 23.6929C40.3959 23.1589 40.4534 22.6099 40.5097 22.0759C40.801 19.1771 41.0574 16.6697 39.9531 14.9601ZM39.6893 21.9909C39.6318 22.5249 39.5755 23.0801 39.533 23.6216C39.4404 24.6759 39.2341 26.7481 38.8489 28.7502C38.3149 31.5353 37.7734 32.4607 37.4095 32.9171C35.8425 34.9043 30.8565 35.0044 29.8735 35.0044C28.8906 35.0044 23.9045 34.9043 22.3376 32.9171C21.9749 32.4607 21.4334 31.5278 20.8981 28.7502C20.513 26.7493 20.3066 24.6834 20.2141 23.6216C20.1641 23.0801 20.114 22.5249 20.0578 21.9909C19.7726 19.2409 19.5313 16.8698 20.4855 15.3953C21.0407 14.5412 22.23 13.9209 24.1259 13.5145C25.7004 13.1731 27.6875 12.9942 29.8735 12.9942C32.0595 12.9942 34.0479 13.1718 35.6212 13.5145C37.5158 13.9272 38.7051 14.54 39.2616 15.3953C40.217 16.876 39.9744 19.2484 39.6893 21.9909ZM29.881 14.1623C34.1055 14.1623 37.5308 14.8601 38.2936 16.0356C39.184 17.4175 38.6425 20.5014 38.3787 23.5291C38.1148 26.5567 37.4808 30.9587 36.5053 32.2043C35.6512 33.2873 32.5948 33.8426 29.881 33.8426C27.1748 33.8426 24.1109 33.2798 23.2567 32.2043C22.2738 30.965 21.6397 26.5555 21.3834 23.5291C21.127 20.5027 20.578 17.4175 21.4684 16.0356C22.2313 14.8613 25.6578 14.1623 29.881 14.1623ZM23.6494 18.3655C23.5356 18.4292 23.4856 18.6356 23.4856 18.6356L23.3643 19.1696C23.3643 19.1696 23.3218 19.3046 23.3993 19.4685C23.4843 19.6323 24.0196 19.7323 24.0196 19.7323C24.0196 19.7323 24.9525 19.8749 25.3302 20.3376C25.7079 20.8003 25.5578 21.4344 25.5578 21.4344L24.5398 26.4279C24.5398 26.4279 24.4398 26.9119 24.1834 27.147C23.9345 27.3746 23.5206 27.3896 23.5206 27.3896C23.5206 27.3896 23.278 27.3971 23.1217 27.4609C22.9866 27.5184 22.9441 27.7385 22.9441 27.7385L22.8803 28.0662C22.8803 28.0662 22.8453 28.2012 22.9228 28.3225C23.0016 28.4438 23.2217 28.4726 23.2217 28.4726L28.3716 28.5076C28.3716 28.5076 28.5279 28.5001 28.6142 28.4151C28.6992 28.33 28.7205 28.1512 28.7205 28.1512L28.8055 27.681C28.8055 27.681 28.8405 27.5384 28.7705 27.4534C28.6855 27.3533 28.6142 27.3608 28.3791 27.3033C28.1365 27.2458 27.9939 27.1745 27.7588 26.9832C27.4662 26.7406 27.5662 26.2778 27.5662 26.2778L28.0152 23.7779C28.0152 23.7779 28.0727 23.5929 28.1927 23.6004C28.3703 23.6079 28.4279 23.7717 28.4279 23.7717L30.8852 28.1662C30.8852 28.1662 30.9703 28.3163 31.0991 28.4151C31.2279 28.5151 31.5193 28.5214 31.5193 28.5214L35.6649 28.4864C35.6649 28.4864 35.8713 28.4939 35.9851 28.4013C36.1201 28.2875 36.1564 28.1087 36.1564 28.1087L36.2352 27.746C36.2352 27.746 36.2927 27.5747 36.2139 27.4109C36.1214 27.2183 35.765 27.1758 35.3598 27.0545C35.0609 26.9619 34.6695 26.7481 34.5332 26.5492C34.4406 26.4067 34.5332 26.1153 34.5332 26.1153L35.915 20.4314C35.915 20.4314 35.9576 20.1963 36.1927 19.9537C36.4065 19.7323 36.9905 19.6123 36.9905 19.6123C36.9905 19.6123 37.1406 19.5835 37.2332 19.4985C37.2969 19.4347 37.3257 19.2996 37.3257 19.2996L37.482 18.6869C37.482 18.6869 37.5245 18.5305 37.432 18.423C37.3532 18.3304 37.1331 18.3304 37.1331 18.3304H32.3959C32.3959 18.3304 32.2396 18.3229 32.0895 18.4442C31.9545 18.558 31.9332 18.6718 31.9332 18.6718L31.8194 19.1846C31.8194 19.1846 31.7844 19.3134 31.8269 19.4122C31.8844 19.541 32.012 19.5473 32.012 19.5473L32.2108 19.5823C32.2108 19.5823 32.581 19.6535 32.7736 19.8461C32.9662 20.0387 32.8736 20.5365 32.8736 20.5365L32.1833 23.8492L29.6747 19.0708C29.6747 19.0708 29.6034 18.8494 29.3258 18.5793C29.0556 18.3092 28.6355 18.3304 28.6355 18.3304H23.9558C23.9621 18.2942 23.7632 18.3017 23.6494 18.3655Z" fill="white"/>
<g clip-path="url(#clip0_2588_183471)">
<path d="M63.6217 21.2577C63.2966 21.2577 62.9714 21.3202 62.6713 21.4327C62.3586 21.5453 62.0835 21.7079 61.8334 21.9205C61.5958 22.1331 61.3957 22.3957 61.2456 22.6958C61.0956 22.996 61.0205 23.3461 61.0205 23.7463C61.0205 24.134 61.0956 24.4966 61.2456 24.7968C61.3957 25.0969 61.5833 25.3595 61.8334 25.5721C62.071 25.7847 62.3586 25.9473 62.6713 26.0599C62.9839 26.1724 63.2966 26.2349 63.6217 26.2349C63.9469 26.2349 64.272 26.1724 64.5722 26.0599C64.8848 25.9473 65.1599 25.7847 65.41 25.5721C65.6477 25.3595 65.8477 25.0969 65.9978 24.7968C66.1479 24.4966 66.2229 24.1465 66.2229 23.7463C66.2229 23.3586 66.1479 23.0085 65.9978 22.6958C65.8477 22.3957 65.6477 22.1331 65.41 21.9205C65.1724 21.7079 64.8848 21.5453 64.5722 21.4327C64.272 21.3202 63.9469 21.2577 63.6217 21.2577ZM63.6217 27.6606C63.034 27.6606 62.4712 27.5856 61.946 27.448C61.4207 27.2979 60.958 27.0603 60.5578 26.7352C60.1701 26.41 59.8575 25.9848 59.6199 25.4971C59.3948 24.9969 59.2822 24.4216 59.2822 23.7588C59.2822 23.096 59.3948 22.5082 59.6199 22.008C59.845 21.5078 60.1576 21.0951 60.5578 20.7699C60.9455 20.4448 61.4082 20.1947 61.9334 20.0321C62.4587 19.8695 63.0214 19.782 63.6092 19.782C64.197 19.782 64.7597 19.8695 65.285 20.0321C65.8102 20.1947 66.2729 20.4448 66.6606 20.7699C67.0483 21.0951 67.3734 21.5203 67.5985 22.008C67.8237 22.5082 67.9362 23.096 67.9362 23.7588C67.9362 24.4216 67.8237 25.0094 67.5985 25.4971C67.3734 25.9973 67.0608 26.41 66.6606 26.7352C66.2729 27.0603 65.8102 27.2979 65.2725 27.448C64.7722 27.5856 64.2095 27.6606 63.6217 27.6606Z" fill="white"/>
<path d="M80.392 21.2577C80.0669 21.2577 79.7417 21.3202 79.4416 21.4327C79.129 21.5453 78.8538 21.7079 78.6037 21.9205C78.3661 22.1331 78.166 22.3957 78.0159 22.6958C77.8659 22.996 77.7908 23.3461 77.7908 23.7463C77.7908 24.1465 77.8659 24.4966 78.0159 24.7968C78.166 25.0969 78.3536 25.3595 78.6037 25.5721C78.8413 25.7847 79.129 25.9473 79.4416 26.0599C79.7542 26.1724 80.0794 26.2349 80.392 26.2349C80.7172 26.2349 81.0423 26.1724 81.3425 26.0599C81.6551 25.9473 81.9302 25.7847 82.1804 25.5721C82.418 25.3595 82.6181 25.0969 82.7681 24.7968C82.9182 24.4966 82.9932 24.1465 82.9932 23.7463C82.9932 23.3461 82.9182 23.0085 82.7681 22.6958C82.6181 22.3957 82.418 22.1331 82.1804 21.9205C81.9428 21.7079 81.6551 21.5453 81.3425 21.4327C81.0423 21.3202 80.7172 21.2577 80.392 21.2577ZM80.392 27.6606C79.8043 27.6606 79.2415 27.5856 78.7163 27.448C78.191 27.2979 77.7283 27.0603 77.3281 26.7352C76.9405 26.41 76.6278 25.9848 76.3902 25.4971C76.1651 24.9969 76.04 24.4216 76.04 23.7588C76.04 23.096 76.1526 22.5082 76.3902 22.008C76.6153 21.5078 76.9279 21.0951 77.3281 20.7699C77.7158 20.4448 78.1785 20.1947 78.7038 20.0321C79.229 19.8695 79.7918 19.782 80.3795 19.782C80.9673 19.782 81.5301 19.8695 82.0553 20.0321C82.5805 20.1947 83.0433 20.4448 83.4309 20.7699C83.8186 21.0951 84.1438 21.5203 84.3689 22.008C84.594 22.5082 84.7065 23.096 84.7065 23.7588C84.7065 24.4216 84.594 25.0094 84.3689 25.4971C84.1438 25.9973 83.8311 26.41 83.4309 26.7352C83.0433 27.0603 82.5805 27.2979 82.0428 27.448C81.5551 27.5856 80.9923 27.6606 80.392 27.6606Z" fill="white"/>
<path d="M56.3309 28.5236L50.1405 21.3703V28.5236H48.2646V18.4814H50.2281L56.1808 25.3596V18.4814H58.0566V28.5236H56.3309Z" fill="white"/>
<path d="M72.8135 27.5982H71.1753L67.8237 19.8696H69.6871L72.0007 25.2471L74.3017 19.8696H76.1651L72.8135 27.5982Z" fill="white"/>
<path d="M105.691 27.5982V21.3453H102.99V19.8696H110.131V21.3453H107.429V27.5982H105.691Z" fill="white"/>
<path d="M113.182 19.8696H111.419V27.5982H113.182V19.8696Z" fill="white"/>
<path d="M100.664 24.2466L99.6007 21.758L98.5377 24.2466H100.664ZM102.102 27.5982L101.301 25.7223H97.9249L97.1245 27.5982H95.3862L98.8003 19.8696H100.426L103.84 27.5982H102.102Z" fill="white"/>
<path d="M120.185 28.5861C119.447 28.5861 118.722 28.4861 118.034 28.286C117.346 28.0859 116.734 27.7608 116.208 27.3356C115.683 26.9104 115.258 26.3726 114.958 25.7348C114.645 25.1095 114.495 24.3467 114.495 23.4963C114.495 22.6584 114.645 21.9081 114.958 21.2703C115.258 20.6325 115.683 20.0822 116.208 19.657C116.734 19.2318 117.346 18.8942 118.034 18.6816C118.722 18.469 119.435 18.3564 120.185 18.3564C121.698 18.3564 123.099 18.8567 124.012 19.2444C124.112 19.2944 124.725 19.557 124.725 19.557L123.774 21.1452L123.637 21.0577C122.699 20.4949 121.636 20.1323 120.66 20.0197C120.485 19.9947 120.335 19.9947 120.185 19.9947H120.11H120.06C119.61 20.0072 119.16 20.0822 118.747 20.2198C118.297 20.3699 117.897 20.595 117.559 20.8951C117.221 21.1827 116.946 21.5579 116.746 21.9706C116.546 22.3958 116.446 22.8835 116.446 23.4338C116.446 23.984 116.546 24.4718 116.746 24.897C116.946 25.3221 117.221 25.6848 117.559 25.9724C117.897 26.2601 118.297 26.4852 118.747 26.6478C119.197 26.7978 119.685 26.8729 120.185 26.8729C121.798 26.8729 123.149 26.135 123.999 25.5097L124.15 25.4097L125 26.8729L124.875 26.9604C123.812 27.6357 122.186 28.4736 120.498 28.5736C120.385 28.5736 120.285 28.5861 120.185 28.5861Z" fill="white"/>
<path d="M92.7098 19.8696L90.1962 24.4592L87.67 19.8696H85.9692V27.5982H87.5074V22.796L90.1962 27.6232L92.8849 22.796V27.5982H94.4231V19.8696H92.7098Z" fill="white"/>
</g>
<path fill-rule="evenodd" clip-rule="evenodd" d="M125 33.0273L48.2646 33.0273L48.2646 31.3354L125 31.3355L125 33.0273Z" fill="white"/>
<defs>
<clipPath id="clip0_2588_183471">
<rect width="76.7352" height="10.2297" fill="white" transform="translate(48.2646 18.3564)"/>
</clipPath>
</defs>
</svg>
