<svg width="144" height="48" viewBox="0 0 144 48" fill="none" xmlns="http://www.w3.org/2000/svg">
<path d="M36.0728 13.9944L34.4646 13.9916C34.4275 13.9915 34.3974 14.0215 34.3973 14.0586L34.3945 15.6684C34.3945 15.7055 34.4245 15.7356 34.4616 15.7357L36.0698 15.7385C36.1068 15.7385 36.137 15.7085 36.137 15.6714L36.1398 14.0616C36.1399 14.0246 36.1099 13.9944 36.0728 13.9944Z" fill="white"/>
<path d="M96.6557 16.0747L96.6548 17.2763C96.6548 17.284 96.6564 17.2916 96.6594 17.2987C96.6624 17.3058 96.6667 17.3122 96.6723 17.3175C96.6778 17.3229 96.6843 17.3271 96.6915 17.3299C96.6987 17.3326 96.7063 17.3339 96.714 17.3337L97.2592 17.316C97.2669 17.3158 97.2746 17.3171 97.2817 17.3199C97.2889 17.3227 97.2955 17.3269 97.301 17.3322C97.3065 17.3376 97.3109 17.344 97.3139 17.3511C97.3169 17.3582 97.3184 17.3658 97.3184 17.3735V19.296C97.3184 19.3113 97.3124 19.3259 97.3016 19.3366C97.2908 19.3474 97.2762 19.3535 97.261 19.3535L96.0292 19.3623C96.014 19.3623 95.9994 19.3563 95.9886 19.3455C95.9778 19.3347 95.9718 19.3201 95.9718 19.3049L95.9691 17.4044C95.9691 17.3892 95.9631 17.3746 95.9523 17.3638C95.9415 17.353 95.9269 17.347 95.9117 17.347L94.7047 17.3461C94.6971 17.3461 94.6897 17.3476 94.6827 17.3504C94.6757 17.3533 94.6694 17.3576 94.6641 17.3629C94.6587 17.3682 94.6545 17.3746 94.6516 17.3815C94.6487 17.3885 94.6472 17.396 94.6472 17.4035V19.3013C94.6472 19.3089 94.6458 19.3163 94.6429 19.3233C94.64 19.3303 94.6357 19.3366 94.6304 19.3419C94.6251 19.3473 94.6187 19.3515 94.6118 19.3544C94.6048 19.3573 94.5973 19.3588 94.5898 19.3588L93.3563 19.3632C93.341 19.3632 93.3264 19.3571 93.3157 19.3464C93.3049 19.3356 93.2988 19.321 93.2988 19.3058V14.0425C93.2988 14.0349 93.3003 14.0274 93.3033 14.0204C93.3062 14.0133 93.3105 14.007 93.316 14.0016C93.3214 13.9963 93.3278 13.9921 93.3349 13.9892C93.342 13.9864 93.3495 13.985 93.3572 13.9851L94.588 13.9948C94.6031 13.9951 94.6175 14.0012 94.6281 14.012C94.6387 14.0227 94.6446 14.0372 94.6446 14.0523L94.6525 15.9457C94.6525 15.9609 94.6586 15.9755 94.6694 15.9863C94.6801 15.9971 94.6947 16.0031 94.71 16.0031L95.9126 16.0022C95.9278 16.0022 95.9424 15.9962 95.9532 15.9854C95.964 15.9746 95.97 15.96 95.97 15.9448L95.9735 14.0505C95.9738 14.0354 95.9799 14.021 95.9907 14.0105C96.0014 13.9999 96.0159 13.9939 96.031 13.9939L97.2566 14.0037C97.2716 14.0039 97.286 14.0101 97.2966 14.0208C97.3072 14.0315 97.3131 14.046 97.3131 14.0611L97.3184 15.9713C97.3184 15.9789 97.3169 15.9865 97.314 15.9935C97.311 16.0005 97.3067 16.0069 97.3013 16.0122C97.2959 16.0176 97.2894 16.0218 97.2824 16.0246C97.2753 16.0274 97.2677 16.0288 97.2601 16.0287L96.714 16.0172C96.7064 16.0171 96.6988 16.0185 96.6918 16.0214C96.6847 16.0242 96.6783 16.0284 96.6728 16.0337C96.6674 16.0391 96.6631 16.0455 96.6602 16.0525C96.6572 16.0595 96.6557 16.0671 96.6557 16.0747Z" fill="white"/>
<path d="M111.57 14.926C111.449 15.1593 111.327 15.4175 111.202 15.7009C111.124 15.8758 110.894 15.8988 110.728 15.8246C110.702 15.8134 110.681 15.7922 110.666 15.7609C110.501 15.4364 110.344 15.1242 110.196 14.8244C110.164 14.7584 110.148 14.762 110.148 14.835L110.139 16.185C110.138 16.2534 110.104 16.2878 110.036 16.2884L109.885 16.2893C109.812 16.2905 109.775 16.2542 109.775 16.1806V14.0601C109.775 14.0459 109.78 14.0321 109.788 14.0208C109.797 14.0095 109.809 14.0013 109.823 13.9974C110.058 13.9303 110.172 13.9824 110.283 14.198C110.483 14.5855 110.676 14.9678 110.863 15.3448C110.867 15.353 110.873 15.3599 110.881 15.3648C110.888 15.3696 110.897 15.3722 110.906 15.3722C110.916 15.3722 110.924 15.3696 110.932 15.3648C110.94 15.3599 110.946 15.353 110.95 15.3448L111.592 14.0274C111.606 13.9974 111.63 13.9821 111.663 13.9815L111.946 13.9762C111.955 13.9761 111.965 13.9778 111.973 13.9813C111.982 13.9848 111.99 13.99 111.997 13.9966C112.003 14.0032 112.008 14.011 112.012 14.0196C112.016 14.0283 112.018 14.0375 112.018 14.0469L112.017 16.1824C112.017 16.2495 111.983 16.2834 111.916 16.284L111.738 16.2849C111.71 16.2849 111.682 16.2735 111.662 16.2533C111.642 16.2331 111.631 16.2057 111.631 16.1771L111.637 14.9428C111.637 14.8444 111.614 14.8388 111.57 14.926Z" fill="white"/>
<path d="M38.0279 13.9946L36.4692 13.9918C36.4228 13.9918 36.3852 14.0293 36.3851 14.0756L36.3824 15.6536C36.3823 15.7 36.4198 15.7376 36.4662 15.7377L38.0249 15.7404C38.0712 15.7405 38.1089 15.703 38.1089 15.6566L38.1117 14.0786C38.1118 14.0323 38.0743 13.9946 38.0279 13.9946Z" fill="white"/>
<path d="M40.0058 13.9936L38.4276 13.9909C38.3862 13.9908 38.3525 14.0243 38.3524 14.0658L38.3496 15.6633C38.3495 15.7047 38.3831 15.7384 38.4246 15.7385L40.0027 15.7412C40.0442 15.7413 40.0779 15.7077 40.078 15.6663L40.0808 14.0688C40.0808 14.0274 40.0473 13.9937 40.0058 13.9936Z" fill="white"/>
<path d="M42.0035 13.9944L40.3918 13.9916C40.3542 13.9915 40.3237 14.0219 40.3236 14.0595L40.3208 15.6693C40.3207 15.7069 40.3511 15.7374 40.3887 15.7374L42.0004 15.7402C42.038 15.7403 42.0685 15.7099 42.0686 15.6723L42.0714 14.0625C42.0715 14.025 42.0411 13.9945 42.0035 13.9944Z" fill="white"/>
<path d="M43.972 13.9977L42.3921 13.9922C42.3487 13.9921 42.3134 14.0271 42.3132 14.0706L42.3077 15.6574C42.3075 15.7008 42.3426 15.7362 42.386 15.7363L43.9659 15.7418C44.0094 15.742 44.0447 15.7069 44.0449 15.6635L44.0504 14.0766C44.0505 14.0332 44.0155 13.9979 43.972 13.9977Z" fill="white"/>
<path d="M45.9474 13.9934L44.3675 13.9962C44.3177 13.9963 44.2774 14.0367 44.2775 14.0865L44.2802 15.6503C44.2803 15.7001 44.3207 15.7404 44.3705 15.7403L45.9504 15.7375C46.0002 15.7374 46.0405 15.697 46.0404 15.6472L46.0377 14.0834C46.0376 14.0336 45.9972 13.9933 45.9474 13.9934Z" fill="white"/>
<path d="M47.91 15.7381L46.3787 15.7593C46.3656 15.7595 46.3527 15.7571 46.3406 15.7523C46.3285 15.7475 46.3175 15.7403 46.3082 15.7312C46.2989 15.722 46.2915 15.7111 46.2864 15.6991C46.2814 15.6871 46.2788 15.6742 46.2788 15.6612V14.092C46.2788 14.066 46.2891 14.0411 46.3075 14.0227C46.3259 14.0043 46.3509 13.994 46.3769 13.994L47.9144 13.9922C47.9274 13.9921 47.9403 13.9946 47.9524 13.9995C47.9645 14.0044 47.9754 14.0117 47.9846 14.0209C47.9938 14.0301 48.0011 14.0411 48.0061 14.0531C48.011 14.0652 48.0135 14.0781 48.0134 14.0911L48.0063 15.64C48.0063 15.6657 47.9962 15.6904 47.9782 15.7087C47.9602 15.7271 47.9357 15.7376 47.91 15.7381Z" fill="white"/>
<path d="M49.9123 13.9949H48.3165C48.2808 13.9949 48.252 14.0237 48.252 14.0594V15.6745C48.252 15.7101 48.2808 15.739 48.3165 15.739H49.9123C49.9479 15.739 49.9768 15.7101 49.9768 15.6745V14.0594C49.9768 14.0237 49.9479 13.9949 49.9123 13.9949Z" fill="#FF6E00"/>
<path d="M61.4873 14.0004L59.8844 13.9948C59.8517 13.9947 59.8251 14.0211 59.825 14.0538L59.8194 15.6671C59.8192 15.6998 59.8457 15.7264 59.8784 15.7266L61.4812 15.7321C61.5139 15.7323 61.5405 15.7058 61.5406 15.6732L61.5463 14.0598C61.5464 14.0271 61.52 14.0005 61.4873 14.0004Z" fill="#FFB919"/>
<path d="M63.4384 13.9946L61.8744 13.9918C61.8299 13.9918 61.7939 14.0277 61.7938 14.0721L61.791 15.6572C61.791 15.7016 61.8269 15.7376 61.8713 15.7377L63.4353 15.7404C63.4797 15.7405 63.5158 15.7046 63.5159 15.6602L63.5186 14.0751C63.5187 14.0307 63.4828 13.9946 63.4384 13.9946Z" fill="white"/>
<path d="M65.4203 13.9943L63.8492 13.9916C63.8009 13.9915 63.7617 14.0306 63.7616 14.0789L63.7588 15.6498C63.7587 15.6982 63.7978 15.7374 63.8461 15.7375L65.4172 15.7402C65.4655 15.7403 65.5048 15.7012 65.5049 15.6529L65.5076 14.082C65.5077 14.0337 65.4686 13.9944 65.4203 13.9943Z" fill="white"/>
<path d="M67.4025 13.9936L65.8296 13.9909C65.7862 13.9908 65.7509 14.0259 65.7508 14.0694L65.7481 15.6597C65.748 15.7031 65.7831 15.7384 65.8266 15.7385L67.3994 15.7412C67.4428 15.7413 67.4781 15.7062 67.4782 15.6627L67.481 14.0724C67.481 14.0289 67.4459 13.9937 67.4025 13.9936Z" fill="white"/>
<path d="M69.4037 13.9981L67.7849 13.9952C67.7503 13.9952 67.7221 14.0232 67.7221 14.0578L67.7192 15.6729C67.7192 15.7076 67.7472 15.7357 67.7819 15.7358L69.4007 15.7386C69.4353 15.7387 69.4634 15.7106 69.4635 15.676L69.4663 14.0609C69.4664 14.0262 69.4383 13.9981 69.4037 13.9981Z" fill="white"/>
<path d="M82.6395 16.7425L82.6492 17.2921C82.6493 17.2996 82.6479 17.307 82.6451 17.314C82.6424 17.321 82.6382 17.3273 82.6329 17.3327C82.6277 17.338 82.6214 17.3422 82.6145 17.3451C82.6076 17.348 82.6001 17.3495 82.5926 17.3495L80.6937 17.3469C80.6787 17.3469 80.6644 17.3528 80.6537 17.3634C80.6431 17.374 80.6372 17.3884 80.6372 17.4034L80.6354 19.3004C80.6354 19.3154 80.6295 19.3297 80.6189 19.3404C80.6083 19.351 80.5939 19.3569 80.5789 19.3569L79.3427 19.3613C79.3277 19.3613 79.3133 19.3554 79.3027 19.3448C79.2921 19.3342 79.2861 19.3198 79.2861 19.3048L79.295 14.0478C79.295 14.0403 79.2964 14.033 79.2993 14.0261C79.3021 14.0193 79.3063 14.013 79.3115 14.0078C79.3168 14.0025 79.323 13.9984 79.3299 13.9955C79.3367 13.9927 79.3441 13.9912 79.3515 13.9912L82.5891 14.0168C82.6032 14.017 82.6167 14.0225 82.627 14.0321C82.6373 14.0417 82.6437 14.0549 82.6448 14.069L82.6819 14.5885C82.683 14.6025 82.6893 14.6157 82.6996 14.6253C82.7099 14.635 82.7234 14.6404 82.7376 14.6406L83.2536 14.6433C83.2686 14.6433 83.283 14.6492 83.2936 14.6598C83.3042 14.6704 83.3101 14.6848 83.3101 14.6998L83.3031 16.6339C83.3028 16.6487 83.2968 16.6629 83.2862 16.6733C83.2756 16.6837 83.2614 16.6895 83.2465 16.6895L82.6969 16.6851C82.6893 16.685 82.6818 16.6864 82.6748 16.6892C82.6678 16.6921 82.6614 16.6963 82.656 16.7017C82.6507 16.707 82.6464 16.7134 82.6436 16.7204C82.6408 16.7274 82.6393 16.735 82.6395 16.7425ZM81.9414 15.4164C81.9414 15.4025 81.9359 15.3893 81.9261 15.3795C81.9164 15.3697 81.9031 15.3642 81.8893 15.3642H80.6876C80.6737 15.3642 80.6605 15.3697 80.6507 15.3795C80.6409 15.3893 80.6354 15.4025 80.6354 15.4164V15.95C80.6354 15.9638 80.6409 15.9771 80.6507 15.9869C80.6605 15.9966 80.6737 16.0021 80.6876 16.0021H81.8893C81.9031 16.0021 81.9164 15.9966 81.9261 15.9869C81.9359 15.9771 81.9414 15.9638 81.9414 15.95V15.4164Z" fill="white"/>
<path d="M84.581 14.5497L84.6288 14.0832C84.6305 14.0649 84.639 14.0479 84.6525 14.0355C84.6661 14.0231 84.6837 14.0162 84.7021 14.016L87.2416 13.9966C87.2612 13.9966 87.2799 14.0043 87.2938 14.018C87.3077 14.0317 87.3156 14.0504 87.3158 14.0699L87.3194 14.5832C87.3194 14.5932 87.3214 14.6031 87.3253 14.6123C87.3292 14.6215 87.3349 14.6298 87.342 14.6367C87.3492 14.6436 87.3577 14.649 87.367 14.6526C87.3763 14.6562 87.3863 14.6578 87.3963 14.6575L87.8902 14.6389C87.9002 14.6386 87.9101 14.6402 87.9194 14.6438C87.9287 14.6474 87.9372 14.6528 87.9444 14.6597C87.9516 14.6666 87.9573 14.6749 87.9612 14.6841C87.9651 14.6933 87.9671 14.7032 87.9671 14.7131L87.9724 18.6228C87.9724 18.6326 87.9704 18.6423 87.9666 18.6514C87.9629 18.6604 87.9573 18.6687 87.9503 18.6756C87.9433 18.6825 87.935 18.6879 87.9259 18.6916C87.9168 18.6953 87.9071 18.6971 87.8973 18.697L87.3821 18.6943C87.3626 18.6943 87.3438 18.702 87.3299 18.7158C87.316 18.7295 87.3081 18.7481 87.3079 18.7677L87.307 19.2695C87.307 19.289 87.2993 19.3078 87.2856 19.3217C87.2718 19.3356 87.2532 19.3435 87.2337 19.3437L84.6888 19.3605C84.679 19.3606 84.6693 19.3588 84.6602 19.3551C84.6511 19.3514 84.6428 19.346 84.6358 19.3391C84.6288 19.3322 84.6232 19.324 84.6195 19.3149C84.6157 19.3058 84.6137 19.2961 84.6137 19.2863L84.6173 18.773C84.6173 18.7534 84.6096 18.7347 84.5958 18.7208C84.5821 18.7069 84.5635 18.699 84.5439 18.6988L84.0182 18.6926C84.0084 18.6925 83.9988 18.6904 83.9898 18.6866C83.9809 18.6827 83.9728 18.6772 83.9659 18.6702C83.9591 18.6632 83.9538 18.655 83.9501 18.6459C83.9465 18.6369 83.9447 18.6272 83.9448 18.6175L83.9705 14.7352C83.9706 14.7167 83.9777 14.6989 83.9903 14.6854C84.0028 14.6718 84.0201 14.6634 84.0385 14.6619L84.5139 14.6168C84.5312 14.6152 84.5473 14.6077 84.5596 14.5954C84.5719 14.5831 84.5795 14.567 84.581 14.5497ZM86.6236 15.4312C86.6235 15.4115 86.6157 15.3926 86.6017 15.3787C86.5878 15.3648 86.5689 15.3571 86.5492 15.3571L85.3722 15.3591C85.3625 15.3592 85.3528 15.3611 85.3438 15.3648C85.3348 15.3686 85.3267 15.3741 85.3198 15.381C85.3129 15.3879 85.3075 15.3961 85.3037 15.4051C85.3 15.4141 85.2981 15.4237 85.2981 15.4335L85.3025 17.918C85.3025 17.9377 85.3104 17.9565 85.3243 17.9704C85.3382 17.9843 85.3571 17.9921 85.3768 17.9921L86.5538 17.99C86.5636 17.99 86.5732 17.9881 86.5822 17.9843C86.5912 17.9806 86.5994 17.9751 86.6063 17.9682C86.6131 17.9613 86.6186 17.9531 86.6223 17.9441C86.626 17.9351 86.6279 17.9254 86.6279 17.9157L86.6236 15.4312Z" fill="white"/>
<path d="M90.0285 15.3591C90.0163 15.3591 90.0046 15.3639 89.996 15.3725C89.9874 15.3812 89.9826 15.3928 89.9826 15.405V17.9257C89.9826 17.9431 89.9895 17.9597 90.0017 17.972C90.014 17.9842 90.0306 17.9911 90.048 17.9911H91.1984C91.222 17.9911 91.2445 17.9818 91.2612 17.965C91.2779 17.9483 91.2875 17.9256 91.2877 17.9019L91.2921 17.3638C91.2923 17.3541 91.2963 17.3449 91.3033 17.3381C91.3102 17.3314 91.3195 17.3276 91.3292 17.3276L92.5919 17.3258C92.6111 17.3258 92.6296 17.3336 92.6431 17.3473C92.6567 17.3611 92.6644 17.3797 92.6644 17.3992L92.6635 18.6008C92.6635 18.6136 92.661 18.6262 92.656 18.638C92.6511 18.6498 92.6439 18.6605 92.6349 18.6695C92.6259 18.6785 92.6151 18.6855 92.6033 18.6903C92.5916 18.695 92.579 18.6973 92.5663 18.6971L92.0856 18.6918C92.0727 18.6915 92.0599 18.6939 92.048 18.6987C92.036 18.7035 92.0252 18.7106 92.016 18.7197C92.0069 18.7287 91.9996 18.7395 91.9947 18.7514C91.9899 18.7633 91.9874 18.7761 91.9875 18.789L91.9955 19.3147C91.9956 19.3208 91.9945 19.3268 91.9923 19.3325C91.9901 19.3382 91.9868 19.3434 91.9826 19.3477C91.9784 19.3521 91.9734 19.3556 91.9679 19.3579C91.9623 19.3603 91.9564 19.3615 91.9504 19.3615L89.4047 19.3562C89.376 19.3562 89.3485 19.3449 89.3281 19.3247C89.3078 19.3045 89.2962 19.2771 89.296 19.2484L89.2934 18.766C89.2931 18.7499 89.2865 18.7345 89.275 18.7231C89.2634 18.7117 89.2478 18.7052 89.2315 18.705L88.6898 18.698C88.6829 18.6978 88.676 18.6964 88.6696 18.6936C88.6632 18.6908 88.6574 18.6868 88.6526 18.6818C88.6478 18.6768 88.644 18.6709 88.6414 18.6644C88.6388 18.6579 88.6376 18.651 88.6377 18.6441L88.6616 14.6876C88.6622 14.6505 88.6807 14.6343 88.7172 14.639C88.8857 14.6608 89.0512 14.6464 89.2138 14.5957C89.2246 14.5926 89.2342 14.5863 89.2414 14.5777C89.2487 14.569 89.2532 14.5584 89.2545 14.5471L89.3137 14.0868C89.3172 14.0591 89.3328 14.0438 89.3605 14.0408C90.1964 13.9507 91.0765 14.0188 91.9204 14.0011C91.9305 14.0009 91.9405 14.0026 91.9499 14.0063C91.9593 14.01 91.9679 14.0156 91.9752 14.0226C91.9825 14.0297 91.9884 14.0381 91.9925 14.0475C91.9965 14.0568 91.9988 14.0669 91.999 14.0771L92.0061 14.563C92.0065 14.5868 92.0162 14.6095 92.0331 14.6262C92.0499 14.6429 92.0726 14.6523 92.0962 14.6523L92.6043 14.6549C92.6123 14.6549 92.6202 14.6565 92.6276 14.6595C92.635 14.6626 92.6417 14.6671 92.6474 14.6728C92.6531 14.6784 92.6575 14.6851 92.6606 14.6925C92.6637 14.6999 92.6652 14.7079 92.6652 14.7159V15.9404C92.6652 15.9618 92.6569 15.9822 92.642 15.9973C92.627 16.0124 92.6068 16.0208 92.5857 16.0208H91.3822C91.3174 16.0208 91.2853 15.9887 91.2859 15.9245L91.2877 15.4068C91.2877 15.375 91.2718 15.3591 91.24 15.3591H90.0285Z" fill="white"/>
<path d="M99.3296 15.4278V15.9385C99.3296 15.9556 99.3364 15.972 99.3485 15.9841C99.3606 15.9962 99.377 16.003 99.3941 16.003H101.257C101.274 16.003 101.29 16.0098 101.302 16.0219C101.314 16.034 101.321 16.0504 101.321 16.0675L101.323 17.285C101.323 17.3021 101.316 17.3185 101.304 17.3306C101.292 17.3427 101.276 17.3495 101.259 17.3495L99.3958 17.3469C99.3789 17.3469 99.3626 17.3535 99.3505 17.3655C99.3385 17.3774 99.3316 17.3935 99.3313 17.4105L99.3269 17.9256C99.3268 17.9341 99.3284 17.9426 99.3316 17.9505C99.3348 17.9585 99.3395 17.9657 99.3455 17.9718C99.3515 17.9779 99.3587 17.9827 99.3665 17.986C99.3744 17.9893 99.3829 17.991 99.3914 17.991L101.934 17.9901C101.942 17.9901 101.95 17.9918 101.958 17.995C101.966 17.9982 101.973 18.003 101.979 18.009C101.985 18.015 101.99 18.0221 101.993 18.0299C101.996 18.0377 101.998 18.0461 101.998 18.0546L102.006 19.2783C102.006 19.2954 101.999 19.3118 101.987 19.3239C101.975 19.336 101.959 19.3428 101.942 19.3428L98.0245 19.3657C98.0074 19.3657 97.991 19.359 97.9789 19.3469C97.9668 19.3348 97.96 19.3184 97.96 19.3013L97.9635 14.0557C97.9635 14.0386 97.9703 14.0222 97.9824 14.0101C97.9945 13.998 98.0109 13.9912 98.028 13.9912L101.939 14.0045C101.956 14.0045 101.972 14.0113 101.985 14.0234C101.997 14.0355 102.003 14.0519 102.003 14.069L101.995 15.2988C101.995 15.3159 101.989 15.3324 101.977 15.3444C101.964 15.3565 101.948 15.3633 101.931 15.3633H99.3941C99.377 15.3633 99.3606 15.3701 99.3485 15.3822C99.3364 15.3943 99.3296 15.4107 99.3296 15.4278Z" fill="white"/>
<path d="M105.342 15.4138L105.341 19.3023C105.341 19.3172 105.335 19.3316 105.324 19.3422C105.314 19.3528 105.299 19.3588 105.284 19.3588L104.029 19.3614C104.014 19.3614 104 19.3555 103.989 19.3449C103.979 19.3343 103.973 19.3199 103.973 19.3049L103.974 15.42C103.974 15.405 103.968 15.3906 103.957 15.38C103.947 15.3694 103.932 15.3635 103.917 15.3635L102.694 15.3582C102.679 15.3582 102.665 15.3522 102.654 15.3416C102.644 15.331 102.638 15.3166 102.638 15.3016L102.643 14.0443C102.643 14.0293 102.649 14.015 102.66 14.0044C102.67 13.9938 102.685 13.9878 102.7 13.9878L106.629 14.0055C106.637 14.0055 106.644 14.007 106.651 14.0099C106.658 14.0127 106.664 14.017 106.669 14.0223C106.675 14.0277 106.679 14.034 106.682 14.041C106.684 14.0479 106.686 14.0554 106.686 14.0629L106.667 15.3034C106.667 15.3182 106.661 15.3324 106.65 15.3428C106.64 15.3532 106.625 15.359 106.61 15.359L105.398 15.3573C105.383 15.3573 105.369 15.3632 105.358 15.3738C105.348 15.3844 105.342 15.3988 105.342 15.4138Z" fill="white"/>
<path d="M108.926 14.4225V16.2125C108.926 16.2227 108.924 16.2328 108.92 16.2422C108.916 16.2516 108.91 16.2601 108.903 16.2672C108.895 16.2743 108.887 16.2798 108.877 16.2835C108.867 16.2871 108.857 16.2888 108.847 16.2885L108.639 16.2823C108.62 16.2816 108.601 16.2734 108.588 16.2594C108.574 16.2455 108.566 16.2267 108.566 16.2072L108.559 14.4313C108.559 14.4119 108.552 14.3932 108.538 14.3791C108.525 14.3649 108.507 14.3564 108.487 14.3553L108.08 14.3323C108.062 14.3313 108.044 14.3237 108.031 14.3109C108.018 14.298 108.01 14.2809 108.009 14.2625L107.995 14.0894C107.995 14.0791 107.996 14.0688 107.999 14.0591C108.003 14.0494 108.008 14.0404 108.015 14.0328C108.022 14.0252 108.03 14.0191 108.04 14.0149C108.049 14.0106 108.059 14.0083 108.07 14.0081L109.428 13.9851C109.438 13.985 109.448 13.9868 109.457 13.9906C109.466 13.9943 109.475 13.9998 109.482 14.0067C109.489 14.0137 109.494 14.022 109.498 14.0312C109.502 14.0404 109.504 14.0502 109.505 14.0602L109.508 14.274C109.508 14.2842 109.506 14.2942 109.502 14.3036C109.499 14.313 109.493 14.3215 109.486 14.3286C109.479 14.3358 109.47 14.3415 109.461 14.3453C109.451 14.3491 109.441 14.351 109.431 14.3509L109.003 14.3465C108.993 14.3464 108.983 14.3482 108.973 14.352C108.964 14.3558 108.955 14.3614 108.948 14.3684C108.941 14.3755 108.936 14.3839 108.932 14.3932C108.928 14.4025 108.926 14.4124 108.926 14.4225Z" fill="white"/>
<path d="M34.0722 15.9841L32.4817 15.9813C32.4446 15.9813 32.4145 16.0113 32.4144 16.0483L32.4117 17.6352C32.4116 17.6723 32.4416 17.7024 32.4787 17.7024L34.0692 17.7052C34.1063 17.7053 34.1364 17.6753 34.1365 17.6382L34.1393 16.0514C34.1393 16.0143 34.1093 15.9842 34.0722 15.9841Z" fill="#6414E6"/>
<path d="M36.0528 15.9829H34.4658C34.4194 15.9829 34.3818 16.0205 34.3818 16.0668V17.6236C34.3818 17.67 34.4194 17.7076 34.4658 17.7076H36.0528C36.0991 17.7076 36.1367 17.67 36.1367 17.6236V16.0668C36.1367 16.0205 36.0991 15.9829 36.0528 15.9829Z" fill="white"/>
<path d="M38.0273 15.9836H36.4668C36.421 15.9836 36.3838 16.0208 36.3838 16.0667V17.6235C36.3838 17.6694 36.421 17.7065 36.4668 17.7065H38.0273C38.0732 17.7065 38.1104 17.6694 38.1104 17.6235V16.0667C38.1104 16.0208 38.0732 15.9836 38.0273 15.9836Z" fill="white"/>
<path d="M39.9894 15.9822L38.4378 15.985C38.388 15.985 38.3477 16.0255 38.3478 16.0752L38.3505 17.6196C38.3506 17.6694 38.391 17.7097 38.4408 17.7096L39.9924 17.7069C40.0422 17.7068 40.0825 17.6664 40.0824 17.6166L40.0797 16.0722C40.0796 16.0224 40.0392 15.9822 39.9894 15.9822Z" fill="white"/>
<path d="M41.9931 15.9846H40.3973C40.3553 15.9846 40.3213 16.0186 40.3213 16.0606V17.6315C40.3213 17.6735 40.3553 17.7075 40.3973 17.7075H41.9931C42.0351 17.7075 42.0691 17.6735 42.0691 17.6315V16.0606C42.0691 16.0186 42.0351 15.9846 41.9931 15.9846Z" fill="white"/>
<path d="M43.9635 15.9851L42.396 15.9823C42.3496 15.9822 42.3119 16.0198 42.3119 16.0661L42.3091 17.6229C42.3091 17.6693 42.3466 17.7069 42.3929 17.707L43.9605 17.7097C44.0068 17.7098 44.0445 17.6723 44.0446 17.6259L44.0473 16.0691C44.0474 16.0228 44.0099 15.9851 43.9635 15.9851Z" fill="white"/>
<path d="M45.9714 15.9846H44.3544C44.3153 15.9846 44.2837 16.0163 44.2837 16.0553V17.6368C44.2837 17.6759 44.3153 17.7075 44.3544 17.7075H45.9714C46.0104 17.7075 46.0421 17.6759 46.0421 17.6368V16.0553C46.0421 16.0163 46.0104 15.9846 45.9714 15.9846Z" fill="white"/>
<path d="M47.9443 15.9819H46.3415C46.3063 15.9819 46.2778 16.0104 46.2778 16.0455V17.6465C46.2778 17.6816 46.3063 17.7101 46.3415 17.7101H47.9443C47.9795 17.7101 48.008 17.6816 48.008 17.6465V16.0455C48.008 16.0104 47.9795 15.9819 47.9443 15.9819Z" fill="white"/>
<path d="M49.8975 15.9815L48.3229 15.9842C48.2799 15.9843 48.2452 16.0192 48.2453 16.0621L48.248 17.6313C48.2481 17.6742 48.2829 17.709 48.3259 17.7089L49.9005 17.7061C49.9434 17.7061 49.9782 17.6712 49.9781 17.6283L49.9754 16.0591C49.9753 16.0162 49.9404 15.9814 49.8975 15.9815Z" fill="white"/>
<path d="M59.4949 15.9841L57.8955 15.9813C57.8545 15.9813 57.8212 16.0144 57.8212 16.0554L57.8184 17.6316C57.8183 17.6726 57.8515 17.7059 57.8925 17.706L59.4919 17.7088C59.5328 17.7088 59.5661 17.6757 59.5662 17.6347L59.569 16.0585C59.569 16.0175 59.5359 15.9842 59.4949 15.9841Z" fill="white"/>
<path d="M61.4565 15.9829H59.8995C59.8488 15.9829 59.8076 16.024 59.8076 16.0748V17.6157C59.8076 17.6664 59.8488 17.7076 59.8995 17.7076H61.4565C61.5072 17.7076 61.5484 17.6664 61.5484 17.6157V16.0748C61.5484 16.024 61.5072 15.9829 61.4565 15.9829Z" fill="white"/>
<path d="M63.4311 15.9818L61.8707 15.9873C61.8248 15.9874 61.7877 16.0247 61.7879 16.0706L61.7933 17.6274C61.7935 17.6732 61.8308 17.7103 61.8767 17.7101L63.4371 17.7047C63.483 17.7045 63.5201 17.6672 63.5199 17.6214L63.5145 16.0646C63.5143 16.0187 63.477 15.9817 63.4311 15.9818Z" fill="white"/>
<path d="M65.423 15.9841L63.8484 15.9814C63.8011 15.9813 63.7626 16.0196 63.7625 16.0669L63.7598 17.6202C63.7598 17.6675 63.7981 17.7059 63.8454 17.706L65.42 17.7088C65.4673 17.7088 65.5058 17.6705 65.5059 17.6232L65.5086 16.07C65.5087 16.0226 65.4704 15.9842 65.423 15.9841Z" fill="white"/>
<path d="M67.392 15.9846H65.8368C65.7875 15.9846 65.7476 16.0246 65.7476 16.0739V17.6183C65.7476 17.6676 65.7875 17.7075 65.8368 17.7075H67.392C67.4413 17.7075 67.4812 17.6676 67.4812 17.6183V16.0739C67.4812 16.0246 67.4413 15.9846 67.392 15.9846Z" fill="white"/>
<path d="M69.3964 15.9851L67.7953 15.9823C67.7538 15.9822 67.7202 16.0158 67.7201 16.0573L67.7173 17.63C67.7173 17.6714 67.7508 17.7051 67.7923 17.7052L69.3934 17.708C69.4349 17.7081 69.4686 17.6745 69.4687 17.633L69.4714 16.0603C69.4715 16.0189 69.4379 15.9852 69.3964 15.9851Z" fill="white"/>
<path d="M71.3573 15.9865L69.788 15.981C69.7387 15.9809 69.6986 16.0207 69.6984 16.0699L69.693 17.6161C69.6928 17.6654 69.7327 17.7055 69.782 17.7057L71.3513 17.7112C71.4005 17.7113 71.4406 17.6715 71.4408 17.6222L71.4462 16.076C71.4464 16.0268 71.4066 15.9867 71.3573 15.9865Z" fill="white"/>
<path d="M73.3445 15.9841L71.7575 15.9813C71.7175 15.9813 71.685 16.0136 71.6849 16.0537L71.6822 17.6316C71.6821 17.6717 71.7145 17.7041 71.7545 17.7042L73.3415 17.707C73.3815 17.7071 73.414 17.6747 73.4141 17.6347L73.4168 16.0567C73.4169 16.0167 73.3845 15.9842 73.3445 15.9841Z" fill="white"/>
<path d="M34.0655 17.9565H32.4855C32.4455 17.9565 32.4131 17.989 32.4131 18.029V19.6088C32.4131 19.6488 32.4455 19.6812 32.4855 19.6812H34.0655C34.1055 19.6812 34.1379 19.6488 34.1379 19.6088V18.029C34.1379 17.989 34.1055 17.9565 34.0655 17.9565Z" fill="white"/>
<path d="M36.0725 17.957L34.4537 17.9542C34.418 17.9542 34.3891 17.983 34.389 18.0186L34.3863 19.609C34.3862 19.6446 34.415 19.6735 34.4507 19.6736L36.0695 19.6764C36.1051 19.6765 36.134 19.6476 36.1341 19.612L36.1368 18.0216C36.1369 17.986 36.1081 17.9571 36.0725 17.957Z" fill="white"/>
<path d="M47.9352 17.9475L46.3518 17.9447C46.3117 17.9446 46.2792 17.977 46.2792 18.017L46.2764 19.6092C46.2763 19.6492 46.3087 19.6817 46.3487 19.6817L47.9322 19.6845C47.9722 19.6846 48.0047 19.6522 48.0048 19.6122L48.0075 18.02C48.0076 17.98 47.9752 17.9475 47.9352 17.9475Z" fill="white"/>
<path d="M49.913 17.9526L48.3172 17.9498C48.2801 17.9498 48.2499 17.9798 48.2499 18.0169L48.2471 19.6125C48.247 19.6496 48.277 19.6797 48.3141 19.6798L49.91 19.6826C49.947 19.6826 49.9772 19.6526 49.9772 19.6155L49.98 18.0199C49.9801 17.9828 49.9501 17.9527 49.913 17.9526Z" fill="white"/>
<path d="M51.8947 17.9519L50.2918 17.9491C50.2523 17.949 50.2202 17.981 50.2201 18.0205L50.2173 19.6074C50.2173 19.6469 50.2492 19.679 50.2888 19.6791L51.8917 19.6819C51.9312 19.6819 51.9633 19.6499 51.9634 19.6104L51.9661 18.0236C51.9662 17.9841 51.9342 17.952 51.8947 17.9519Z" fill="white"/>
<path d="M57.5183 17.9546L55.9118 17.9518C55.8796 17.9517 55.8535 17.9778 55.8534 18.01L55.8506 19.618C55.8506 19.6502 55.8766 19.6764 55.9088 19.6764L57.5152 19.6792C57.5475 19.6793 57.5736 19.6532 57.5737 19.621L57.5765 18.013C57.5765 17.9808 57.5505 17.9546 57.5183 17.9546Z" fill="#E61973"/>
<path d="M59.5044 17.9546L57.8909 17.9518C57.8538 17.9517 57.8237 17.9817 57.8236 18.0188L57.8208 19.6109C57.8208 19.648 57.8508 19.6781 57.8879 19.6782L59.5014 19.681C59.5384 19.6811 59.5686 19.6511 59.5686 19.614L59.5714 18.0219C59.5715 17.9848 59.5415 17.9547 59.5044 17.9546Z" fill="white"/>
<path d="M61.4677 17.9534L59.8825 17.9562C59.8425 17.9562 59.8101 17.9887 59.8102 18.0287L59.8129 19.6067C59.813 19.6468 59.8455 19.6791 59.8855 19.6791L61.4707 19.6763C61.5108 19.6762 61.5431 19.6437 61.5431 19.6037L61.5403 18.0257C61.5402 17.9857 61.5077 17.9533 61.4677 17.9534Z" fill="white"/>
<path d="M71.3677 17.957L69.7648 17.9598C69.7248 17.9599 69.6924 17.9924 69.6925 18.0324L69.6953 19.6104C69.6953 19.6504 69.7278 19.6828 69.7678 19.6827L71.3707 19.6799C71.4107 19.6799 71.4431 19.6474 71.4431 19.6073L71.4403 18.0294C71.4402 17.9893 71.4077 17.957 71.3677 17.957Z" fill="white"/>
<path d="M73.3536 17.9539H71.749C71.7153 17.9539 71.688 17.9812 71.688 18.0148V19.6211C71.688 19.6548 71.7153 19.682 71.749 19.682H73.3536C73.3873 19.682 73.4146 19.6548 73.4146 19.6211V18.0148C73.4146 17.9812 73.3873 17.9539 73.3536 17.9539Z" fill="white"/>
<path d="M34.0581 19.9304H32.4852C32.4462 19.9304 32.4146 19.9621 32.4146 20.0011V21.5932C32.4146 21.6323 32.4462 21.6639 32.4852 21.6639H34.0581C34.0971 21.6639 34.1288 21.6323 34.1288 21.5932V20.0011C34.1288 19.9621 34.0971 19.9304 34.0581 19.9304Z" fill="white"/>
<path d="M49.9175 19.9243H48.3128C48.2787 19.9243 48.251 19.952 48.251 19.9862V21.6119C48.251 21.646 48.2787 21.6737 48.3128 21.6737H49.9175C49.9516 21.6737 49.9793 21.646 49.9793 21.6119V19.9862C49.9793 19.952 49.9516 19.9243 49.9175 19.9243Z" fill="white"/>
<path d="M51.9062 19.9275L50.2803 19.9247C50.2471 19.9246 50.2202 19.9515 50.2201 19.9846L50.2173 21.6086C50.2172 21.6418 50.2441 21.6687 50.2773 21.6688L51.9031 21.6716C51.9363 21.6717 51.9632 21.6448 51.9633 21.6116L51.9661 19.9877C51.9662 19.9545 51.9393 19.9276 51.9062 19.9275Z" fill="white"/>
<path d="M57.5221 19.925H55.9086C55.8774 19.925 55.8521 19.9504 55.8521 19.9816V21.6161C55.8521 21.6474 55.8774 21.6727 55.9086 21.6727H57.5221C57.5533 21.6727 57.5786 21.6474 57.5786 21.6161V19.9816C57.5786 19.9504 57.5533 19.925 57.5221 19.925Z" fill="white"/>
<path d="M59.5063 19.9319L57.8822 19.9291C57.848 19.929 57.8203 19.9566 57.8202 19.9908L57.8174 21.6006C57.8173 21.6348 57.845 21.6625 57.8791 21.6626L59.5032 21.6654C59.5374 21.6654 59.5651 21.6378 59.5652 21.6036L59.568 19.9939C59.5681 19.9597 59.5404 19.932 59.5063 19.9319Z" fill="white"/>
<path d="M36.0964 19.9363L34.444 19.9334C34.4191 19.9334 34.3989 19.9535 34.3988 19.9784L34.396 21.6076C34.396 21.6325 34.4161 21.6527 34.441 21.6528L36.0934 21.6557C36.1182 21.6557 36.1385 21.6356 36.1385 21.6107L36.1413 19.9815C36.1414 19.9566 36.1212 19.9364 36.0964 19.9363Z" fill="white"/>
<path d="M95.3337 22.513L95.3363 23.0246C95.3363 23.0331 95.338 23.0416 95.3413 23.0495C95.3446 23.0573 95.3495 23.0645 95.3555 23.0705C95.3616 23.0765 95.3688 23.0812 95.3768 23.0844C95.3847 23.0876 95.3932 23.0892 95.4017 23.0891L97.2565 23.082C97.2736 23.082 97.29 23.0888 97.3021 23.1009C97.3142 23.113 97.321 23.1294 97.321 23.1465L97.3192 24.3746C97.3192 24.3917 97.3124 24.4081 97.3003 24.4202C97.2882 24.4323 97.2718 24.4391 97.2547 24.4391H95.3964C95.3793 24.4391 95.3629 24.4459 95.3508 24.458C95.3387 24.4701 95.3319 24.4865 95.3319 24.5036V25.0373C95.3319 25.0544 95.3387 25.0708 95.3508 25.0829C95.3629 25.095 95.3793 25.1018 95.3964 25.1018L97.9254 25.1026C97.9425 25.1026 97.9589 25.1094 97.971 25.1215C97.9831 25.1336 97.9899 25.15 97.9899 25.1671L97.9819 26.382C97.9819 26.3991 97.9751 26.4155 97.963 26.4276C97.9509 26.4397 97.9345 26.4465 97.9174 26.4465L94.0259 26.4491C94.0088 26.4491 93.9924 26.4424 93.9803 26.4303C93.9682 26.4182 93.9614 26.4018 93.9614 26.3846L93.9632 21.1312C93.9632 21.1226 93.9649 21.1141 93.9682 21.1063C93.9715 21.0984 93.9763 21.0912 93.9824 21.0852C93.9885 21.0792 93.9957 21.0745 94.0036 21.0713C94.0116 21.0681 94.02 21.0665 94.0286 21.0667L97.9245 21.0976C97.933 21.0976 97.9415 21.0993 97.9494 21.1026C97.9572 21.1059 97.9644 21.1107 97.9704 21.1168C97.9764 21.1229 97.9811 21.1301 97.9843 21.138C97.9875 21.1459 97.9891 21.1544 97.989 21.163L97.9819 22.3831C97.9819 22.3916 97.9802 22.4 97.977 22.4078C97.9738 22.4156 97.969 22.4227 97.963 22.4287C97.957 22.4347 97.9499 22.4395 97.9421 22.4427C97.9343 22.446 97.9259 22.4476 97.9174 22.4476H95.3982C95.3896 22.4476 95.3812 22.4493 95.3733 22.4526C95.3654 22.4559 95.3583 22.4607 95.3523 22.4668C95.3463 22.4729 95.3415 22.4801 95.3383 22.488C95.3352 22.496 95.3336 22.5045 95.3337 22.513Z" fill="white"/>
<path d="M80.6938 25.1017H81.8876C81.8953 25.1017 81.903 25.1001 81.9101 25.0972C81.9173 25.0942 81.9237 25.0898 81.9292 25.0843C81.9346 25.0788 81.9389 25.0722 81.9417 25.0651C81.9446 25.0579 81.946 25.0502 81.9459 25.0425L81.9397 24.5C81.9395 24.4848 81.9334 24.4704 81.9227 24.4596C81.9119 24.4489 81.8975 24.4428 81.8823 24.4426L81.3345 24.4355C81.3191 24.4353 81.3045 24.429 81.2938 24.4181C81.283 24.4072 81.277 24.3925 81.277 24.3772L81.2788 23.1402C81.2788 23.1248 81.2849 23.1099 81.2959 23.099C81.3068 23.0881 81.3216 23.0819 81.3371 23.0819L83.2502 23.0828C83.2656 23.0828 83.2805 23.0889 83.2914 23.0999C83.3023 23.1108 83.3085 23.1257 83.3085 23.1411L83.3076 25.7263C83.3076 25.7417 83.3016 25.7564 83.2908 25.7673C83.2801 25.7782 83.2655 25.7844 83.2502 25.7847L82.6997 25.7891C82.692 25.7892 82.6844 25.7908 82.6774 25.7938C82.6704 25.7969 82.664 25.8013 82.6587 25.8068C82.6533 25.8123 82.6491 25.8188 82.6463 25.8259C82.6435 25.833 82.6421 25.8406 82.6422 25.8483L82.6493 26.3837C82.6494 26.3914 82.648 26.3991 82.6451 26.4063C82.6422 26.4135 82.638 26.42 82.6325 26.4255C82.6271 26.431 82.6206 26.4354 82.6135 26.4384C82.6064 26.4413 82.5987 26.4429 82.591 26.4429L80.0126 26.4508C79.9971 26.4508 79.9823 26.4447 79.9713 26.4338C79.9604 26.4228 79.9542 26.408 79.9542 26.3925L79.9516 25.8403C79.9514 25.825 79.9451 25.8104 79.9342 25.7997C79.9233 25.7889 79.9086 25.7829 79.8933 25.7829L79.3463 25.7864C79.3386 25.7865 79.3309 25.7851 79.3237 25.7822C79.3165 25.7794 79.31 25.7751 79.3045 25.7697C79.299 25.7642 79.2946 25.7578 79.2916 25.7506C79.2886 25.7435 79.2871 25.7358 79.2871 25.7281L79.288 21.8026C79.288 21.7871 79.2941 21.7723 79.3051 21.7613C79.316 21.7504 79.3308 21.7443 79.3463 21.7443L79.8924 21.746C79.9079 21.746 79.9227 21.7399 79.9336 21.7289C79.9446 21.718 79.9507 21.7032 79.9507 21.6877L79.9542 21.1381C79.9542 21.1227 79.9604 21.1078 79.9713 21.0969C79.9823 21.086 79.9971 21.0798 80.0126 21.0798L82.6095 21.0904C82.625 21.0904 82.6398 21.0966 82.6508 21.1075C82.6617 21.1185 82.6678 21.1333 82.6678 21.1488L82.6608 22.3883C82.6608 22.4038 82.6546 22.4186 82.6437 22.4296C82.6328 22.4405 82.6179 22.4467 82.6025 22.4467L80.6938 22.4484C80.6784 22.4484 80.6635 22.4546 80.6526 22.4655C80.6417 22.4764 80.6355 22.4913 80.6355 22.5067V25.0434C80.6355 25.0588 80.6417 25.0737 80.6526 25.0846C80.6635 25.0955 80.6784 25.1017 80.6938 25.1017Z" fill="white"/>
<path d="M85.2983 25.1953L85.301 26.3633C85.301 26.3842 85.2927 26.4042 85.2779 26.4189C85.2632 26.4337 85.2432 26.442 85.2223 26.442L84.0268 26.449C84.0163 26.4492 84.0059 26.4472 83.9962 26.4432C83.9865 26.4393 83.9777 26.4334 83.9703 26.426C83.9629 26.4186 83.957 26.4098 83.9531 26.4001C83.9491 26.3904 83.9472 26.38 83.9473 26.3695L83.9614 21.8317C83.9613 21.8123 83.9683 21.7935 83.9812 21.779C83.9941 21.7645 84.0119 21.7552 84.0312 21.7531L84.5172 21.7001C84.5355 21.698 84.5525 21.6897 84.5652 21.6764C84.578 21.6632 84.5857 21.6459 84.587 21.6276L84.6206 21.1629C84.6221 21.1431 84.6311 21.1247 84.6457 21.1112C84.6603 21.0978 84.6794 21.0904 84.6992 21.0904L87.2379 21.0842C87.2484 21.0842 87.2587 21.0863 87.2684 21.0904C87.278 21.0944 87.2868 21.1004 87.2941 21.1079C87.3014 21.1154 87.3072 21.1242 87.311 21.134C87.3149 21.1437 87.3168 21.1542 87.3165 21.1646L87.3077 21.6691C87.3075 21.6798 87.3096 21.6905 87.3137 21.7003C87.3178 21.7102 87.3239 21.7192 87.3316 21.7266C87.3393 21.734 87.3485 21.7398 87.3585 21.7436C87.3685 21.7474 87.3792 21.7491 87.3899 21.7486L87.8909 21.7248C87.9016 21.7242 87.9123 21.7258 87.9223 21.7295C87.9324 21.7331 87.9416 21.7388 87.9494 21.7462C87.9571 21.7536 87.9633 21.7624 87.9676 21.7723C87.9718 21.7821 87.9739 21.7927 87.9739 21.8034L87.9607 26.3739C87.9607 26.3843 87.9586 26.3946 87.9546 26.4042C87.9506 26.4138 87.9447 26.4226 87.9373 26.4299C87.9299 26.4372 87.9212 26.443 87.9115 26.4469C87.9019 26.4508 87.8915 26.4527 87.8811 26.4526L86.7042 26.434C86.6838 26.4336 86.6643 26.4252 86.65 26.4107C86.6357 26.3962 86.6275 26.3767 86.6273 26.3563L86.6238 25.1988C86.6238 25.178 86.6155 25.158 86.6007 25.1432C86.586 25.1285 86.566 25.1202 86.5451 25.1202L85.377 25.1167C85.3666 25.1167 85.3564 25.1187 85.3469 25.1227C85.3373 25.1266 85.3287 25.1324 85.3214 25.1397C85.3141 25.147 85.3083 25.1557 85.3043 25.1652C85.3004 25.1748 85.2983 25.185 85.2983 25.1953ZM86.6246 22.5014C86.6246 22.4869 86.6189 22.473 86.6086 22.4627C86.5983 22.4524 86.5844 22.4466 86.5699 22.4466H85.354C85.3395 22.4466 85.3255 22.4524 85.3153 22.4627C85.305 22.473 85.2992 22.4869 85.2992 22.5014V23.6995C85.2992 23.714 85.305 23.728 85.3153 23.7382C85.3255 23.7485 85.3395 23.7543 85.354 23.7543H86.5699C86.5844 23.7543 86.5983 23.7485 86.6086 23.7382C86.6189 23.728 86.6246 23.714 86.6246 23.6995V22.5014Z" fill="white"/>
<path d="M90.724 23.0856L91.2144 23.075C91.2242 23.0749 91.2339 23.0729 91.2429 23.069C91.2519 23.0651 91.2601 23.0594 91.2669 23.0524C91.2737 23.0453 91.2791 23.037 91.2826 23.0278C91.2862 23.0187 91.2879 23.0089 91.2877 22.9991L91.2789 22.5052C91.2787 22.4954 91.2806 22.4857 91.2842 22.4767C91.2878 22.4676 91.2932 22.4594 91.3 22.4524C91.3068 22.4455 91.3149 22.4399 91.3239 22.4361C91.3328 22.4322 91.3425 22.4302 91.3522 22.4301L91.8983 22.4283C91.9081 22.4283 91.9178 22.4264 91.9269 22.4226C91.936 22.4188 91.9442 22.4132 91.9511 22.4062C91.958 22.3993 91.9634 22.391 91.9671 22.3819C91.9708 22.3728 91.9726 22.363 91.9725 22.3532L91.9672 21.8231C91.967 21.8035 91.9744 21.7847 91.988 21.7706C92.0016 21.7566 92.0201 21.7484 92.0397 21.748L92.5592 21.7383C92.578 21.7378 92.5959 21.7303 92.6094 21.7172C92.6228 21.7041 92.6308 21.6863 92.6317 21.6676L92.652 21.1763C92.6529 21.1579 92.6606 21.1404 92.6737 21.1273C92.6867 21.1142 92.7042 21.1065 92.7227 21.1056L93.2396 21.0844C93.2496 21.0841 93.2595 21.0857 93.2688 21.0893C93.2782 21.0929 93.2866 21.0983 93.2938 21.1052C93.301 21.1121 93.3067 21.1205 93.3106 21.1296C93.3145 21.1388 93.3165 21.1487 93.3165 21.1587L93.3191 26.3777C93.3191 26.3974 93.3113 26.4163 93.2974 26.4302C93.2835 26.4441 93.2646 26.4519 93.2449 26.4519L92.045 26.4448C92.0352 26.4448 92.0256 26.4429 92.0166 26.4392C92.0076 26.4355 91.9994 26.43 91.9925 26.4231C91.9856 26.4162 91.9801 26.408 91.9764 26.399C91.9727 26.39 91.9707 26.3804 91.9707 26.3706L91.9699 24.5196C91.9696 24.5005 91.9621 24.4823 91.9488 24.4686C91.9354 24.455 91.9174 24.447 91.8983 24.4463L91.3849 24.4304C91.3749 24.43 91.365 24.4317 91.3557 24.4353C91.3464 24.4388 91.3379 24.4442 91.3307 24.4512C91.3235 24.4581 91.3178 24.4664 91.3139 24.4756C91.31 24.4848 91.308 24.4946 91.308 24.5046L91.3107 25.0462C91.3107 25.056 91.3087 25.0658 91.3049 25.0748C91.3012 25.0839 91.2956 25.0921 91.2886 25.099C91.2816 25.1059 91.2733 25.1114 91.2642 25.115C91.2551 25.1187 91.2454 25.1205 91.2356 25.1204L90.701 25.1178C90.6814 25.1175 90.6628 25.1096 90.6491 25.0957C90.6353 25.0818 90.6276 25.0631 90.6276 25.0436L90.625 24.5152C90.6248 24.496 90.6171 24.4776 90.6036 24.4639C90.59 24.4502 90.5718 24.4423 90.5525 24.4419L90.0586 24.433C90.0488 24.4329 90.039 24.4348 90.0299 24.4384C90.0208 24.4421 90.0125 24.4476 90.0055 24.4545C89.9985 24.4614 89.993 24.4696 89.9892 24.4786C89.9854 24.4877 89.9835 24.4974 89.9835 24.5073L89.9808 26.3538C89.9808 26.3732 89.9733 26.3918 89.9597 26.4057C89.9462 26.4196 89.9277 26.4276 89.9084 26.4281L88.7217 26.4572C88.7118 26.4574 88.7019 26.4557 88.6927 26.4521C88.6835 26.4485 88.6751 26.443 88.668 26.4361C88.661 26.4292 88.6553 26.4209 88.6515 26.4118C88.6476 26.4027 88.6457 26.3929 88.6457 26.383L88.6333 21.156C88.6333 21.1462 88.6352 21.1365 88.639 21.1274C88.6428 21.1183 88.6484 21.1101 88.6554 21.1032C88.6623 21.0963 88.6706 21.0909 88.6797 21.0872C88.6888 21.0835 88.6986 21.0817 88.7084 21.0818L89.2518 21.088C89.2616 21.0881 89.2712 21.0901 89.2802 21.094C89.2891 21.0978 89.2973 21.1034 89.3041 21.1103C89.3109 21.1173 89.3162 21.1256 89.3199 21.1346C89.3235 21.1437 89.3253 21.1533 89.3252 21.1631L89.3225 21.6685C89.3225 21.6881 89.3303 21.707 89.3443 21.7209C89.3582 21.7349 89.3771 21.7427 89.3968 21.7427L89.9154 21.7383C89.9254 21.7381 89.9353 21.74 89.9445 21.7438C89.9538 21.7476 89.9621 21.7532 89.9691 21.7603C89.9761 21.7674 89.9817 21.7758 89.9853 21.7851C89.989 21.7944 89.9908 21.8043 89.9905 21.8142L89.9764 22.3558C89.9762 22.3658 89.9779 22.3757 89.9816 22.385C89.9853 22.3943 89.9908 22.4027 89.9978 22.4098C90.0048 22.4169 90.0132 22.4225 90.0224 22.4263C90.0316 22.4301 90.0415 22.432 90.0515 22.4318L90.5684 22.4283C90.5782 22.4282 90.5879 22.43 90.5969 22.4336C90.606 22.4372 90.6142 22.4426 90.6212 22.4494C90.6282 22.4562 90.6337 22.4643 90.6376 22.4733C90.6414 22.4823 90.6434 22.4919 90.6435 22.5016L90.648 23.0123C90.6481 23.0221 90.6501 23.0318 90.654 23.0409C90.6579 23.0499 90.6636 23.058 90.6706 23.0649C90.6777 23.0717 90.6861 23.077 90.6952 23.0806C90.7044 23.0842 90.7141 23.0859 90.724 23.0856Z" fill="white"/>
<path d="M99.9902 22.5226L99.9982 23.013C99.9984 23.0325 100.006 23.0512 100.02 23.0649C100.034 23.0786 100.053 23.0863 100.072 23.0863L101.935 23.0792C101.945 23.0791 101.955 23.081 101.964 23.0847C101.973 23.0885 101.981 23.094 101.988 23.101C101.995 23.108 102.001 23.1163 102.005 23.1255C102.008 23.1346 102.01 23.1445 102.01 23.1543L102.007 23.6818C102.007 23.6916 102.009 23.7014 102.012 23.7104C102.016 23.7195 102.022 23.7277 102.029 23.7346C102.036 23.7415 102.044 23.747 102.053 23.7506C102.062 23.7543 102.072 23.7562 102.082 23.756L102.591 23.7525C102.601 23.7524 102.61 23.7542 102.619 23.7579C102.629 23.7616 102.637 23.767 102.644 23.7739C102.651 23.7808 102.656 23.789 102.66 23.7981C102.664 23.8072 102.666 23.8169 102.666 23.8267L102.669 25.6989C102.669 25.7182 102.662 25.7366 102.649 25.7505C102.635 25.7643 102.617 25.7725 102.598 25.7731L102.079 25.7935C102.06 25.7942 102.042 25.8023 102.028 25.8161C102.015 25.83 102.008 25.8484 102.008 25.8677L102.007 26.3722C102.007 26.3919 101.999 26.4107 101.985 26.4247C101.971 26.4386 101.952 26.4464 101.932 26.4464L98.7169 26.4482C98.7072 26.4482 98.6975 26.4462 98.6885 26.4425C98.6795 26.4388 98.6713 26.4333 98.6644 26.4264C98.6576 26.4195 98.6521 26.4114 98.6484 26.4023C98.6446 26.3933 98.6427 26.3837 98.6427 26.3739L98.6454 25.1759C98.6454 25.1661 98.6473 25.1565 98.651 25.1475C98.6547 25.1385 98.6602 25.1303 98.6671 25.1234C98.674 25.1165 98.6822 25.111 98.6912 25.1073C98.7002 25.1036 98.7098 25.1017 98.7196 25.1017H101.227C101.247 25.1017 101.266 25.0938 101.28 25.0799C101.294 25.066 101.302 25.0471 101.302 25.0274V24.5141C101.302 24.4944 101.294 24.4755 101.28 24.4616C101.266 24.4477 101.247 24.4399 101.227 24.4399L99.3788 24.4372C99.3594 24.437 99.3409 24.4292 99.3272 24.4155C99.3134 24.4018 99.3056 24.3833 99.3054 24.3639L99.3019 23.8515C99.3017 23.8321 99.2939 23.8136 99.2801 23.7999C99.2664 23.7862 99.2479 23.7784 99.2285 23.7781L98.7134 23.7772C98.7036 23.7772 98.6938 23.7753 98.6848 23.7715C98.6757 23.7677 98.6675 23.7622 98.6606 23.7552C98.6537 23.7482 98.6482 23.7399 98.6446 23.7308C98.6409 23.7217 98.639 23.712 98.6392 23.7021L98.6542 21.8255C98.6542 21.8066 98.6614 21.7883 98.6743 21.7745C98.6873 21.7607 98.7051 21.7524 98.724 21.7513L99.2321 21.7221C99.251 21.721 99.2687 21.7127 99.2817 21.6989C99.2947 21.6851 99.3019 21.6669 99.3019 21.6479L99.3036 21.1584C99.3036 21.1487 99.3056 21.139 99.3093 21.13C99.313 21.121 99.3185 21.1129 99.3254 21.106C99.3323 21.0991 99.3405 21.0936 99.3495 21.0899C99.3585 21.0861 99.3681 21.0842 99.3779 21.0842L102.597 21.0895C102.607 21.0895 102.616 21.0914 102.625 21.0952C102.634 21.0989 102.642 21.1044 102.649 21.1113C102.656 21.1182 102.662 21.1263 102.665 21.1353C102.669 21.1443 102.671 21.154 102.671 21.1637L102.668 22.3733C102.668 22.393 102.661 22.4119 102.647 22.4258C102.633 22.4397 102.614 22.4475 102.594 22.4475H100.064C100.055 22.4475 100.045 22.4495 100.036 22.4533C100.027 22.457 100.019 22.4626 100.012 22.4696C100.005 22.4766 99.9993 22.4848 99.9956 22.4939C99.9919 22.5031 99.9901 22.5128 99.9902 22.5226Z" fill="white"/>
<path d="M34.0417 21.9127L32.506 21.9154C32.4528 21.9155 32.4097 21.9586 32.4098 22.0118L32.4125 23.5474C32.4126 23.6006 32.4558 23.6436 32.509 23.6435L34.0447 23.6409C34.0979 23.6408 34.141 23.5976 34.1409 23.5444L34.1382 22.0088C34.1381 21.9556 34.0949 21.9126 34.0417 21.9127Z" fill="white"/>
<path d="M36.0462 21.9156L34.4733 21.9211C34.4231 21.9212 34.3825 21.9621 34.3826 22.0124L34.388 23.5533C34.3882 23.6035 34.4291 23.6441 34.4794 23.644L36.0522 23.6385C36.1025 23.6383 36.1431 23.5974 36.1429 23.5471L36.1375 22.0063C36.1373 21.956 36.0964 21.9154 36.0462 21.9156Z" fill="white"/>
<path d="M57.5272 21.9143L55.8978 21.9172C55.8715 21.9172 55.8501 21.9386 55.8502 21.9649L55.853 23.5995C55.8531 23.6258 55.8745 23.6472 55.9008 23.6471L57.5302 23.6443C57.5566 23.6442 57.5779 23.6228 57.5779 23.5965L57.575 21.9619C57.575 21.9356 57.5536 21.9143 57.5272 21.9143Z" fill="white"/>
<path d="M59.488 21.9148H57.9028C57.8564 21.9148 57.8188 21.9524 57.8188 21.9987V23.5591C57.8188 23.6054 57.8564 23.643 57.9028 23.643H59.488C59.5344 23.643 59.572 23.6054 59.572 23.5591V21.9987C59.572 21.9524 59.5344 21.9148 59.488 21.9148Z" fill="white"/>
<path d="M49.9293 21.9153L48.2946 21.9181C48.2697 21.9182 48.2495 21.9384 48.2496 21.9633L48.2524 23.6013C48.2525 23.6262 48.2727 23.6464 48.2976 23.6463L49.9323 23.6435C49.9572 23.6434 49.9773 23.6232 49.9773 23.5983L49.9744 21.9603C49.9744 21.9354 49.9542 21.9152 49.9293 21.9153Z" fill="white"/>
<path d="M51.9106 21.9173L50.2759 21.9144C50.2451 21.9144 50.2202 21.9392 50.2201 21.97L50.2173 23.5886C50.2172 23.6193 50.2421 23.6443 50.2729 23.6444L51.9076 23.6472C51.9383 23.6473 51.9633 23.6224 51.9633 23.5916L51.9661 21.973C51.9662 21.9423 51.9413 21.9173 51.9106 21.9173Z" fill="white"/>
<path d="M67.3986 21.9153L65.8275 21.9181C65.7831 21.9182 65.7471 21.9542 65.7472 21.9986L65.7499 23.5625C65.75 23.6069 65.7861 23.6428 65.8305 23.6427L67.4016 23.64C67.446 23.6399 67.4819 23.6038 67.4818 23.5594L67.4791 21.9956C67.479 21.9512 67.443 21.9153 67.3986 21.9153Z" fill="white"/>
<path d="M69.4003 21.918L67.7974 21.9152C67.7564 21.9151 67.7231 21.9483 67.723 21.9893L67.7203 23.5655C67.7202 23.6065 67.7534 23.6398 67.7944 23.6398L69.3972 23.6426C69.4382 23.6427 69.4715 23.6095 69.4716 23.5685L69.4743 21.9923C69.4744 21.9513 69.4412 21.918 69.4003 21.918Z" fill="white"/>
<path d="M71.3771 21.9153L69.753 21.9181C69.7174 21.9182 69.6885 21.9471 69.6886 21.9827L69.6914 23.5784C69.6914 23.614 69.7204 23.6428 69.756 23.6428L71.3801 23.6399C71.4157 23.6399 71.4445 23.6109 71.4445 23.5753L71.4417 21.9797C71.4416 21.944 71.4127 21.9152 71.3771 21.9153Z" fill="white"/>
<path d="M73.3471 21.9153L71.7512 21.9181C71.7141 21.9182 71.6841 21.9483 71.6842 21.9854L71.687 23.5775C71.687 23.6146 71.7172 23.6446 71.7543 23.6445L73.3501 23.6417C73.3872 23.6417 73.4172 23.6116 73.4171 23.5745L73.4143 21.9823C73.4143 21.9453 73.3841 21.9152 73.3471 21.9153Z" fill="white"/>
<path d="M75.3559 21.9185H73.7018C73.6769 21.9185 73.6567 21.9386 73.6567 21.9635V23.5981C73.6567 23.6229 73.6769 23.6431 73.7018 23.6431H75.3559C75.3808 23.6431 75.401 23.6229 75.401 23.5981V21.9635C75.401 21.9386 75.3808 21.9185 75.3559 21.9185Z" fill="#14E691"/>
<path d="M67.4117 23.8871L65.8229 23.8816C65.7829 23.8815 65.7504 23.9138 65.7502 23.9538L65.7446 25.5565C65.7445 25.5965 65.7768 25.6291 65.8168 25.6292L67.4056 25.6348C67.4456 25.6349 67.4782 25.6026 67.4783 25.5626L67.4839 23.9598C67.484 23.9198 67.4517 23.8873 67.4117 23.8871Z" fill="white"/>
<path d="M34.0871 23.8874L32.4718 23.8846C32.4391 23.8846 32.4126 23.911 32.4125 23.9437L32.4097 25.5712C32.4096 25.6039 32.4361 25.6304 32.4688 25.6305L34.084 25.6333C34.1167 25.6334 34.1433 25.6069 34.1433 25.5742L34.1462 23.9467C34.1462 23.9141 34.1198 23.8875 34.0871 23.8874Z" fill="white"/>
<path d="M36.0807 23.886H34.439C34.4082 23.886 34.3833 23.9109 34.3833 23.9416V25.5762C34.3833 25.6069 34.4082 25.6318 34.439 25.6318H36.0807C36.1115 25.6318 36.1364 25.6069 36.1364 25.5762V23.9416C36.1364 23.9109 36.1115 23.886 36.0807 23.886Z" fill="white"/>
<path d="M47.97 23.8877H46.3158C46.2948 23.8877 46.2778 23.9047 46.2778 23.9257V25.5938C46.2778 25.6148 46.2948 25.6318 46.3158 25.6318H47.97C47.991 25.6318 48.008 25.6148 48.008 25.5938V23.9257C48.008 23.9047 47.991 23.8877 47.97 23.8877Z" fill="white"/>
<path d="M49.9404 23.8877H48.2862C48.2662 23.8877 48.25 23.9039 48.25 23.9239V25.5956C48.25 25.6156 48.2662 25.6318 48.2862 25.6318H49.9404C49.9604 25.6318 49.9766 25.6156 49.9766 25.5956V23.9239C49.9766 23.9039 49.9604 23.8877 49.9404 23.8877Z" fill="white"/>
<path d="M51.9295 23.887H50.256C50.2359 23.887 50.2197 23.9032 50.2197 23.9232V25.5966C50.2197 25.6166 50.2359 25.6328 50.256 25.6328H51.9295C51.9495 25.6328 51.9658 25.6166 51.9658 25.5966V23.9232C51.9658 23.9032 51.9495 23.887 51.9295 23.887Z" fill="white"/>
<path d="M57.5433 23.8877H55.8856C55.8671 23.8877 55.8521 23.9027 55.8521 23.9213V25.5982C55.8521 25.6168 55.8671 25.6318 55.8856 25.6318H57.5433C57.5618 25.6318 57.5769 25.6168 57.5769 25.5982V23.9213C57.5769 23.9027 57.5618 23.8877 57.5433 23.8877Z" fill="white"/>
<path d="M59.5233 23.8877H57.8621C57.8377 23.8877 57.8179 23.9075 57.8179 23.9319V25.5876C57.8179 25.612 57.8377 25.6318 57.8621 25.6318H59.5233C59.5477 25.6318 59.5674 25.612 59.5674 25.5876V23.9319C59.5674 23.9075 59.5477 23.8877 59.5233 23.8877Z" fill="white"/>
<path d="M69.3999 23.8845L67.7935 23.8873C67.7525 23.8874 67.7193 23.9207 67.7194 23.9617L67.7222 25.5591C67.7222 25.6001 67.7555 25.6333 67.7965 25.6332L69.4029 25.6304C69.4439 25.6303 69.4771 25.597 69.477 25.556L69.4742 23.9586C69.4742 23.9176 69.4409 23.8844 69.3999 23.8845Z" fill="white"/>
<path d="M71.3798 23.886H69.754C69.7183 23.886 69.6895 23.9149 69.6895 23.9505V25.5674C69.6895 25.603 69.7183 25.6318 69.754 25.6318H71.3798C71.4154 25.6318 71.4443 25.603 71.4443 25.5674V23.9505C71.4443 23.9149 71.4154 23.886 71.3798 23.886Z" fill="white"/>
<path d="M73.3642 23.8877H71.7366C71.7073 23.8877 71.6836 23.9114 71.6836 23.9407V25.5788C71.6836 25.6081 71.7073 25.6318 71.7366 25.6318H73.3642C73.3935 25.6318 73.4173 25.6081 73.4173 25.5788V23.9407C73.4173 23.9114 73.3935 23.8877 73.3642 23.8877Z" fill="white"/>
<path d="M75.3586 23.8853H73.7009C73.6765 23.8853 73.6567 23.905 73.6567 23.9294V25.5887C73.6567 25.6131 73.6765 25.6329 73.7009 25.6329H75.3586C75.383 25.6329 75.4028 25.6131 75.4028 25.5887V23.9294C75.4028 23.905 75.383 23.8853 75.3586 23.8853Z" fill="white"/>
<path d="M34.0866 25.8562H32.4678C32.437 25.8562 32.4121 25.8811 32.4121 25.9119V27.5446C32.4121 27.5754 32.437 27.6003 32.4678 27.6003H34.0866C34.1173 27.6003 34.1422 27.5754 34.1422 27.5446V25.9119C34.1422 25.8811 34.1173 25.8562 34.0866 25.8562Z" fill="white"/>
<path d="M36.0777 25.8577L34.4448 25.8548C34.4111 25.8548 34.3837 25.882 34.3837 25.9157L34.3809 27.5379C34.3808 27.5715 34.408 27.5989 34.4417 27.5989L36.0746 27.6018C36.1083 27.6018 36.1357 27.5746 36.1357 27.5409L36.1386 25.9188C36.1386 25.8851 36.1114 25.8578 36.0777 25.8577Z" fill="white"/>
<path d="M38.025 25.8562H36.468C36.4207 25.8562 36.3823 25.8946 36.3823 25.9419V27.5146C36.3823 27.5619 36.4207 27.6003 36.468 27.6003H38.025C38.0723 27.6003 38.1107 27.5619 38.1107 27.5146V25.9419C38.1107 25.8946 38.0723 25.8562 38.025 25.8562Z" fill="white"/>
<path d="M39.9968 25.8576L38.4363 25.8549C38.389 25.8548 38.3505 25.8931 38.3504 25.9404L38.3477 27.5149C38.3476 27.5622 38.3859 27.6007 38.4332 27.6007L39.9937 27.6035C40.0411 27.6036 40.0795 27.5652 40.0796 27.5179L40.0823 25.9435C40.0824 25.8961 40.0441 25.8577 39.9968 25.8576Z" fill="white"/>
<path d="M42.0043 25.8586L40.3908 25.8558C40.3532 25.8558 40.3227 25.8862 40.3226 25.9237L40.3198 27.5318C40.3198 27.5693 40.3502 27.5999 40.3877 27.5999L42.0012 27.6027C42.0388 27.6028 42.0693 27.5724 42.0694 27.5348L42.0722 25.9268C42.0723 25.8892 42.0419 25.8587 42.0043 25.8586Z" fill="white"/>
<path d="M43.9702 25.86L42.392 25.8545C42.3481 25.8544 42.3124 25.8898 42.3122 25.9338L42.3067 27.5188C42.3065 27.5627 42.342 27.5985 42.3859 27.5986L43.9641 27.6041C44.008 27.6043 44.0437 27.5688 44.0439 27.5249L44.0494 25.9398C44.0496 25.8959 44.0141 25.8602 43.9702 25.86Z" fill="white"/>
<path d="M45.9595 25.8562H44.3583C44.3144 25.8562 44.2788 25.8918 44.2788 25.9357V27.5225C44.2788 27.5665 44.3144 27.6021 44.3583 27.6021H45.9595C46.0034 27.6021 46.039 27.5665 46.039 27.5225V25.9357C46.039 25.8918 46.0034 25.8562 45.9595 25.8562Z" fill="white"/>
<path d="M47.9638 25.8562H46.322C46.2976 25.8562 46.2778 25.876 46.2778 25.9004V27.5561C46.2778 27.5805 46.2976 27.6003 46.322 27.6003H47.9638C47.9882 27.6003 48.008 27.5805 48.008 27.5561V25.9004C48.008 25.876 47.9882 25.8562 47.9638 25.8562Z" fill="white"/>
<path d="M49.9352 25.8572H48.2916C48.2692 25.8572 48.251 25.8754 48.251 25.8978V27.5606C48.251 27.5831 48.2692 27.6013 48.2916 27.6013H49.9352C49.9576 27.6013 49.9758 27.5831 49.9758 27.5606V25.8978C49.9758 25.8754 49.9576 25.8572 49.9352 25.8572Z" fill="white"/>
<path d="M57.5371 25.8562H55.8918C55.8699 25.8562 55.8521 25.874 55.8521 25.896V27.5605C55.8521 27.5825 55.8699 27.6003 55.8918 27.6003H57.5371C57.5591 27.6003 57.5769 27.5825 57.5769 27.5605V25.896C57.5769 25.874 57.5591 25.8562 57.5371 25.8562Z" fill="white"/>
<path d="M59.5234 25.8572H57.8621C57.8382 25.8572 57.8188 25.8766 57.8188 25.9005V27.558C57.8188 27.5819 57.8382 27.6013 57.8621 27.6013H59.5234C59.5473 27.6013 59.5666 27.5819 59.5666 27.558V25.9005C59.5666 25.8766 59.5473 25.8572 59.5234 25.8572Z" fill="white"/>
<path d="M73.3668 25.8577L71.7391 25.8548C71.7104 25.8548 71.687 25.8781 71.6869 25.9069L71.6841 27.5467C71.684 27.5755 71.7073 27.5989 71.7361 27.5989L73.3637 27.6018C73.3925 27.6018 73.4159 27.5785 73.416 27.5497L73.4188 25.9099C73.4189 25.8811 73.3956 25.8577 73.3668 25.8577Z" fill="white"/>
<path d="M75.3621 25.8572H73.6974C73.6749 25.8572 73.6567 25.8754 73.6567 25.8978V27.5606C73.6567 27.5831 73.6749 27.6013 73.6974 27.6013H75.3621C75.3846 27.6013 75.4028 27.5831 75.4028 27.5606V25.8978C75.4028 25.8754 75.3846 25.8572 75.3621 25.8572Z" fill="white"/>
<path d="M34.0644 27.8416H32.4862C32.4448 27.8416 32.4111 27.8752 32.4111 27.9167V29.4999C32.4111 29.5414 32.4448 29.575 32.4862 29.575H34.0644C34.1059 29.575 34.1395 29.5414 34.1395 29.4999V27.9167C34.1395 27.8752 34.1059 27.8416 34.0644 27.8416Z" fill="white"/>
<path d="M36.062 27.8447L34.4626 27.8419C34.4202 27.8419 34.3857 27.8762 34.3856 27.9187L34.3829 29.4896C34.3828 29.532 34.4171 29.5665 34.4596 29.5666L36.059 29.5694C36.1014 29.5695 36.1359 29.5351 36.136 29.4926L36.1387 27.9217C36.1388 27.8793 36.1044 27.8448 36.062 27.8447Z" fill="white"/>
<path d="M38.0396 27.8466L36.4579 27.8439C36.4189 27.8438 36.3872 27.8754 36.3871 27.9144L36.3843 29.5013C36.3842 29.5403 36.4158 29.572 36.4549 29.5721L38.0366 29.5748C38.0756 29.5749 38.1073 29.5433 38.1074 29.5043L38.1101 27.9174C38.1102 27.8784 38.0786 27.8467 38.0396 27.8466Z" fill="white"/>
<path d="M40.003 27.8466L38.4302 27.8439C38.3868 27.8438 38.3515 27.879 38.3514 27.9224L38.3487 29.4933C38.3486 29.5367 38.3838 29.572 38.4272 29.5721L40 29.5748C40.0435 29.5749 40.0787 29.5398 40.0788 29.4963L40.0816 27.9254C40.0816 27.882 40.0465 27.8467 40.003 27.8466Z" fill="white"/>
<path d="M41.9897 27.8459H40.4009C40.3575 27.8459 40.3223 27.8812 40.3223 27.9246V29.4955C40.3223 29.5389 40.3575 29.5741 40.4009 29.5741H41.9897C42.0331 29.5741 42.0683 29.5389 42.0683 29.4955V27.9246C42.0683 27.8812 42.0331 27.8459 41.9897 27.8459Z" fill="white"/>
<path d="M43.9675 27.8438L42.3753 27.8466C42.3382 27.8466 42.3082 27.8767 42.3082 27.9138L42.311 29.506C42.3111 29.543 42.3412 29.5731 42.3783 29.573L43.9706 29.5702C44.0076 29.5701 44.0377 29.54 44.0376 29.5029L44.0348 27.9108C44.0347 27.8737 44.0046 27.8437 43.9675 27.8438Z" fill="white"/>
<path d="M45.9954 27.8447L44.3182 27.8476C44.2997 27.8476 44.2847 27.8627 44.2847 27.8812L44.2876 29.537C44.2876 29.5555 44.3027 29.5705 44.3213 29.5705L45.9984 29.5676C46.0169 29.5675 46.0319 29.5525 46.0319 29.5339L46.029 27.8782C46.029 27.8596 46.0139 27.8446 45.9954 27.8447Z" fill="#E619DC"/>
<path d="M57.5164 27.8442H55.9117C55.879 27.8442 55.8525 27.8707 55.8525 27.9034V29.515C55.8525 29.5477 55.879 29.5742 55.9117 29.5742H57.5164C57.5491 29.5742 57.5756 29.5477 57.5756 29.515V27.9034C57.5756 27.8707 57.5491 27.8442 57.5164 27.8442Z" fill="white"/>
<path d="M59.4976 27.8416H57.8912C57.8507 27.8416 57.8179 27.8744 57.8179 27.9149V29.5017C57.8179 29.5422 57.8507 29.575 57.8912 29.575H59.4976C59.5381 29.575 59.571 29.5422 59.571 29.5017V27.9149C59.571 27.8744 59.5381 27.8416 59.4976 27.8416Z" fill="white"/>
<path d="M61.4645 27.8466L59.8899 27.8439C59.8474 27.8438 59.8129 27.8782 59.8129 27.9206L59.8101 29.488C59.81 29.5305 59.8444 29.5649 59.8869 29.565L61.4615 29.5678C61.5039 29.5678 61.5384 29.5335 61.5385 29.491L61.5412 27.9236C61.5413 27.8812 61.5069 27.8467 61.4645 27.8466Z" fill="white"/>
<path d="M71.3725 27.8503L69.7678 27.8419C69.7307 27.8417 69.7005 27.8716 69.7003 27.9087L69.692 29.4937C69.6918 29.5308 69.7217 29.561 69.7588 29.5612L71.3635 29.5696C71.4006 29.5698 71.4308 29.5399 71.431 29.5028L71.4393 27.9178C71.4395 27.8807 71.4096 27.8505 71.3725 27.8503Z" fill="white"/>
<path d="M73.4122 27.9203L73.4193 29.5001C73.4193 29.5103 73.4172 29.5203 73.4133 29.5297C73.4094 29.5391 73.4037 29.5476 73.3964 29.5548C73.3892 29.5619 73.3806 29.5676 73.3712 29.5714C73.3618 29.5752 73.3517 29.5771 73.3415 29.577L71.7722 29.5664C71.7521 29.5661 71.7329 29.5581 71.7187 29.5439C71.7045 29.5297 71.6964 29.5105 71.6962 29.4904L71.6768 27.9186C71.6766 27.9084 71.6785 27.8983 71.6824 27.8889C71.6862 27.8795 71.6918 27.8709 71.699 27.8636C71.7061 27.8564 71.7146 27.8507 71.724 27.8468C71.7334 27.8428 71.7435 27.8408 71.7536 27.8408L73.3362 27.8444C73.3563 27.8446 73.3755 27.8527 73.3897 27.8669C73.4039 27.8811 73.412 27.9003 73.4122 27.9203Z" fill="white"/>
<path d="M75.3528 27.8437L73.704 27.8466C73.6776 27.8466 73.6563 27.868 73.6563 27.8944L73.6592 29.5236C73.6592 29.55 73.6806 29.5713 73.707 29.5713L75.3558 29.5684C75.3822 29.5683 75.4035 29.5469 75.4034 29.5206L75.4006 27.8913C75.4006 27.865 75.3792 27.8437 75.3528 27.8437Z" fill="#FF1928"/>
<path d="M80.7043 30.1794L82.5794 30.1821C82.5977 30.1821 82.6152 30.1893 82.6281 30.2023C82.641 30.2152 82.6483 30.2327 82.6483 30.251L82.6492 30.7732C82.6492 30.7824 82.651 30.7915 82.6546 30.8C82.6582 30.8084 82.6634 30.8161 82.67 30.8225C82.6766 30.829 82.6844 30.834 82.693 30.8374C82.7015 30.8407 82.7107 30.8423 82.7199 30.8421L83.2368 30.8315C83.246 30.8313 83.2551 30.8329 83.2637 30.8362C83.2723 30.8396 83.2801 30.8446 83.2867 30.851C83.2933 30.8575 83.2985 30.8651 83.3021 30.8736C83.3057 30.8821 83.3075 30.8912 83.3075 30.9004V32.8027C83.3075 32.8208 83.3004 32.8382 83.2876 32.8511C83.2749 32.864 83.2576 32.8713 83.2395 32.8716L82.7102 32.876C82.701 32.876 82.6918 32.8778 82.6834 32.8814C82.6749 32.885 82.6672 32.8902 82.6608 32.8968C82.6544 32.9034 82.6493 32.9112 82.646 32.9198C82.6426 32.9283 82.641 32.9375 82.6412 32.9467L82.6501 33.4671C82.6502 33.4762 82.6485 33.4853 82.6451 33.4937C82.6417 33.5022 82.6366 33.5099 82.6302 33.5164C82.6238 33.5229 82.6162 33.528 82.6077 33.5315C82.5993 33.5351 82.5903 33.5369 82.5812 33.5369L79.3559 33.5378C79.3377 33.5378 79.3201 33.5305 79.3072 33.5176C79.2943 33.5046 79.287 33.4871 79.287 33.4688L79.2941 32.2522C79.2941 32.2339 79.3013 32.2164 79.3143 32.2035C79.3272 32.1906 79.3447 32.1833 79.363 32.1833L81.8804 32.193C81.8896 32.1931 81.8988 32.1914 81.9073 32.1879C81.9158 32.1845 81.9236 32.1793 81.9301 32.1728C81.9366 32.1663 81.9417 32.1586 81.9452 32.1501C81.9486 32.1415 81.9504 32.1324 81.9502 32.1232L81.9467 31.6002C81.9467 31.5819 81.9395 31.5644 81.9265 31.5514C81.9136 31.5385 81.8961 31.5312 81.8778 31.5312L80.0213 31.5295C80.003 31.5295 79.9855 31.5222 79.9726 31.5093C79.9596 31.4964 79.9524 31.4788 79.9524 31.4606V30.9304C79.9524 30.9122 79.9451 30.8946 79.9322 30.8817C79.9193 30.8688 79.9017 30.8615 79.8835 30.8615L79.3551 30.8606C79.3368 30.8606 79.3192 30.8534 79.3063 30.8405C79.2934 30.8275 79.2861 30.81 79.2861 30.7917V28.9195C79.2861 28.9012 79.2934 28.8837 79.3063 28.8708C79.3192 28.8579 79.3368 28.8506 79.3551 28.8506L79.8826 28.8533C79.9009 28.8533 79.9184 28.846 79.9313 28.8331C79.9442 28.8201 79.9515 28.8026 79.9515 28.7843L79.9541 28.2357C79.9541 28.2174 79.9614 28.1999 79.9743 28.1869C79.9873 28.174 80.0048 28.1667 80.0231 28.1667L83.2448 28.188C83.2629 28.1882 83.2802 28.1955 83.2929 28.2084C83.3057 28.2213 83.3128 28.2387 83.3128 28.2569L83.3057 29.4814C83.3057 29.4906 83.3039 29.4996 83.3004 29.508C83.2969 29.5164 83.2917 29.5241 83.2852 29.5305C83.2787 29.5369 83.271 29.542 83.2626 29.5454C83.2541 29.5488 83.245 29.5505 83.2359 29.5504L80.7026 29.5371C80.6934 29.537 80.6842 29.5387 80.6757 29.5422C80.6672 29.5456 80.6595 29.5508 80.653 29.5573C80.6464 29.5638 80.6413 29.5715 80.6378 29.5801C80.6344 29.5886 80.6327 29.5977 80.6328 29.6069L80.6354 30.1105C80.6354 30.1196 80.6372 30.1285 80.6407 30.1369C80.6441 30.1453 80.6492 30.1529 80.6556 30.1593C80.662 30.1657 80.6696 30.1707 80.678 30.1742C80.6863 30.1777 80.6953 30.1794 80.7043 30.1794Z" fill="white"/>
<path d="M94.5475 29.5388L93.3767 29.5361C93.3563 29.5361 93.3367 29.528 93.3223 29.5136C93.3079 29.4992 93.2998 29.4796 93.2998 29.4593V28.2356C93.2998 28.2152 93.3079 28.1956 93.3223 28.1812C93.3367 28.1668 93.3563 28.1587 93.3767 28.1587L97.2505 28.179C97.2709 28.179 97.2904 28.1871 97.3048 28.2015C97.3192 28.2159 97.3273 28.2355 97.3273 28.2559L97.3203 29.4646C97.32 29.4848 97.3118 29.5041 97.2975 29.5183C97.2831 29.5326 97.2636 29.5405 97.2434 29.5405L96.0708 29.5335C96.0607 29.5334 96.0506 29.5353 96.0411 29.5391C96.0317 29.5429 96.0231 29.5485 96.0159 29.5557C96.0087 29.5628 96.0029 29.5713 95.999 29.5807C95.9951 29.5901 95.9931 29.6002 95.9931 29.6103V33.4643C95.9931 33.4745 95.9911 33.4846 95.9871 33.4939C95.9832 33.5033 95.9775 33.5118 95.9703 33.519C95.963 33.5261 95.9544 33.5318 95.945 33.5356C95.9356 33.5394 95.9255 33.5413 95.9153 33.5412L94.7003 33.535C94.6902 33.535 94.6801 33.533 94.6707 33.5291C94.6613 33.5251 94.6528 33.5194 94.6457 33.5122C94.6385 33.5049 94.6329 33.4964 94.6291 33.4869C94.6253 33.4775 94.6234 33.4674 94.6235 33.4572L94.6244 29.6156C94.6244 29.5953 94.6163 29.5757 94.6018 29.5613C94.5874 29.5469 94.5679 29.5388 94.5475 29.5388Z" fill="white"/>
<path d="M84.5596 32.8794L84.0382 32.8777C84.0152 32.8774 83.9932 32.8682 83.977 32.852C83.9607 32.8358 83.9517 32.8139 83.9517 32.7911C83.949 31.502 83.9084 30.1926 84.0002 28.9115C84.0015 28.8959 84.0085 28.8813 84.0197 28.8705C84.031 28.8597 84.0458 28.8536 84.0612 28.8532L84.5251 28.8373C84.5423 28.8368 84.5586 28.8299 84.5709 28.8177C84.5832 28.8056 84.5905 28.7892 84.5914 28.7719L84.6197 28.2586C84.621 28.2353 84.6312 28.2135 84.6481 28.1976C84.6651 28.1817 84.6874 28.1728 84.7107 28.1729L87.2626 28.1861C87.2769 28.1861 87.2907 28.1916 87.301 28.2015C87.3114 28.2113 87.3176 28.2248 87.3182 28.2391L87.3412 28.7259C87.3425 28.7526 87.3536 28.7778 87.3723 28.7967C87.3911 28.8156 87.4162 28.8269 87.4428 28.8284L87.859 28.8488C87.895 28.8505 87.9162 28.8694 87.9226 28.9053C87.9368 28.9801 87.9444 29.0679 87.9456 29.1686C87.9615 30.336 87.9683 31.5533 87.9659 32.8202C87.9658 32.8283 87.9641 32.8363 87.9609 32.8437C87.9578 32.8511 87.9532 32.8578 87.9474 32.8634C87.9416 32.869 87.9348 32.8734 87.9274 32.8763C87.92 32.8792 87.912 32.8806 87.9041 32.8803L87.4154 32.8671C87.4015 32.8666 87.3875 32.8689 87.3745 32.874C87.3614 32.879 87.3495 32.8866 87.3394 32.8963C87.3294 32.9061 87.3214 32.9177 87.3159 32.9306C87.3104 32.9435 87.3076 32.9573 87.3076 32.9713V33.4864C87.3076 33.5229 87.2897 33.5412 87.2537 33.5412L84.6859 33.5333C84.6763 33.5333 84.6669 33.5314 84.658 33.5277C84.6492 33.524 84.6411 33.5185 84.6344 33.5117C84.6277 33.5049 84.6223 33.4968 84.6187 33.4879C84.6152 33.479 84.6134 33.4695 84.6135 33.4599L84.6153 32.936C84.6153 32.921 84.6094 32.9066 84.5989 32.896C84.5885 32.8854 84.5743 32.8794 84.5596 32.8794ZM86.6255 29.6112C86.6255 29.5911 86.6175 29.5718 86.6032 29.5575C86.589 29.5433 86.5696 29.5353 86.5495 29.5353H85.376C85.3559 29.5353 85.3366 29.5433 85.3223 29.5575C85.3081 29.5718 85.3001 29.5911 85.3001 29.6112V32.1152C85.3001 32.1353 85.3081 32.1547 85.3223 32.1689C85.3366 32.1832 85.3559 32.1912 85.376 32.1912H86.5495C86.5696 32.1912 86.589 32.1832 86.6032 32.1689C86.6175 32.1547 86.6255 32.1353 86.6255 32.1152V29.6112Z" fill="white"/>
<path d="M90.0522 30.1768L91.9511 30.1821C91.9595 30.1822 91.9679 30.184 91.9757 30.1873C91.9835 30.1906 91.9905 30.1955 91.9964 30.2016C92.0023 30.2076 92.007 30.2148 92.0101 30.2227C92.0132 30.2306 92.0148 30.239 92.0147 30.2474L91.9899 31.4667C91.9895 31.4834 91.9826 31.4992 91.9708 31.5109C91.9589 31.5226 91.943 31.5292 91.9263 31.5294L90.0469 31.5303C90.0384 31.5303 90.03 31.532 90.0222 31.5352C90.0143 31.5385 90.0072 31.5432 90.0012 31.5492C89.9953 31.5552 89.9905 31.5623 89.9873 31.5701C89.984 31.578 89.9824 31.5864 89.9824 31.5948L89.9806 33.4732C89.9806 33.4903 89.9738 33.5067 89.9617 33.5188C89.9496 33.5309 89.9332 33.5377 89.9161 33.5377L88.7046 33.5342C88.6875 33.5342 88.6711 33.5274 88.659 33.5153C88.6469 33.5032 88.6401 33.4868 88.6401 33.4697L88.6454 28.2286C88.6454 28.2115 88.6522 28.195 88.6643 28.183C88.6764 28.1709 88.6928 28.1641 88.7099 28.1641L92.5943 28.1906C92.6114 28.1906 92.6279 28.1974 92.6399 28.2095C92.652 28.2216 92.6588 28.238 92.6588 28.2551L92.6509 29.4779C92.6509 29.495 92.6441 29.5114 92.632 29.5235C92.6199 29.5356 92.6035 29.5424 92.5864 29.5424L90.0522 29.5406C90.0351 29.5406 90.0186 29.5474 90.0066 29.5595C89.9945 29.5716 89.9877 29.588 89.9877 29.6051V30.1123C89.9877 30.1294 89.9945 30.1458 90.0066 30.1579C90.0186 30.17 90.0351 30.1768 90.0522 30.1768Z" fill="white"/>
<path d="M34.0727 29.8238L32.4645 29.8266C32.4348 29.8266 32.4107 29.8508 32.4107 29.8806L32.4136 31.5027C32.4136 31.5325 32.4378 31.5566 32.4676 31.5565L34.0758 31.5537C34.1055 31.5537 34.1296 31.5295 34.1296 31.4997L34.1267 29.8776C34.1267 29.8478 34.1025 29.8237 34.0727 29.8238Z" fill="white"/>
<path d="M59.515 29.8247L57.8767 29.8219C57.8475 29.8218 57.8237 29.8455 57.8236 29.8748L57.8208 31.5023C57.8207 31.5315 57.8444 31.5553 57.8737 31.5554L59.512 31.5582C59.5412 31.5583 59.565 31.5346 59.5651 31.5053L59.5679 29.8778C59.568 29.8486 59.5443 29.8248 59.515 29.8247Z" fill="#1987E6"/>
<path d="M61.455 31.5569L59.8866 31.5631C59.876 31.5632 59.8655 31.5612 59.8557 31.5572C59.8458 31.5532 59.8369 31.5473 59.8294 31.5398C59.822 31.5323 59.816 31.5234 59.812 31.5136C59.808 31.5038 59.806 31.4933 59.8062 31.4827L59.8097 29.9065C59.8097 29.8856 59.8179 29.8655 59.8327 29.8506C59.8474 29.8357 59.8674 29.8272 59.8883 29.827L61.4771 29.8137C61.4877 29.8136 61.4982 29.8156 61.508 29.8196C61.5178 29.8236 61.5267 29.8295 61.5342 29.837C61.5417 29.8445 61.5476 29.8534 61.5516 29.8632C61.5556 29.873 61.5576 29.8835 61.5575 29.8941L61.5336 31.4792C61.5332 31.4998 61.5247 31.5195 61.51 31.534C61.4954 31.5485 61.4756 31.5567 61.455 31.5569Z" fill="white"/>
<path d="M63.4792 29.8223L61.8409 29.8194C61.8185 29.8194 61.8003 29.8375 61.8002 29.86L61.7973 31.5157C61.7973 31.5382 61.8155 31.5564 61.8379 31.5564L63.4761 31.5593C63.4986 31.5593 63.5168 31.5412 63.5169 31.5187L63.5197 29.863C63.5198 29.8405 63.5016 29.8223 63.4792 29.8223Z" fill="white"/>
<path d="M65.4419 29.8154H63.8266C63.7905 29.8154 63.7612 29.8447 63.7612 29.8808V31.4977C63.7612 31.5338 63.7905 31.5631 63.8266 31.5631H65.4419C65.478 31.5631 65.5073 31.5338 65.5073 31.4977V29.8808C65.5073 29.8447 65.478 29.8154 65.4419 29.8154Z" fill="white"/>
<path d="M67.4104 29.8176L65.8234 29.8148C65.7834 29.8148 65.7509 29.8471 65.7509 29.8871L65.7481 31.4863C65.748 31.5264 65.7804 31.5588 65.8204 31.5589L67.4074 31.5617C67.4474 31.5618 67.4799 31.5294 67.48 31.4894L67.4827 29.8902C67.4828 29.8502 67.4504 29.8177 67.4104 29.8176Z" fill="white"/>
<path d="M69.3812 29.8207L67.8137 29.8153C67.7634 29.8151 67.7225 29.8557 67.7223 29.9059L67.7169 31.4663C67.7167 31.5165 67.7573 31.5574 67.8076 31.5576L69.3751 31.563C69.4254 31.5632 69.4663 31.5226 69.4664 31.4724L69.4719 29.9121C69.4721 29.8618 69.4315 29.8209 69.3812 29.8207Z" fill="white"/>
<path d="M71.3746 29.8227L69.7523 29.8256C69.7181 29.8256 69.6905 29.8534 69.6905 29.8875L69.6933 31.4973C69.6934 31.5315 69.7211 31.5591 69.7553 31.5591L71.3776 31.5562C71.4118 31.5562 71.4394 31.5284 71.4394 31.4943L71.4366 29.8845C71.4365 29.8503 71.4088 29.8227 71.3746 29.8227Z" fill="white"/>
<path d="M73.3629 29.8258L71.7565 29.8314C71.7292 29.8315 71.7071 29.8537 71.7072 29.881L71.7129 31.512C71.713 31.5393 71.7352 31.5614 71.7626 31.5613L73.369 31.5557C73.3963 31.5556 73.4184 31.5334 73.4183 31.5061L73.4126 29.8751C73.4125 29.8477 73.3903 29.8257 73.3629 29.8258Z" fill="white"/>
<path d="M36.0857 29.8335L34.4422 29.8307C34.4129 29.8306 34.3891 29.8543 34.3891 29.8836L34.3862 31.5022C34.3862 31.5315 34.4099 31.5553 34.4392 31.5553L36.0827 31.5582C36.112 31.5582 36.1358 31.5345 36.1358 31.5053L36.1386 29.8866C36.1387 29.8574 36.115 29.8336 36.0857 29.8335Z" fill="white"/>
<path d="M34.0285 31.8034L32.5139 31.8087C32.4563 31.8089 32.4098 31.8558 32.41 31.9133L32.4153 33.4365C32.4156 33.4941 32.4624 33.5406 32.52 33.5404L34.0345 33.5351C34.0921 33.5349 34.1386 33.4881 34.1384 33.4305L34.1331 31.9073C34.1329 31.8497 34.086 31.8032 34.0285 31.8034Z" fill="white"/>
<path d="M36.0654 31.8154L34.459 31.8126C34.4204 31.8126 34.3891 31.8438 34.389 31.8823L34.3863 33.4621C34.3862 33.5006 34.4174 33.5319 34.456 33.532L36.0624 33.5348C36.1009 33.5348 36.1322 33.5037 36.1323 33.4651L36.1351 31.8853C36.1351 31.8468 36.1039 31.8155 36.0654 31.8154Z" fill="#19BEE6"/>
<path d="M61.4593 31.8167H59.9006C59.8527 31.8167 59.814 31.8554 59.814 31.9032V33.4512C59.814 33.499 59.8527 33.5378 59.9006 33.5378H61.4593C61.5071 33.5378 61.5459 33.499 61.5459 33.4512V31.9032C61.5459 31.8554 61.5071 31.8167 61.4593 31.8167Z" fill="white"/>
<path d="M63.4331 31.805L61.8621 31.8105C61.8172 31.8107 61.7809 31.8472 61.781 31.8921L61.7865 33.4595C61.7867 33.5043 61.8232 33.5406 61.8681 33.5405L63.4392 33.535C63.4841 33.5348 63.5203 33.4983 63.5202 33.4534L63.5147 31.886C63.5145 31.8411 63.478 31.8049 63.4331 31.805Z" fill="white"/>
<path d="M65.422 31.8047L63.8474 31.8019C63.8001 31.8018 63.7617 31.8401 63.7616 31.8875L63.7588 33.4513C63.7588 33.4986 63.7971 33.5371 63.8444 33.5372L65.419 33.5399C65.4663 33.54 65.5048 33.5017 65.5049 33.4544L65.5076 31.8905C65.5077 31.8432 65.4694 31.8047 65.422 31.8047Z" fill="white"/>
<path d="M67.3897 31.8046L65.8434 31.8019C65.7926 31.8018 65.7514 31.8429 65.7513 31.8936L65.7486 33.4451C65.7485 33.4959 65.7896 33.5371 65.8403 33.5372L67.3867 33.5399C67.4374 33.54 67.4786 33.4989 67.4787 33.4481L67.4814 31.8967C67.4815 31.8459 67.4404 31.8047 67.3897 31.8046Z" fill="white"/>
<path d="M69.3784 31.8042H67.8108C67.7611 31.8042 67.7207 31.8445 67.7207 31.8943V33.4476C67.7207 33.4973 67.7611 33.5377 67.8108 33.5377H69.3784C69.4282 33.5377 69.4685 33.4973 69.4685 33.4476V31.8943C69.4685 31.8445 69.4282 31.8042 69.3784 31.8042Z" fill="white"/>
<path d="M71.3621 31.8162L69.7645 31.819C69.7255 31.819 69.6939 31.8507 69.694 31.8898L69.6967 33.466C69.6968 33.505 69.7285 33.5366 69.7675 33.5366L71.3651 33.5338C71.4042 33.5337 71.4358 33.502 71.4357 33.463L71.4329 31.8867C71.4329 31.8477 71.4012 31.8161 71.3621 31.8162Z" fill="#FF6E00"/>
</svg>
