<svg width="146" height="40" viewBox="0 0 146 40" fill="none" xmlns="http://www.w3.org/2000/svg">
<g clip-path="url(#clip0_10842_260983)">
<path d="M108 5.99976V29.1562C107.999 29.6446 107.809 30.1125 107.471 30.458C107.133 30.8034 106.676 30.9981 106.198 30.9998H39.8071C39.3285 30.9998 38.8694 30.8057 38.5305 30.4601C38.1916 30.1145 38.0005 29.6456 37.9992 29.1562V11.9678C37.9992 11.4776 38.1897 11.0073 38.5287 10.6606C38.8678 10.314 39.3276 10.1192 39.8071 10.1192H103.888L107.636 5.99463L108 5.99976Z" fill="#832CFF"/>
<path d="M51.5115 18.2308C51.5115 20.3671 49.9376 21.9281 47.8203 21.9281H46.3288V24.7422H43.5777V14.552H47.8203C49.9376 14.552 51.5115 16.0925 51.5115 18.2308ZM48.6901 18.237C48.6901 17.5129 48.214 17.0046 47.4909 17.0046H46.3288V19.4766H47.4909C48.214 19.4725 48.6901 18.961 48.6901 18.237Z" fill="white"/>
<path d="M52.6274 14.0386H55.275V24.7382H52.6274V14.0386Z" fill="white"/>
<path d="M65.1212 16.87V24.7288H63.0793L62.8523 24.1732C62.1957 24.7137 61.3759 25.0041 60.5331 24.9948C58.1828 24.9948 56.5034 23.2417 56.5034 20.7994C56.5034 18.3571 58.1828 16.6327 60.5331 16.6327C61.3876 16.6244 62.2178 16.9236 62.8784 17.478L63.1496 16.87H65.1212ZM62.6032 20.8056C62.6032 19.7857 61.874 19.0196 60.8826 19.0196C59.8913 19.0196 59.1621 19.7898 59.1621 20.8056C59.1621 21.8213 59.8903 22.5988 60.8826 22.5988C61.875 22.5988 62.6032 21.8326 62.6032 20.8056Z" fill="white"/>
<path d="M71.9712 22.3668V24.7382H70.1503C68.4498 24.7382 67.4173 23.6752 67.4173 21.9293V18.9683H66.0111V18.3357L69.4552 14.585H69.9986V16.8835H71.9301V18.9683H70.0649V21.464C70.0649 22.0268 70.3963 22.3668 70.9558 22.3668H71.9712Z" fill="white"/>
<path d="M73.2067 16.8783H75.8543V24.7371H73.2067V16.8783ZM73.2268 13.5918H75.8382V15.8893H73.2237L73.2268 13.5918Z" fill="white"/>
<path d="M86.0399 20.8077C86.0399 23.2572 84.3596 25.0032 82.0092 25.0032C81.3498 25.0088 80.7016 24.8282 80.136 24.4814V27.5759H77.5186V16.8783H79.3184L79.6509 17.5028C80.3061 16.9255 81.1444 16.6119 82.0092 16.6205C84.3596 16.6205 86.0399 18.3593 86.0399 20.8077ZM83.3762 20.8077C83.3762 19.7756 82.647 19.0094 81.6557 19.0094C80.6644 19.0094 79.9352 19.7756 79.9352 20.8077C79.9352 21.8399 80.6633 22.6061 81.6557 22.6061C82.6481 22.6061 83.3762 21.844 83.3762 20.8077Z" fill="white"/>
<path d="M87.1538 21.3635V16.8784H89.7964V21.2464C89.7964 22.0762 90.2333 22.563 90.9404 22.563C91.6475 22.563 92.0754 22.068 92.0754 21.2464V16.8784H94.723V21.3635C94.723 23.5634 93.2104 24.995 90.9404 24.995C88.6705 24.995 87.1538 23.5634 87.1538 21.3635Z" fill="white"/>
<path d="M99.2559 24.995C97.1607 24.995 95.8871 23.8653 95.863 22.1614H98.4112C98.4112 22.7356 98.8029 23.0005 99.3051 23.0005C99.6918 23.0005 100.059 22.7951 100.059 22.3925C100.059 21.9386 99.4779 21.8092 98.7386 21.6849C97.5474 21.4877 95.9675 21.119 95.9675 19.2139C95.9675 17.6374 97.2802 16.6206 99.2499 16.6206C101.22 16.6206 102.475 17.6856 102.505 19.2786H100.026C100.026 18.7763 99.6968 18.5432 99.2167 18.5432C98.7919 18.5432 98.5076 18.7579 98.5076 19.1225C98.5076 19.5692 99.0952 19.6729 99.8254 19.8065C101.04 20.0273 102.654 20.2851 102.654 22.2775C102.654 23.9207 101.298 24.995 99.2549 24.995H99.2559Z" fill="white"/>
</g>
<defs>
<clipPath id="clip0_10842_260983">
<rect width="70" height="29" fill="white" transform="translate(38.0001 5.5)"/>
</clipPath>
</defs>
</svg>
