<svg fill="none" height="50" viewBox="0 0 140 50" width="140" xmlns="http://www.w3.org/2000/svg"><g clip-rule="evenodd" fill-rule="evenodd"><path d="m30.6556 18.1704c-1.077 0-1.9501.834-1.9501 1.8629v8.6935 1.5525.3105h.3251 1.3.325v-.3105-1.5525-2.1733c0-.1715.1455-.3105.325-.3105h8.7754c.1795 0 .325.139.325.3105v2.1733 1.5525.3105h.325 1.3001.325v-.3105-1.5525-8.6935c0-1.0289-.8731-1.8629-1.9501-1.8629zm9.1004 1.8629c.1795 0 .325.139.325.3105v3.7258c0 .1715-.1455.3105-.325.3105h-8.7754c-.1795 0-.325-.139-.325-.3105v-3.7258c0-.1715.1455-.3105.325-.3105zm-28.5294 5.8135c1.2104 0 1.8156-.5722 1.8156-1.7167v-4.1943c0-1.1562-.6052-1.7344-1.8156-1.7344h-11.2266v12.3884h2.03784v-4.743zm-9.18876-1.5928v-4.4598h8.16986c.5311 0 .7966.2537.7966.761v2.9555c0 .4956-.2655.7433-.7966.7433zm22.84606 4.743h-8.5219v-10.7956h-2.0378v12.3884h10.4812.0785 2.5216v-1.5925h-2.5216zm25.9284-4.0528v5.6456h-2.0378v-5.6456l-6.3914-6.7428h2.8715l4.65 4.9554 4.687-4.9554h2.6307zm19.599-3.4333h-1.9267v-.9557c0-.5073-.2593-.761-.7781-.761h-7.7437c-.5311 0-.7966.2537-.7966.761v2.2299c0 .3894.2037.584.6113.584h9.1332c1.0375 0 1.5562.4897 1.5562 1.4689v4.2121c0 1.0264-.5373 1.5397-1.6118 1.5397h-10.1521c-1.0868 0-1.6303-.5133-1.6303-1.5397v-1.7698h2.0379v.9734c0 .4955.2655.7433.7966.7433h7.7438c.5187 0 .7781-.2478.7781-.7433v-2.6016c0-.4601-.2347-.6902-.704-.6902h-9.1518c-.9633 0-1.445-.4601-1.445-1.3804v-3.8227c0-1.0382.5434-1.5574 1.6303-1.5574h10.041c1.0745 0 1.6117.5192 1.6117 1.5574zm14.7963 7.5392c0 1.0264-.5372 1.5397-1.6117 1.5397h-10.0966c-1.0868 0-1.6302-.5133-1.6302-1.5397v-9.2913c0-1.0382.5434-1.5574 1.6302-1.5574h10.0966c1.0745 0 1.6117.5192 1.6117 1.5574zm-10.5041-9.2559c-.5311 0-.7966.2537-.7966.761v7.6985c0 .4955.2655.7433.7966.7433h7.6882c.5187 0 .7781-.2478.7781-.7433v-7.6985c0-.5073-.2594-.761-.7781-.761zm25.7805 10.7956h-2.9828l-8.9294-10.2646v10.2646h-1.8526v-12.3884h2.7974l8.9294 10.2646v-10.2646h2.038z" fill="#fff"/><path d="m109.516 11.3962v9.3624l10.168-4.6914z" fill="#eb008b"/><path d="m119.684 16.0676v9.3624l10.148-4.671z" fill="#00adee"/><path d="m119.684 25.4297v9.3624l10.148-4.6914z" fill="#00b4a4"/><path d="m129.832 20.7584v9.3421l10.168-4.6711z" fill="#ffe600"/><path d="m109.516 20.7584v9.3421l10.168-4.6711z" fill="#ec1c24"/><path d="m109.516 30.1004v9.3625l10.168-4.6711z" fill="#faaf40"/></g></svg>