<svg width="144" height="48" viewBox="0 0 144 48" fill="none" xmlns="http://www.w3.org/2000/svg">
<path d="M109.406 12.1933C104.334 12.5068 106.611 19.076 112.219 18.7294C117.704 18.3903 114.81 11.8593 109.406 12.1933Z" fill="#FF9C2C"/>
<path d="M100.876 10.3989C97.9301 11.7455 95.4373 13.9305 93.7128 16.6778C91.9882 19.4251 91.1095 22.611 91.1877 25.8331C91.2658 29.055 92.2972 32.1681 94.1517 34.7788C96.0061 37.3894 98.6003 39.3803 101.606 40.4997C104.612 41.6191 107.894 41.8167 111.038 41.0675C114.182 40.3185 117.046 38.6563 119.268 36.291C121.49 33.9258 122.971 30.9639 123.523 27.78C124.075 24.5959 123.673 21.3328 122.368 18.4031C120.618 14.4746 117.371 11.4243 113.341 9.92322C109.31 8.42214 104.826 8.59326 100.876 10.3989ZM113.379 38.4716C110.743 39.6772 107.819 40.0783 104.978 39.624C102.137 39.1698 99.5058 37.8808 97.4178 35.9198C95.3296 33.9588 93.8782 31.4142 93.2469 28.6075C92.6156 25.8008 92.8328 22.8582 93.8712 20.1519C94.9095 17.4456 96.7223 15.0971 99.0803 13.4034C101.438 11.7097 104.236 10.7469 107.118 10.6368C110.001 10.5266 112.84 11.2741 115.276 12.7846C117.711 14.2951 119.635 16.5009 120.803 19.1229C122.368 22.6383 122.466 26.6516 121.074 30.2801C119.681 33.9087 116.914 36.8552 113.379 38.4716ZM95.8213 0.263484C93.4692 4.53788 95.8992 8.33333 95.8992 8.33333C95.8992 8.33333 91.1215 3.61199 86.6732 1.42412C88.2947 6.11702 92.3816 11.4489 92.3816 11.4489C92.3816 11.4489 88.9224 8.56604 84.4013 10.3827C89.0096 10.8031 92.1193 13.9341 92.8973 14.7999C94.4877 12.4555 96.6556 10.5579 99.1869 9.29414C98.4765 8.48183 95.6738 4.97178 95.8213 0.263484Z" fill="#FF9C2C"/>
<path d="M22.9489 25.9792V29.3804H21.5259V20.6178H24.5212C25.5368 20.6178 26.3003 20.8579 26.8115 21.3382C27.3227 21.8185 27.5801 22.4761 27.5835 23.3114C27.5835 24.1396 27.3215 24.7914 26.7973 25.2665C26.2733 25.7417 25.5163 25.9792 24.5264 25.9792H22.9489ZM26.1309 23.3114C26.1309 22.8148 25.9915 22.4361 25.7127 22.175C25.4339 21.914 24.987 21.7839 24.372 21.7848H22.9489V24.825H24.372C25.5437 24.825 26.13 24.3205 26.1309 23.3114ZM33.4572 29.3804L31.2608 25.8807H30.2495V29.3804H28.8264V20.6178H31.935C32.9411 20.6178 33.7046 20.8618 34.2252 21.3497C34.746 21.8377 35.0058 22.4835 35.005 23.287C35.005 23.9695 34.8116 24.532 34.4247 24.9748C34.0378 25.4175 33.4803 25.6986 32.7521 25.818L35.068 29.3804H33.4572ZM30.2495 24.8749H31.8192C32.9687 24.8749 33.5429 24.3704 33.5421 23.3612C33.5421 22.8818 33.4027 22.5074 33.1239 22.2378C32.8447 21.969 32.4111 21.8347 31.8192 21.8347H30.2495V24.8749ZM41.5451 27.4815H37.8254L37.1511 29.3804H35.629L38.874 20.7548H40.5093L43.7415 29.3804H42.2181L41.5451 27.4815ZM41.145 26.3899L39.6847 22.2954L38.2242 26.3899H41.145ZM50.9301 21.3127C51.6286 21.8257 52.12 22.5698 52.3158 23.4111H50.8181C50.6316 22.945 50.3014 22.5495 49.875 22.2812C49.4103 21.9919 48.8701 21.845 48.322 21.859C47.8029 21.8506 47.2912 21.9834 46.8423 22.2429C46.4032 22.5017 46.0481 22.8806 45.8195 23.3344C45.5651 23.8532 45.441 24.4258 45.4579 25.0029C45.4412 25.5999 45.5696 26.192 45.8323 26.729C46.0652 27.1916 46.4323 27.574 46.8861 27.8269C47.3701 28.0885 47.9141 28.2207 48.4648 28.2108C49.1562 28.2228 49.8273 27.9782 50.3472 27.5249C50.8704 27.0745 51.1865 26.456 51.2954 25.6696H48.0595V24.6267H52.4895V25.9792C52.396 26.6096 52.1594 27.2104 51.7973 27.736C51.43 28.2666 50.9374 28.6995 50.3626 28.9965C49.732 29.3185 49.0309 29.4802 48.322 29.4674C47.5268 29.4835 46.7418 29.2864 46.0498 28.8966C45.4006 28.5246 44.8724 27.9752 44.5276 27.3138C44.1745 26.5927 43.991 25.8011 43.991 24.999C43.991 24.197 44.1745 23.4055 44.5276 22.6844C44.871 22.0256 45.397 21.4785 46.0433 21.1079C46.7344 20.7221 47.5167 20.5274 48.3091 20.5436C49.3582 20.5436 50.2319 20.7999 50.9301 21.3127ZM62.537 20.7548V29.3804H61.1011V22.9147L58.5935 29.3804H57.3454L54.8235 22.9147V29.3804H53.4018V20.7548H55.1233L57.9939 27.6427L60.8142 20.7548H62.537ZM69.5006 27.4815H65.7872L65.113 29.3804H63.5858L66.8307 20.7548H68.4648L71.6982 29.3804H70.1748L69.5006 27.4815ZM69.1017 26.3899L67.6413 22.2954L66.181 26.3899H69.1017ZM77.7879 20.6178V21.7592H75.3292V29.3804H73.8933V21.7592H71.4486V20.6178H77.7879ZM79.9715 20.6178V29.3804H78.5496V20.6178H79.9715ZM88.0221 21.3497C88.744 21.9059 89.2545 22.6897 89.4697 23.5724H87.9591C87.7661 23.061 87.4199 22.621 86.967 22.312C86.473 21.99 85.8912 21.8274 85.3008 21.8462C84.8056 21.8384 84.3185 21.9716 83.897 22.2301C83.4756 22.4984 83.1382 22.8787 82.923 23.3279C82.6889 23.8516 82.568 24.4184 82.568 24.9914C82.568 25.5645 82.6889 26.1311 82.923 26.6548C83.1377 27.1047 83.4753 27.4856 83.897 27.754C84.3185 28.0126 84.8056 28.1458 85.3008 28.1378C85.891 28.157 86.4728 27.9949 86.967 27.6734C87.4174 27.3672 87.7634 26.9321 87.9591 26.4258H89.4697C89.2558 27.3069 88.7449 28.0886 88.0221 28.6407C87.3067 29.1832 86.4082 29.4545 85.3266 29.4545C84.5522 29.4691 83.7884 29.2736 83.1174 28.8889C82.4801 28.5166 81.9645 27.9691 81.6325 27.3125C81.2868 26.5892 81.1075 25.7986 81.1075 24.9978C81.1075 24.197 81.2868 23.4062 81.6325 22.683C81.9657 22.0256 82.4809 21.4765 83.1174 21.1002C83.7873 20.7122 84.5515 20.5148 85.3266 20.5296C86.4073 20.5304 87.3058 20.8038 88.0221 21.3497ZM96.1821 25.9792V29.3804H94.7604V20.6178H97.7558C98.7696 20.6178 99.5331 20.8579 100.046 21.3382C100.559 21.8185 100.816 22.4761 100.818 23.3114C100.818 24.1396 100.556 24.7914 100.032 25.2665C99.5078 25.7417 98.7508 25.9792 97.7609 25.9792H96.1821ZM99.3692 23.3114C99.3692 22.8148 99.2298 22.4361 98.951 22.175C98.6722 21.914 98.225 21.7839 97.609 21.7848H96.1821V24.825H97.6052C98.7812 24.825 99.3692 24.3205 99.3692 23.3114ZM103.259 28.276H106.304V29.3804H101.836V20.6178H103.259V28.276ZM112.819 27.4815H109.1L108.426 29.3804H106.903L110.149 20.7548H111.783L115.016 29.3804H113.493L112.819 27.4815ZM112.42 26.3899L110.96 22.2954L109.499 26.3899H112.42ZM120.728 20.6178L117.796 26.1904V29.3804H116.364V26.1904L113.418 20.6178H115.067L117.089 24.6766L119.111 20.6178H120.728Z" fill="white"/>
</svg>
