<svg width="144" height="48" viewBox="0 0 144 48" fill="none" xmlns="http://www.w3.org/2000/svg">
<path d="M44.9651 26.0473C44.9243 25.519 44.7611 25.0382 44.6183 24.5302C44.5707 24.5167 44.5164 24.4964 44.462 24.4964L44.326 24.5709C44.3056 24.9095 44.326 25.2481 44.292 25.5868C44.2784 25.7764 44.292 25.966 44.2648 26.1624C44.2001 27.1585 44.0058 28.142 43.6869 29.0882C43.5917 29.3862 43.4353 29.6503 43.3605 29.9551V29.7993C43.3378 29.8978 43.3036 29.9933 43.2585 30.0837C42.9662 30.6391 42.633 31.1674 42.2115 31.6211C41.9939 31.8378 41.7015 32.0004 41.416 32.0952C41.3208 32.1426 41.2324 32.0546 41.212 31.9665C41.2324 31.8446 41.3072 31.7295 41.3616 31.6144C41.7491 30.8287 42.1775 30.0363 42.4834 29.2169C42.8234 28.35 43.0274 27.456 43.2925 26.5756C43.3197 26.4807 43.3197 26.3927 43.3197 26.3047C43.2517 26.2843 43.1769 26.2437 43.1089 26.264C42.8642 26.3182 42.6398 26.4537 42.4086 26.5146C42.3407 26.5349 42.2931 26.4807 42.2387 26.4469C42.2387 26.1963 42.3407 25.9931 42.4018 25.7628C42.565 25.2143 42.7554 24.6792 42.9186 24.1307C43.0342 23.7853 43.1361 23.4331 43.2585 23.0877C43.2993 22.9861 43.3197 22.8845 43.3401 22.7761C43.1089 23.1148 42.8438 23.4399 42.6602 23.792L42.2591 24.4964C42.1367 24.7131 42.0075 24.9095 41.9191 25.1465L41.8987 25.1195C41.8307 25.3768 41.7015 25.6139 41.6064 25.8644C41.5384 26.0608 41.4364 26.2572 41.3616 26.4604C41.3412 26.5485 41.416 26.5891 41.4636 26.6568C41.6268 26.8126 41.7355 27.0361 41.7491 27.2664C41.7763 27.6659 41.6132 28.0655 41.4296 28.4177C41.3208 28.6209 41.1576 28.7834 41.0216 28.973C40.7292 29.3907 40.5065 29.8526 40.3621 30.3411C40.2941 30.5646 40.2125 30.7813 40.1582 30.998C40.1147 31.0355 40.0637 31.0632 40.0086 31.0793C39.961 31.059 39.9134 31.0251 39.8726 30.998C39.859 30.7001 39.893 30.3953 39.9406 30.0973C39.9814 29.7316 40.0426 29.3523 40.165 29.0137C40.2329 28.7902 40.4301 28.6683 40.5049 28.4516C40.6205 28.1197 40.6137 27.754 40.5593 27.4018C40.5249 27.2273 40.4605 27.0601 40.3689 26.9074C40.2329 26.711 39.9882 26.6839 39.859 26.5011C39.8046 26.4266 39.7434 26.3317 39.7638 26.2369C39.791 26.0812 39.8522 25.9525 39.9202 25.8103C39.8749 25.7539 39.8223 25.7038 39.7638 25.6613C39.5745 25.539 39.3794 25.426 39.1791 25.3226C38.7983 25.1059 38.4108 24.8824 38.0232 24.6725C37.9349 24.6183 37.8329 24.5709 37.7513 24.4964C37.7377 24.4287 37.7513 24.3474 37.7513 24.2797C38.3224 24.1307 38.9819 24.3338 39.4782 24.6183C39.6822 24.7334 39.8454 24.8756 40.063 24.9298C40.3553 25.0111 40.6953 24.9027 40.8993 24.686C41.0504 24.4893 41.1444 24.255 41.1712 24.0088C41.1916 23.9207 41.1304 23.853 41.0488 23.8327C40.7769 23.7582 40.5049 23.6972 40.2397 23.6092C40.0834 23.5482 39.927 23.4737 39.8794 23.2909C39.8658 23.2028 39.893 23.0606 40.0018 23.0674C40.2941 23.0538 40.5797 23.0945 40.8857 23.0132C40.965 22.9868 41.038 22.9442 41.1 22.8883C41.1621 22.8323 41.2118 22.7642 41.246 22.6881C41.314 22.5391 41.3684 22.3698 41.4092 22.214C41.4228 22.1463 41.3752 22.0921 41.348 22.0312C41.2052 22.0312 41.076 22.065 40.94 22.1124C40.7905 22.1598 40.6681 22.1057 40.5321 22.0312L40.4777 21.8618C40.6137 21.7061 40.7701 21.5774 40.8857 21.4149C41.175 21.0187 41.4147 20.5888 41.5996 20.1348C41.8035 19.6472 42.0075 19.1393 42.1571 18.6246C42.3388 18.0995 42.4508 17.5531 42.4902 16.9991C42.6398 17.1414 42.769 17.3039 42.8574 17.4868C42.9526 17.6899 43.0206 17.927 43.0682 18.1505C43.4081 18.0421 43.7889 17.9134 44.0676 17.6764C44.3396 17.4258 44.3736 17.0195 44.3192 16.6808C44.2036 16.7486 44.0812 16.8163 43.9588 16.8705C43.8025 16.9382 43.6733 17.0398 43.5033 17.0804C43.5577 16.9246 43.6257 16.7756 43.7141 16.6402C43.8025 16.498 43.9452 16.3896 44.0676 16.2677C44.3873 15.9354 44.6309 15.538 44.7815 15.1028C44.9311 14.6423 45.0127 14.1547 45.0331 13.6806C45.0603 13.4097 45.0739 13.1049 44.9583 12.8543C44.8987 12.71 44.8041 12.5825 44.6832 12.4833C44.5622 12.384 44.4185 12.3161 44.2648 12.2854C44.0122 12.2401 43.7519 12.2708 43.5169 12.3735C42.803 12.6918 42.0891 13.0304 41.3412 13.2471C40.4233 13.4774 39.4918 13.6941 38.5536 13.7889C38.2 13.8093 37.8057 13.8905 37.4725 13.8296C36.7136 13.6321 35.9409 13.4917 35.1608 13.4097C34.6417 13.3489 34.1197 13.315 33.5971 13.3081C33.2571 13.2878 32.9239 13.2675 32.5908 13.2945C32.2848 13.3216 31.9789 13.3013 31.6729 13.3284C30.993 13.369 30.3267 13.4435 29.6604 13.5451C29.2796 13.5993 28.9057 13.7009 28.5182 13.7483C28.2598 13.7889 28.015 13.7754 27.7499 13.7822C27.2399 13.7957 26.7232 13.7212 26.2133 13.6467C24.8396 13.378 23.504 12.9436 22.2358 12.3532C22.0522 12.2719 21.8551 12.1703 21.6579 12.1297C21.3859 12.0958 21.114 12.0958 20.8692 12.2448C20.6924 12.3667 20.5292 12.5563 20.4613 12.7663C20.3593 13.0575 20.3933 13.3758 20.4273 13.6806C20.4613 14.3511 20.6312 15.0486 20.9984 15.6175C21.148 15.8681 21.3383 16.0645 21.5423 16.2609C21.7395 16.4235 21.8483 16.6944 21.9503 16.9246C21.6511 16.8366 21.4131 16.6334 21.114 16.5454C21.08 16.735 21.1072 16.9246 21.1412 17.1143C21.2092 17.4055 21.4539 17.629 21.7191 17.7374C21.9231 17.8322 22.1406 17.927 22.365 17.9947C22.433 17.8389 22.4874 17.6832 22.5826 17.5409C22.671 17.392 22.7865 17.27 22.9021 17.1346C22.9262 17.1339 22.9497 17.1269 22.9701 17.1143C23.0245 17.8051 23.2353 18.4282 23.446 19.0783C23.5344 19.3357 23.65 19.5659 23.6976 19.8368V19.6472C23.7452 19.9181 23.8676 20.1552 23.9832 20.4057C24.1667 20.7918 24.3571 21.1575 24.6291 21.4894C24.7379 21.6113 24.8603 21.7196 24.969 21.828C24.969 21.8822 24.969 21.9228 24.9554 21.9702C24.9074 22.0332 24.8419 22.0809 24.767 22.1074C24.6921 22.1339 24.6111 22.138 24.5339 22.1192C24.3843 22.0786 24.2483 22.0244 24.0852 22.0379C23.9968 22.2411 24.1396 22.4917 24.2075 22.6746C24.2891 22.8777 24.4659 22.9929 24.6699 23.0335C24.9418 23.0877 25.2138 23.0606 25.4994 23.0741L25.581 23.1622C25.5742 23.2299 25.581 23.3247 25.5402 23.3857C25.4382 23.5347 25.275 23.5889 25.1118 23.643C24.8467 23.7243 24.5815 23.7853 24.3163 23.8598C24.2891 23.941 24.2619 24.0155 24.2891 24.0968C24.3367 24.3067 24.4183 24.5438 24.5611 24.7063C24.7719 24.9095 25.0846 25.0111 25.377 24.9434C25.6557 24.8486 25.8665 24.6657 26.1453 24.5302C26.4758 24.3626 26.8362 24.2613 27.2059 24.2322C27.3895 24.2187 27.5595 24.2322 27.7295 24.3067C27.7159 24.4016 27.7295 24.4828 27.6343 24.5438C27.3487 24.7266 27.0428 24.8824 26.7504 25.0517C26.356 25.2888 25.9549 25.4919 25.5674 25.729C25.5674 25.8441 25.5674 25.9186 25.6285 26.0134C25.7033 26.1827 25.7305 26.3656 25.5946 26.5078C25.445 26.6975 25.207 26.7178 25.0846 26.9142C24.9078 27.1851 24.8807 27.4899 24.8467 27.8082C24.8331 28.0317 24.8807 28.2687 24.9622 28.4854C25.0234 28.6615 25.1798 28.7563 25.2478 28.9392C25.4382 29.3862 25.4926 29.9077 25.547 30.3817C25.581 30.5985 25.5878 30.8152 25.581 31.0319C25.5198 31.0522 25.445 31.1064 25.377 31.0793C25.2954 31.0455 25.2886 30.9439 25.2478 30.8761C25.037 30.1853 24.8195 29.4471 24.3639 28.885C24.1049 28.5986 23.9082 28.262 23.786 27.8962C23.7112 27.6253 23.65 27.3544 23.7384 27.0835C23.7996 26.8668 23.9356 26.711 24.0852 26.562C24.0852 26.3385 23.9628 26.1895 23.888 25.9931C23.752 25.6477 23.616 25.2955 23.446 24.9637C23.4127 24.8908 23.3832 24.8162 23.3577 24.7402L23.3305 24.7741L23.2285 24.5641L22.7525 23.7446C22.5758 23.4263 22.3446 23.1283 22.1406 22.8236C22.161 23.047 22.2358 23.2299 22.3038 23.4331L23.0313 25.7222C23.0857 25.9593 23.1945 26.1895 23.2353 26.4266L23.1197 26.5485C22.8409 26.4875 22.5758 26.3317 22.297 26.2708C22.1474 26.2505 22.1066 26.4062 22.1406 26.5214C22.3446 27.2596 22.5486 28.0046 22.7865 28.7292C23.1129 29.7383 23.5888 30.6323 24.058 31.5737C24.1192 31.7024 24.1939 31.8243 24.2279 31.953C24.2551 32.0343 24.16 32.0884 24.1124 32.1358C23.8669 32.0548 23.6336 31.9408 23.4189 31.7972C23.2693 31.6956 23.1673 31.5602 23.0517 31.4247C22.5194 30.7721 22.1011 30.0349 21.8143 29.244C21.5554 28.5366 21.3752 27.803 21.2771 27.0564C21.216 26.7178 21.2092 26.3656 21.1616 26.0202C21.148 25.5461 21.1548 25.072 21.114 24.598C21.0528 24.5032 20.91 24.4896 20.842 24.5777C20.774 24.6792 20.7536 24.8011 20.7196 24.9163C20.57 25.3904 20.4885 25.8644 20.4477 26.3656C20.3797 26.9616 20.2709 27.5711 20.3253 28.1671C20.3593 28.438 20.3661 28.7021 20.4273 28.9663C20.4681 29.1695 20.4749 29.3794 20.5564 29.569C20.6244 29.718 20.7128 29.8535 20.808 29.9889C21.148 30.5307 21.5015 31.059 21.8415 31.6076C22.3854 32.4338 22.9089 33.2669 23.4596 34.0931C23.514 34.0931 23.5684 34.0931 23.616 34.0796L23.718 33.9712C23.854 33.9577 24.0172 33.9103 24.16 33.9238C24.2891 34.0999 24.3639 34.3234 24.4659 34.513C24.6903 34.9465 24.8875 35.3934 25.1458 35.8133C25.1798 35.9149 25.3838 35.9082 25.4178 35.8269C25.4518 35.6643 25.4382 35.4883 25.4382 35.3189V34.0931C25.4654 33.8899 25.4382 33.6461 25.5742 33.4836C25.7373 33.2939 26.0909 33.2872 26.2677 33.47C26.4036 33.6732 26.3968 33.9035 26.3968 34.1337C26.4036 34.4995 26.3696 34.8652 26.4376 35.2241C26.5192 35.2444 26.5872 35.2783 26.6688 35.2241C27.0496 35.0074 27.3691 34.7365 27.7975 34.5875C28.2247 34.4277 28.6819 34.363 29.1369 34.3979C29.4904 34.4453 29.8168 34.6146 30.1363 34.7568C29.9936 34.6417 29.8644 34.513 29.7012 34.4182C29.1662 34.1119 28.5351 34.0176 27.9334 34.1541C27.7295 34.1947 27.5323 34.1947 27.3351 34.1879C27.3011 34.1473 27.2535 34.1067 27.2331 34.0525C27.2535 33.9238 27.3147 33.7951 27.3555 33.6732C27.4915 33.2533 27.6003 32.8131 27.6615 32.3797C27.6955 32.1629 27.6887 31.9462 27.7159 31.7295C27.7363 31.5534 27.6955 31.3773 27.6887 31.1877C27.6666 30.8714 27.5725 30.5643 27.4135 30.2897C27.2544 30.0151 27.0346 29.7802 26.7708 29.6029C26.6756 29.5352 26.5192 29.4878 26.4988 29.3591C26.3569 28.8725 26.2814 28.369 26.2745 27.8623C26.2888 27.1101 26.6017 26.3942 27.1447 25.8712C27.4001 25.637 27.6779 25.4283 27.9742 25.2481C28.0422 25.2143 28.0762 25.2346 28.1238 25.282C28.5997 25.7696 28.9805 26.413 29.4972 26.8465L29.5176 26.9142C29.1777 27.009 28.8445 26.9277 28.5385 26.7855C28.2258 26.6297 27.9606 26.3792 27.6887 26.176C27.5527 26.0676 27.4371 25.9593 27.2671 25.9051C27.3147 26.2572 27.5051 26.5823 27.7431 26.8465C28.1714 27.2867 28.8377 27.5237 29.3068 27.9233C29.368 27.9639 29.3408 28.0181 29.3544 28.0791C29.1777 28.052 29.0145 28.0113 28.8377 27.9639L27.4847 27.6253C27.3864 27.6072 27.2905 27.5777 27.1991 27.5373C27.1855 27.5373 27.1651 27.5508 27.1583 27.5644C27.2739 27.7201 27.3623 27.8894 27.5255 28.0113C27.7975 28.2145 28.1714 28.3161 28.5046 28.35C28.7085 28.3771 28.8989 28.4177 29.0961 28.4516C29.3 28.4922 29.47 28.587 29.64 28.6886C29.5448 28.8173 29.3408 28.8579 29.1981 28.9121C28.7017 29.0611 28.2462 28.9121 27.7567 28.8579C27.5935 28.8173 27.4439 28.9121 27.2943 28.9595C27.306 29.0514 27.3386 29.1394 27.3895 29.2169C27.5391 29.42 27.7431 29.5081 27.9538 29.6232C28.3822 29.8873 28.9533 30.0363 29.436 29.8806C30.3199 29.6097 31.1698 29.2846 32.0401 28.9527C32.278 28.8715 32.448 28.6818 32.482 28.4312C32.5092 28.1603 32.482 27.8691 32.4956 27.5914C32.5092 27.3883 32.4616 27.1986 32.3324 27.0496C32.2032 26.9006 32.0401 26.8465 31.8565 26.7855C31.0432 26.5447 30.3316 26.0451 29.8304 25.3633C29.6641 25.12 29.5421 24.8495 29.47 24.5641C29.439 24.4526 29.4438 24.3342 29.4836 24.2255C29.5652 24.002 29.6196 23.7649 29.64 23.5347C29.64 23.2096 29.5448 22.9116 29.47 22.6136C29.4292 22.4578 29.4224 22.275 29.334 22.1598C29.2253 22.0176 29.1301 21.8754 29.0145 21.7467C28.8921 21.6113 28.7085 21.5435 28.5453 21.4758C28.253 21.3268 27.947 21.2388 27.6343 21.1372C26.9241 20.8689 26.3075 20.4006 25.8597 19.7894C25.547 19.3831 25.2818 18.9293 25.0506 18.462C24.9826 18.3266 24.9282 18.1776 24.9146 18.0218C24.8807 17.7915 24.9146 17.5613 24.8603 17.3242L24.9078 17.2362H25.071C25.207 17.4935 25.3294 17.7509 25.4586 18.015C25.5606 18.2521 25.7985 18.4688 26.0569 18.5162C26.1453 18.5433 26.2337 18.5433 26.3289 18.5433C26.9544 18.5636 27.5527 18.5907 28.1442 18.8345C28.525 18.9903 28.8445 19.2544 29.1097 19.5727C29.3272 19.8436 29.4496 20.1552 29.64 20.4532C29.8032 20.7105 30.0071 20.9543 30.2451 21.1575C30.4083 21.3065 30.5987 21.4013 30.789 21.5097C30.8366 21.171 30.6803 20.7647 30.6463 20.4328C30.7822 20.3787 30.8706 20.3109 30.9658 20.2093C30.959 20.1078 30.9658 20.0062 30.9114 19.9249C30.7754 19.654 30.5307 19.4576 30.3267 19.2409L29.5108 18.3672L29.4904 18.2859C29.8168 18.164 30.1499 18.0286 30.4015 17.7848C29.64 17.7644 28.8785 17.7848 28.117 17.7712C28.151 17.7035 28.1578 17.6764 28.2394 17.6629C28.5114 17.6154 28.7833 17.5206 29.0485 17.4394C29.3884 17.3107 29.776 17.2091 30.0819 17.0127C29.946 16.884 29.7896 16.8298 29.6196 16.7689C29.2001 16.6469 28.7648 16.5875 28.3278 16.5928C27.7363 16.6199 27.1243 16.6605 26.5396 16.5454L26.594 16.4099C26.8456 16.3219 27.1107 16.2745 27.3691 16.2068C27.9198 16.0713 28.4706 15.9155 29.0213 15.7665C29.5652 15.5904 30.1091 15.3805 30.6327 15.1502C30.7278 15.1096 30.8026 15.0554 30.8774 14.9877C30.2179 14.9741 29.5584 14.9877 28.9057 14.9809C28.5997 14.9809 28.2938 14.9877 28.0014 14.9741C28.0694 14.859 28.2054 14.8319 28.321 14.771C28.8785 14.4797 29.402 14.1953 30.0139 14.0395C30.4049 13.9578 30.806 13.9349 31.2038 13.9718C31.9585 13.9853 32.72 13.9921 33.4679 13.9786C33.8078 13.9786 34.1342 13.9312 34.4673 13.9447C35.1372 13.9543 35.7967 14.1115 36.3983 14.4052C36.7246 14.5407 37.0442 14.7168 37.3637 14.8658C37.4249 14.8861 37.4453 14.9267 37.4793 14.9741C36.5071 14.9945 35.5348 14.9741 34.5625 14.9877C34.6373 15.0419 34.7121 15.0893 34.7937 15.1231C35.2696 15.3534 35.7796 15.5295 36.2827 15.7124C36.8946 15.9155 37.5201 16.0374 38.1388 16.2338C38.3904 16.3016 38.6284 16.4099 38.8799 16.4573C38.37 16.6267 37.8737 16.5792 37.3433 16.5928C37.0646 16.5792 36.7858 16.6199 36.5003 16.647C36.0923 16.6944 35.6776 16.8231 35.324 17.0465V17.121C35.4804 17.2497 35.63 17.3716 35.8203 17.4394C36.3099 17.6222 36.7586 17.5477 37.2686 17.6764L37.4997 17.7441C36.9218 17.7577 36.3439 17.7441 35.7728 17.7441C35.5484 17.7509 35.3376 17.7306 35.12 17.7712C35.12 17.7983 35.1336 17.8186 35.1404 17.8457C35.3784 18.0353 35.6504 18.1708 35.9223 18.2859C35.9223 18.4688 35.8 18.523 35.698 18.6449C35.494 18.8819 35.256 19.0986 35.0521 19.3425C34.9025 19.5185 34.7121 19.6743 34.5829 19.8639C34.5013 19.9926 34.4809 20.1687 34.5829 20.2838C34.6509 20.3516 34.7461 20.399 34.8209 20.4599C34.7733 20.7986 34.6169 21.1778 34.6781 21.5164C34.9705 21.3133 35.2968 21.0898 35.528 20.8121C35.7864 20.5277 35.9903 20.189 36.1671 19.8436C36.3847 19.4508 36.7042 19.119 37.1054 18.9226C37.687 18.6575 38.3222 18.53 38.9615 18.5501C39.2539 18.5501 39.553 18.5027 39.7774 18.3062C39.9202 18.1911 40.0018 18.0489 40.063 17.8728C40.165 17.6154 40.2805 17.3649 40.4573 17.1481C40.4981 17.3445 40.5661 17.5206 40.5593 17.7238C40.5661 18.0692 40.4573 18.374 40.3009 18.6787C39.9837 19.4189 39.4744 20.0617 38.8255 20.5412C38.3224 20.9205 37.7377 21.1981 37.153 21.4149C36.9286 21.4894 36.677 21.5503 36.4867 21.6858C36.2555 21.8618 36.0651 22.126 36.0175 22.4172C35.9699 22.7287 35.8543 23.0403 35.8203 23.3518C35.7932 23.5821 35.8407 23.7988 35.8883 24.0291V23.9749C35.9223 24.0968 35.9699 24.2187 36.0107 24.3338C36.0991 24.5438 36.0651 24.7944 35.9563 24.984C35.8407 25.1736 35.6844 25.3497 35.528 25.5123C35.0928 25.9863 34.5761 26.413 33.9846 26.6907C33.7806 26.7923 33.5767 26.8261 33.4067 26.9616C33.2775 27.07 33.1483 27.1919 33.1279 27.3679C33.0871 27.6321 33.1075 27.903 33.1007 28.1671C33.1007 28.3297 33.0803 28.5057 33.1687 28.6547C33.2507 28.8049 33.3868 28.9186 33.5495 28.973C34.2702 29.244 34.9977 29.5284 35.7252 29.7858C35.9087 29.8535 36.0923 29.9415 36.2827 29.9754C36.4663 30.0025 36.677 30.0093 36.847 29.9415C37.2144 29.7864 37.5632 29.591 37.8873 29.3591C38.0504 29.244 38.1728 29.0882 38.1864 28.8782C37.9281 28.8782 37.6833 28.8105 37.4181 28.8037C37.0986 28.7699 36.8062 28.736 36.5275 28.5599C36.6158 28.4516 36.745 28.4516 36.8674 28.4245C37.2754 28.3364 37.6561 28.289 37.9757 27.991C38.0912 27.8623 38.2272 27.754 38.2204 27.5644C37.5541 27.7404 36.8878 27.8894 36.2215 28.0723L36.1331 28.0249V27.9233C36.2419 27.842 36.3371 27.7608 36.4527 27.693C36.779 27.4763 37.2074 27.3002 37.5201 27.0361C37.6629 26.9006 37.8329 26.7584 37.9145 26.5756C38.0232 26.3724 38.0708 26.1692 38.0572 25.9457C37.6901 26.1692 37.4181 26.5078 37.0374 26.7246C36.813 26.86 36.5614 26.9277 36.3099 26.948C36.1739 26.9548 36.0175 26.9142 35.8883 26.8803C36.4119 26.474 36.9082 26.0473 37.4249 25.6409C37.5269 25.5664 37.5881 25.4784 37.7173 25.4513C38.2878 25.9208 38.7025 26.5512 38.9071 27.2596C39.0862 27.9745 39.0955 28.7212 38.9343 29.4404C38.7304 29.569 38.5264 29.6909 38.3496 29.867C37.9893 30.2192 37.8057 30.7407 37.7513 31.2351C37.6966 32.0602 37.8123 32.8877 38.0912 33.6664C38.132 33.8019 38.1932 33.9373 38.2068 34.0728L38.0844 34.2015C37.8737 34.2015 37.6629 34.2015 37.4589 34.1473C37.2587 34.0937 37.0538 34.0597 36.847 34.0457C36.5794 34.0482 36.3149 34.1034 36.0687 34.208C35.8225 34.3126 35.5995 34.4646 35.4124 34.6552C35.7796 34.4047 36.3235 34.4046 36.7518 34.4317C37.1734 34.4927 37.6493 34.5198 38.0164 34.7433C38.2952 34.9126 38.5672 35.0955 38.8323 35.2715L39.0159 35.2241C39.0703 34.9532 39.0363 34.6485 39.0499 34.364C39.0567 34.0728 39.0091 33.7951 39.1519 33.5242C39.3219 33.2601 39.7842 33.2872 39.9338 33.5513C40.0086 33.7816 40.0154 34.0457 40.0154 34.2895V35.6305C40.0086 35.7185 40.029 35.793 40.0562 35.8743L40.2601 35.8878C40.4437 35.6169 40.5797 35.3054 40.7361 35.0142C40.9196 34.6552 41.0896 34.276 41.28 33.9102L41.7083 33.9644L41.8239 34.0863C41.8783 34.0863 41.9395 34.0863 41.9939 34.066C42.0823 33.9577 42.1503 33.8358 42.2319 33.7206L43.5781 31.6279C43.986 30.9777 44.4212 30.3411 44.8223 29.6842C44.9447 29.5013 44.9447 29.3049 44.9855 29.095C45.0671 28.6683 45.1215 28.2416 45.1215 27.8082C45.1283 27.2257 44.9991 26.6365 44.9583 26.0473H44.9651ZM26.1317 14.3443C25.5742 14.3443 25.0506 14.026 24.4727 14.026C24.2551 14.026 24.0036 14.0057 23.7928 14.0734C23.65 14.1208 23.5072 14.1614 23.3985 14.2766C23.8064 14.4594 24.1939 14.6491 24.5951 14.8251C24.7719 14.9132 24.9486 15.0012 25.139 15.0757C25.0574 15.0757 24.9758 15.0757 24.8942 15.0554L24.0308 14.8387C24.0716 15.1638 24.0648 15.4889 24.0784 15.8139C24.1124 16.0713 24.1192 16.3287 24.1668 16.586C24.4068 18.2765 25.1532 19.8556 26.3085 21.1169C26.5396 21.3607 26.8048 21.5909 27.0903 21.7806C26.7844 21.6451 26.4988 21.4894 26.2065 21.3268L26.4036 21.4081C26.1212 21.251 25.8626 21.0549 25.6353 20.8256C25.0295 20.2037 24.5555 19.4666 24.2415 18.6584C23.99 18.0489 23.7928 17.419 23.5616 16.8027C23.4596 16.5454 23.2897 16.3625 23.1605 16.1255C23.0461 15.9099 22.9549 15.6829 22.8885 15.4482C22.7865 15.1502 22.7525 14.859 22.7661 14.5475C22.7797 14.2427 22.9361 13.965 23.1945 13.8025C23.5162 13.6259 23.8816 13.5437 24.2483 13.5654C24.5203 13.5654 24.7583 13.6603 25.0166 13.7212C25.4178 13.816 25.8121 13.9041 26.2065 14.0124C26.4988 14.0666 26.7708 14.1614 27.0632 14.2021C26.7572 14.324 26.4512 14.3375 26.1249 14.3375L26.1317 14.3443ZM38.8051 21.5435C39.0431 21.4081 39.2607 21.2388 39.4511 21.0356C39.723 20.7782 39.9542 20.4938 40.131 20.1755C40.2329 19.9858 40.3009 19.7894 40.3961 19.5998C40.7835 18.73 41.0401 17.808 41.1576 16.8637L41.2936 15.4956C41.3208 15.2925 41.3344 15.096 41.3344 14.8861L41.0624 14.9809C40.7973 15.0825 40.5321 15.1638 40.2737 15.2789L40.6749 14.9606C40.974 14.7371 41.314 14.5678 41.6675 14.4391C41.8239 14.3917 41.9803 14.3646 42.1299 14.2901C41.888 14.1994 41.6374 14.1336 41.382 14.0937C40.8585 14.0192 40.2941 14.1818 39.7706 14.2563C39.2947 14.3443 38.8255 14.412 38.3564 14.2901C38.6148 14.1682 38.8799 14.1411 39.1655 14.0666C39.6618 13.9379 40.1718 13.816 40.6749 13.7009C40.8381 13.6603 41.0216 13.5925 41.1916 13.5858C41.4228 13.5722 41.6539 13.6061 41.8851 13.6332C42.1571 13.7009 42.429 13.8093 42.5922 14.0531C42.7418 14.2427 42.769 14.473 42.7826 14.7168C42.7545 15.1723 42.6391 15.6183 42.4426 16.0307C42.3543 16.2338 42.2251 16.4302 42.1299 16.6402C41.8987 17.27 41.6811 17.9067 41.3956 18.523C40.9897 19.5277 40.3431 20.4182 39.5122 21.1169C39.2811 21.3065 39.0159 21.4352 38.7711 21.6113C38.676 21.679 38.5536 21.7196 38.4312 21.7467C38.5536 21.679 38.676 21.5977 38.8119 21.5435H38.8051ZM28.0286 19.7149C28.3006 19.8165 28.5386 19.9858 28.7085 20.2297C28.6745 20.3516 28.6405 20.4599 28.5725 20.5615C28.457 20.7105 28.3006 20.8663 28.1238 20.9137C27.9198 20.9814 27.6887 20.8595 27.5391 20.7308C27.3691 20.5954 27.3215 20.3516 27.3011 20.1484C27.3011 19.9384 27.2603 19.742 27.3827 19.5592C27.6207 19.5185 27.8043 19.6269 28.0286 19.7082V19.7149ZM37.8397 19.6269C37.8805 19.6269 37.9689 19.6134 37.9961 19.654C38.0164 19.7759 38.0232 19.9113 38.0368 20.0333C38.0572 20.2635 37.9621 20.5277 37.7989 20.6834C37.6629 20.8053 37.4929 20.9137 37.3093 20.9679C37.2422 20.9819 37.1728 20.9813 37.1059 20.9661C37.039 20.9509 36.9762 20.9215 36.9218 20.8798C36.838 20.7936 36.7745 20.69 36.7357 20.5764C36.6969 20.4628 36.6838 20.3421 36.6974 20.2229C36.8674 20.0197 37.0646 19.8436 37.3025 19.7217C37.4657 19.654 37.6561 19.6269 37.8397 19.6269ZM30.6327 23.7446C30.6735 23.9613 30.7007 24.1781 30.8638 24.3406C31.1358 24.5709 31.4553 24.6454 31.7953 24.6928C32.0469 24.7334 32.2848 24.7334 32.5364 24.7402C33.132 24.7711 33.7288 24.7071 34.3042 24.5506C34.4945 24.4761 34.6781 24.3271 34.7665 24.1307C34.8073 24.0291 34.8141 23.9139 34.8549 23.8123L34.9433 23.792C35.0385 23.941 35.1268 24.1103 35.2016 24.2729C35.2696 24.4016 35.2696 24.5573 35.2492 24.6928C35.2152 24.8418 35.0725 24.9637 34.9501 25.0382C34.7597 25.1601 34.4809 25.1398 34.2702 25.1465C34.073 25.1465 33.8826 25.1736 33.6854 25.1872H31.6661C31.4214 25.1872 31.1834 25.1465 30.9318 25.1195C30.7482 25.0856 30.5239 25.0382 30.4015 24.896C30.2655 24.7063 30.2451 24.4354 30.2655 24.2187C30.3063 24.0223 30.5035 23.8665 30.6463 23.7446H30.6327ZM32.9579 30.5036C33.1415 30.5036 33.3183 30.524 33.5019 30.5375C34.107 30.5781 34.7257 30.7001 35.2968 30.91C35.6368 31.0387 35.9495 31.2215 36.2487 31.4247C37.0043 32.0015 37.547 32.8111 37.7921 33.7274C37.4929 33.5242 37.2278 33.2872 36.9558 33.0501C36.8256 32.9393 36.6739 32.8562 36.5102 32.8061C36.3465 32.756 36.1741 32.74 36.0039 32.7589C35.9563 32.8131 35.8951 32.8673 35.8883 32.935C35.8271 33.1382 35.9019 33.3684 35.9019 33.5852C35.3104 34.0999 34.5421 34.3437 33.767 34.3302C33.5019 34.3234 33.2095 34.3708 32.9919 34.2082C32.8084 34.0931 32.7812 33.8628 32.7676 33.6664C32.754 33.8425 32.652 33.9915 32.5296 34.1202C32.2712 34.3234 31.9449 34.3911 31.6117 34.4046C31.1345 34.3991 30.6622 34.3073 30.2179 34.1337C29.9732 34.0525 29.7556 33.917 29.5244 33.8154C29.4428 33.5445 29.5108 33.233 29.4836 32.9485C29.504 32.8199 29.334 32.7589 29.2389 32.7318C28.9669 32.7386 28.7221 32.8673 28.5046 33.0027C28.2666 33.1585 28.1306 33.3684 27.947 33.5649C27.9043 33.6132 27.8471 33.6464 27.7839 33.6597C27.8314 33.1856 27.9878 32.7657 28.2462 32.3729C28.7539 31.6522 29.4847 31.1169 30.3267 30.8491C30.828 30.6713 31.3524 30.5664 31.8837 30.5375C32.2372 30.4901 32.5908 30.5104 32.9579 30.5036Z" fill="#E52F31"/>
<path d="M103.636 20.1124C102.667 19.3566 101.446 18.9696 100.203 19.0241C99.4517 18.9947 98.7021 19.1108 97.998 19.3656C97.2938 19.6205 96.6492 20.0089 96.102 20.5082C95.2402 21.3783 94.7061 22.5044 94.5858 23.7047C94.4617 24.6941 94.5801 25.698 94.9315 26.6348C95.1527 27.1978 95.4834 27.7145 95.9056 28.1569C96.1099 28.3624 96.3063 28.5679 96.5341 28.7429C97.3471 29.3346 98.3113 29.7003 99.3229 29.8008C99.7157 29.8312 100.109 29.8845 100.501 29.8312C101.572 29.8035 102.61 29.4641 103.479 28.8571C104.459 28.1192 105.128 27.0618 105.364 25.8813C105.474 25.1964 105.56 24.519 105.521 23.8264H100.148C100.101 24.2222 100.124 24.6027 100.124 24.9833C100.124 25.3105 100.093 25.6225 100.163 25.9346L102.041 25.927C102.159 25.9574 102.332 25.8813 102.355 26.0335C102.253 26.4749 102.057 26.962 101.664 27.2208C101.24 27.5633 100.666 27.6622 100.14 27.6774C99.5805 27.6899 99.0347 27.5092 98.6002 27.1675C98.1053 26.825 97.8067 26.3303 97.6025 25.7976C97.2694 24.8592 97.3058 23.8347 97.7046 22.9208C97.9246 22.4793 98.231 22.0227 98.663 21.7411C98.9675 21.5227 99.3209 21.3771 99.6945 21.3162C100.068 21.2553 100.451 21.2808 100.813 21.3906C101.174 21.5004 101.504 21.6914 101.775 21.9481C102.045 22.2047 102.25 22.5198 102.371 22.8675C102.764 22.7914 103.086 22.6163 103.447 22.4641C103.966 22.2434 104.492 22.0836 104.987 21.8172L104.555 21.1323C104.327 20.7517 103.974 20.4169 103.636 20.1124Z" fill="white"/>
<path d="M66.1318 19.3438C64.7414 19.3285 63.3587 19.3438 61.9682 19.3285V19.3438C61.764 19.3438 61.5597 19.359 61.3555 19.4046V29.1615C61.3598 29.2904 61.3809 29.4183 61.4183 29.542H66.0533C66.4854 29.5344 66.9174 29.5573 67.3417 29.5192V27.2893H64.1207C64.1207 26.6956 64.0815 26.0868 64.1443 25.4932C64.3168 25.5313 64.4939 25.5467 64.6707 25.5388C65.5112 25.5312 66.344 25.5464 67.1845 25.5312C67.1845 24.8006 67.2002 24.0776 67.1845 23.3546C67.0903 23.2632 66.9803 23.2937 66.8703 23.2785C65.9433 23.2785 65.032 23.3013 64.1207 23.2785L64.1129 21.6346C64.4664 21.5889 64.8199 21.5889 65.1813 21.5889L67.3495 21.5813C67.3417 20.8431 67.3338 20.1048 67.3495 19.359C66.941 19.3438 66.5404 19.3742 66.1318 19.3438Z" fill="white"/>
<path d="M83.0534 19.3362C82.8177 19.3362 82.5349 19.3057 82.315 19.3818H82.3071C82.2914 20.1124 82.315 20.8431 82.3071 21.5661C83.0534 21.6117 83.8233 21.528 84.5696 21.6193C84.5539 24.245 84.5696 26.8631 84.5539 29.4811C84.6796 29.504 84.8131 29.5344 84.9545 29.5344C85.7165 29.5344 86.4943 29.5192 87.2563 29.5344C87.3349 29.1996 87.2956 28.8647 87.2956 28.5222V21.5965C88.0576 21.5661 88.8196 21.6041 89.5738 21.5813V19.3742C89.1024 19.3666 88.6311 19.3285 88.1597 19.3362H83.0534Z" fill="white"/>
<path d="M93.266 19.3742C92.9518 19.3362 92.6376 19.3285 92.3233 19.3362V19.3285C91.7106 19.3362 91.1292 19.2905 90.5322 19.3742V29.3061C90.5401 29.3974 90.5165 29.5344 90.65 29.5344C91.5142 29.5496 92.3783 29.5268 93.2425 29.5496C93.3053 29.23 93.2818 28.9103 93.2818 28.5983V20.6224C93.2818 20.2114 93.2975 19.7928 93.266 19.3742Z" fill="white"/>
<path d="M111.877 19.3362H108.082C107.65 19.3362 107.218 19.3133 106.802 19.3666V29.4888C107.179 29.5573 107.548 29.5344 107.933 29.5344H112.387C112.529 29.5344 112.646 29.4964 112.78 29.4735L112.772 27.2817L110.565 27.2741C110.203 27.2664 109.858 27.3121 109.496 27.236C109.512 26.6804 109.512 26.1172 109.496 25.5693C109.858 25.5008 110.195 25.5312 110.565 25.5236H112.584V23.2937C111.555 23.2556 110.533 23.2937 109.504 23.2785C109.504 22.7305 109.512 22.1749 109.496 21.627C109.96 21.5509 110.392 21.5889 110.855 21.5813C111.5 21.5813 112.136 21.5965 112.78 21.5737V19.3818C112.482 19.359 112.183 19.3362 111.877 19.3362Z" fill="white"/>
<path fill-rule="evenodd" clip-rule="evenodd" d="M57.9303 26.0868L57.4197 25.4779V25.3333C58.0403 25.2344 58.5981 24.9148 58.9909 24.4201C59.3915 23.8949 59.6429 23.2556 59.6193 22.5935C59.6605 22.2084 59.6228 21.8192 59.5082 21.4482C59.3936 21.0773 59.2044 20.732 58.9516 20.4321C58.3833 19.8552 57.6246 19.4891 56.8069 19.397C55.9118 19.3248 55.0251 19.3297 54.1314 19.3346C53.8015 19.3364 53.4707 19.3382 53.1382 19.3362C53.0073 19.3362 52.8764 19.3345 52.7454 19.3328C52.4836 19.3294 52.2217 19.326 51.9598 19.3362C51.8518 19.5089 51.8775 19.75 51.9015 19.9754C51.9125 20.0777 51.923 20.1767 51.9206 20.2647V28.3091C51.9166 28.4116 51.9095 28.5127 51.9026 28.613C51.882 28.9074 51.862 29.1955 51.9206 29.4964C52.2173 29.533 52.5104 29.5301 52.8074 29.5271C52.9428 29.5258 53.079 29.5244 53.2168 29.5268H54.3795C54.5052 29.5268 54.6308 29.5268 54.6151 29.367C54.63 28.783 54.629 28.1973 54.6281 27.6114C54.627 26.9605 54.6259 26.3095 54.6466 25.6606C54.8242 25.8379 54.9538 26.0437 55.0861 26.2537C55.1469 26.3502 55.2082 26.4476 55.275 26.5434C55.5926 27.0068 55.8996 27.4805 56.2069 27.9547C56.5456 28.4774 56.8847 29.0008 57.239 29.5116C57.4208 29.5329 57.6064 29.5281 57.7904 29.5233C57.8689 29.5212 57.9471 29.5192 58.0246 29.5192H60.1457C60.3028 29.5192 60.4442 29.4964 60.6013 29.4659C60.2929 29.0755 59.9836 28.6877 59.675 28.3008C59.0873 27.564 58.5021 26.8303 57.9303 26.0868ZM56.1706 23.6971C56.4298 23.5525 56.6812 23.3317 56.7362 23.0273C56.8383 22.5935 56.8069 22.0532 56.4141 21.7563C55.9964 21.4074 55.3342 21.3848 54.7789 21.3659C54.7286 21.3642 54.6792 21.3625 54.6309 21.3606V23.8949C54.6975 23.8949 54.7635 23.8955 54.829 23.8961C55.2964 23.9001 55.7365 23.904 56.1706 23.6971Z" fill="white"/>
<path fill-rule="evenodd" clip-rule="evenodd" d="M77.9314 22.6772C77.7743 22.3119 77.6093 21.939 77.3736 21.6117C76.9136 20.944 76.2959 20.3921 75.5719 20.0017C74.8478 19.6112 74.0382 19.3935 73.21 19.3666C72.6278 19.327 72.0423 19.3292 71.4578 19.3315C71.1432 19.3327 70.8288 19.3339 70.5154 19.3285C70.35 19.3335 70.188 19.3304 70.0276 19.3274C69.6927 19.3211 69.3653 19.3149 69.0307 19.3818C69.0396 21.1345 69.0384 22.8896 69.0371 24.6443C69.0361 25.9604 69.0352 27.2762 69.0385 28.5907C69.0407 28.678 69.0393 28.7647 69.0379 28.8511C69.0343 29.0813 69.0307 29.3097 69.0935 29.542C69.686 29.5246 70.276 29.5271 70.8663 29.5296C71.3091 29.5315 71.7521 29.5333 72.1966 29.5268C73.0293 29.5344 73.8463 29.5344 74.6319 29.2528C75.3026 29.0427 75.9225 28.7035 76.4545 28.2556C76.9864 27.8076 77.4195 27.2601 77.7276 26.646C78.0358 26.0319 78.2127 25.3638 78.2477 24.6818C78.2827 23.9998 78.1751 23.3179 77.9314 22.6772ZM74.1134 26.8631C74.7419 26.513 75.1818 25.8889 75.3232 25.204C75.3312 25.1447 75.3396 25.0859 75.3479 25.0275C75.3976 24.6807 75.4454 24.3467 75.3782 24.0015C75.3075 23.4992 75.174 23.0349 74.844 22.6316C74.5927 22.3289 74.2778 22.0814 73.9203 21.9055C73.5627 21.7297 73.1706 21.6296 72.7701 21.6117C72.4401 21.5737 72.1337 21.5737 71.8116 21.5965L71.7802 21.6422V27.2741C72.5972 27.2817 73.3907 27.2817 74.1134 26.8631Z" fill="white"/>
<path fill-rule="evenodd" clip-rule="evenodd" d="M120.975 26.7235C120.804 26.5095 120.633 26.2953 120.463 26.0792C120.41 26.0089 120.352 25.9434 120.295 25.8789C120.147 25.7127 120.004 25.5526 119.976 25.3333C120.651 25.2118 121.25 24.8371 121.641 24.2907C122.286 23.347 122.348 22.0532 121.885 21.0181C121.698 20.6534 121.43 20.3336 121.099 20.082C120.54 19.6749 119.872 19.4319 119.175 19.3818C118.511 19.3175 117.84 19.3249 117.171 19.3322C116.89 19.3353 116.61 19.3384 116.331 19.3362C116.229 19.3362 116.127 19.3357 116.024 19.3353C115.505 19.3332 114.972 19.331 114.461 19.3818C114.444 19.5614 114.448 19.7371 114.451 19.9117C114.452 19.9812 114.453 20.0506 114.453 20.12V29.2224C114.453 29.3289 114.453 29.4203 114.493 29.5268C114.941 29.5382 115.387 29.5344 115.832 29.5306C116.276 29.5268 116.72 29.523 117.164 29.5344C117.184 28.9482 117.181 28.3559 117.179 27.7652C117.178 27.4279 117.176 27.0912 117.179 26.7565C117.182 26.6506 117.179 26.5477 117.176 26.4464C117.169 26.1836 117.163 25.9319 117.242 25.6682C117.579 26.1719 117.909 26.6769 118.238 27.1811C118.7 27.8881 119.161 28.5934 119.638 29.2909C119.658 29.3148 119.676 29.34 119.693 29.3647C119.758 29.4582 119.819 29.5449 119.968 29.5268H123.173C122.918 29.1682 122.638 28.8219 122.356 28.4743C122.195 28.2759 122.034 28.0771 121.877 27.8753C121.585 27.4853 121.281 27.1047 120.975 26.7235ZM117.25 23.8949C117.729 23.9254 118.279 23.9025 118.719 23.6971V23.7047C119.387 23.3622 119.536 22.4413 119.104 21.8781C118.884 21.6193 118.57 21.5128 118.232 21.4367C117.902 21.3758 117.572 21.3606 117.242 21.3606C117.175 21.6228 117.18 21.8733 117.185 22.1345C117.187 22.2372 117.189 22.3415 117.187 22.4489L117.179 23.7275C117.177 23.7588 117.181 23.7904 117.194 23.8195C117.206 23.8486 117.225 23.8745 117.25 23.8949Z" fill="white"/>
</svg>
