<svg width="144" height="48" viewBox="0 0 144 48" fill="none" xmlns="http://www.w3.org/2000/svg">
<path d="M64.0415 35.7013C64.0415 27.7819 64.0415 19.9193 64.0415 12C67.5044 12 70.939 12 74.4019 12C74.4019 12.1135 74.4303 12.2838 74.4303 12.4258C74.4303 13.6463 74.3736 14.8669 74.4019 16.059C74.4303 19.7207 74.4871 23.3823 74.5155 27.0723C74.5439 29.854 74.5439 32.6357 74.5722 35.4458C74.5722 35.8148 74.4303 35.9 74.0897 35.9C72.1312 35.8432 70.1726 35.7864 68.2141 35.758C66.9084 35.7296 65.631 35.7864 64.3254 35.7864C64.2402 35.7864 64.1267 35.7296 64.0415 35.7013ZM65.6311 32.5506C67.9586 32.5506 70.3145 32.5506 72.7556 32.5506C72.7556 31.6139 72.7556 30.7339 72.7556 29.8824C72.7556 29.5418 72.5569 29.4282 72.3015 29.4282C71.2796 29.4282 70.2578 29.4282 69.2359 29.4282C69.1224 29.4282 68.9805 29.4282 68.8101 29.3998C68.8101 24.7164 68.8101 20.0897 68.8101 15.3778C67.7315 15.3778 66.7381 15.3778 65.6594 15.3778C65.631 21.0831 65.6311 26.8168 65.6311 32.5506Z" fill="white"/>
<path d="M62.6221 35.8147C61.9125 35.7863 61.288 35.7295 60.6352 35.7295C60.2094 35.7295 59.7836 35.8147 59.3295 35.843C58.6199 35.8714 57.8819 35.8714 57.1722 35.8714C56.86 35.8714 56.5478 35.7579 56.2355 35.7579C55.1002 35.7863 53.9932 35.8147 52.8578 35.8714C52.4888 35.8998 52.3184 35.6727 52.3184 35.3321C52.2617 33.9696 52.2333 32.6072 52.1765 31.2447C52.1481 30.7906 52.063 30.3364 52.063 29.8539C52.1198 28.5198 52.2617 27.1857 52.2901 25.8516C52.3185 24.1485 52.2901 22.4171 52.3184 20.6856C52.3468 18.5851 52.432 16.513 52.4604 14.4126C52.4604 13.93 52.3752 13.4475 52.3468 12.9365C52.2901 12.3689 52.3468 12.1134 53.0565 12.1418C55.1002 12.1702 57.1722 12.1702 59.2159 12.1702C60.3513 12.1702 61.4867 12.2553 62.6505 12.2837C62.6221 20.1179 62.6221 27.9237 62.6221 35.8147ZM61.1461 18.4432C61.1461 17.5633 61.1177 16.7401 61.1461 15.9169C61.1461 15.5196 61.061 15.3776 60.6352 15.406C59.0173 15.4344 57.3993 15.406 55.7814 15.406C55.3556 15.406 54.9298 15.406 54.4473 15.406C54.4473 21.1114 54.4473 26.8167 54.4473 32.4936C56.5762 32.4936 58.7334 32.4936 60.8906 32.4936C60.8906 31.4434 60.8906 30.4499 60.8906 29.3997C59.7836 29.3997 58.705 29.3997 57.6264 29.3997C57.6264 28.1224 57.6264 26.8735 57.6264 25.6529C57.6264 25.3691 57.7967 25.2839 58.0522 25.2839C58.8753 25.2839 59.6701 25.2839 60.4933 25.2839C60.6352 25.2839 60.7487 25.3407 60.9474 25.3975C60.9474 24.3472 60.9474 23.297 60.9474 22.2184C59.8688 22.2184 58.7902 22.2184 57.7399 22.2184C57.7399 20.941 57.7399 19.7205 57.7399 18.4432C58.9037 18.4432 59.9823 18.4432 61.1461 18.4432Z" fill="white"/>
<path d="M51.0128 35.8145C50.1897 35.8145 49.4233 35.8145 48.6285 35.8145C46.1874 35.8145 43.718 35.8429 41.2769 35.8429C40.8511 35.8429 40.6808 35.6726 40.6808 35.2469C40.6808 34.6508 40.7092 34.0831 40.6808 33.487C40.624 32.4651 40.5105 31.4717 40.4253 30.4498C40.3969 30.1944 40.4253 29.9389 40.4537 29.6834C40.6524 27.1004 40.7092 24.5458 40.6808 21.9628C40.6524 19.6352 40.7376 17.3077 40.7659 14.9801C40.7659 14.4124 40.7092 13.8448 40.7092 13.2771C40.7092 13.05 40.6808 12.8229 40.6808 12.5958C40.6808 12.2836 40.8227 12.1133 41.1633 12.1133C43.1503 12.1701 45.1372 12.2268 47.1241 12.2552C48.0892 12.2552 49.0543 12.2268 50.0194 12.2268C50.3316 12.2268 50.6438 12.2552 50.9845 12.2836C51.0128 20.1462 51.0128 27.9236 51.0128 35.8145ZM49.5084 15.4343C47.2944 15.4343 45.1088 15.4343 42.8664 15.4343C42.8664 21.1112 42.8664 26.7882 42.8664 32.4935C44.9953 32.4935 47.1241 32.4935 49.2814 32.4935C49.2814 31.4433 49.2814 30.4498 49.2814 29.3712C48.1744 29.3712 47.0957 29.3712 46.0171 29.3712C46.0171 28.1223 46.0171 26.9017 46.0171 25.6812C46.0171 25.369 46.1874 25.2554 46.4997 25.2554C47.3228 25.2838 48.146 25.2554 48.9691 25.2554C49.253 25.2554 49.3949 25.1703 49.3665 24.858C49.3381 24.3471 49.3381 23.8078 49.3381 23.2969C49.3381 22.9279 49.3381 22.5589 49.3381 22.1615C48.2311 22.1615 47.1809 22.1615 46.1307 22.1615C46.1307 20.8842 46.1307 19.6352 46.1307 18.3863C47.2661 18.3863 48.3731 18.3863 49.4801 18.3863C49.5084 17.4212 49.5084 16.4561 49.5084 15.4343Z" fill="white"/>
<path d="M39.3752 35.9C38.5521 35.9 37.7857 35.8716 37.0193 35.9C36.4232 35.9283 35.8271 35.8432 35.2594 35.7013C35.2311 35.7013 35.2027 35.7013 35.1743 35.7013C34.4647 36.1554 33.6699 35.9567 32.9319 35.9567C31.2288 36.0135 29.5541 35.9567 27.851 35.9283C27.4536 35.9283 27.2266 35.8148 27.2266 35.2471C27.2266 34.2253 27.2266 33.2318 27.2266 32.2099C27.2549 29.7121 27.3401 27.1858 27.3401 24.688C27.3685 20.6573 27.3401 16.6267 27.3401 12.5961C27.3401 12 27.3401 12 27.9078 12C29.3554 12 30.803 12.0284 32.2507 12.0568C33.3577 12.0568 34.4647 12.0284 35.5717 12.0568C36.1678 12.0568 36.7922 12.1419 37.3883 12.1703C37.7857 12.1703 38.1831 12.1703 38.5805 12.1419C39.1765 12.1135 39.4604 12.4258 39.432 13.0219C39.3752 14.1856 39.3468 15.3494 39.3185 16.5132C39.3185 16.7403 39.2901 16.9389 39.2901 17.1376C39.2333 17.6202 39.2901 18.0743 39.3752 18.5569C39.4888 19.2097 39.432 19.9193 39.432 20.5722C39.432 22.3037 39.4036 24.0635 39.3752 25.795C39.3468 26.9304 39.2901 28.0374 39.2617 29.1728C39.2617 29.4282 39.3185 29.6837 39.2901 29.9392C39.2617 30.2514 39.1765 30.592 39.1482 30.9042C39.0914 31.3868 38.9495 31.8693 39.3185 32.3235C39.3752 32.4086 39.432 32.5506 39.432 32.6641C39.432 33.4305 39.432 34.1969 39.432 34.9633C39.432 35.3039 39.4036 35.6161 39.3752 35.9ZM35.4298 25.1705C36.2245 24.7164 36.6219 24.0351 36.8774 23.2404C37.2748 22.0766 37.3883 20.9128 37.3315 19.6923C37.2748 18.3866 36.7355 17.3363 35.7136 16.5132C35.4298 16.2861 35.1175 16.059 34.7769 15.8887C34.4931 15.7468 34.266 15.5197 33.8402 15.6616C33.4144 15.7752 32.9035 15.5765 32.421 15.5481C31.4843 15.5197 30.5192 15.5481 29.5825 15.5481C29.4406 15.5481 29.2986 15.6049 29.1567 15.6049C29.0432 15.6332 28.9013 15.6332 28.7026 15.6332C28.6742 15.8036 28.6174 16.0022 28.6174 16.2293C28.6174 17.4499 28.6174 18.6704 28.6174 19.8626C28.6174 20.0613 28.731 20.26 28.731 20.4587C28.731 20.8277 28.6174 21.225 28.6174 21.594C28.6174 22.1617 28.731 22.7294 28.7593 23.2687C28.7593 23.7513 28.6174 24.2054 28.7877 24.688C28.7877 24.7164 28.7877 24.7731 28.7877 24.8015C28.7593 25.0002 28.731 25.2273 28.731 25.426C28.731 25.7382 28.8161 26.0505 28.8161 26.3911C28.8161 27.7535 28.8161 29.116 28.8161 30.4785C28.8161 31.0746 28.8161 31.6706 28.8161 32.2667C28.8161 32.4938 28.8161 32.7493 29.1283 32.7493C30.065 32.7776 30.9733 32.7493 31.9384 32.7493C31.9384 30.6204 31.9384 28.5483 31.9384 26.5046C32.3074 26.3911 32.4494 26.533 32.5345 26.8452C33.0171 28.5767 33.528 30.3365 34.0389 32.068C34.1241 32.3802 34.2944 32.5789 34.6066 32.5789C35.7136 32.5789 36.8206 32.5789 37.9844 32.5789C37.587 31.7558 37.6438 30.9326 37.8708 30.1095C37.9844 30.3649 38.0695 30.592 38.0979 30.8475C38.1831 31.2732 38.2115 31.7274 38.2966 32.1532C38.325 32.4086 38.4669 32.5506 38.7224 32.4938C38.6656 32.2951 38.6088 32.0964 38.5805 31.8977C38.4953 31.2449 38.4669 30.5636 38.3818 29.9108C38.2682 29.0025 38.2682 28.0942 38.4385 27.1858C38.4953 26.9304 38.3818 26.6465 38.325 26.3627C38.325 26.3343 38.1831 26.3059 38.0412 26.2775C38.3818 26.8736 38.2115 27.6116 37.7573 27.8671C37.7289 27.6684 37.7289 27.4981 37.6721 27.3278C37.6438 27.2426 37.5302 27.1858 37.4451 27.1858C37.3883 27.1858 37.2748 27.3278 37.2748 27.3562C37.6438 27.8387 37.1612 28.1509 37.0477 28.5199C37.0477 28.5483 37.0477 28.5767 37.0193 28.6051C36.9625 28.7754 36.9058 28.9741 36.8206 29.2295C36.3097 27.8103 35.8839 26.5046 35.4298 25.1705Z" fill="white"/>
<path d="M81.186 32.5792C79.9087 32.5792 78.6598 32.5792 77.3257 32.5792C77.3257 26.8171 77.3257 21.0834 77.3257 15.3213C78.603 15.2929 79.9087 15.2929 81.2144 15.2077C82.4349 15.151 83.5987 15.3213 84.7341 15.8038C86.125 16.3715 86.9197 17.4218 87.0617 18.9262C87.1752 19.948 87.3171 20.9699 87.2887 21.9917C87.232 23.269 86.8913 24.5179 85.983 25.5114C85.3018 26.3062 84.3935 26.7036 83.3716 26.8455C82.8039 26.9306 82.2079 26.959 81.6118 26.9874C81.2995 27.0158 81.1576 27.101 81.1576 27.47C81.186 29.0311 81.1576 30.5923 81.1576 32.1534C81.186 32.2954 81.186 32.4373 81.186 32.5792ZM80.9873 21.1118C80.9873 21.7079 80.9873 22.3039 80.9873 22.9C80.9873 23.2974 81.2144 23.4109 81.555 23.2122C82.4349 22.6162 83.3433 22.0485 84.2232 21.4524C84.5354 21.2537 84.5354 21.055 84.2232 20.8279C83.3433 20.2319 82.4633 19.6358 81.555 19.0681C81.4415 19.0113 81.2428 18.9545 81.1576 18.9829C81.0441 19.0681 80.9873 19.2384 80.9873 19.3803C80.9589 19.9764 80.9873 20.5441 80.9873 21.1118Z" fill="white"/>
<path d="M108.237 32.579C107.215 32.579 106.307 32.579 105.37 32.579C105.143 32.579 105.058 32.4654 105.001 32.2667C104.774 31.472 104.547 30.6488 104.32 29.854C104.263 29.6553 104.178 29.5418 103.951 29.5418C103.042 29.5702 102.106 29.5418 101.169 29.5418C101.055 30.4785 100.97 31.4436 100.857 32.4938C99.8065 32.4938 98.7847 32.4938 97.7061 32.4938C98.586 26.8169 99.4375 21.1399 100.317 15.4346C101.737 15.4346 103.156 15.4346 104.575 15.4346C105.796 21.1683 107.016 26.8452 108.237 32.579ZM102.503 20.998C102.446 20.998 102.39 20.998 102.361 20.998C102.106 22.8714 101.879 24.7164 101.623 26.6465C102.134 26.6465 102.56 26.6465 103.014 26.6465C103.468 26.6465 103.553 26.5614 103.468 26.0789C103.326 25.1705 103.184 24.2622 103.014 23.3539C102.844 22.6159 102.673 21.8211 102.503 20.998Z" fill="white"/>
<path d="M113.488 32.6075C112.409 32.6075 111.302 32.6075 110.167 32.6075C110.139 31.6708 110.082 30.7057 110.053 29.7406C110.025 29.0026 109.968 28.2646 109.94 27.4982C109.94 27.4131 109.912 27.2995 109.94 27.2144C110.195 26.817 109.997 26.6183 109.656 26.448C109.77 26.4196 109.912 26.4196 109.997 26.3912C109.968 23.8082 108.805 21.5658 108.095 19.2099C107.868 18.5002 107.612 17.7906 107.357 17.1094C107.272 16.8823 107.158 16.6552 107.045 16.4282C106.846 16.0592 106.818 15.7185 106.931 15.2928C107.925 15.2928 108.946 15.2928 109.94 15.2928C110.053 15.2928 110.195 15.3779 110.224 15.4915C110.82 17.0526 111.416 18.6422 111.984 20.1466C112.381 18.6138 112.835 16.9675 113.261 15.3212C113.885 15.3212 114.51 15.3212 115.106 15.3212C115.39 15.3212 115.674 15.2076 115.958 15.236C116.156 15.236 116.327 15.4063 116.525 15.4631C116.752 15.5482 116.837 15.6902 116.724 15.9172C116.582 16.2011 116.44 16.4849 116.355 16.7688C116.128 17.3649 115.929 17.9326 115.73 18.5286C115.163 20.1466 114.595 21.7361 114.056 23.354C113.857 23.8933 113.63 24.4327 113.573 25.0004C113.488 25.7384 113.545 26.5047 113.516 27.2711C113.488 29.0026 113.488 30.7625 113.488 32.6075Z" fill="white"/>
<path d="M96.088 32.5508C93.6469 32.5508 91.291 32.5508 88.9351 32.5508C88.9351 26.8171 88.9351 21.055 88.9351 15.3213C90.0137 15.3213 91.0639 15.3213 92.1425 15.3213C92.1425 20.0615 92.1425 24.7166 92.1425 29.4001C93.2779 29.4001 94.3849 29.4001 95.4636 29.4001C96.0312 29.4001 96.1164 29.4569 96.088 30.053C96.0596 30.8761 96.088 31.6993 96.088 32.5508Z" fill="white"/>
<path d="M31.995 19.1528C32.1937 19.2664 32.2788 19.2948 32.364 19.3515C33.102 19.8341 33.84 20.3166 34.5496 20.7991C34.9186 21.0546 34.9186 21.2249 34.5496 21.4804C33.8116 21.9629 33.102 22.4455 32.364 22.928C32.2505 23.0132 32.0518 23.0699 31.9666 23.0415C31.8531 22.9564 31.7963 22.7861 31.7963 22.6442C31.7963 21.6223 31.7679 20.6288 31.7963 19.607C31.7963 19.4651 31.9098 19.3231 31.995 19.1528Z" fill="white"/>
<path d="M37.2464 28.8604C37.2464 29.3997 37.2464 29.8822 37.2464 30.3931C36.9058 29.8254 36.849 29.428 37.2464 28.8604Z" fill="white"/>
</svg>
