<svg width="144" height="48" viewBox="0 0 144 48" fill="none" xmlns="http://www.w3.org/2000/svg">
<path d="M52.5024 19.6708L51.6942 21.2817C51.6942 21.2817 50.8228 20.6698 49.9186 20.6698C49.2404 20.6698 48.877 20.9809 48.877 21.4643C48.877 21.9581 49.7061 22.3126 50.7058 22.7424C51.6835 23.1608 52.7578 23.9982 52.7578 25.1587C52.7578 27.2742 51.163 28.0128 49.4512 28.0128C47.3986 28.0128 46.1548 26.8426 46.1548 26.8426L47.1545 25.1456C47.1545 25.1456 48.3238 26.1445 49.302 26.1445C49.7383 26.1445 50.5674 26.1011 50.5674 25.2746C50.5674 24.6301 49.6315 24.3402 48.5894 23.8139C47.5365 23.2876 46.92 22.4604 46.92 21.5368C46.92 19.8815 48.3656 18.8306 49.7801 18.8306C50.7491 18.8375 51.6951 19.1294 52.5024 19.6708Z" fill="white"/>
<path d="M59.1146 26.0825H62.1341V27.852H57.1157V18.9917H59.1146V26.0825Z" fill="white"/>
<path d="M69.7241 18.8335C72.1587 18.8335 74.1367 20.8314 74.1367 23.4195C74.1367 26.0076 72.244 28.0158 69.7241 28.0158C67.1296 28.0158 65.3008 26.0076 65.3008 23.4195C65.3008 20.8314 67.3104 18.8335 69.7241 18.8335ZM69.7241 26.0613C71.3189 26.0613 71.9784 24.7404 71.9784 23.4195C71.9784 22.0986 71.2765 20.7777 69.7241 20.7777C68.1824 20.7777 67.4596 22.0986 67.4596 23.4195C67.4596 24.7404 68.0869 26.0613 69.7241 26.0613Z" fill="white"/>
<path d="M76.2808 18.9917H82.4475V20.7641H80.3633V27.8543H78.3644V20.7664H76.2808V18.9917Z" fill="white"/>
<path d="M93.4305 22.6027H93.3774L91.5803 27.8006H90.3895L88.5924 22.6027H88.5393L88.125 27.8543H86.1284L86.9128 18.9917H89.0389L90.9846 24.104L92.9309 18.9917H95.0576L95.8448 27.852H93.8453L93.4305 22.6027Z" fill="white"/>
<path d="M102.498 27.8543H100.497V18.9917H102.495L102.498 27.8543Z" fill="white"/>
<path d="M108.994 26.0825H112.014V27.852H106.996V18.9917H108.994V26.0825Z" fill="white"/>
<path d="M116.932 26.0825H119.952V27.852H114.934V18.9917H116.932V26.0825Z" fill="white"/>
<path d="M40.9859 23.3097C40.9781 22.9404 40.8658 22.4103 40.7878 22.096C40.7385 21.9012 40.8448 21.9878 40.9571 22.3177C40.8484 21.8157 40.6755 21.2779 40.6376 21.2779C40.5998 21.2779 40.6202 21.3556 40.613 21.3879C40.5842 21.318 40.544 21.1488 40.4965 21.0293C40.4365 20.8835 40.3764 20.7987 40.4185 20.9307C40.5007 21.1697 40.8184 22.4438 40.8526 22.6691C40.8184 22.5496 40.78 22.4097 40.7535 22.3147C40.4515 21.2523 40.0284 20.2278 39.4925 19.2611C39.5321 19.2951 39.5525 19.3101 39.5759 19.3328C39.5813 19.2778 39.5855 19.2342 39.5927 19.1643C39.6996 19.3178 39.7927 19.4487 39.884 19.5826C39.696 19.0812 39.3609 18.6587 39.0847 18.2231C39.0733 18.2422 39.0643 18.2571 39.0487 18.2828C38.7328 17.84 38.3064 17.4743 38.1335 16.9574C38.1257 16.9801 38.1203 16.9932 38.1143 17.0106C38.0915 16.7548 37.757 16.9042 37.7912 16.6413C37.9852 16.7417 38.3088 17.0046 38.4644 17.1468C38.6199 17.289 38.6872 17.289 38.7424 17.2944C38.7977 17.2998 38.6872 17.2114 38.7196 17.1827C38.7616 17.1468 39.176 17.6942 39.3874 17.9308C38.8031 16.6317 37.2471 16.1584 36.153 15.3272C33.2838 13.4747 29.4273 12.9966 26.3544 14.7708C26.2175 14.8503 26.0308 14.9674 25.9509 15.0206C25.871 15.0738 26.0458 15.0164 26.0536 15.0242C25.9701 15.084 25.8956 15.1324 25.8062 15.1945C25.7167 15.2567 25.907 15.2118 25.8662 15.2423C25.8254 15.2728 25.6512 15.507 25.8794 15.3576C26.1076 15.2083 26.3664 15.0373 26.504 15.0373C26.6415 15.0373 25.9575 15.4198 25.7065 15.5829C25.3125 15.8387 24.9624 16.0658 24.7378 16.223C24.5499 16.3556 24.3553 16.4895 24.3139 16.462C24.2394 16.407 24.5042 16.1913 24.5361 16.1417C24.5877 16.064 24.2508 16.2803 24.3289 16.1984C24.5764 15.9549 24.837 15.7249 25.1096 15.5094C25.2999 15.3654 25.4176 15.2806 25.414 15.2196C25.4104 15.1587 25.2183 15.2579 25.0129 15.3696C23.5212 16.1805 23.0054 17.9004 22.3322 19.3244L22.5184 19.3107C22.3586 19.6501 22.155 19.9507 22.1244 20.3182C22.2007 20.2632 22.2445 20.1873 22.334 20.1592C22.37 20.2788 22.3016 20.3881 22.2739 20.5017C22.283 20.5017 22.2908 20.5076 22.2986 20.5094C22.3442 20.3899 22.3898 20.2668 22.4337 20.1509C22.4715 20.1545 22.5021 20.1562 22.54 20.1604C22.4145 21.067 22.3172 21.9663 22.0704 22.8543L22.0818 22.843C21.8686 23.4961 22.1478 24.1421 22.0644 24.8371H22.0397C21.9797 24.4959 21.8596 24.163 21.9329 23.8051C21.9214 23.82 21.91 23.835 21.8818 23.8696C21.8722 23.7728 21.8608 23.682 21.8512 23.5947C21.844 23.5284 21.7563 23.5284 21.7617 23.587C21.7941 23.9509 21.7089 24.3089 21.8218 24.6776C21.8368 24.6268 21.85 24.5736 21.8578 24.5491C21.9737 25.0965 22.2685 26.4124 22.1887 26.2456C22.1088 26.0789 22.0614 25.8441 21.9965 25.6433C22.0782 26.3574 22.3352 27.0315 22.597 27.696C22.576 27.696 22.5172 27.6488 22.4715 27.5424C22.4445 27.4778 22.376 27.4826 22.3874 27.5197C22.4565 27.693 22.5353 27.8624 22.6234 28.027C22.5874 27.9135 22.5478 27.7772 22.5592 27.7581C22.7207 27.9475 22.8937 28.3204 23.0024 28.5194C23.1111 28.7184 23.4948 29.3979 23.2426 29.0423C22.9904 28.6868 22.4451 27.9667 22.1845 27.3553C22.1064 27.1761 22.0608 26.9066 22.0229 26.9042C21.9851 26.9018 21.9923 26.986 21.9869 27.0159C21.9623 26.9818 21.9581 26.8157 21.9268 26.8271C21.874 26.8456 22.0794 27.5782 22.0187 27.4778C21.9581 27.3774 21.847 26.9197 21.8224 26.7835C21.8434 27.0769 21.9292 27.344 21.9214 27.4157C21.674 27.0255 21.7863 26.6054 21.7863 26.3968C21.7892 26.516 21.8123 26.6338 21.8548 26.7452C21.8242 26.5181 21.8698 26.2779 21.8608 26.2074C21.8518 26.1369 21.7539 26.1942 21.7599 26.2779C21.7407 26.2343 21.7347 26.1584 21.7101 26.1644C21.6854 26.1703 21.6872 26.2492 21.6836 26.2988C21.6704 26.2797 21.6686 26.2456 21.653 26.257C21.6374 26.2683 21.6476 26.4673 21.6002 26.4363C21.5731 26.4207 21.6002 26.257 21.6002 26.1088C21.6002 25.9743 21.5828 25.8584 21.5563 25.8697C21.4993 25.8889 21.5467 25.957 21.5293 26.165C21.5143 26.3544 21.3492 26.0801 21.3642 26.205C21.3696 26.2504 21.3203 26.398 21.3582 26.5701C21.396 26.7422 21.3504 27.0022 21.3942 26.955C21.438 26.9078 21.4212 26.8791 21.4542 26.8546C21.4633 26.8677 21.4578 26.9072 21.4825 26.894C21.5071 26.8809 21.5017 26.8259 21.5149 26.7787C22.2439 31.0478 26.2343 33.0079 30.0506 34.172L29.9785 34.2043C34.6187 35.0941 39.3814 31.3956 40.6388 27.1456C40.6713 27.0338 40.7475 26.6006 40.7986 26.2881C40.6292 26.8486 40.5115 26.8331 40.5151 26.7936C40.5608 26.4189 40.6124 26.1632 40.7073 25.9887C40.9793 25.565 40.8118 24.4834 40.7283 24.429C40.6635 24.3871 40.6388 24.4816 40.6334 24.4816C40.6406 24.3967 40.6635 24.1146 40.5992 24.2509C40.5494 24.3513 40.7193 26.8426 39.8684 27.9087C39.8342 27.2346 40.1993 26.5892 40.3974 25.9367L40.3818 25.9313C40.3308 26.0126 40.2809 26.0962 40.2263 26.1871C40.2203 26.1602 40.2149 26.1416 40.2107 26.1243C40.1422 26.1644 40.1506 26.2779 40.0431 26.2833C40.0684 26.1452 40.093 26.0144 40.1158 25.8841C39.5681 26.8773 39.3778 28.1358 38.6379 29.0525C38.51 29.2096 38.7388 28.6658 38.8715 28.3007C38.9916 27.9786 38.9688 27.8346 38.746 28.238C38.4854 28.7113 38.002 29.2909 37.605 29.6584C36.1974 30.957 34.5646 32.1235 32.5553 32.1934V32.2065H32.7355C31.3087 32.3715 29.6512 32.2424 28.3271 31.6328C28.3291 31.6283 28.3315 31.6239 28.3343 31.6197C28.5211 31.686 28.9168 31.894 28.9018 31.796C28.8958 31.7542 28.3956 31.6006 27.8701 31.3568C27.1531 31.0215 26.346 30.5709 26.2932 30.5273C26.1995 30.4514 26.3881 30.6468 26.3803 30.6522C25.3666 29.9554 24.6646 28.8344 24.1259 27.6984C24.0443 27.528 23.9073 27.4031 23.8257 27.2119C23.7686 27.0757 23.7398 26.8217 23.7554 26.799C23.8203 26.6932 23.6623 26.5868 23.6737 26.7578C23.7171 26.9969 23.7773 27.2328 23.8539 27.4635C23.8839 27.549 23.783 27.3751 23.7452 27.2723C23.4906 26.5928 23.4678 26.4715 23.4125 26.2277C23.4125 26.9185 23.9296 28.0127 24.01 28.2039C23.8995 28.1286 23.7398 27.9105 23.6653 27.6888C23.7398 27.9505 23.8179 28.1669 23.8119 28.2535C23.4353 27.5848 23.1363 26.1422 23.045 26.1422C22.9537 26.1422 23.045 26.3711 23.0546 26.4793C22.836 26.1518 22.6943 25.1138 22.7766 24.8491C22.8366 23.6635 23.0222 22.4504 23.4407 21.3329C23.4399 21.3306 23.4399 21.328 23.4407 21.3257C23.4407 21.318 23.4467 21.3102 23.4485 21.303C23.8089 20.354 24.3313 19.4756 25.0849 18.7483C25.0789 18.7448 25.0735 18.7394 25.0675 18.7352C24.9348 18.8547 24.8033 18.9683 24.67 19.0836C24.8303 18.5709 25.3876 18.3055 25.593 17.8538L25.5666 17.8364C25.6771 17.7342 25.7869 17.635 25.9167 17.5179C25.6921 17.6201 25.5816 17.855 25.3288 17.8699C25.9755 17.1408 26.9279 16.5182 27.6443 16.0957C27.5777 16.1357 27.5843 16.2642 27.7146 16.3096C27.8347 16.3514 27.9278 16.1303 28.0857 16.0706C29.0676 15.6803 30.1275 15.7282 31.0973 15.9134C30.0548 15.5423 28.7193 15.6558 28.4298 15.724C28.7439 15.5686 29.2045 15.5877 29.3816 15.5782C32.3968 15.4234 35.2624 17.3882 37.0111 19.7738C37.1078 19.9065 37.3114 20.2226 37.3877 20.4556C37.4201 20.5542 37.6008 20.8704 37.6639 20.8249C37.727 20.7795 37.6255 20.5262 37.4982 20.3762C37.3228 20.17 37.2183 19.9178 37.0015 19.53C37.2033 19.769 37.3618 19.9537 37.5324 20.1586C37.1366 19.4732 36.1434 18.4806 36.0389 18.1986C36.6094 18.6133 37.0454 19.1511 37.4087 19.7361C37.7342 20.2626 38.0632 20.9576 38.2632 21.3777C38.2764 21.4099 38.2923 21.4408 38.3107 21.4703C38.2932 21.4106 38.014 20.7604 38.0104 20.7604C37.8411 20.2268 37.5444 19.7212 37.2952 19.2025C37.4567 19.3405 37.4357 19.3423 37.4837 19.2987C37.5318 19.2551 37.2153 18.8673 37.1565 18.6151C37.3618 18.9336 37.5672 19.2533 37.784 19.5921C37.7348 19.4726 37.6945 19.3686 37.6531 19.2664L37.6699 19.2593C37.9269 19.5754 38.1815 19.8915 38.4368 20.2076C38.2008 19.7194 37.8086 19.3196 37.575 18.8463C37.59 18.8386 37.6032 18.8332 37.6165 18.8254C37.8356 19.184 38.3167 19.6358 38.4235 19.7738C38.5304 19.9118 38.1972 19.3328 38.3359 19.4917C38.4746 19.6507 38.6878 19.9537 38.7334 20.02C38.7791 20.0863 38.8151 20.0881 38.7562 20.0033C38.6974 19.9184 38.307 19.3615 38.0831 19.0394L38.1059 19.0226C38.68 19.7666 39.2264 20.5483 39.5471 21.4345C39.2084 20.0959 38.226 19.0358 37.4315 17.9338C37.835 18.2517 38.1125 18.6778 38.4524 19.0489C38.459 19.0435 38.466 19.0385 38.4734 19.034C38.426 18.9467 38.3785 18.8547 38.3311 18.7705C39.0859 19.4236 39.5982 21.251 39.6474 21.3699C39.6966 21.4889 39.6132 21.1219 39.5561 20.8722C39.4991 20.6224 39.5964 20.6929 39.594 20.8644C39.5915 21.0359 39.857 21.5408 39.7008 21.8074C39.6876 21.7865 39.6762 21.7661 39.6534 21.7261C39.7807 22.1103 39.7333 22.5083 39.8834 22.8615C39.9555 23.4543 39.9158 24.0465 39.8834 24.6357H39.9026C39.9254 24.4565 39.9501 24.2718 39.9729 24.0919H39.9975V24.3023C40.0317 23.9784 39.9747 23.6246 40.0924 23.327C40.1134 23.4997 40.1344 23.6718 40.1572 23.8421C40.1707 23.8418 40.1841 23.8406 40.1975 23.8386C40.2677 23.1149 40.1897 22.3954 40.1152 21.6759C40.1266 21.6759 40.1362 21.6759 40.1458 21.6723C40.1608 21.7709 40.1764 21.8671 40.1933 21.9866C40.2125 21.9412 40.2221 21.9167 40.2353 21.8863C40.323 22.1175 40.3554 22.3643 40.5073 22.5603C40.4617 22.295 40.5247 22.0416 40.5265 21.7763C40.6466 22.0811 40.7031 22.6643 40.7283 22.7175C40.7535 22.7707 40.7547 22.6757 40.7469 22.6577C40.831 22.9033 40.8917 23.6366 40.8953 23.523C40.9028 23.2847 40.8946 23.0462 40.8706 22.8089C40.9224 22.9725 40.961 23.14 40.9859 23.3097ZM38.3923 30.1467C38.238 30.2602 38.2212 30.262 38.4115 30.0271C38.6019 29.7923 39.0181 29.1308 39.176 28.8475C39.3339 28.5643 39.1478 29.1959 39.2925 28.9365C39.4372 28.6772 39.5357 28.5559 39.7032 27.9332C39.7183 28.1304 39.5129 28.927 39.2505 29.3758C38.988 29.8246 38.4818 30.3546 38.2896 30.5745C38.0975 30.7944 38.6397 30.0785 38.8379 29.8341C38.9805 29.6636 39.1001 29.4751 39.1934 29.2736C38.9934 29.5521 38.5443 30.0331 38.3923 30.1467ZM24.2364 28.6981C24.4766 29.3555 25.4831 30.3588 25.9677 30.6146C25.1708 30.2733 24.5061 29.8054 24.395 29.5873C24.3235 29.4475 24.4394 29.4744 24.5427 29.5957C24.6326 29.7127 24.7454 29.8105 24.8742 29.8831C24.4712 29.3662 24.2917 29.0286 24.2364 28.6981ZM27.3837 14.8198C27.1435 14.8939 26.9309 14.9597 27.2084 14.8103C27.4576 14.6776 28.0094 14.4828 28.1091 14.5868C28.2088 14.6907 27.6215 14.7463 27.3837 14.8198ZM35.6011 17.3661C36.0882 17.4534 36.1662 18.0061 36.3302 18.1597C36.0257 17.8795 35.7188 17.5687 35.6011 17.3661ZM37.0892 18.0928C37.023 18.0314 36.9743 17.9537 36.9481 17.8675C37.0493 17.9636 37.1435 18.0668 37.2297 18.1765C37.2604 18.2123 37.1877 18.177 37.0892 18.0928Z" fill="#BE1622"/>
</svg>
