<svg width="144" height="48" viewBox="0 0 144 48" fill="none" xmlns="http://www.w3.org/2000/svg">
<path fill-rule="evenodd" clip-rule="evenodd" d="M44.1592 28.7483V27.6305H46.8587V28.9314C46.8587 30.1221 47.2797 30.7178 48.1211 30.7178H48.1317C48.9654 30.7178 49.3828 30.124 49.3828 28.9372C49.3828 28.259 49.2031 27.6234 48.8426 27.0296C48.4827 26.4359 48.0523 25.8931 47.5513 25.4012L46.1982 23.8753C45.6391 23.3415 45.1713 22.6801 44.7948 21.8917C44.4177 21.1026 44.2291 20.2291 44.2291 19.2711C44.2291 17.7968 44.5849 16.666 45.2964 15.8776C46.0073 15.0892 46.9738 14.6953 48.1946 14.6953C49.4154 14.6953 50.3528 15.0892 51.0074 15.877C51.662 16.6648 51.9893 17.7955 51.9893 19.2692V19.8539H49.4996V19.0919C49.4996 17.8974 49.0597 17.2997 48.1792 17.2997C47.2987 17.2997 46.8587 17.898 46.8587 19.0932C46.8587 19.5935 46.9548 20.0705 47.1463 20.5244C47.3378 20.9782 47.5862 21.3869 47.8916 21.7518C48.197 22.116 48.5337 22.4764 48.9013 22.8322C49.269 23.1887 49.6324 23.562 49.9905 23.952C50.3487 24.342 50.6801 24.7591 50.9843 25.2046C51.2878 25.6494 51.5351 26.1755 51.726 26.7814C51.9169 27.3881 52.0124 28.0469 52.0124 28.7593C52.0124 30.2297 51.6774 31.3579 51.0074 32.1438C50.3374 32.9296 49.3917 33.3228 48.1703 33.3228C46.9489 33.3228 45.9747 32.929 45.2484 32.1412C44.522 31.3534 44.1592 30.222 44.1592 28.7483Z" fill="white"/>
<path fill-rule="evenodd" clip-rule="evenodd" d="M56.1364 23.6791H57.3869C57.815 23.6791 58.1363 23.5476 58.351 23.2852C58.565 23.0228 58.6723 22.578 58.6723 21.9507V19.2193C58.6723 18.592 58.565 18.1498 58.351 17.8913C58.1363 17.6328 57.815 17.5039 57.3869 17.5039H56.1364V23.6791ZM53.5068 33.1195V14.8994H57.381C59.9946 14.8994 61.3019 16.4047 61.3019 19.4146V21.7812C61.3019 24.7827 59.9957 26.2842 57.3839 26.2842H56.1364V33.1195H53.5068Z" fill="white"/>
<path fill-rule="evenodd" clip-rule="evenodd" d="M65.1589 23.1079H66.187C66.7171 23.1079 67.1126 22.9596 67.3734 22.6631C67.6343 22.3665 67.7648 21.8714 67.7648 21.1765V19.385C67.7725 18.1318 67.3284 17.5045 66.4325 17.5045H65.1589V23.1079ZM62.5293 33.1202V14.8994H66.4971C67.8501 14.8994 68.8385 15.243 69.4605 15.9296C70.0831 16.6162 70.3944 17.6715 70.3944 19.0955V20.5318C70.3944 22.4052 69.8204 23.6385 68.6725 24.2316C69.8358 24.766 70.4175 26.0585 70.4175 28.1098V30.9135V31.0276C70.4175 31.9578 70.5112 32.6554 70.6979 33.1202H68.0322C67.8774 32.6044 67.7962 31.8605 67.7885 30.8877V28.0338C67.7885 27.2054 67.6539 26.611 67.3853 26.2519C67.1161 25.8922 66.6779 25.713 66.0702 25.713H65.1589V33.1202H62.5293Z" fill="white"/>
<path fill-rule="evenodd" clip-rule="evenodd" d="M72.1475 33.1202H74.7771V14.8994H72.1475V33.1202Z" fill="white"/>
<path fill-rule="evenodd" clip-rule="evenodd" d="M79.3225 30.5151H80.8303C81.2898 30.5151 81.6325 30.3816 81.8584 30.1147C82.0843 29.8479 82.1975 29.3843 82.1975 28.7236V27.1351C82.1975 26.3048 82.0671 25.7291 81.8056 25.4074C81.5447 25.0851 81.1107 24.9246 80.503 24.9246H79.3225V30.5151ZM79.3225 22.3195H80.3553C80.8872 22.3195 81.2844 22.1712 81.5465 21.8747C81.8092 21.5781 81.9402 21.0869 81.9402 20.401V19.3843C81.9479 18.1311 81.502 17.5039 80.602 17.5039H79.3225V22.3195ZM76.6929 33.1202V14.8994H80.6666C82.022 14.8994 83.0116 15.2424 83.6348 15.9283C84.2579 16.6142 84.5698 17.6689 84.5698 19.0923V19.7402C84.5698 21.6123 84.0012 22.8365 82.8634 23.4122C84.1725 23.9711 84.8265 25.272 84.8265 27.313V28.7996C84.8265 30.2056 84.488 31.2777 83.8103 32.0146C83.132 32.7514 82.1388 33.1202 80.8303 33.1202H76.6929Z" fill="white"/>
<path fill-rule="evenodd" clip-rule="evenodd" d="M86.4048 33.1202V14.8994H93.5803V17.5045H89.0344V22.5741H92.6453V25.1786H89.0344V30.5151H93.5803V33.1202H86.4048Z" fill="white"/>
<path fill-rule="evenodd" clip-rule="evenodd" d="M44.0874 36.83H93.6169V34.3003H44.0874V36.83Z" fill="white"/>
</svg>
