<svg width="146" height="40" viewBox="0 0 146 40" fill="none" xmlns="http://www.w3.org/2000/svg">
<path d="M75.1442 12.7791H79.2253V24.7187H75.1442V23.8318C74.2119 24.7187 72.9291 25.0677 71.9032 25.0677C68.3585 25.0677 66.0029 22.1289 66.0029 18.8411C66.0029 15.3659 68.4522 12.4286 72.0196 12.4286C72.2296 12.4286 72.4623 12.4513 72.7191 12.4754L73.9777 16.5792C73.6272 16.3933 73.2087 16.2755 72.7418 16.2755C71.2958 16.2755 70.2004 17.3483 70.2004 18.7474C70.2004 20.1465 71.2958 21.2193 72.7418 21.2193C74.1636 21.2193 75.1442 20.216 75.1442 18.7701V12.7791Z" fill="#EF7E00"/>
<path d="M110.186 12.7791H114.267V24.7187H110.186V23.8318C109.254 24.7187 107.971 25.0677 106.945 25.0677C103.4 25.0677 101.045 22.1289 101.045 18.8411C101.045 15.3659 103.494 12.4286 107.061 12.4286C107.271 12.4286 107.504 12.4513 107.761 12.4754L109.02 16.5792C108.669 16.3933 108.251 16.2755 107.784 16.2755C106.338 16.2755 105.242 17.3483 105.242 18.7474C105.242 20.1465 106.338 21.2193 107.784 21.2193C109.205 21.2193 110.186 20.216 110.186 18.7701V12.7791Z" fill="#EF7E00"/>
<path d="M65.7003 8V11.729H52.2196V8H65.7003ZM56.6648 12.3017H61.2536V25.2083H56.6648V12.3017Z" fill="#EF7E00"/>
<path d="M84.2233 8H88.6519V24.6054H84.2233V8ZM99.0291 16.3027C99.0291 21.4913 95.915 24.6054 90.7264 24.6054H89.2049V21.0063H90.7264C93.2165 21.0063 94.6005 19.3231 94.6005 16.3012C94.6005 13.2793 93.2165 11.5961 90.7264 11.5961H89.2049V8H90.7264C95.915 8 99.0291 11.1126 99.0291 16.3027Z" fill="#EF7E00"/>
<path d="M56.6924 29.6912C56.6924 28.1923 57.883 27.3341 59.3018 27.3341C60.0784 27.3341 60.636 27.6121 60.9986 27.9204L60.3217 28.6094C60.0648 28.4099 59.7868 28.2588 59.3441 28.2588C58.5599 28.2588 57.9963 28.7786 57.9963 29.6549C57.9963 30.5494 58.4678 31.0692 59.4514 31.0692C59.6433 31.0692 59.8442 31.0269 59.9576 30.9544V30.2291H59.116V29.3467H61.0908V31.4499C60.7206 31.7521 60.0633 31.9999 59.323 31.9999C57.8483 31.9999 56.6924 31.2142 56.6924 29.6912Z" fill="#EF7E00"/>
<path d="M70.3637 30.8818H68.7953L68.4886 31.9153H67.1907L68.8376 27.4202H70.3637L72.0106 31.9153H70.6704L70.3637 30.8818ZM70.1219 30.0477L70.0086 29.667C69.8666 29.2197 69.7306 28.6818 69.5886 28.2225H69.5598C69.4314 28.6939 69.2894 29.2197 69.1534 29.667L69.0401 30.0477H70.1219Z" fill="#EF7E00"/>
<path d="M78.3429 27.4202H79.7194L80.561 29.3602C80.6683 29.6201 80.7529 29.9042 80.8541 30.1822H80.8904C80.9976 29.9042 81.0823 29.6201 81.1835 29.3602L81.9964 27.4202H83.3804V31.9153H82.2185V30.3741C82.2185 29.9268 82.3182 29.256 82.3832 28.8148H82.3545L81.9118 29.8906L81.1986 31.5345H80.5005L79.7798 29.8906L79.3522 28.8148H79.3235C79.387 29.256 79.4882 29.9268 79.4882 30.3741V31.9153H78.3474V27.4202H78.3429Z" fill="#EF7E00"/>
<path d="M90.3732 27.4202H91.6499V31.9153H90.3732V27.4202Z" fill="#EF7E00"/>
<path d="M98.6456 27.4202H99.9435L101.263 29.5718L101.784 30.569H101.82C101.749 30.0915 101.649 29.4448 101.649 28.9069V27.4202H102.861V31.9153H101.563L100.252 29.7455L99.7305 28.7604H99.6942C99.7516 29.262 99.8589 29.8785 99.8589 30.4224V31.9153H98.6471V27.4202H98.6456Z" fill="#EF7E00"/>
<path d="M109.627 29.6912C109.627 28.1923 110.818 27.3341 112.237 27.3341C113.013 27.3341 113.571 27.6121 113.934 27.9204L113.257 28.6094C113 28.4099 112.722 28.2588 112.279 28.2588C111.495 28.2588 110.931 28.7786 110.931 29.6549C110.931 30.5494 111.403 31.0692 112.386 31.0692C112.578 31.0692 112.779 31.0269 112.892 30.9544V30.2291H112.051V29.3467H114.026V31.4499C113.654 31.7521 112.998 31.9999 112.256 31.9999C110.783 31.9999 109.627 31.2142 109.627 29.6912Z" fill="#EF7E00"/>
<path fill-rule="evenodd" clip-rule="evenodd" d="M46.8137 17.1382L47.956 15.7088C47.956 15.7088 48.1479 14.8053 47.5269 14.2795C47.5269 14.2795 46.8076 13.4288 45.3843 14.2795C45.3843 14.2795 44.0199 15.1362 42.3836 18.7081L34.6686 13.9939C34.6686 13.9939 33.5399 13.0284 32.6681 14.1375C32.6681 14.1375 31.7782 15.2707 32.9537 16.138L36.6691 18.5661V18.7096C36.6691 18.7096 36.24 18.6749 35.6689 19.2807C35.6689 19.2807 35.0267 20.1299 35.6689 20.9957C35.6689 20.9957 34.8454 20.9639 34.5266 22.138C34.5266 22.138 34.3649 22.7333 34.9557 23.1382C34.9557 23.1382 33.9313 23.6398 34.241 24.8531C34.241 24.8531 34.7835 25.5633 35.2413 25.8534C35.2413 25.8534 38.4415 27.8025 39.3843 28.1395C39.3843 28.1395 40.5206 28.5278 41.2413 28.425L45.9555 22.5671C45.957 22.5671 45.5732 18.9922 46.8137 17.1382Z" fill="url(#paint0_linear_18578_228671)"/>
<path fill-rule="evenodd" clip-rule="evenodd" d="M42.7689 13.2536C42.9956 13.3382 43.2479 13.2233 43.3325 12.9982L44.4567 10.008C44.5413 9.7829 44.4265 9.53209 44.1998 9.44898C43.9732 9.36437 43.7208 9.4792 43.6362 9.70433L42.5121 12.6945C42.4275 12.9196 42.5423 13.1705 42.7689 13.2536Z" fill="#EDA823"/>
<path fill-rule="evenodd" clip-rule="evenodd" d="M37.4897 12.9983C37.5744 13.2234 37.8267 13.3382 38.0533 13.2536C38.28 13.169 38.3948 12.9197 38.3102 12.693L37.186 9.70287C37.1014 9.47774 36.8491 9.3629 36.6225 9.44752C36.3958 9.53213 36.281 9.78144 36.3656 10.0066L37.4897 12.9983Z" fill="#EDA823"/>
<path fill-rule="evenodd" clip-rule="evenodd" d="M39.9901 12.1626C39.9901 12.4028 40.1865 12.5993 40.4283 12.6008C40.67 12.6023 40.8665 12.4074 40.8665 12.1671V8.97298C40.8665 8.73273 40.67 8.53631 40.4283 8.5348C40.1865 8.53329 39.9901 8.7282 39.9901 8.96844V12.1626Z" fill="#EDA823"/>
<defs>
<linearGradient id="paint0_linear_18578_228671" x1="39.6944" y1="12.5233" x2="42.4605" y2="28.2104" gradientUnits="userSpaceOnUse">
<stop stop-color="#F5B043"/>
<stop offset="1" stop-color="#ED6D20"/>
</linearGradient>
</defs>
</svg>
