<svg width="146" height="40" viewBox="0 0 146 40" fill="none" xmlns="http://www.w3.org/2000/svg">
<path d="M42.2791 13.4626V15.9132H44.1883V26.033H46.7854V15.9132H48.6986V13.4626H42.2791Z" fill="white"/>
<path d="M70.4525 13.4626V26.033H76.4038V23.5865H73.0496V20.9731H75.7077V18.5225H73.0496V15.9132H76.4038V13.4626H70.4525Z" fill="white"/>
<path d="M81.7527 11.5168H79.1556V24.0872H85.1069V21.6366H81.7527V11.5168Z" fill="white"/>
<path d="M102.648 19.3774C103.16 18.7546 103.47 17.9526 103.47 17.0815C103.47 15.0828 101.85 13.4626 99.851 13.4626H97.0504V26.033H99.9161C102.065 26.033 103.808 24.2907 103.808 22.1414C103.8 21.0626 103.36 20.0816 102.648 19.3774ZM99.7004 15.9132C100.348 15.9132 100.869 16.4383 100.869 17.0815C100.869 17.7287 100.344 18.2498 99.7004 18.2498H99.6475V15.9091H99.7004V15.9132ZM101.202 22.1414C101.202 22.9392 100.555 23.5824 99.7614 23.5824H99.6475V20.6963H99.7614C100.559 20.7003 101.202 21.3476 101.202 22.1414Z" fill="white"/>
<path d="M58.4398 18.0625C58.4398 15.5224 56.38 13.4626 53.8399 13.4626H52.0162H51.0352V26.033H53.6323V22.6584H53.8358C54.0109 22.6584 54.1818 22.6461 54.3487 22.6299L56.0299 26.033H58.9283L56.7504 21.6163C57.7844 20.7736 58.4398 19.4954 58.4398 18.0625ZM53.6404 20.2119V15.9132H53.6934C54.882 15.9132 55.8427 16.8739 55.8427 18.0625C55.8427 19.2512 54.882 20.2119 53.6934 20.2119H53.6404Z" fill="white"/>
<path d="M65.421 22.7479C65.421 23.4033 64.8878 23.9366 64.2324 23.9366C63.5729 23.9366 63.0438 23.4033 63.0438 22.7479V13.4626H60.4467V22.5973C60.4467 24.6896 62.1441 26.3871 64.2365 26.3871C66.3288 26.3871 68.0263 24.6896 68.0263 22.5973V13.4626H65.4292V22.7479H65.421Z" fill="white"/>
<path d="M104.451 27.8201H78.2437V28.85H104.451V27.8201Z" fill="white"/>
<path d="M104.451 11H78.2437V12.0299H104.451V11Z" fill="white"/>
<path d="M92.2388 27.9709H94.8969L92.1859 15.4006H88.9985L86.2874 27.9709H88.9456L89.2509 26.5299H91.9335L92.2388 27.9709ZM89.7719 24.0794L90.5901 20.2244L91.4084 24.0794H89.7719Z" fill="white"/>
</svg>
