<svg width="144" height="48" viewBox="0 0 144 48" fill="none" xmlns="http://www.w3.org/2000/svg">
<mask id="mask0_2588_186883" style="mask-type:luminance" maskUnits="userSpaceOnUse" x="37" y="14" width="70" height="20">
<path d="M107 14H37V33.9439H107V14Z" fill="white"/>
</mask>
<g mask="url(#mask0_2588_186883)">
<path d="M46.9864 14C41.4701 14 37 18.3925 37 23.8131C37 29.2336 41.4701 33.6262 46.9864 33.6262C52.5027 33.6262 56.9728 29.2336 56.9728 23.8131C56.9728 18.3925 52.5027 14 46.9864 14ZM54.4049 28.2617L51.5707 31.0467C51.1712 31.4393 50.5435 31.4393 50.144 31.0467L46.9484 27.9065L43.7527 31.0467C43.3533 31.4393 42.7255 31.4393 42.3261 31.0467L39.4918 28.2617C39.0924 27.8692 39.0924 27.2523 39.4918 26.8598L42.6875 23.7196L39.4918 20.5794C39.0924 20.1869 39.0924 19.5701 39.4918 19.1776L42.3261 16.3925C42.7255 16 43.3533 16 43.7527 16.3925L46.9484 19.5327L50.144 16.3925C50.5435 16 51.1712 16 51.5707 16.3925L54.4049 19.1776C54.8043 19.5701 54.8043 20.1869 54.4049 20.5794L51.2092 23.7196L54.4049 26.8598C54.8043 27.2523 54.8043 27.8692 54.4049 28.2617Z" fill="#FF003A"/>
<path d="M102.245 14C99.6197 14 97.4893 16.0935 97.4893 18.6729C97.4893 21.2523 99.6197 23.3458 102.245 23.3458C104.87 23.3458 107 21.2523 107 18.6729C107 16.0935 104.87 14 102.245 14ZM104.432 19.6075C104.546 19.7196 104.546 19.9065 104.432 20.0187L103.595 20.8411C103.481 20.9533 103.291 20.9533 103.177 20.8411L102.245 19.9252L101.313 20.8411C101.198 20.9533 101.008 20.9533 100.894 20.8411L100.057 20.0187C99.9431 19.9065 99.9431 19.7196 100.057 19.6075L100.989 18.6916L100.057 17.7757C99.9431 17.6636 99.9431 17.4766 100.057 17.3645L100.894 16.5421C101.008 16.4299 101.198 16.4299 101.313 16.5421L102.245 17.4579L103.177 16.5421C103.291 16.4299 103.481 16.4299 103.595 16.5421L104.432 17.3645C104.546 17.4766 104.546 17.6636 104.432 17.7757L103.5 18.6916L104.432 19.6075Z" fill="white"/>
<path d="M72.4564 25.5889H75.1194C75.2335 25.5889 75.3477 25.6636 75.3857 25.7758L78.3531 33.5702C78.4292 33.7571 78.277 33.944 78.0868 33.944H75.614C75.4998 33.944 75.3857 33.8692 75.3477 33.7571L75.1004 33.0842C75.0623 32.972 74.9482 32.8973 74.8341 32.8973H72.7417C72.6276 32.8973 72.5134 32.972 72.4754 33.0842L72.2281 33.7571C72.1901 33.8692 72.0759 33.944 71.9618 33.944H69.508C69.3178 33.944 69.1656 33.7571 69.2417 33.5702L72.1901 25.7571C72.2281 25.6636 72.3422 25.5889 72.4564 25.5889ZM74.3585 30.9907C74.5488 30.9907 74.6819 30.8038 74.6248 30.6356L73.8069 28.1496H73.7498L72.9509 30.6356C72.8939 30.8225 73.027 30.9907 73.2172 30.9907H74.3585Z" fill="white"/>
<path d="M79.6086 25.5889H81.5678C81.6629 25.5889 81.739 25.6263 81.7961 25.701L84.1357 28.8038C84.2499 28.9534 84.4781 28.9534 84.5923 28.8038L86.9319 25.701C86.989 25.6263 87.0651 25.5889 87.1602 25.5889H89.1004C89.2526 25.5889 89.3857 25.7197 89.3857 25.8692V33.6636C89.3857 33.8132 89.2526 33.944 89.1004 33.944H86.7988C86.6466 33.944 86.5135 33.8132 86.5135 33.6636V32.0188L86.5325 30.2991H86.4944L85.239 31.9814C85.1819 32.0562 85.1058 32.0935 85.0107 32.0935H83.6792C83.5841 32.0935 83.508 32.0562 83.451 31.9814L82.1955 30.2805L82.1575 30.2991L82.1765 32.0188V33.6636C82.1765 33.8132 82.0434 33.944 81.8912 33.944H79.6086C79.4564 33.944 79.3232 33.8132 79.3232 33.6636V25.8692C79.3232 25.701 79.4374 25.5889 79.6086 25.5889Z" fill="white"/>
<path d="M104.204 28.8974H101.484C101.484 28.8974 100.894 28.9348 100.894 28.4301C100.894 27.9255 101.484 27.9255 101.484 27.9255H106.715C106.867 27.9255 107 27.7946 107 27.6451V25.8507C107 25.7012 106.867 25.5703 106.715 25.5703H101.312C99.9239 25.5703 98.4973 25.5703 98.4973 28.3367C98.4973 30.8413 99.8668 30.617 101.274 30.617H103.995C103.995 30.617 104.603 30.617 104.603 31.0843C104.603 31.5516 104.014 31.5703 104.014 31.5703H97.1848C97.1848 31.5703 97.1848 31.5703 97.1657 31.5703H92.7337V30.8974C92.7337 30.7479 92.8668 30.617 93.019 30.617H95.7581C95.9103 30.617 96.0435 30.4862 96.0435 30.3367V29.1404C96.0435 28.9909 95.9103 28.86 95.7581 28.86H92.7337V28.2058C92.7337 28.0563 92.8668 27.9255 93.019 27.9255H97.1657C97.3179 27.9255 97.4511 27.7946 97.4511 27.6451V25.8507C97.4511 25.7012 97.3179 25.5703 97.1657 25.5703H90.6413C90.4891 25.5703 90.356 25.7012 90.356 25.8507V33.6451C90.356 33.7946 90.4891 33.9255 90.6413 33.9255H96.6712H97.1848H104.185C105.63 33.9255 106.981 33.9255 106.981 31.1591C107 28.6731 105.554 28.8974 104.204 28.8974Z" fill="white"/>
<path d="M84.8589 23.1401L83.2611 20.5232C83.185 20.4111 83.0709 20.3363 82.9377 20.3363H82.0817C81.8725 20.3363 81.7013 20.5045 81.7013 20.7101V22.9344C81.7013 23.14 81.5301 23.3083 81.3209 23.3083H79.1334C78.9241 23.3083 78.7529 23.14 78.7529 22.9344V14.3924C78.7529 14.1868 78.9241 14.0186 79.1334 14.0186H84.5736C86.7611 14.0186 87.8643 15.6073 87.8643 17.1774C87.8643 18.2615 87.3508 19.3457 86.3236 19.9251C86.3046 19.9438 86.2855 19.9812 86.3046 19.9999L87.9214 22.7662C88.0736 23.0092 87.8834 23.327 87.579 23.327H85.1823C85.0491 23.327 84.935 23.2709 84.8589 23.1401ZM81.7013 18.1494C81.7013 18.1681 81.7203 18.1868 81.7393 18.1868H83.8888C84.6116 18.1868 84.973 17.6821 84.973 17.1774C84.973 16.6728 84.6116 16.1681 83.8888 16.1681H82.0817C81.8725 16.1681 81.7013 16.3363 81.7013 16.5419V18.1494Z" fill="white"/>
<path d="M96.0436 18.5421C96.0246 18.5234 96.0246 18.5234 96.0246 18.5047C96.0246 18.486 96.0246 18.486 96.0436 18.4673C96.5002 18 96.7665 17.2523 96.7665 16.5047C96.7665 14.7664 95.6252 14 94.4839 14H89.2529C88.9866 14 88.7773 14.2056 88.7773 14.4673V22.8785C88.7773 23.1402 88.9866 23.3458 89.2529 23.3458H94.4839C96.2148 23.3458 96.9947 21.9626 96.9947 20.6916C96.9947 19.8131 96.6333 19.028 96.0436 18.5421ZM93.4567 17.9252H91.4023V16.4112C91.4023 16.2617 91.5355 16.1308 91.6877 16.1308H93.4567C94.1224 16.1308 94.4268 16.5794 94.4268 17.028C94.4268 17.4766 94.1224 17.9252 93.4567 17.9252ZM91.6877 19.5701H93.4567C94.1224 19.5701 94.4268 20.0187 94.4268 20.4673C94.4268 20.8972 94.1224 21.3645 93.4567 21.3645H91.4023V19.8505C91.4023 19.7009 91.5355 19.5701 91.6877 19.5701Z" fill="white"/>
<path d="M68.4241 28.9344H65.3426C65.0953 28.9344 64.9051 29.1213 64.9051 29.3643V30.411C64.9051 30.654 65.0953 30.8409 65.3426 30.8409H66.3697C66.4078 30.8409 66.4458 30.8783 66.4458 30.9157V31.4578C66.4458 31.4764 66.4268 31.5138 66.4078 31.5325C66.1225 31.6821 65.7991 31.7568 65.3806 31.7568H65.3235C64.4295 31.7568 63.973 31.7381 63.5545 31.7194C62.6795 31.6634 62.0328 30.8596 62.0328 29.8129V29.7942C62.0328 28.897 62.6034 28.1493 63.4784 27.9064C63.6877 27.8503 67.0545 27.8316 68.329 27.8503C68.5382 27.8503 68.6904 27.6821 68.6904 27.4951C68.6904 26.9531 68.6904 25.9811 68.6904 25.9811C68.6904 25.7755 68.5192 25.626 68.329 25.626C67.0355 25.626 63.5355 25.626 63.4594 25.6447C61.1388 25.8129 59.4648 27.5699 59.4648 29.7942V29.8129C59.4648 32.2615 60.7203 33.7755 62.9078 33.9437C63.0029 33.9437 63.7257 33.9624 64.829 33.9624C65.2665 33.9624 65.6089 33.9624 65.6659 33.9624C65.704 33.9624 65.742 33.9624 65.7991 33.9624C66.9594 33.9624 68.7475 32.8222 68.8806 32.4858C68.8996 32.4484 68.8806 29.4017 68.8806 29.4017C68.8616 29.1213 68.6714 28.9344 68.4241 28.9344Z" fill="white"/>
<path d="M67.2444 14H59.9971C59.7879 14 59.6167 14.1682 59.6167 14.3738V16.5047C59.6167 16.7103 59.7879 16.8785 59.9971 16.8785H61.7662C61.9754 16.8785 62.1466 17.0467 62.1466 17.2523V22.972C62.1466 23.1776 62.3178 23.3458 62.527 23.3458H64.6955C64.9047 23.3458 65.0759 23.1776 65.0759 22.972V17.271C65.0759 17.0654 65.2471 16.8972 65.4564 16.8972H67.2254C67.4346 16.8972 67.6058 16.729 67.6058 16.5234V14.3738C67.6249 14.1682 67.4537 14 67.2444 14Z" fill="white"/>
<path d="M75.1767 14.0186C74.9675 14.0186 74.7963 14.1868 74.7963 14.3924V20.112C74.7963 20.5045 74.6441 20.6541 74.2256 20.6541H72.1523C71.7338 20.6541 71.5816 20.5045 71.5816 20.112V14.3924C71.5816 14.1868 71.4104 14.0186 71.2012 14.0186H68.9566C68.7474 14.0186 68.5762 14.1868 68.5762 14.3924V20.4858C68.5762 21.4765 68.8235 22.2055 69.299 22.6541C69.7745 23.1214 70.5544 23.3457 71.5816 23.3457H74.7582C75.7854 23.3457 76.5653 23.1027 77.0408 22.6541C77.5164 22.1868 77.7637 21.4578 77.7637 20.4858V14.3924C77.7637 14.1868 77.5925 14.0186 77.3832 14.0186H75.1767Z" fill="white"/>
</g>
</svg>
