<svg width="144" height="48" viewBox="0 0 144 48" fill="none" xmlns="http://www.w3.org/2000/svg">
<path d="M36.476 28.5288L27.6187 19.8601C27.543 19.7876 27.4912 19.6946 27.4701 19.5931C27.449 19.4915 27.4595 19.3861 27.5003 19.2905C27.541 19.1949 27.6102 19.1134 27.6988 19.0565C27.7875 18.9997 27.8915 18.9701 27.9975 18.9716H36.8611C37.1578 18.9716 37.3977 19.2061 37.3977 19.4899V28.1586C37.3977 28.609 36.8296 28.8496 36.4823 28.5288H36.476ZM38.4773 28.1586V19.4899C38.4773 19.2061 38.7172 18.9716 39.0076 18.9716H47.8712C48.3573 18.9716 48.5972 19.5269 48.25 19.8601L39.3864 28.5288C39.0455 28.8496 38.4773 28.609 38.4773 28.1586ZM49.3359 28.1586V19.4899C49.3359 19.2061 49.5758 18.9716 49.8725 18.9716H58.7361C59.2159 18.9716 59.4621 19.5269 59.1149 19.8601L50.2513 28.5288C49.904 28.8496 49.3359 28.609 49.3359 28.1586ZM71.4381 18.9531V24.9379L69.3043 20.7054H68.0859L65.9142 24.9873V18.9531H63.9886V28.6768H65.8952L68.6667 23.3831L71.4571 28.6768H73.351V18.9531H71.4381ZM78.7046 21.7481L79.822 25.1724H77.5682L78.7046 21.7481ZM77.745 18.9531L74.2854 28.6645H76.4381L77.0442 26.8259H80.3649L80.9647 28.6645H83.1174L79.6515 18.9531H77.745ZM83.5088 18.9531V20.6375H87.5556L83.5088 27.3812V28.6768H90.2197V27.011H86.072L90.0871 20.2488V18.9531H83.5088ZM96.8674 24.4505V23.1857C96.8674 21.5198 96.4003 20.6375 95.0619 20.6375H93.5467V27.011H95.0619C96.4003 27.011 96.8674 26.1349 96.8674 24.4505ZM91.5328 28.6768V18.9716H95.0619C97.3157 18.9716 98.8813 20.1007 98.8813 23.198V24.4628C98.8813 27.5478 97.3157 28.6954 95.0619 28.6954H91.5265V28.6768H91.5328ZM103.629 21.7481L104.753 25.1724H102.499L103.635 21.7481H103.629ZM102.676 18.9531L99.2159 28.6645H101.362L101.968 26.8259H105.289L105.895 28.6645H108.042L104.601 18.9531H102.676ZM114.563 18.9531V25.0551L110.674 18.9531H109.001V28.6768H110.914V22.6612L114.784 28.6768H116.476V18.9531H114.563Z" fill="white"/>
</svg>
