<svg width="146" height="40" viewBox="0 0 146 40" fill="none" xmlns="http://www.w3.org/2000/svg">
<path d="M119.481 15.4452H121.529V22.7571H125.873V24.5851H119.481V15.4452ZM115.726 24.5851H117.773V15.4452H115.726V24.5851ZM106.815 23.1928C107.902 24.1391 109.308 24.6597 110.764 24.6547C112.772 24.6547 114.181 23.6363 114.181 21.8219V21.7959C114.181 20.2027 113.118 19.5374 111.23 19.0537C109.622 18.6491 109.222 18.4528 109.222 17.8531V17.8271C109.222 17.3824 109.634 17.0305 110.419 17.0305C111.301 17.0838 112.144 17.3979 112.839 17.9312L113.903 16.4166C112.925 15.6462 111.701 15.2351 110.446 15.2546C108.544 15.2546 107.187 16.3516 107.187 18.0098V18.0359C107.187 19.8508 108.398 20.3594 110.272 20.8302C111.828 21.2217 112.148 21.4825 112.148 21.9917V22.0177C112.148 22.5529 111.642 22.8793 110.804 22.8793C109.771 22.851 108.784 22.4565 108.026 21.7693L106.816 23.1928H106.815ZM106.397 24.6179L102.407 15.413H100.519L96.5292 24.6179H98.6176L101.436 17.8288L102.661 20.7775H101.017L100.29 22.5455H103.395L104.255 24.6185L106.397 24.6179ZM81.8906 15.4452C84.8162 15.4452 86.8374 17.4169 86.8374 19.9889V20.0149C86.8374 22.5868 84.8162 24.5845 81.8906 24.5845H78.6924V15.4452H81.8911H81.8906ZM84.697 20.0149C84.7168 19.649 84.6579 19.2831 84.524 18.9408C84.3902 18.5986 84.1844 18.2876 83.92 18.028C83.6555 17.7683 83.3384 17.5658 82.9889 17.4334C82.6394 17.3011 82.2655 17.2419 81.8911 17.2596H80.7396V22.7702H81.8911C82.2639 22.7909 82.6369 22.7346 82.9859 22.6051C83.335 22.4755 83.6522 22.2754 83.9169 22.018C84.1816 21.7606 84.3878 21.4516 84.5223 21.111C84.6567 20.7704 84.7162 20.406 84.697 20.0415V20.0149ZM74.1193 19.8265V21.3993H75.0839V22.3651C74.5164 22.7419 73.8416 22.9337 73.1559 22.9133C72.7721 22.9172 72.3917 22.8437 72.0383 22.6976C71.6848 22.5514 71.3659 22.3357 71.1015 22.0637C70.8371 21.7918 70.6328 21.4696 70.5013 21.1171C70.3698 20.7646 70.314 20.3894 70.3373 20.0149V19.9889C70.3079 19.2655 70.5725 18.5601 71.0733 18.0268C71.5741 17.4935 72.2703 17.1756 73.01 17.1425C73.9146 17.1244 74.7896 17.4576 75.4433 18.0692L76.7331 16.5417C75.7303 15.6696 74.4162 15.2193 73.076 15.2885C72.4357 15.2765 71.7993 15.3901 71.2047 15.6228C70.6101 15.8555 70.0693 16.2025 69.6143 16.6432C69.1593 17.0839 68.7993 17.6094 68.5558 18.1885C68.3122 18.7677 68.19 19.3887 68.1963 20.0149V20.0409C68.1763 20.6706 68.2899 21.2975 68.53 21.8822C68.77 22.4669 69.1312 22.9966 69.5909 23.4381C70.0506 23.8796 70.5988 24.2233 71.201 24.4474C71.8032 24.6716 72.4463 24.7715 73.0899 24.7407C74.551 24.7449 75.9639 24.23 77.0658 23.2918V19.8259L74.1193 19.8265ZM63.8946 19.8265V21.3993H64.8592V22.3651C64.2916 22.7419 63.6168 22.9337 62.9311 22.9133C62.5474 22.9172 62.167 22.8437 61.8135 22.6976C61.4601 22.5514 61.1412 22.3357 60.8768 22.0637C60.6124 21.7918 60.408 21.4696 60.2766 21.1171C60.1451 20.7646 60.0892 20.3894 60.1125 20.0149V19.9889C60.0832 19.2655 60.3478 18.5601 60.8486 18.0268C61.3493 17.4935 62.0456 17.1756 62.7853 17.1425C63.6898 17.1246 64.5647 17.4579 65.2185 18.0692L66.5083 16.5417C65.5055 15.6696 64.1915 15.2194 62.8513 15.2885C62.2109 15.2764 61.5746 15.39 60.9799 15.6227C60.3853 15.8553 59.8444 16.2023 59.3894 16.643C58.9344 17.0837 58.5744 17.6092 58.3309 18.1884C58.0873 18.7676 57.9651 19.3887 57.9715 20.0149V20.0409C57.9516 20.6706 58.0652 21.2975 58.3052 21.8822C58.5453 22.4669 58.9065 22.9966 59.3662 23.4381C59.8259 23.8796 60.3741 24.2233 60.9763 24.4474C61.5784 24.6716 62.2216 24.7715 62.8652 24.7407C64.3263 24.7447 65.7391 24.2298 66.8411 23.2918V19.8259L63.8946 19.8265ZM52.5693 24.5845H54.6171V21.6358L58.1937 15.4447H55.867L53.6062 19.5114L51.3859 15.4447H48.9921L52.5693 21.6748V24.5845ZM93.6169 21.3201C94.2208 21.1267 94.7431 20.7448 95.1035 20.233C95.464 19.7213 95.6426 19.108 95.6121 18.4873V18.4613C95.628 18.0787 95.5656 17.6969 95.4286 17.3382C95.2915 16.9795 95.0826 16.6512 94.8141 16.3725C94.448 16.0488 94.0193 15.8 93.5533 15.6407C93.0873 15.4815 92.5935 15.415 92.1008 15.4452H88.1533V24.5851H90.2011V17.2602H91.9278C92.9254 17.2602 93.537 17.7049 93.537 18.566V18.592C93.537 19.362 92.9647 19.8848 91.9671 19.8848H90.9597V21.6607H91.5037L93.4983 24.5851H95.8921L93.6169 21.3201Z" fill="white"/>
<path d="M42.001 20.6419C41.9476 21.5201 41.7889 22.3887 41.5283 23.2289C37.5034 22.9876 33.7291 21.1897 31.001 18.2139C28.2734 21.1894 24.4999 22.9875 20.4756 23.2293C20.2155 22.389 20.0561 21.5206 20.001 20.6424C21.3605 20.5944 22.704 20.3322 23.9821 19.8655C22.8635 18.9341 21.5769 18.2266 20.1922 17.7812C20.3632 16.9258 20.6352 16.0938 21.0025 15.3028C23.0639 15.9692 24.9428 17.1064 26.491 18.6246C27.4186 18.0332 28.2679 17.3268 29.0189 16.5222C26.5068 16.0829 24.212 14.8179 22.4967 12.9266C23.0494 12.2523 23.6804 11.6465 24.3763 11.122C25.3752 12.2389 26.6389 13.0854 28.0506 13.5832C27.5327 12.3259 27.182 11.0057 27.0076 9.65663C27.8263 9.33853 28.6798 9.11925 29.5502 9.00342C29.7243 10.6632 30.217 12.2736 31.001 13.746C31.7856 12.2726 32.2784 10.661 32.4523 9C33.3229 9.11493 34.1766 9.33458 34.9948 9.65419C34.8201 11.0036 34.4694 12.3243 33.9518 13.5823C35.3623 13.0842 36.6251 12.2387 37.6242 11.1234C38.3206 11.6467 38.9525 12.251 39.5067 12.9237C37.7909 14.8156 35.4955 16.0812 32.9825 16.5207C33.734 17.3252 34.5837 18.0316 35.5114 18.6231C37.0596 17.1049 38.9385 15.9678 41 15.3013C41.3652 16.093 41.6361 16.925 41.8073 17.7802C40.4238 18.2258 39.1385 18.9332 38.0208 19.864C39.2986 20.3309 40.6418 20.5934 42.001 20.6419ZM32.3005 30.9222V27.2151L36.0373 22.3326C35.2322 21.9775 34.4575 21.5568 33.7211 21.0746L31 24.6306L28.2789 21.0746C27.5426 21.5569 26.7679 21.9777 25.9627 22.3326L29.699 27.2151V30.9241C30.5631 31.0259 31.4361 31.0253 32.3001 30.9222H32.3005Z" fill="#FA6432"/>
</svg>
